<svg preserveAspectRatio="none" width="100%" height="100%" overflow="visible" style="display: block;" viewBox="0 0 63.047 80" fill="none" xmlns="http://www.w3.org/2000/svg">
<g id="Illustration">
<g id="Group">
<g id="Vector">
</g>
<path id="Vector_2" d="M55.0671 66.095C55.0671 66.095 55.0754 66.0868 55.0795 66.0806C55.0651 66.054 55.0507 66.0274 55.0363 66.0008C54.7774 64.8346 54.4692 63.6867 54.1733 62.5778C54.1363 62.4284 54.0993 62.2791 54.0644 62.1297C54.0644 62.1113 54.0623 62.0949 54.0582 62.0765C53.4397 59.0217 52.4986 55.9956 51.1609 53.1741C51.1732 53.172 51.1835 53.17 51.1938 53.1679C50.6965 52.0324 50.1212 50.9336 49.4102 49.8983C46.7738 46.3239 42.6375 44.5867 38.5504 43.2016C34.3935 41.8246 30.1893 40.5867 25.9707 39.4143C24.9762 39.1238 23.9837 38.8271 22.981 38.5672C22.9111 38.5406 22.8351 38.5181 22.757 38.4997C22.644 38.4261 22.5022 38.3626 22.3296 38.3197C21.0987 37.6854 19.985 36.8301 19.0747 35.7907C14.9856 30.8393 13.802 23.7005 15.9617 17.6749C16.0665 17.1163 16.5863 16.5086 16.5966 15.9685C16.9685 15.7639 17.3261 15.3158 17.6199 15.105C19.0809 13.7567 20.2296 12.0544 20.8522 10.1658C20.9405 9.91009 21.0063 9.64614 21.0885 9.38629C21.1357 9.3597 21.1809 9.32491 21.2241 9.28195C21.5015 9.01186 21.7994 8.76634 22.0974 8.51876C23.3858 7.46504 24.7358 6.48702 26.0324 5.44149C27.7358 4.27523 28.7386 2.22303 26.8913 0.668023C24.181 -1.61947 19.5638 2.577 17.2562 4.12791C16.0213 5.02204 15.9206 4.42459 14.9754 3.63891C13.4938 2.42968 11.5273 2.64043 9.78896 3.03532C9.55882 3.05782 9.37594 2.90028 9.20128 2.77547C8.68141 2.40922 8.03003 2.19234 7.39097 2.27009C4.29845 2.59337 2.57651 5.69111 2.29911 8.51672C2.18609 9.7464 2.39363 10.9699 2.50664 12.1894C2.57034 12.5127 2.38541 12.8994 2.35664 13.2329C1.82444 14.3296 0.681954 17.368 0.60387 18.9762C0.575103 19.0887 0.568938 19.2074 0.581267 19.322C0.540171 19.8458 0.464142 20.3696 0.392223 20.8893C0.213453 22.1599 0.0675596 23.4387 0.0100244 24.7195C-0.209842 32.7605 3.20323 40.7872 8.65675 46.6512C11.2746 49.1106 14.2541 51.2978 17.5233 52.8324C18.5816 53.6672 18.8939 55.1158 19.1898 56.3639C19.4199 57.5117 19.5309 58.6821 19.611 59.8483C19.6254 59.9159 19.6337 59.9854 19.6398 60.0591C19.7323 60.0366 19.8227 60.0161 19.9152 59.9957C20.5563 59.8524 21.2179 59.746 21.8631 59.9199C22.2042 60.012 22.5207 60.2003 22.8084 60.3987C23.0262 60.5481 23.2255 60.7179 23.4228 60.8939C23.7228 61.1599 24.0084 61.4443 24.3063 61.7123C24.5426 61.9169 24.7872 62.1133 25.044 62.2913C25.1899 62.3875 25.3399 62.4755 25.4961 62.5553C25.6461 62.6269 25.7981 62.6903 25.9543 62.7476C26.1844 62.8233 26.4187 62.8867 26.6571 62.9379C27.1338 63.03 27.6187 63.0934 28.0975 63.1711C28.6482 63.2591 29.1968 63.3655 29.7414 63.4801C30.0927 63.5538 30.4421 63.6295 30.7934 63.7011C30.8078 63.7031 30.8201 63.7072 30.8345 63.7093C31.9482 63.9343 33.064 64.1328 34.188 64.2944C35.3017 64.454 36.4175 64.5972 37.5312 64.7589C38.6717 64.9246 39.8121 65.0822 40.9505 65.2643C41.497 65.3522 42.0436 65.4464 42.5882 65.5487C43.1142 65.6469 43.6402 65.7512 44.1663 65.8412C44.158 65.8146 44.1478 65.7881 44.1396 65.7615C43.9608 65.254 43.7656 64.7527 43.5848 64.2474C43.3752 63.6663 43.1758 63.0811 42.9786 62.4959C42.7608 61.8514 42.5471 61.2049 42.3231 60.5624C42.3313 60.5849 42.3375 60.6054 42.3457 60.6279C42.3395 60.6115 42.3354 60.5972 42.3293 60.5808C42.3251 60.5726 42.3231 60.5624 42.319 60.5522C42.319 60.5522 42.319 60.5542 42.319 60.5563C42.319 60.5563 42.319 60.5542 42.319 60.5522C42.319 60.5501 42.319 60.5481 42.3169 60.546C42.3128 60.5338 42.3087 60.5235 42.3046 60.5113C42.1608 60.102 42.0087 59.6949 41.8546 59.2898C41.7744 59.079 41.6943 58.8683 41.6142 58.6596C41.5772 58.5614 41.5381 58.4611 41.5012 58.3629C41.4498 58.2279 41.3881 58.0908 41.3512 57.9496C41.308 57.7818 41.3162 57.6079 41.384 57.4483C41.4621 57.2662 41.6101 57.1168 41.7929 57.0411C41.9512 56.9736 42.132 56.9634 42.2964 57.0084C42.4793 57.0596 42.6683 57.1885 42.7567 57.3603C42.7998 57.4442 42.8347 57.5261 42.8676 57.614C42.8902 57.6734 42.9128 57.7348 42.9354 57.7941C42.9786 57.9066 43.0197 58.0212 43.0628 58.1337C43.1512 58.3711 43.2395 58.6084 43.3258 58.8458C43.5128 59.3634 43.6957 59.8831 43.8724 60.4049C44.2423 61.4893 44.5875 62.5798 44.9471 63.6683C45.1197 64.1901 45.3067 64.7118 45.4382 65.2479C45.5081 65.5364 45.5656 65.829 45.5882 66.1257C45.5985 66.2566 45.6026 66.3875 45.5964 66.5185C45.5903 66.6617 45.5697 66.7927 45.5225 66.9277C45.4855 67.1262 45.3745 67.3083 45.2142 67.431C45.13 67.4965 45.0314 67.5456 44.9286 67.5722C44.8567 67.5927 44.7868 67.5988 44.7149 67.5988C44.6759 67.5988 44.6368 67.5988 44.5957 67.5947C44.4396 67.5845 44.2875 67.5395 44.1354 67.5047C43.0443 67.2878 41.9491 67.073 40.8518 66.8847C39.7176 66.6904 38.5792 66.5083 37.4408 66.3384C36.3271 66.1707 35.2093 66.0213 34.0955 65.8556C33.5181 65.7696 32.9428 65.6796 32.3695 65.5691C31.7674 65.4545 31.1654 65.3277 30.5674 65.1947C29.7578 65.0146 28.9544 64.81 28.1406 64.6423C28.1365 64.6423 28.1324 64.6423 28.1283 64.6402C28.1324 64.6402 28.1365 64.6402 28.1406 64.6423C28.1365 64.6423 28.1324 64.6423 28.1283 64.6402C28.1139 64.6382 28.0996 64.6341 28.0872 64.632C27.5653 64.5277 27.0434 64.4336 26.5214 64.3251C25.9934 64.2146 25.4735 64.0714 24.9803 63.8525C24.3659 63.5803 23.807 63.1977 23.3015 62.7599C22.9954 62.4898 22.7056 62.2034 22.3995 61.9312C22.2433 61.7962 22.083 61.6673 21.9145 61.5507C21.8262 61.4934 21.7378 61.4422 21.6453 61.3931C21.5878 61.3665 21.5303 61.3399 21.4727 61.3174C21.4398 61.3072 21.407 61.299 21.372 61.2908C21.3063 61.2785 21.2385 61.2703 21.1727 61.2642C21.0659 61.2601 20.9611 61.2601 20.8542 61.2642C20.4165 61.299 19.9809 61.3645 19.5412 61.3972C19.3583 61.4115 19.1754 61.4218 18.9925 61.4156C18.3761 61.7082 17.7206 61.6039 17.061 61.4995C16.6459 61.434 16.2267 61.3665 15.8158 61.4013C14.3158 61.3911 12.6185 61.9496 11.9465 63.3921C11.5931 64.0571 11.7061 64.8223 11.5808 65.5343C10.241 67.9426 9.19306 69.5937 10.1075 72.4439C10.3088 73.293 10.0047 74.136 10.0212 74.9851C10.126 76.2189 10.8575 77.4629 12.0143 77.9805C12.5856 78.2465 13.2287 78.2772 13.8205 78.4798C15.5918 79.3228 17.5069 79.9386 19.4857 79.9918C19.6152 79.9959 19.7446 80 19.872 80C21.8036 80 23.6755 79.4414 25.4447 78.6844C25.5187 78.6926 25.5988 78.6885 25.6831 78.6619C27.6886 78.0603 29.7989 78.3898 31.8291 78.6701C35.3819 79.1693 38.9408 79.7156 42.5306 79.8261C46.4697 79.7627 52.2007 80.0634 54.461 76.1984C56.1048 73.0352 55.7843 69.4832 55.0343 66.0725C55.0404 66.0847 55.0466 66.095 55.0507 66.1072L55.0671 66.095Z" fill="var(--fill-0, #EA6725)"/>
<g id="Vector_3">
</g>
<path id="Vector_4" d="M42.3307 60.5501C42.3307 60.5501 42.3307 60.5501 42.3307 60.5466V60.5501Z" fill="var(--fill-0, #FF0000)"/>
<path id="Vector_5" d="M42.3307 60.5431C42.3307 60.5431 42.3307 60.5415 42.3307 60.5399C42.3307 60.5399 42.3307 60.5431 42.3307 60.5448V60.5431Z" fill="var(--fill-0, #FF0000)"/>
<path id="Vector_6" d="M42.3282 60.5431V60.5367C42.3282 60.5367 42.3282 60.5399 42.3282 60.5431Z" fill="var(--fill-0, #FF0000)"/>
<path id="Vector_7" d="M42.327 60.5376L42.3306 60.5411L42.327 60.5376Z" fill="var(--fill-0, #FF0000)"/>
<path id="Vector_8" d="M42.327 60.5345C42.327 60.5345 42.327 60.5376 42.327 60.5408C42.327 60.5408 42.327 60.5408 42.327 60.5376V60.5345Z" fill="var(--fill-0, #FF0000)"/>
<g id="Vector_9">
</g>
<path id="Vector_10" d="M42.3244 60.5309C42.3244 60.5309 42.3244 60.5329 42.3244 60.5349C42.3244 60.5349 42.3244 60.5329 42.3244 60.5309C42.3203 60.5188 42.3162 60.5067 42.312 60.4967C42.312 60.4987 42.312 60.5027 42.3141 60.5047C42.3162 60.5128 42.3203 60.5208 42.3224 60.5288L42.3244 60.5309Z" fill="var(--fill-0, #FF0000)"/>
<path id="Vector_11" d="M28.117 64.6246C28.117 64.6246 28.134 64.6288 28.1425 64.6309C28.134 64.6309 28.1255 64.6267 28.1192 64.6267L28.117 64.6246Z" fill="var(--fill-0, #FF0000)"/>
<path id="Vector_12" d="M28.1147 64.6217C28.098 64.6176 28.0813 64.6156 28.0646 64.6115C28.0792 64.6136 28.0918 64.6176 28.1064 64.6196C28.1085 64.6196 28.1127 64.6196 28.1147 64.6196V64.6217Z" fill="var(--fill-0, #FF0000)"/>
</g>
<path id="Vector_13" d="M42.0595 30.4171C40.6211 29.9244 39.1839 29.4286 37.7479 28.9297C36.3131 28.4277 34.8876 27.9112 33.4683 27.3684C33.3518 27.3233 33.2321 27.2769 33.1157 27.2318C31.7919 26.7188 30.481 26.182 29.1904 25.5919C29.0764 25.5406 28.9636 25.486 28.8495 25.4347C28.149 25.1092 27.4488 24.7731 26.7716 24.4064C26.6281 24.7429 26.5001 25.089 26.3932 25.4398C26.1563 26.2221 26.0018 27.0185 25.9228 27.8369C25.8523 28.5831 25.871 29.3458 25.9515 30.0965C26.0342 30.8913 26.2052 31.695 26.462 32.4637C26.7106 33.204 27.0108 33.9391 27.4016 34.6266C27.8073 35.3451 28.2685 36.0382 28.8128 36.6737C29.3288 37.273 29.886 37.8343 30.5016 38.3426C31.1611 38.886 31.8813 39.3702 32.638 39.7785C33.0468 39.9981 33.4682 40.2045 33.9003 40.3828C33.9934 40.4189 34.0887 40.4594 34.1818 40.4955C34.4013 40.5806 34.6266 40.6606 34.8521 40.73C35.6873 40.9925 36.5427 41.2017 37.4098 41.3003C38.2044 41.3888 39.0091 41.4308 39.7995 41.3701C40.2244 41.3369 40.6504 41.3005 41.0718 41.2264C41.5056 41.1499 41.9375 41.0582 42.3621 40.9457C43.1346 40.7414 43.8802 40.4475 44.589 40.0998C46.0519 39.386 47.3332 38.3571 48.355 37.1378C49.3386 35.9684 50.0516 34.6078 50.4949 33.1535C49.1263 32.7382 47.7627 32.2998 46.4024 31.8626C44.9511 31.3937 43.5046 30.9123 42.0617 30.4215L42.0595 30.4171Z" fill="var(--fill-0, #EA6725)"/>
<path id="Vector_14" d="M59.5285 28.5485C59.0222 24.8991 55.7038 22.5642 52.4509 21.7479C51.976 21.6609 51.3233 21.505 50.6371 21.3996C48.6319 16.3593 43.6041 12.7347 38.1789 13.197C35.9811 13.3682 33.9831 14.0574 32.2004 15.1398C32.1612 15.1769 32.1177 15.216 32.0785 15.2531C31.6575 15.6537 31.2628 16.0793 30.8924 16.5257C30.2561 17.3132 29.7003 18.1617 29.1619 19.0208L29.1408 19.0574L29.1358 19.0704C28.9626 19.3467 28.7925 19.6242 28.6255 19.903C28.4889 20.13 28.351 20.3603 28.2176 20.5886C28.1842 20.7138 28.1477 20.8378 28.1081 20.9606C28.0313 21.1996 27.944 21.4383 27.8535 21.6757C27.8077 21.7961 27.7618 21.9165 27.7147 22.0401C27.7048 22.0661 27.6937 22.0954 27.6838 22.1214C27.6379 22.2418 27.5858 22.3597 27.5369 22.4789C27.5319 22.4919 27.5282 22.5016 27.5232 22.5146C27.517 22.5309 27.5108 22.5472 27.5046 22.5634C27.5022 22.5886 27.501 22.6106 27.5017 22.6369C27.5017 22.6556 27.4986 22.6731 27.4987 22.6918C27.4922 22.8685 27.4951 23.0488 27.5067 23.225C27.5124 23.2757 27.5181 23.3265 27.5269 23.3784L27.5282 23.3939C27.5339 23.4259 27.5365 23.4568 27.5434 23.4856C27.5547 23.531 27.566 23.5765 27.5785 23.6187C27.5785 23.6187 27.5823 23.6276 27.5842 23.6321C27.5923 23.6576 27.5993 23.6864 27.6105 23.7132C27.6124 23.7177 27.6162 23.7266 27.618 23.7311C27.6281 23.7611 27.6393 23.7878 27.6537 23.8158C27.6594 23.8292 27.665 23.8426 27.6694 23.8592C27.6863 23.8994 27.7013 23.9351 27.7195 23.972C27.7233 23.9809 27.7251 23.9853 27.7289 23.9943C27.7395 24.0133 27.7483 24.0279 27.7589 24.047C27.7839 24.094 27.809 24.141 27.8352 24.1848C28.0223 24.276 28.2094 24.3671 28.3947 24.4539C29.589 25.01 30.8038 25.5219 32.0292 25.9967C32.1352 26.0378 32.2412 26.0789 32.3472 26.1199C33.681 26.6293 35.0247 27.1127 36.3728 27.5754C37.7208 28.0381 39.0726 28.491 40.4256 28.9406C40.6476 29.0154 40.8708 29.087 41.0896 29.1606C42.23 29.5391 43.3748 29.9155 44.5189 30.2842C45.3855 30.564 46.2516 30.8362 47.1232 31.103C47.6637 31.2714 48.2099 31.4345 48.7517 31.5997C48.8739 31.6358 48.9961 31.672 49.1151 31.7069C49.2498 31.7479 49.3814 31.7877 49.516 31.8287C49.5672 31.8448 49.6195 31.8576 49.6738 31.8749C49.728 31.8922 49.7866 31.9074 49.844 31.9259C49.8889 31.9396 49.9369 31.9544 49.9817 31.9681C50.2816 32.0544 50.5771 32.1428 50.8783 32.2259C51.2106 32.3211 51.5441 32.413 51.8745 32.5037C51.9948 32.5354 52.117 32.5716 52.2373 32.6033L52.2436 32.6057C52.415 32.6534 52.5846 32.6968 52.756 32.7445C52.8333 32.767 52.9088 32.7851 52.9861 32.8075C53.2255 32.8742 53.458 32.9494 53.695 33.0225C57.2865 33.9925 60.1466 32.9468 59.5235 28.5428L59.5285 28.5485ZM32.3268 24.4545C33.5276 21.3024 36.7215 19.6058 39.459 20.6667C42.1965 21.7275 43.4425 25.1446 42.2417 28.2967L32.3268 24.4545Z" fill="var(--fill-0, #0268C0)"/>
</g>
</svg>
