<svg preserveAspectRatio="none" width="100%" height="100%" overflow="visible" style="display: block;" viewBox="0 0 264 264" fill="none" xmlns="http://www.w3.org/2000/svg">
<g id="QR Code Container" filter="url(#filter0_d_0_63)">
<rect x="32" y="20" width="200" height="200" rx="16" fill="var(--fill-0, white)" shape-rendering="crispEdges"/>
<g id="Vector">
<path d="M158.667 192.381H151.048V200H158.667V192.381Z" fill="var(--fill-0, #0278DE)"/>
<path d="M166.286 200H173.905V184.762H166.286V200Z" fill="var(--fill-0, #0278DE)"/>
<path d="M212 139.048H204.381V146.667H212V139.048Z" fill="var(--fill-0, #0278DE)"/>
<path d="M151.048 40H143.429V47.619H151.048V40Z" fill="var(--fill-0, #0278DE)"/>
<path d="M204.381 161.905H196.762V169.524H204.381V161.905Z" fill="var(--fill-0, #0278DE)"/>
<path d="M166.286 169.524V177.143H181.524V184.762H189.143V192.381H196.762L196.762 169.524H166.286Z" fill="var(--fill-0, #0278DE)"/>
<path d="M204.381 192.381L196.762 192.381L196.762 200H204.381V192.381Z" fill="var(--fill-0, #0278DE)"/>
<path d="M212 154.286H204.381V161.905H212V154.286Z" fill="var(--fill-0, #0278DE)"/>
<path d="M105.333 93.3333V40H52V93.3333H105.333ZM59.619 47.619H97.7143V85.7143H59.619V47.619Z" fill="var(--fill-0, #0278DE)"/>
<path d="M90.0952 78.0952V55.2381H67.2381V78.0952H90.0952Z" fill="var(--fill-0, #0278DE)"/>
<path d="M128.19 55.2381H120.571V62.8571H128.19V55.2381Z" fill="var(--fill-0, #0278DE)"/>
<path d="M120.571 62.8571H112.952V70.4762H120.571L120.571 62.8571Z" fill="var(--fill-0, #0278DE)"/>
<path d="M67.2381 131.429H59.619V139.048H67.2381V131.429Z" fill="var(--fill-0, #0278DE)"/>
<path d="M128.19 40H120.571V47.619H128.19V40Z" fill="var(--fill-0, #0278DE)"/>
<path d="M67.2381 161.905V184.762H90.0952V161.905H67.2381Z" fill="var(--fill-0, #0278DE)"/>
<path d="M120.571 47.619H112.952V55.2381H120.571V47.619Z" fill="var(--fill-0, #0278DE)"/>
<path d="M52 146.667V200H105.333V146.667H52ZM97.7143 192.381H59.619V154.286H97.7143V192.381Z" fill="var(--fill-0, #0278DE)"/>
<path d="M143.429 47.619H135.81V55.2381H143.429V47.619Z" fill="var(--fill-0, #0278DE)"/>
<path d="M173.905 55.2381V78.0952H196.762V55.2381H173.905Z" fill="var(--fill-0, #0278DE)"/>
<path d="M173.905 100.952H166.286V116.19H173.905V100.952Z" fill="var(--fill-0, #0278DE)"/>
<path d="M173.905 123.81H166.286V131.429H173.905V123.81Z" fill="var(--fill-0, #0278DE)"/>
<path d="M181.524 131.429H173.905V139.048H181.524V131.429Z" fill="var(--fill-0, #0278DE)"/>
<path d="M112.952 116.19H120.571V108.571H128.19V100.952H97.7143V108.571H105.333V116.19H97.7143V108.571H82.4762V116.19H90.0952V131.429H97.7143V123.81H105.333V131.429H112.952V116.19Z" fill="var(--fill-0, #0278DE)"/>
<path d="M158.667 139.048V131.429H151.048V139.048H143.429V131.429H135.81V139.048H120.571V131.429H112.952V154.286H120.571V146.667H128.19V154.286H135.81V146.667H143.429V154.286H135.81V161.905H143.429V177.143H151.048V161.905H166.286V146.667H173.905V139.048H158.667ZM158.667 154.286H151.048V146.667H158.667V154.286Z" fill="var(--fill-0, #0278DE)"/>
<path d="M204.381 100.952H196.762V108.571H204.381V100.952Z" fill="var(--fill-0, #0278DE)"/>
<path d="M143.429 100.952V116.19H151.048V108.571H158.667V100.952H151.048V70.4762H143.429V62.8571H135.81V70.4762H128.19V78.0952H112.952V93.3333H120.571V85.7143H135.81V78.0952H143.429V93.3333H128.19V100.952H143.429Z" fill="var(--fill-0, #0278DE)"/>
<path d="M158.667 40V93.3333H212V40H158.667ZM204.381 85.7143H166.286V47.619H204.381V85.7143Z" fill="var(--fill-0, #0278DE)"/>
<path d="M212 108.571L204.381 108.571V116.19H212V108.571Z" fill="var(--fill-0, #0278DE)"/>
<path d="M196.762 123.81H189.143V100.952H181.524V116.19H173.905V123.81H181.524V131.429H212V123.81H204.381V116.19L196.762 116.19V123.81Z" fill="var(--fill-0, #0278DE)"/>
<path d="M52 100.952V116.19H59.619V108.571H67.2381V116.19H59.619V123.81H74.8571V108.571H82.4762V100.952H52Z" fill="var(--fill-0, #0278DE)"/>
<path d="M105.333 131.429H97.7143V139.048H105.333L105.333 131.429Z" fill="var(--fill-0, #0278DE)"/>
<path d="M135.81 169.524H120.571V161.905H112.952V200H128.19V192.381H120.571V177.143H128.19V192.381H135.81V184.762H143.429V177.143H135.81V169.524Z" fill="var(--fill-0, #0278DE)"/>
<path d="M143.429 192.381H135.81V200H143.429V192.381Z" fill="var(--fill-0, #0278DE)"/>
<path d="M74.8571 139.048H82.4762V123.81H74.8571V139.048Z" fill="var(--fill-0, #0278DE)"/>
<path d="M158.667 177.143L151.048 177.143L151.048 184.762H158.667V177.143Z" fill="var(--fill-0, #0278DE)"/>
<path d="M158.667 116.19H151.048L151.048 123.81H158.667V116.19Z" fill="var(--fill-0, #0278DE)"/>
<path d="M189.143 146.667V154.286H173.905V161.905H196.762L196.762 154.286H204.381V146.667H196.762V139.048L181.524 139.048V146.667H189.143Z" fill="var(--fill-0, #0278DE)"/>
<path d="M143.429 116.19H135.81V123.81H143.429V116.19Z" fill="var(--fill-0, #0278DE)"/>
<path d="M135.81 123.81H128.19V131.429H135.81V123.81Z" fill="var(--fill-0, #0278DE)"/>
<path d="M135.81 108.571L128.19 108.571L128.19 116.19H135.81V108.571Z" fill="var(--fill-0, #0278DE)"/>
</g>
</g>
<defs>
<filter id="filter0_d_0_63" x="0" y="0" width="264" height="264" filterUnits="userSpaceOnUse" color-interpolation-filters="sRGB">
<feFlood flood-opacity="0" result="BackgroundImageFix"/>
<feColorMatrix in="SourceAlpha" type="matrix" values="0 0 0 0 0 0 0 0 0 0 0 0 0 0 0 0 0 0 127 0" result="hardAlpha"/>
<feMorphology radius="8" operator="erode" in="SourceAlpha" result="effect1_dropShadow_0_63"/>
<feOffset dy="12"/>
<feGaussianBlur stdDeviation="20"/>
<feComposite in2="hardAlpha" operator="out"/>
<feColorMatrix type="matrix" values="0 0 0 0 0.00784314 0 0 0 0 0.407843 0 0 0 0 0.752941 0 0 0 0.56 0"/>
<feBlend mode="normal" in2="BackgroundImageFix" result="effect1_dropShadow_0_63"/>
<feBlend mode="normal" in="SourceGraphic" in2="effect1_dropShadow_0_63" result="shape"/>
</filter>
</defs>
</svg>
