<svg preserveAspectRatio="none" viewBox="0 0 206.778 8.41555" fill="none" xmlns="http://www.w3.org/2000/svg">
<path d="M188.109 0C193.135 0.103174 198.16 0.201659 203.183 0.315385C204.101 0.336489 205.043 0.377524 205.907 0.499457C206.299 0.554561 206.827 0.848842 206.774 0.998914C206.689 1.24278 206.288 1.57692 205.822 1.66017C204.995 1.80907 204.021 1.82665 203.103 1.85127C194.25 2.09631 185.393 2.31556 176.543 2.57349C159.235 3.07764 141.934 3.60641 124.629 4.11876C109.304 4.57249 93.9656 4.93478 78.6591 5.48347C55.9662 6.29714 33.2973 7.23861 10.615 8.12614C8.24089 8.21876 5.8721 8.35125 3.49264 8.39697C2.0975 8.42394 0.256889 8.53063 0.0194766 7.65482C-0.204598 6.82708 1.55066 6.60315 2.92445 6.48004C7.84876 6.03921 12.7731 5.52568 17.7587 5.30175C36.1942 4.47049 54.6431 3.68027 73.1079 2.99557C91.4447 2.31556 109.814 1.79851 128.164 1.1783C147.183 0.535802 166.219 0.097312 185.305 0.219245C186.231 0.225107 187.159 0.209866 188.085 0.205176C188.093 0.137175 188.098 0.0680012 188.106 0L188.109 0Z" fill="#28C45D"/>
</svg>
