<svg width="199" height="39" viewBox="0 0 199 39" fill="none" xmlns="http://www.w3.org/2000/svg">
<g id="Logo">
<path id="Vector" d="M9.21961 0C4.12776 0 0 4.189 0 9.35639V21.9925H6.80123V13.1382C6.80123 11.9286 7.76713 10.9483 8.95907 10.9483H23.0981V14.5017H10.8428V18.7607H21.7073V22.0008H10.8691L3.75375 39H15.5243L27.3901 21.9934V0H9.21961Z" fill="#28C45D"/>
<g id="Group">
<g id="Group_2">
<path id="Vector_2" d="M52.5934 13.2241H41.8656V16.8943H51.3764V19.6856H41.8656V25.0665H38.3271V11.9522C38.3271 10.9634 39.1289 10.1624 40.1187 10.1624H52.5922V13.2241H52.5934Z" fill="#003060"/>
<path id="Vector_3" d="M66.2052 14.3719H69.4729V25.0661H66.5206V22.7022C65.4619 24.4588 63.41 25.3365 60.5712 25.3365C56.3571 25.3365 54.0127 23.9409 54.0127 19.8433V14.3719H57.2805V19.2796C57.2805 21.8463 58.5421 22.7022 61.4727 22.7022C64.4032 22.7022 66.2052 21.6217 66.2052 19.0779V14.3719Z" fill="#003060"/>
<path id="Vector_4" d="M88.9217 19.5955V25.067H85.6768V20.1593C85.6768 17.5926 84.3922 16.7366 81.5523 16.7366C78.5552 16.7366 76.7292 17.8401 76.7292 20.3163V25.067H73.4844V14.3727H76.4367V16.7813C77.4954 15.0029 79.5691 14.1023 82.4768 14.1023C86.5784 14.1023 88.9228 15.5209 88.9228 19.5955H88.9217Z" fill="#003060"/>
<path id="Vector_5" d="M104.787 10.1623H108.032V25.0664H105.08V23.4004C104.087 24.6161 102.218 25.3368 99.0177 25.3368C93.7439 25.3368 91.7837 23.6479 91.7837 20.2939V19.1687C91.7837 15.7919 93.7439 14.1029 99.0177 14.1029C102.082 14.1029 103.841 14.756 104.787 15.9489V10.1623ZM104.787 20.2493V19.2134C104.787 17.5473 103.705 16.6914 100.055 16.6914C96.1778 16.6914 95.1868 17.5015 95.1868 19.2352V20.1805C95.1868 21.9371 96.2007 22.7472 100.055 22.7472C103.705 22.7472 104.787 21.8695 104.787 20.2481V20.2493Z" fill="#003060"/>
</g>
<g id="Group_3">
<g id="Group_4">
<path id="Vector_6" d="M111.279 25.0675V10.1622H112.856V17.1691H112.968C113.433 15.2831 115.01 13.8863 117.653 13.8863C121.095 13.8863 122.982 16.2605 122.982 19.588C122.982 22.9156 121.094 25.2898 117.519 25.2898C115.077 25.2898 113.322 24.0248 112.812 21.8293H112.7V25.0687H111.279V25.0675ZM117.142 23.8472C119.762 23.8472 121.383 22.7598 121.383 19.588C121.383 16.4163 119.718 15.3507 117.186 15.3507C114.411 15.3507 112.856 16.8598 112.856 19.5651V19.7645C112.856 22.3599 114.5 23.846 117.143 23.846L117.142 23.8472Z" fill="#003060"/>
<path id="Vector_7" d="M124.978 28.8379V27.3964H126.643C127.754 27.3964 128.176 27.0642 128.598 26.1543L129.131 25.0452L123.691 14.108H125.423L128.642 20.6302L129.864 23.3149H129.997L131.174 20.6084L134.216 14.108H135.948L129.997 26.5978C129.198 28.2833 128.176 28.8379 126.355 28.8379H124.979H124.978Z" fill="#003060"/>
</g>
<g id="Group_5">
<path id="Vector_8" d="M153.414 10.162V13.2238H147.262V25.0662H143.723V13.2238H137.548V10.162H153.414Z" fill="#003060"/>
<path id="Vector_9" d="M169.346 20.2701H157.018V20.3377C157.018 21.9132 158.01 22.7245 161.503 22.7245C164.996 22.7245 166.011 22.116 166.011 21.126V20.9908H169.346V21.1707C169.323 23.8497 167.475 25.3588 161.481 25.3588C155.487 25.3588 153.638 23.6022 153.638 20.293V19.1448C153.638 15.8574 155.531 14.079 161.481 14.0561C167.454 14.0561 169.346 15.7669 169.346 18.9191V20.2701ZM157.041 18.6269H165.988C165.897 17.2759 164.748 16.5781 161.48 16.5781C158.212 16.5781 157.198 17.253 157.04 18.6269H157.041Z" fill="#003060"/>
<path id="Vector_10" d="M186.453 25.0667H182.148L178.204 21.4642L174.373 25.0667H170.204L176.018 19.7087L170.361 14.3725H174.688L178.339 17.9074L182.081 14.3725H186.273L180.526 19.6629L186.454 25.0667H186.453Z" fill="#003060"/>
<path id="Vector_11" d="M198.915 22.3871V25.0661H194.07C190.104 25.0661 188.864 23.5352 188.864 20.1802V16.9386H186.925V14.3718H188.864V11.6699H192.109V14.3718H198.555V16.9386H192.109V19.7757C192.109 21.5999 192.695 22.3871 194.858 22.3871H198.915Z" fill="#003060"/>
</g>
</g>
</g>
</g>
</svg>
