<svg preserveAspectRatio="none" width="100%" height="100%" overflow="visible" style="display: block;" viewBox="0 0 599 64" fill="none" xmlns="http://www.w3.org/2000/svg">
<g id="texture" opacity="0.05">
<mask id="mask0_0_4" style="mask-type:alpha" maskUnits="userSpaceOnUse" x="0" y="0" width="599" height="64">
<g id="texture_2" clip-path="url(#clip0_0_4)">
<line id="Line 33" x1="-46.4763" y1="-50.3779" x2="-216.182" y2="119.328" stroke="var(--stroke-0, white)" stroke-width="7"/>
<line id="Line 34" x1="-26.7707" y1="-50.3779" x2="-196.476" y2="119.328" stroke="var(--stroke-0, white)" stroke-width="7"/>
<line id="Line 35" x1="-7.06517" y1="-50.3779" x2="-176.771" y2="119.328" stroke="var(--stroke-0, white)" stroke-width="7"/>
<line id="Line 36" x1="12.6404" y1="-50.3779" x2="-157.065" y2="119.328" stroke="var(--stroke-0, white)" stroke-width="7"/>
<line id="Line 37" x1="32.346" y1="-50.3779" x2="-137.36" y2="119.328" stroke="var(--stroke-0, white)" stroke-width="7"/>
<line id="Line 38" x1="52.052" y1="-50.3779" x2="-117.654" y2="119.328" stroke="var(--stroke-0, white)" stroke-width="7"/>
<line id="Line 39" x1="71.7576" y1="-50.3779" x2="-97.948" y2="119.328" stroke="var(--stroke-0, white)" stroke-width="7"/>
<line id="Line 40" x1="91.4632" y1="-50.3779" x2="-78.2425" y2="119.328" stroke="var(--stroke-0, white)" stroke-width="7"/>
<line id="Line 41" x1="111.169" y1="-50.3779" x2="-58.5369" y2="119.328" stroke="var(--stroke-0, white)" stroke-width="7"/>
<line id="Line 42" x1="130.874" y1="-50.3779" x2="-38.8313" y2="119.328" stroke="var(--stroke-0, white)" stroke-width="7"/>
<line id="Line 43" x1="150.58" y1="-50.3779" x2="-19.1258" y2="119.328" stroke="var(--stroke-0, white)" stroke-width="7"/>
<line id="Line 44" x1="170.285" y1="-50.3779" x2="0.579796" y2="119.328" stroke="var(--stroke-0, white)" stroke-width="7"/>
<line id="Line 45" x1="189.991" y1="-50.3779" x2="20.2854" y2="119.328" stroke="var(--stroke-0, white)" stroke-width="7"/>
<line id="Line 46" x1="209.697" y1="-50.3779" x2="39.9909" y2="119.328" stroke="var(--stroke-0, white)" stroke-width="7"/>
<line id="Line 89" x1="229.403" y1="-50.3779" x2="59.697" y2="119.328" stroke="var(--stroke-0, white)" stroke-width="7"/>
<line id="Line 90" x1="249.108" y1="-50.3779" x2="79.4025" y2="119.328" stroke="var(--stroke-0, white)" stroke-width="7"/>
<line id="Line 91" x1="268.814" y1="-50.3779" x2="99.1081" y2="119.328" stroke="var(--stroke-0, white)" stroke-width="7"/>
<line id="Line 92" x1="288.519" y1="-50.3779" x2="118.814" y2="119.328" stroke="var(--stroke-0, white)" stroke-width="7"/>
<line id="Line 93" x1="308.225" y1="-50.3779" x2="138.519" y2="119.328" stroke="var(--stroke-0, white)" stroke-width="7"/>
<line id="Line 94" x1="327.93" y1="-50.3779" x2="158.225" y2="119.328" stroke="var(--stroke-0, white)" stroke-width="7"/>
<line id="Line 95" x1="347.636" y1="-50.3779" x2="177.93" y2="119.328" stroke="var(--stroke-0, white)" stroke-width="7"/>
<line id="Line 96" x1="367.342" y1="-50.3779" x2="197.636" y2="119.328" stroke="var(--stroke-0, white)" stroke-width="7"/>
<line id="Line 97" x1="387.048" y1="-50.3779" x2="217.342" y2="119.328" stroke="var(--stroke-0, white)" stroke-width="7"/>
<line id="Line 98" x1="406.753" y1="-50.3779" x2="237.048" y2="119.328" stroke="var(--stroke-0, white)" stroke-width="7"/>
<line id="Line 99" x1="426.459" y1="-50.3779" x2="256.753" y2="119.328" stroke="var(--stroke-0, white)" stroke-width="7"/>
<line id="Line 100" x1="446.164" y1="-50.3779" x2="276.459" y2="119.328" stroke="var(--stroke-0, white)" stroke-width="7"/>
<line id="Line 101" x1="465.87" y1="-50.3779" x2="296.164" y2="119.328" stroke="var(--stroke-0, white)" stroke-width="7"/>
<line id="Line 102" x1="485.575" y1="-50.3779" x2="315.87" y2="119.328" stroke="var(--stroke-0, white)" stroke-width="7"/>
<line id="Line 103" x1="505.281" y1="-50.3779" x2="335.575" y2="119.328" stroke="var(--stroke-0, white)" stroke-width="7"/>
<line id="Line 104" x1="524.987" y1="-50.3779" x2="355.281" y2="119.328" stroke="var(--stroke-0, white)" stroke-width="7"/>
<line id="Line 105" x1="544.693" y1="-50.3779" x2="374.987" y2="119.328" stroke="var(--stroke-0, white)" stroke-width="7"/>
<line id="Line 106" x1="564.398" y1="-50.3779" x2="394.693" y2="119.328" stroke="var(--stroke-0, white)" stroke-width="7"/>
<line id="Line 107" x1="584.104" y1="-50.3779" x2="414.398" y2="119.328" stroke="var(--stroke-0, white)" stroke-width="7"/>
<line id="Line 108" x1="603.809" y1="-50.3779" x2="434.104" y2="119.328" stroke="var(--stroke-0, white)" stroke-width="7"/>
<line id="Line 109" x1="623.515" y1="-50.3779" x2="453.809" y2="119.328" stroke="var(--stroke-0, white)" stroke-width="7"/>
<line id="Line 110" x1="643.22" y1="-50.3779" x2="473.515" y2="119.328" stroke="var(--stroke-0, white)" stroke-width="7"/>
<line id="Line 111" x1="662.926" y1="-50.3779" x2="493.22" y2="119.328" stroke="var(--stroke-0, white)" stroke-width="7"/>
<line id="Line 112" x1="682.632" y1="-50.3779" x2="512.926" y2="119.328" stroke="var(--stroke-0, white)" stroke-width="7"/>
<line id="Line 113" x1="702.337" y1="-50.3779" x2="532.632" y2="119.328" stroke="var(--stroke-0, white)" stroke-width="7"/>
<line id="Line 114" x1="722.043" y1="-50.3779" x2="552.338" y2="119.328" stroke="var(--stroke-0, white)" stroke-width="7"/>
<line id="Line 115" x1="741.749" y1="-50.3779" x2="572.043" y2="119.328" stroke="var(--stroke-0, white)" stroke-width="7"/>
<line id="Line 116" x1="761.454" y1="-50.3779" x2="591.749" y2="119.328" stroke="var(--stroke-0, white)" stroke-width="7"/>
<line id="Line 117" x1="781.16" y1="-50.3779" x2="611.454" y2="119.328" stroke="var(--stroke-0, white)" stroke-width="7"/>
<line id="Line 118" x1="800.865" y1="-50.3779" x2="631.16" y2="119.328" stroke="var(--stroke-0, white)" stroke-width="7"/>
<line id="Line 119" x1="820.571" y1="-50.3779" x2="650.865" y2="119.328" stroke="var(--stroke-0, white)" stroke-width="7"/>
</g>
</mask>
<g mask="url(#mask0_0_4)">
<path id="Vector" d="M565.25 31.7451L599.103 63.5H-0.103027L33.7501 31.7451L-0.103027 0H599.103L565.25 31.7451Z" fill="url(#paint0_linear_0_4)"/>
</g>
</g>
<defs>
<linearGradient id="paint0_linear_0_4" x1="299.5" y1="0" x2="299.5" y2="63.5" gradientUnits="userSpaceOnUse">
<stop stop-color="white"/>
<stop offset="1" stop-color="white" stop-opacity="0"/>
</linearGradient>
<clipPath id="clip0_0_4">
<rect width="599" height="64" fill="white"/>
</clipPath>
</defs>
</svg>
