<svg preserveAspectRatio="none" width="100%" height="100%" overflow="visible" style="display: block;" viewBox="0 0 14.7585 14.7447" fill="none" xmlns="http://www.w3.org/2000/svg">
<g id="Group">
<path id="Vector" d="M6.04609 8.03904C6.3324 8.42179 6.69767 8.73849 7.11713 8.96767C7.53659 9.19684 8.00043 9.33312 8.47719 9.36726C8.95396 9.40141 9.43249 9.33262 9.88032 9.16556C10.3282 8.9985 10.7348 8.73709 11.0728 8.39904L13.0728 6.39904C13.68 5.77037 14.0159 4.92836 14.0083 4.05437C14.0007 3.18038 13.6502 2.34434 13.0322 1.72631C12.4141 1.10828 11.5781 0.757721 10.7041 0.750126C9.83011 0.742531 8.9881 1.07851 8.35943 1.68571L7.21276 2.82571" stroke="var(--stroke-0, white)" stroke-width="1.5" stroke-linecap="round" stroke-linejoin="round"/>
<path id="Vector_2" d="M8.71237 6.70571C8.42607 6.32295 8.0608 6.00625 7.64134 5.77708C7.22188 5.54791 6.75803 5.41163 6.28127 5.37748C5.80451 5.34334 5.32598 5.41213 4.87814 5.57919C4.4303 5.74624 4.02363 6.00766 3.68571 6.34571L1.68571 8.34571C1.07851 8.97438 0.742531 9.81639 0.750126 10.6904C0.757721 11.5644 1.10828 12.4004 1.72631 13.0184C2.34434 13.6365 3.18038 13.987 4.05437 13.9946C4.92836 14.0022 5.77037 13.6662 6.39904 13.059L7.53904 11.919" stroke="var(--stroke-0, white)" stroke-width="1.5" stroke-linecap="round" stroke-linejoin="round"/>
</g>
</svg>
