<svg preserveAspectRatio="none" width="100%" height="100%" overflow="visible" style="display: block;" viewBox="0 0 7.66333 7.0904" fill="none" xmlns="http://www.w3.org/2000/svg">
<path id="Vector" fill-rule="evenodd" clip-rule="evenodd" d="M6.75792 4.69558C6.6016 4.56982 6.41857 4.4813 6.22277 4.43677C6.02696 4.39224 5.82355 4.39287 5.62803 4.43862C5.33426 4.56033 5.14444 5.02015 4.95462 5.25006C4.91459 5.30518 4.85578 5.34383 4.78921 5.35877C4.72264 5.37371 4.6529 5.36391 4.59306 5.33121C3.51756 4.91104 2.61606 4.14052 2.035 3.14481C1.98544 3.08267 1.96198 3.00378 1.96957 2.92474C1.97715 2.8457 2.01519 2.77268 2.07567 2.72105C2.28739 2.512 2.44283 2.25307 2.52763 1.96821C2.54646 1.654 2.47429 1.34103 2.31973 1.0666C2.20024 0.681864 1.97284 0.339284 1.6644 0.0793385C1.50531 0.00796953 1.32891 -0.0159601 1.1565 0.0104368C0.984077 0.0368337 0.822999 0.112429 0.692693 0.228104C0.466476 0.42278 0.28692 0.665592 0.167247 0.938656C0.0475747 1.21172 -0.00916607 1.50808 0.00120366 1.80592C0.00190187 1.97317 0.0231517 2.13971 0.0644774 2.3018C0.169424 2.69126 0.330817 3.06334 0.543549 3.40627C0.697031 3.66897 0.864493 3.92329 1.04522 4.16813C1.63255 4.97236 2.37085 5.65519 3.21912 6.17872C3.64479 6.44476 4.09973 6.66107 4.57498 6.82337C5.06866 7.04659 5.61373 7.13227 6.1523 7.07131C6.45916 7.02498 6.7499 6.90414 6.99894 6.71941C7.24798 6.53467 7.44768 6.29172 7.58047 6.01192C7.6585 5.8429 7.68218 5.65394 7.64827 5.47096C7.56692 5.09679 7.06525 4.8759 6.75792 4.69558Z" fill="var(--fill-0, white)"/>
</svg>
