<svg preserveAspectRatio="none" width="100%" height="100%" overflow="visible" style="display: block;" viewBox="0 0 15.9871 16" fill="none" xmlns="http://www.w3.org/2000/svg">
<path id="Vector" d="M0 16L1.14796 11.7354C0.22216 10.0741 -0.0719774 8.13553 0.319527 6.27539C0.711031 4.41525 1.76192 2.75832 3.27934 1.60865C4.79677 0.458987 6.67895 -0.106303 8.5805 0.0165158C10.4821 0.139335 12.2754 0.942025 13.6315 2.27729C14.9876 3.61256 15.8155 5.39083 15.9632 7.2858C16.111 9.18077 15.5686 11.0653 14.4358 12.5936C13.3029 14.1219 11.6555 15.1915 9.79583 15.6061C7.93616 16.0206 5.989 15.7523 4.31164 14.8504L0 16ZM4.51954 13.2546L4.78619 13.4124C6.00114 14.1307 7.42018 14.4279 8.82217 14.2578C10.2242 14.0877 11.5304 13.4597 12.5372 12.4718C13.544 11.4839 14.195 10.1915 14.3886 8.79608C14.5821 7.40064 14.3075 5.98052 13.6075 4.75702C12.9074 3.53352 11.8212 2.57537 10.5182 2.03189C9.21524 1.48841 7.7686 1.39013 6.40376 1.75236C5.03891 2.11458 3.83253 2.91697 2.97261 4.03449C2.11269 5.152 1.64754 6.52186 1.64963 7.9306C1.64849 9.09867 1.97236 10.2441 2.58518 11.2395L2.7524 11.5145L2.11063 13.8947L4.51954 13.2546Z" fill="var(--fill-0, white)"/>
</svg>
