<svg preserveAspectRatio="none" width="100%" height="100%" overflow="visible" style="display: block;" viewBox="0 0 76.1187 63.2295" fill="none" xmlns="http://www.w3.org/2000/svg">
<g id="Fictional company logo">
<g id="Logomark" clip-path="url(#clip0_0_50)">
<g id="Shape">
<path d="M43.0376 2.86441L39.0502 1.81922L35.69 14.0871L32.6564 3.01157L28.6689 4.05677L31.9466 16.0231L23.7827 8.03666L20.8637 10.8922L29.8185 19.6524L18.6667 16.7292L17.5983 20.6299L29.783 23.8238C29.6435 23.2352 29.5697 22.6219 29.5697 21.9917C29.5697 17.5311 33.2661 13.915 37.8258 13.915C42.3856 13.915 46.082 17.5311 46.082 21.9917C46.082 22.6178 46.0091 23.2273 45.8713 23.8125L56.9449 26.7151L58.0133 22.8145L45.7801 19.6078L56.9327 16.6845L55.8642 12.7838L43.6316 15.9902L51.7954 8.00387L48.8764 5.14835L40.0459 13.787L43.0376 2.86441Z" fill="var(--fill-0, #005BAC)"/>
<path d="M45.8596 23.8579C45.5178 25.2718 44.796 26.542 43.8057 27.5596L51.8281 35.4077L54.7471 32.5521L45.8596 23.8579Z" fill="var(--fill-0, #005BAC)"/>
<path d="M43.7247 27.6417C42.7225 28.6431 41.4559 29.3904 40.0356 29.7755L42.9547 40.4332L46.9421 39.3879L43.7247 27.6417Z" fill="var(--fill-0, #005BAC)"/>
<path d="M39.8866 29.8145C39.2276 29.9802 38.5369 30.0683 37.8251 30.0683C37.0625 30.0683 36.3241 29.9671 35.623 29.7778L32.7012 40.4452L36.6885 41.4903L39.8866 29.8145Z" fill="var(--fill-0, #005BAC)"/>
<path d="M35.482 29.7385C34.0834 29.3342 32.8393 28.5774 31.8575 27.5731L23.8154 35.4404L26.7344 38.2959L35.482 29.7385Z" fill="var(--fill-0, #005BAC)"/>
<path d="M31.7912 27.5036C30.8263 26.4929 30.1234 25.2397 29.7889 23.8477L18.6791 26.7598L19.7475 30.6605L31.7912 27.5036Z" fill="var(--fill-0, #005BAC)"/>
</g>
</g>
<g id="Logotype">
<path d="M8.22295 49.5666V58.7293L2.34942 49.5666H0V62.2173H2.34942V53.1268L8.22295 62.2173H10.5724V49.5666H8.22295Z" fill="var(--fill-0, #003060)"/>
<path d="M11.631 51.9341H14.0527V49.5666H11.631V51.9341ZM11.6672 62.2173V53.1811H14.0166V62.2173H11.6672Z" fill="var(--fill-0, #003060)"/>
<path d="M24.1251 57.6992C24.1251 54.5726 21.9022 53.0907 19.5528 53.0726C17.1853 53.0546 14.9986 54.5726 14.9986 57.6992C14.9986 60.8257 17.1853 62.3438 19.5528 62.3257C21.7034 62.3076 23.1854 61.3137 23.8721 59.6691L22.0468 58.91C21.4866 60.0305 20.601 60.4281 19.5528 60.4462C18.6492 60.4643 17.6191 60.0305 17.4022 58.4221H24.0709C24.1071 58.1871 24.1251 57.9522 24.1251 57.6992ZM19.5528 54.9341C20.4564 54.9522 21.3781 55.4401 21.6673 56.7413H17.4383C17.7456 55.422 18.6673 54.916 19.5528 54.9341Z" fill="var(--fill-0, #003060)"/>
<path d="M29.5548 54.8618V53.0726H28.0728V50.6509L25.7234 51.3738V53.0726H24.2415V54.8618H25.7234V59.5426C25.7234 61.3137 25.868 62.2173 28.615 62.2173H29.2475V60.157H28.615C28.1813 60.157 28.0728 60.0847 28.0728 59.5426V54.8618H29.5548Z" fill="var(--fill-0, #003060)"/>
<path d="M33.0459 60.2474L38.0338 55.151V53.1811H30.5519V55.151H35.3953L30.4073 60.2474V62.2173H38.0881V60.2474H33.0459Z" fill="var(--fill-0, #003060)"/>
<path d="M38.9304 59.6691L41.2979 59.3076C41.4605 60.2112 42.5268 60.5546 43.1774 60.5546C43.8461 60.5546 45.0027 60.41 45.0027 59.3257C45.0027 57.2112 39.2015 59.8498 39.2015 55.8016C39.2015 53.1991 42.2196 53.0546 43.1774 53.0546C44.081 53.0546 46.7015 53.1991 47.2437 55.2955L45.0027 55.7654C44.8039 54.8076 43.7919 54.6269 43.2497 54.6269C42.7075 54.6269 41.5509 54.7534 41.5509 55.8016C41.5509 57.898 47.3522 55.2232 47.3522 59.3257C47.3522 62.0908 44.1714 62.3257 43.1774 62.3257C42.2738 62.3257 39.4003 62.0908 38.9304 59.6691Z" fill="var(--fill-0, #003060)"/>
<path d="M50.4043 57.6992C50.4043 59.904 51.579 60.5727 52.8079 60.5546C53.9103 60.5365 54.6694 60.0847 55.1212 58.8197L57.0549 59.7594C56.3501 61.6028 54.6332 62.3076 52.8079 62.3257C50.4404 62.3438 48.0549 60.8257 48.0549 57.6992C48.0549 54.5726 50.4404 53.0546 52.8079 53.0726C54.6332 53.0907 56.3501 53.7955 57.0549 55.6389L55.1212 56.5787C54.6694 55.3136 53.9103 54.8618 52.8079 54.8437C51.579 54.8257 50.4043 55.4943 50.4043 57.6992Z" fill="var(--fill-0, #003060)"/>
<path d="M63.3621 53.0365C62.1512 53.0365 61.0488 53.669 60.344 55.0245V49.5666H57.9946V62.2173H60.344V59.0185C60.344 54.8799 62.0608 54.5365 62.6934 54.5365C63.7054 54.5365 63.85 55.5847 63.85 57.1209V62.2173H66.1994V57.1209C66.1994 55.2052 65.8922 53.0365 63.3621 53.0365Z" fill="var(--fill-0, #003060)"/>
<path d="M76.1187 57.6992C76.1187 54.5726 73.8957 53.0907 71.5463 53.0726C69.1788 53.0546 66.9921 54.5726 66.9921 57.6992C66.9921 60.8257 69.1788 62.3438 71.5463 62.3257C73.697 62.3076 75.1789 61.3137 75.8656 59.6691L74.0403 58.91C73.4801 60.0305 72.5945 60.4281 71.5463 60.4462C70.6427 60.4643 69.6126 60.0305 69.3957 58.4221H76.0644C76.1006 58.1871 76.1187 57.9522 76.1187 57.6992ZM71.5463 54.9341C72.45 54.9522 73.3716 55.4401 73.6608 56.7413H69.4319C69.7391 55.422 70.6608 54.916 71.5463 54.9341Z" fill="var(--fill-0, #003060)"/>
</g>
</g>
<defs>
<clipPath id="clip0_0_50">
<rect width="41.5666" height="40.663" fill="white" transform="translate(17.276 0.903628)"/>
</clipPath>
</defs>
</svg>
