<svg preserveAspectRatio="none" width="100%" height="100%" overflow="visible" style="display: block;" viewBox="0 0 515 44" fill="none" xmlns="http://www.w3.org/2000/svg">
<g id="raised">
<g id="bar-texture">
<g clip-path="url(#clip0_0_144)">
<path d="M0 22C0 13.1634 7.16344 6 16 6H512V38H16C7.16344 38 0 30.8366 0 22V22Z" fill="url(#paint0_linear_0_144)"/>
<g id="Raised Bar">
<line id="Line 33" opacity="0.5" x1="19.9553" y1="2.6758" x2="-19.6426" y2="42.2738" stroke="var(--stroke-0, #26BA58)" stroke-width="7"/>
<line id="Line 34" opacity="0.5" x1="41.553" y1="2.6758" x2="1.95503" y2="42.2738" stroke="var(--stroke-0, #26BA58)" stroke-width="7"/>
<line id="Line 35" opacity="0.5" x1="63.1506" y1="2.6758" x2="23.5527" y2="42.2738" stroke="var(--stroke-0, #26BA58)" stroke-width="7"/>
<line id="Line 36" opacity="0.5" x1="84.7483" y1="2.6758" x2="45.1503" y2="42.2738" stroke="var(--stroke-0, #26BA58)" stroke-width="7"/>
<line id="Line 37" opacity="0.5" x1="106.35" y1="2.6758" x2="66.7519" y2="42.2738" stroke="var(--stroke-0, #26BA58)" stroke-width="7"/>
<line id="Line 38" opacity="0.5" x1="127.944" y1="2.6758" x2="88.3456" y2="42.2738" stroke="var(--stroke-0, #26BA58)" stroke-width="7"/>
<line id="Line 39" opacity="0.5" x1="149.541" y1="2.6758" x2="109.943" y2="42.2738" stroke="var(--stroke-0, #26BA58)" stroke-width="7"/>
<line id="Line 40" opacity="0.5" x1="171.139" y1="2.6758" x2="131.541" y2="42.2738" stroke="var(--stroke-0, #26BA58)" stroke-width="7"/>
<line id="Line 41" opacity="0.5" x1="192.74" y1="2.6758" x2="153.143" y2="42.2738" stroke="var(--stroke-0, #26BA58)" stroke-width="7"/>
<line id="Line 42" opacity="0.5" x1="214.334" y1="2.6758" x2="174.736" y2="42.2738" stroke="var(--stroke-0, #26BA58)" stroke-width="7"/>
<line id="Line 43" opacity="0.5" x1="235.936" y1="2.6758" x2="196.338" y2="42.2738" stroke="var(--stroke-0, #26BA58)" stroke-width="7"/>
<line id="Line 44" opacity="0.5" x1="257.533" y1="2.6758" x2="217.936" y2="42.2738" stroke="var(--stroke-0, #26BA58)" stroke-width="7"/>
<line id="Line 45" opacity="0.5" x1="279.131" y1="2.6758" x2="239.533" y2="42.2738" stroke="var(--stroke-0, #26BA58)" stroke-width="7"/>
</g>
<line id="Line 33_2" opacity="0.5" x1="300.729" y1="2.6758" x2="261.131" y2="42.2738" stroke="var(--stroke-0, #26BA58)" stroke-width="7"/>
<line id="Line 34_2" opacity="0.5" x1="322.326" y1="2.6758" x2="282.728" y2="42.2738" stroke="var(--stroke-0, #26BA58)" stroke-width="7"/>
<line id="Line 35_2" opacity="0.5" x1="343.924" y1="2.6758" x2="304.326" y2="42.2738" stroke="var(--stroke-0, #26BA58)" stroke-width="7"/>
<line id="Line 36_2" opacity="0.5" x1="365.522" y1="2.6758" x2="325.924" y2="42.2738" stroke="var(--stroke-0, #26BA58)" stroke-width="7"/>
<line id="Line 37_2" opacity="0.5" x1="387.123" y1="2.6758" x2="347.525" y2="42.2738" stroke="var(--stroke-0, #26BA58)" stroke-width="7"/>
<line id="Line 38_2" opacity="0.5" x1="408.717" y1="2.6758" x2="369.119" y2="42.2738" stroke="var(--stroke-0, #26BA58)" stroke-width="7"/>
<line id="Line 39_2" opacity="0.5" x1="430.315" y1="2.6758" x2="390.717" y2="42.2738" stroke="var(--stroke-0, #26BA58)" stroke-width="7"/>
<line id="Line 40_2" opacity="0.5" x1="451.912" y1="2.6758" x2="412.314" y2="42.2738" stroke="var(--stroke-0, #26BA58)" stroke-width="7"/>
<line id="Line 41_2" opacity="0.5" x1="473.514" y1="2.6758" x2="433.916" y2="42.2738" stroke="var(--stroke-0, #26BA58)" stroke-width="7"/>
<line id="Line 42_2" opacity="0.5" x1="495.108" y1="2.6758" x2="455.51" y2="42.2738" stroke="var(--stroke-0, #26BA58)" stroke-width="7"/>
<line id="Line 43_2" opacity="0.5" x1="516.709" y1="2.6758" x2="477.111" y2="42.2738" stroke="var(--stroke-0, #26BA58)" stroke-width="7"/>
<line id="Line 44_2" opacity="0.5" x1="538.307" y1="2.6758" x2="498.709" y2="42.2738" stroke="var(--stroke-0, #26BA58)" stroke-width="7"/>
<line id="Line 45_2" opacity="0.5" x1="559.905" y1="2.6758" x2="520.307" y2="42.2738" stroke="var(--stroke-0, #26BA58)" stroke-width="7"/>
</g>
</g>
<path id="Line 32" d="M513 2L513 42" stroke="var(--stroke-0, #34D56A)" stroke-width="4" stroke-linecap="round"/>
</g>
<defs>
<linearGradient id="paint0_linear_0_144" x1="0" y1="22" x2="512" y2="22" gradientUnits="userSpaceOnUse">
<stop stop-color="#28C45D"/>
<stop offset="1" stop-color="#34D56A"/>
</linearGradient>
<clipPath id="clip0_0_144">
<path d="M0 22C0 13.1634 7.16344 6 16 6H512V38H16C7.16344 38 0 30.8366 0 22V22Z" fill="white"/>
</clipPath>
</defs>
</svg>
