<svg width="22.0664" height="28" viewBox="0 0 22.0664 28" fill="none" xmlns="http://www.w3.org/2000/svg">
<g id="uuid-9978d674-3040-48b2-b789-19039c46b6a5">
<g id="Group">
<g id="Vector">
</g>
<path id="Vector_2" d="M19.2735 23.1332C19.2735 23.1332 19.2764 23.1304 19.2778 23.1282C19.2728 23.1189 19.2677 23.1096 19.2627 23.1003C19.1721 22.6921 19.0642 22.2904 18.9607 21.9022C18.9477 21.8499 18.9348 21.7977 18.9225 21.7454C18.9225 21.7389 18.9218 21.7332 18.9204 21.7268C18.7039 20.6576 18.3745 19.5985 17.9063 18.6109C17.9106 18.6102 17.9142 18.6095 17.9178 18.6088C17.7438 18.2113 17.5424 17.8268 17.2936 17.4644C16.3708 16.2134 14.9231 15.6054 13.4926 15.1205C12.0377 14.6386 10.5663 14.2053 9.08976 13.795C8.74167 13.6933 8.39431 13.5895 8.04334 13.4985C8.01889 13.4892 7.99228 13.4813 7.96495 13.4749C7.92539 13.4491 7.87577 13.4269 7.81536 13.4119C7.38456 13.1899 6.99476 12.8905 6.67616 12.5268C5.24497 10.7937 4.83072 8.29519 5.58658 6.18621C5.62326 5.99071 5.80522 5.77802 5.80882 5.58897C5.93899 5.51735 6.06413 5.36052 6.16697 5.28676C6.67832 4.81484 7.08034 4.21903 7.29826 3.55805C7.32918 3.46853 7.3522 3.37615 7.38097 3.2852C7.39751 3.27589 7.41333 3.26372 7.42843 3.24868C7.52552 3.15415 7.62981 3.06822 7.73409 2.98157C8.18502 2.61276 8.65753 2.27046 9.11134 1.90452C9.70755 1.49633 10.0585 0.778061 9.41196 0.233808C8.46335 -0.566816 6.84733 0.90195 6.03968 1.44477C5.60744 1.75772 5.5722 1.54861 5.24137 1.27362C4.72284 0.850389 4.03457 0.924149 3.42614 1.06236C3.34559 1.07024 3.28158 1.0151 3.22045 0.971413C3.03849 0.843228 2.81051 0.767319 2.58684 0.794531C1.50446 0.907679 0.901778 1.99189 0.804687 2.98085C0.765131 3.41124 0.83777 3.83948 0.877325 4.26629C0.89962 4.37944 0.834893 4.51478 0.824824 4.63151C0.638554 5.01535 0.238684 6.07879 0.211355 6.64167C0.201286 6.68105 0.199128 6.72259 0.203444 6.76269C0.18906 6.94602 0.16245 7.12934 0.137278 7.31124C0.0747084 7.75595 0.0236459 8.20353 0.00350854 8.65182C-0.0734449 11.4662 1.12113 14.2755 3.02986 16.3279C3.94611 17.1887 4.98894 17.9542 6.13317 18.4913C6.50355 18.7835 6.61287 19.2905 6.71643 19.7274C6.79698 20.1291 6.83582 20.5387 6.86387 20.9469C6.8689 20.9705 6.87178 20.9949 6.87394 21.0207C6.9063 21.0128 6.93794 21.0056 6.97031 20.9985C7.19469 20.9483 7.42627 20.9111 7.6521 20.972C7.77149 21.0042 7.88224 21.0701 7.98293 21.1396C8.05916 21.1918 8.12892 21.2513 8.19797 21.3129C8.30297 21.4059 8.40294 21.5055 8.50722 21.5993C8.58992 21.6709 8.67551 21.7397 8.76541 21.802C8.81647 21.8356 8.86897 21.8664 8.92363 21.8943C8.97613 21.9194 9.02935 21.9416 9.08401 21.9617C9.16456 21.9882 9.24655 22.0104 9.32997 22.0283C9.49682 22.0605 9.66655 22.0827 9.83412 22.1099C10.0269 22.1407 10.2189 22.1779 10.4095 22.218C10.5325 22.2438 10.6547 22.2703 10.7777 22.2954C10.7827 22.2961 10.7871 22.2975 10.7921 22.2982C11.1819 22.377 11.5724 22.4465 11.9658 22.503C12.3556 22.5589 12.7461 22.609 13.1359 22.6656C13.5351 22.7236 13.9342 22.7788 14.3327 22.8425C14.524 22.8733 14.7153 22.9062 14.9059 22.942C15.09 22.9764 15.2741 23.0129 15.4582 23.0444C15.4553 23.0351 15.4517 23.0258 15.4488 23.0165C15.3863 22.8389 15.318 22.6635 15.2547 22.4866C15.1813 22.2832 15.1115 22.0784 15.0425 21.8736C14.9663 21.648 14.8915 21.4217 14.8131 21.1968C14.816 21.2047 14.8181 21.2119 14.821 21.2198C14.8188 21.214 14.8174 21.209 14.8152 21.2033C14.8138 21.2004 14.8131 21.1968 14.8116 21.1933C14.8116 21.1933 14.8116 21.194 14.8116 21.1947C14.8116 21.1947 14.8116 21.194 14.8116 21.1933C14.8116 21.1925 14.8116 21.1918 14.8109 21.1911C14.8095 21.1868 14.808 21.1832 14.8066 21.1789C14.7563 21.0357 14.703 20.8932 14.6491 20.7514C14.6211 20.6777 14.593 20.6039 14.565 20.5308C14.552 20.4965 14.5383 20.4614 14.5254 20.427C14.5074 20.3797 14.4858 20.3318 14.4729 20.2824C14.4578 20.2236 14.4607 20.1628 14.4844 20.1069C14.5117 20.0432 14.5635 19.9909 14.6275 19.9644C14.6829 19.9408 14.7462 19.9372 14.8037 19.9529C14.8677 19.9708 14.9339 20.016 14.9648 20.0761C14.9799 20.1055 14.9922 20.1341 15.0037 20.1649C15.0116 20.1857 15.0195 20.2072 15.0274 20.2279C15.0425 20.2673 15.0569 20.3074 15.072 20.3468C15.1029 20.4299 15.1338 20.5129 15.164 20.596C15.2295 20.7772 15.2935 20.9591 15.3554 21.1417C15.4848 21.5212 15.6056 21.9029 15.7315 22.2839C15.7919 22.4665 15.8573 22.6491 15.9034 22.8368C15.9278 22.9377 15.948 23.0401 15.9559 23.144C15.9595 23.1898 15.9609 23.2356 15.9588 23.2815C15.9566 23.3316 15.9494 23.3774 15.9329 23.4247C15.9199 23.4942 15.8811 23.5579 15.825 23.6009C15.7955 23.6238 15.761 23.641 15.725 23.6503C15.6998 23.6574 15.6754 23.6596 15.6502 23.6596C15.6366 23.6596 15.6229 23.6596 15.6085 23.6582C15.5538 23.6546 15.5006 23.6388 15.4474 23.6266C15.0655 23.5507 14.6822 23.4755 14.2981 23.4097C13.9011 23.3416 13.5027 23.2779 13.1043 23.2185C12.7145 23.1597 12.3232 23.1075 11.9334 23.0494C11.7313 23.0194 11.53 22.9879 11.3293 22.9492C11.1186 22.9091 10.9079 22.8647 10.6986 22.8181C10.4152 22.7551 10.134 22.6835 9.84923 22.6248C9.84779 22.6248 9.84635 22.6248 9.84491 22.6241C9.84635 22.6241 9.84779 22.6241 9.84923 22.6248C9.84779 22.6248 9.84635 22.6248 9.84491 22.6241C9.83988 22.6234 9.83484 22.6219 9.83053 22.6212C9.64785 22.5847 9.46518 22.5517 9.28251 22.5138C9.09767 22.4751 8.91572 22.425 8.74311 22.3484C8.52807 22.2531 8.33245 22.1192 8.15553 21.966C8.04837 21.8714 7.94697 21.7712 7.83981 21.6759C7.78515 21.6287 7.72905 21.5835 7.67008 21.5427C7.63915 21.5227 7.60823 21.5048 7.57587 21.4876C7.55573 21.4783 7.53559 21.469 7.51545 21.4611C7.50395 21.4575 7.49244 21.4546 7.48021 21.4518C7.4572 21.4475 7.43347 21.4446 7.41045 21.4425C7.37305 21.441 7.33638 21.441 7.29898 21.4425C7.14579 21.4546 6.99332 21.4776 6.83941 21.489C6.77541 21.494 6.7114 21.4976 6.64739 21.4955C6.43163 21.5979 6.20221 21.5613 5.97135 21.5248C5.82608 21.5019 5.67936 21.4783 5.53552 21.4905C5.01051 21.4869 4.41646 21.6824 4.18129 22.1872C4.05759 22.42 4.09714 22.6878 4.05327 22.937C3.58436 23.7799 3.21757 24.3578 3.53761 25.3554C3.60809 25.6526 3.50165 25.9476 3.5074 26.2448C3.54408 26.6766 3.80012 27.112 4.20502 27.2932C4.40495 27.3863 4.63006 27.397 4.83719 27.4679C5.45713 27.763 6.12742 27.9785 6.82 27.9971C6.86531 27.9986 6.91061 28 6.9552 28C7.63124 28 8.28643 27.8045 8.90565 27.5395C8.93154 27.5424 8.95959 27.541 8.98908 27.5317C9.69101 27.3211 10.4296 27.4364 11.1402 27.5345C12.3837 27.7093 13.6293 27.9005 14.8857 27.9391C16.2644 27.9169 18.2702 28.0222 19.0613 26.6694C19.6367 25.5623 19.5245 24.3191 19.262 23.1254C19.2642 23.1297 19.2663 23.1332 19.2677 23.1375L19.2735 23.1332Z" fill="#EA6725"/>
<g id="Vector_3">
</g>
<path id="Vector_4" d="M14.8157 21.1928C14.8157 21.1928 14.8157 21.1928 14.8157 21.1914V21.1928Z" fill="#FF0000"/>
<path id="Vector_5" d="M14.8157 21.1899C14.8157 21.1899 14.8157 21.1895 14.8157 21.1891C14.8157 21.1891 14.8157 21.1899 14.8157 21.1903V21.1899Z" fill="#FF0000"/>
<path id="Vector_6" d="M14.8149 21.1895V21.1879C14.8149 21.1879 14.8149 21.1887 14.8149 21.1895Z" fill="#FF0000"/>
<path id="Vector_7" d="M14.8144 21.1883L14.8159 21.1897L14.8144 21.1883Z" fill="#FF0000"/>
<path id="Vector_8" d="M14.8144 21.1871C14.8144 21.1871 14.8144 21.1879 14.8144 21.1887C14.8144 21.1887 14.8144 21.1887 14.8144 21.1879V21.1871Z" fill="#FF0000"/>
<g id="Vector_9">
</g>
<path id="Vector_10" d="M14.8135 21.1858C14.8135 21.1858 14.8135 21.1865 14.8135 21.1872C14.8135 21.1872 14.8135 21.1865 14.8135 21.1858C14.8121 21.1816 14.8106 21.1773 14.8092 21.1738C14.8092 21.1745 14.8092 21.1759 14.8099 21.1766C14.8106 21.1795 14.8121 21.1823 14.8128 21.1851L14.8135 21.1858Z" fill="#FF0000"/>
<path id="Vector_11" d="M9.84094 22.6187C9.84094 22.6187 9.84689 22.6202 9.84986 22.6209C9.84689 22.6209 9.84391 22.6195 9.84169 22.6195L9.84094 22.6187Z" fill="#FF0000"/>
<path id="Vector_12" d="M9.84014 22.6176C9.83429 22.6162 9.82844 22.6155 9.82258 22.6141C9.8277 22.6148 9.83209 22.6162 9.83721 22.6169C9.83795 22.6169 9.83941 22.6169 9.84014 22.6169V22.6176Z" fill="#FF0000"/>
</g>
<path id="Vector_13" d="M14.7208 10.6459C14.2174 10.4735 13.7144 10.3 13.2118 10.1254C12.7096 9.94963 12.2106 9.76888 11.7139 9.5789C11.6731 9.56311 11.6312 9.54687 11.5905 9.53108C11.1272 9.35153 10.6684 9.16366 10.2166 8.95713C10.1767 8.93915 10.1372 8.92007 10.0973 8.90209C9.85216 8.78819 9.60706 8.67054 9.37006 8.54218C9.31985 8.65997 9.27504 8.78111 9.23763 8.90387C9.15469 9.1777 9.10062 9.45643 9.07299 9.74288C9.04832 10.004 9.05484 10.271 9.08301 10.5337C9.11197 10.8119 9.17181 11.0932 9.2617 11.3623C9.3487 11.6214 9.45376 11.8786 9.59055 12.1193C9.73256 12.3707 9.89398 12.6133 10.0845 12.8357C10.2651 13.0455 10.4601 13.2419 10.6756 13.4199C10.9064 13.6101 11.1584 13.7795 11.4233 13.9224C11.5664 13.9993 11.7139 14.0715 11.8651 14.1339C11.8977 14.1466 11.931 14.1607 11.9636 14.1734C12.0405 14.2031 12.1193 14.2312 12.1982 14.2555C12.4905 14.3473 12.79 14.4206 13.0934 14.4551C13.3716 14.486 13.6532 14.5007 13.9298 14.4795C14.0785 14.4679 14.2277 14.4551 14.3751 14.4292C14.527 14.4024 14.6781 14.3703 14.8267 14.331C15.0971 14.2595 15.3581 14.1566 15.6061 14.0349C16.1181 13.785 16.5666 13.425 16.9242 12.9982C17.2685 12.5889 17.5181 12.1127 17.6732 11.6037C17.1942 11.4583 16.7169 11.3049 16.2408 11.1518C15.7329 10.9877 15.2266 10.8193 14.7216 10.6475L14.7208 10.6459Z" fill="#EA6725"/>
<path id="Vector_14" d="M20.8349 9.99192C20.6577 8.71464 19.4963 7.8974 18.3578 7.6117C18.1915 7.58125 17.9631 7.5267 17.7229 7.48981C17.0211 5.7257 15.2614 4.45711 13.3626 4.61891C12.5933 4.67883 11.894 4.92004 11.2701 5.29888C11.2564 5.31186 11.2411 5.32555 11.2274 5.33853C11.0801 5.47873 10.9419 5.62772 10.8123 5.78393C10.5896 6.05955 10.395 6.35654 10.2066 6.65722L10.1992 6.67003L10.1975 6.67459C10.1369 6.7713 10.0773 6.86843 10.0189 6.96599C9.97105 7.04546 9.92281 7.12607 9.8761 7.20596C9.86442 7.24978 9.85164 7.29317 9.83778 7.33614C9.81092 7.41981 9.78035 7.50334 9.74869 7.58646C9.73264 7.62858 9.71659 7.67071 9.70011 7.71397C9.69664 7.72308 9.69274 7.73333 9.68927 7.74244C9.67322 7.78456 9.65499 7.82584 9.63785 7.86755C9.63612 7.8721 9.63482 7.87552 9.63308 7.88007C9.63091 7.88576 9.62874 7.89145 9.62657 7.89715C9.62572 7.90596 9.6253 7.91364 9.62554 7.92288C9.62555 7.92942 9.62448 7.93553 9.62449 7.94207C9.62222 8.00391 9.62323 8.06702 9.62729 8.12869C9.62929 8.14645 9.63129 8.16421 9.63438 8.1824L9.63483 8.1878C9.63682 8.19902 9.63771 8.20982 9.64013 8.21991C9.64409 8.23581 9.64805 8.25172 9.65244 8.26649C9.65244 8.26649 9.65376 8.26961 9.65441 8.27117C9.65727 8.28012 9.65969 8.2902 9.66363 8.29957C9.66429 8.30113 9.66561 8.30425 9.66627 8.30582C9.66978 8.31632 9.67372 8.32569 9.67876 8.33548C9.68073 8.34017 9.6827 8.34485 9.68424 8.35067C9.69016 8.36473 9.69542 8.37722 9.70177 8.39013C9.70309 8.39326 9.70375 8.39482 9.70506 8.39794C9.70878 8.40461 9.71185 8.40972 9.71557 8.41638C9.72432 8.43284 9.73308 8.4493 9.74227 8.46463C9.80776 8.49654 9.87325 8.52845 9.93809 8.5588C10.3561 8.75346 10.7813 8.9326 11.2102 9.09879C11.2473 9.11317 11.2844 9.12755 11.3215 9.14192C11.7883 9.32022 12.2586 9.4894 12.7304 9.65134C13.2022 9.81327 13.6754 9.97179 14.1489 10.1292C14.2266 10.1553 14.3047 10.1804 14.3813 10.2062C14.7805 10.3386 15.1811 10.4704 15.5816 10.5994C15.8849 10.6974 16.188 10.7926 16.4931 10.886C16.6823 10.9449 16.8734 11.002 17.063 11.0598C17.1058 11.0725 17.1486 11.0851 17.1902 11.0974C17.2374 11.1117 17.2834 11.1256 17.3306 11.14C17.3485 11.1456 17.3668 11.1501 17.3858 11.1562C17.4048 11.1622 17.4253 11.1675 17.4453 11.174C17.461 11.1788 17.4778 11.184 17.4936 11.1888C17.5985 11.219 17.702 11.2499 17.8073 11.279C17.9236 11.3123 18.0404 11.3445 18.156 11.3762C18.1981 11.3873 18.2409 11.4 18.283 11.4111L18.2852 11.4119C18.3452 11.4287 18.4046 11.4438 18.4646 11.4605C18.4916 11.4684 18.518 11.4747 18.5451 11.4826C18.6289 11.5059 18.7103 11.5322 18.7932 11.5578C20.0502 11.8973 21.0513 11.5313 20.8332 9.98993L20.8349 9.99192ZM11.3143 8.55903C11.7346 7.45578 12.8525 6.86199 13.8106 7.23328C14.7687 7.60457 15.2048 8.80056 14.7845 9.9038L11.3143 8.55903Z" fill="#0268C0"/>
</g>
</svg>
