<svg width="131.479" height="165.375" viewBox="0 0 131.479 165.375" fill="none" xmlns="http://www.w3.org/2000/svg">
<g id="uuid-9978d674-3040-48b2-b789-19039c46b6a5">
<g id="Group">
<g id="Vector">
</g>
<path id="Vector_2" d="M114.838 136.631C114.838 136.631 114.855 136.614 114.864 136.601C114.834 136.546 114.804 136.491 114.774 136.436C114.234 134.025 113.591 131.653 112.974 129.36C112.897 129.051 112.82 128.743 112.747 128.434C112.747 128.396 112.742 128.362 112.734 128.324C111.444 122.009 109.481 115.753 106.692 109.921C106.718 109.917 106.739 109.912 106.76 109.908C105.723 107.561 104.524 105.289 103.041 103.149C97.543 95.7602 88.9169 92.1692 80.3937 89.3058C71.7248 86.4593 62.9573 83.9004 54.1598 81.4768C52.0858 80.8762 50.0161 80.2629 47.9249 79.7258C47.7792 79.6708 47.6207 79.6243 47.4578 79.5862C47.2221 79.4339 46.9265 79.3028 46.5665 79.214C43.9997 77.9028 41.6771 76.1348 39.7788 73.9862C31.2513 63.7506 28.783 48.9935 33.2867 36.5374C33.5053 35.3827 34.5894 34.1265 34.6109 33.0099C35.3865 32.5869 36.1321 31.6607 36.7449 31.225C39.7916 28.4377 42.187 24.9187 43.4855 21.0148C43.6697 20.4861 43.8068 19.9405 43.9783 19.4033C44.0768 19.3483 44.1711 19.2764 44.2611 19.1876C44.8396 18.6293 45.4609 18.1217 46.0823 17.6099C48.7691 15.4317 51.5844 13.41 54.2884 11.2486C57.8408 8.83776 59.932 4.59548 56.0796 1.38099C50.4274 -3.3477 40.7987 5.3272 35.9864 8.53323C33.411 10.3816 33.201 9.14653 31.2299 7.52236C28.1402 5.02267 24.0393 5.45832 20.4141 6.27463C19.9341 6.32116 19.5527 5.99548 19.1885 5.73747C18.1044 4.98037 16.746 4.53204 15.4133 4.69276C8.96407 5.36104 5.37309 11.7646 4.7946 17.6057C4.55891 20.1477 4.99171 22.677 5.2274 25.1978C5.36024 25.8661 4.97457 26.6655 4.91458 27.3549C3.80472 29.622 1.42216 35.9029 1.25932 39.2274C1.19933 39.46 1.18648 39.7053 1.21219 39.9422C1.12648 41.025 0.967933 42.1078 0.817952 43.1821C0.445141 45.8086 0.140894 48.4521 0.0209088 51.0999C-0.437605 67.7222 6.68007 84.3149 18.0529 96.4369C23.5122 101.521 29.7258 106.042 36.5435 109.215C38.7503 110.94 39.4017 113.935 40.0187 116.515C40.4987 118.888 40.7301 121.307 40.8972 123.718C40.9272 123.857 40.9443 124.001 40.9572 124.153C41.15 124.107 41.3386 124.065 41.5314 124.022C42.8684 123.726 44.2482 123.506 45.5938 123.866C46.3051 124.056 46.965 124.445 47.5649 124.856C48.0192 125.164 48.4348 125.515 48.8462 125.879C49.4718 126.429 50.0675 127.017 50.6888 127.571C51.1816 127.994 51.6916 128.4 52.2272 128.768C52.5315 128.967 52.8443 129.149 53.17 129.314C53.4828 129.462 53.7999 129.593 54.1255 129.711C54.6055 129.868 55.094 129.999 55.5911 130.104C56.5852 130.295 57.5965 130.426 58.595 130.587C59.7434 130.769 60.8876 130.988 62.0231 131.225C62.7559 131.378 63.4844 131.534 64.2171 131.682C64.2471 131.686 64.2729 131.695 64.3028 131.699C66.6254 132.164 68.9523 132.575 71.2963 132.909C73.6188 133.239 75.9457 133.535 78.2682 133.869C80.6465 134.211 83.0248 134.537 85.3988 134.914C86.5386 135.095 87.6785 135.29 88.8141 135.501C89.9111 135.704 91.0081 135.92 92.1051 136.106C92.0879 136.051 92.0665 135.996 92.0494 135.941C91.6766 134.892 91.2695 133.856 90.8924 132.811C90.4553 131.61 90.0396 130.401 89.6282 129.191C89.174 127.859 88.7283 126.522 88.2613 125.194C88.2784 125.24 88.2913 125.283 88.3084 125.329C88.2955 125.295 88.287 125.266 88.2741 125.232C88.2656 125.215 88.2613 125.194 88.2527 125.173C88.2527 125.173 88.2527 125.177 88.2527 125.181C88.2527 125.181 88.2527 125.177 88.2527 125.173C88.2527 125.169 88.2527 125.164 88.2484 125.16C88.2398 125.135 88.2313 125.114 88.2227 125.088C87.9227 124.242 87.6056 123.401 87.2842 122.563C87.1171 122.127 86.95 121.692 86.7829 121.26C86.7057 121.057 86.6243 120.85 86.5472 120.647C86.4401 120.368 86.3115 120.085 86.2344 119.793C86.1444 119.446 86.1615 119.086 86.3029 118.756C86.4658 118.38 86.7743 118.071 87.1557 117.915C87.4857 117.775 87.8627 117.754 88.2056 117.847C88.5869 117.953 88.9812 118.219 89.1654 118.575C89.2554 118.748 89.3283 118.917 89.3968 119.099C89.444 119.222 89.4911 119.349 89.5383 119.471C89.6282 119.704 89.7139 119.941 89.8039 120.173C89.9882 120.664 90.1725 121.155 90.3524 121.645C90.7424 122.715 91.1238 123.79 91.4923 124.868C92.2636 127.11 92.9835 129.364 93.7334 131.614C94.0934 132.693 94.4833 133.772 94.7576 134.88C94.9033 135.476 95.0233 136.081 95.0704 136.694C95.0918 136.965 95.1004 137.236 95.0876 137.506C95.0747 137.802 95.0318 138.073 94.9333 138.352C94.8562 138.762 94.6248 139.139 94.2905 139.393C94.1148 139.528 93.9091 139.63 93.6949 139.685C93.5449 139.727 93.3992 139.739 93.2492 139.739C93.1678 139.739 93.0864 139.739 93.0007 139.731C92.675 139.71 92.3579 139.617 92.0408 139.545C89.7654 139.097 87.4814 138.652 85.1931 138.263C82.8277 137.862 80.4537 137.485 78.0797 137.134C75.7571 136.787 73.426 136.478 71.1034 136.136C69.8993 135.958 68.6994 135.772 67.5039 135.544C66.2483 135.307 64.9928 135.045 63.7458 134.77C62.0574 134.398 60.3819 133.975 58.685 133.628C58.6764 133.628 58.6678 133.628 58.6593 133.623C58.6678 133.623 58.6764 133.623 58.685 133.628C58.6764 133.628 58.6678 133.628 58.6593 133.623C58.6293 133.619 58.5993 133.611 58.5736 133.607C57.4851 133.391 56.3967 133.196 55.3083 132.972C54.207 132.744 53.1228 132.448 52.0944 131.995C50.8131 131.433 49.6475 130.642 48.5934 129.736C47.9549 129.178 47.3507 128.586 46.7122 128.024C46.3865 127.744 46.0523 127.478 45.7009 127.237C45.5166 127.118 45.3324 127.013 45.1395 126.911C45.0196 126.856 44.8996 126.801 44.7796 126.755C44.711 126.733 44.6425 126.717 44.5696 126.7C44.4325 126.674 44.2911 126.657 44.1539 126.645C43.9311 126.636 43.7126 126.636 43.4897 126.645C42.577 126.717 41.6685 126.852 40.7515 126.92C40.3701 126.949 39.9888 126.97 39.6074 126.958C38.3218 127.562 36.9548 127.347 35.5793 127.131C34.7137 126.996 33.8395 126.856 32.9825 126.928C29.8543 126.907 26.3148 128.062 24.9135 131.043C24.1764 132.418 24.4121 134 24.1507 135.472C21.3568 140.45 19.1714 143.863 21.0783 149.755C21.4982 151.51 20.864 153.253 20.8983 155.008C21.1168 157.559 22.6424 160.13 25.0549 161.2C26.2462 161.75 27.5875 161.814 28.8216 162.232C32.5154 163.975 36.5092 165.248 40.6358 165.358C40.9058 165.367 41.1757 165.375 41.4414 165.375C45.4695 165.375 49.3733 164.22 53.0628 162.655C53.2171 162.672 53.3842 162.664 53.5599 162.609C57.7422 161.365 62.1431 162.046 66.3769 162.626C73.7859 163.658 81.2079 164.787 88.6941 165.016C96.9088 164.884 108.86 165.506 113.574 157.516C117.002 150.978 116.333 143.635 114.769 136.584C114.782 136.61 114.795 136.631 114.804 136.656L114.838 136.631Z" fill="#EA6725"/>
<g id="Vector_3">
</g>
<path id="Vector_4" d="M88.2772 125.168C88.2772 125.168 88.2772 125.168 88.2772 125.162V125.168Z" fill="#FF0000"/>
<path id="Vector_5" d="M88.2772 125.156C88.2772 125.156 88.2772 125.152 88.2772 125.149C88.2772 125.149 88.2772 125.156 88.2772 125.159V125.156Z" fill="#FF0000"/>
<path id="Vector_6" d="M88.272 125.154V125.141C88.272 125.141 88.272 125.147 88.272 125.154Z" fill="#FF0000"/>
<path id="Vector_7" d="M88.2694 125.144L88.2762 125.15L88.2694 125.144Z" fill="#FF0000"/>
<path id="Vector_8" d="M88.2694 125.136C88.2694 125.136 88.2694 125.142 88.2694 125.149C88.2694 125.149 88.2694 125.149 88.2694 125.142V125.136Z" fill="#FF0000"/>
<g id="Vector_9">
</g>
<path id="Vector_10" d="M88.264 125.128C88.264 125.128 88.264 125.132 88.264 125.137C88.264 125.137 88.264 125.132 88.264 125.128C88.2554 125.103 88.2468 125.078 88.2381 125.058C88.2381 125.062 88.2381 125.07 88.2424 125.074C88.2468 125.091 88.2554 125.107 88.2597 125.124L88.264 125.128Z" fill="#FF0000"/>
<path id="Vector_11" d="M58.6358 133.591C58.6358 133.591 58.6712 133.6 58.6889 133.604C58.6712 133.604 58.6535 133.595 58.6402 133.595L58.6358 133.591Z" fill="#FF0000"/>
<path id="Vector_12" d="M58.6309 133.586C58.5961 133.578 58.5612 133.573 58.5263 133.565C58.5568 133.569 58.583 133.578 58.6135 133.582C58.6179 133.582 58.6266 133.582 58.6309 133.582V133.586Z" fill="#FF0000"/>
</g>
<path id="Vector_13" d="M87.7116 62.8778C84.712 61.8594 81.7148 60.8345 78.7201 59.8031C75.7279 58.7653 72.7551 57.6977 69.7953 56.5756C69.5525 56.4824 69.3028 56.3865 69.06 56.2932C66.2994 55.2328 63.5656 54.1231 60.8742 52.9034C60.6364 52.7971 60.4011 52.6844 60.1633 52.5782C58.7025 51.9055 57.2421 51.2107 55.83 50.4526C55.5308 51.1483 55.2638 51.8637 55.0409 52.5887C54.5467 54.2061 54.2245 55.8523 54.0599 57.5442C53.9129 59.0866 53.9518 60.6633 54.1196 62.2151C54.2922 63.8581 54.6487 65.5196 55.1843 67.1086C55.7027 68.6389 56.3287 70.1585 57.1437 71.5797C57.9899 73.0649 58.9516 74.4978 60.0867 75.8113C61.1628 77.0502 62.3248 78.2105 63.6086 79.2614C64.9839 80.3847 66.4858 81.3855 68.0639 82.2297C68.9163 82.6835 69.7951 83.1103 70.6963 83.4788C70.8905 83.5534 71.0891 83.6372 71.2833 83.7118C71.7411 83.8876 72.2109 84.0532 72.6811 84.1966C74.4228 84.7393 76.2069 85.1717 78.0151 85.3755C79.6722 85.5584 81.3503 85.6452 82.9985 85.5198C83.8846 85.4511 84.7731 85.376 85.6519 85.2227C86.5565 85.0645 87.4572 84.875 88.3426 84.6425C89.9536 84.2202 91.5085 83.6127 92.9867 82.8939C96.0373 81.4182 98.7094 79.2914 100.84 76.7708C102.892 74.3535 104.378 71.5408 105.303 68.5345C102.449 67.6761 99.605 66.7697 96.7683 65.8659C93.7418 64.8967 90.7252 63.9015 87.7161 62.8869L87.7116 62.8778Z" fill="#EA6725"/>
<path id="Vector_14" d="M124.142 59.0148C123.086 51.4709 116.166 46.6441 109.382 44.9566C108.392 44.7768 107.03 44.4546 105.599 44.2367C101.418 33.8175 90.9327 26.3248 79.6188 27.2805C75.0355 27.6344 70.869 29.059 67.1512 31.2966C67.0695 31.3732 66.9787 31.4541 66.897 31.5308C66.0191 32.3588 65.196 33.2388 64.4235 34.1614C63.0965 35.7893 61.9374 37.5434 60.8147 39.3192L60.7707 39.3949L60.7603 39.4218C60.3991 39.993 60.0443 40.5667 59.696 41.1429C59.4111 41.6123 59.1237 42.0884 58.8454 42.5603C58.7758 42.819 58.6997 43.0753 58.6171 43.3291C58.457 43.8233 58.2749 44.3167 58.0862 44.8076C57.9906 45.0564 57.895 45.3052 57.7968 45.5607C57.7761 45.6145 57.7528 45.675 57.7322 45.7288C57.6366 45.9776 57.5279 46.2214 57.4258 46.4678C57.4155 46.4946 57.4077 46.5148 57.3974 46.5417C57.3845 46.5753 57.3715 46.609 57.3586 46.6426C57.3535 46.6947 57.351 46.74 57.3525 46.7946C57.3525 46.8332 57.3461 46.8693 57.3462 46.9079C57.3327 47.2732 57.3387 47.6459 57.3629 48.0102C57.3748 48.1151 57.3867 48.22 57.4051 48.3274L57.4078 48.3593C57.4196 48.4255 57.425 48.4893 57.4394 48.5489C57.463 48.6428 57.4866 48.7368 57.5128 48.824C57.5128 48.824 57.5206 48.8425 57.5245 48.8517C57.5415 48.9045 57.5559 48.9641 57.5794 49.0194C57.5834 49.0286 57.5912 49.0471 57.5951 49.0563C57.616 49.1183 57.6395 49.1737 57.6696 49.2315C57.6813 49.2592 57.6931 49.2868 57.7022 49.3212C57.7375 49.4042 57.7688 49.478 57.8067 49.5543C57.8145 49.5727 57.8184 49.582 57.8263 49.6004C57.8484 49.6398 57.8667 49.6699 57.8889 49.7093C57.9411 49.8066 57.9932 49.9038 58.048 49.9943C58.4382 50.1827 58.8284 50.3712 59.2147 50.5505C61.7054 51.7002 64.2388 52.7582 66.7942 53.7398C67.0152 53.8247 67.2363 53.9096 67.4574 53.9946C70.2389 55.0476 73.0412 56.0469 75.8524 57.0033C78.6637 57.9597 81.4827 58.8959 84.3042 59.8254C84.7671 59.9801 85.2326 60.128 85.689 60.2802C88.0672 61.0625 90.4545 61.8407 92.8404 62.6028C94.6477 63.1813 96.4537 63.7439 98.2714 64.2955C99.3987 64.6436 100.538 64.9808 101.668 65.3222C101.922 65.3969 102.177 65.4717 102.426 65.5439C102.706 65.6286 102.981 65.7109 103.262 65.7956C103.368 65.8288 103.477 65.8554 103.59 65.8911C103.704 65.9268 103.826 65.9583 103.945 65.9966C104.039 66.0248 104.139 66.0556 104.233 66.0838C104.858 66.2623 105.474 66.445 106.102 66.6168C106.795 66.8135 107.491 67.0035 108.18 67.191C108.431 67.2565 108.686 67.3313 108.937 67.3968L108.95 67.4018C109.307 67.5005 109.661 67.5901 110.018 67.6888C110.18 67.7353 110.337 67.7726 110.498 67.8191C110.997 67.9569 111.482 68.1123 111.976 68.2635C119.466 70.2685 125.431 68.1069 124.131 59.0031L124.142 59.0148ZM67.4149 50.5518C69.919 44.0358 76.5796 40.5287 82.2885 42.7216C87.9973 44.9146 90.5956 51.9783 88.0916 58.4944L67.4149 50.5518Z" fill="#0268C0"/>
</g>
</svg>
