<svg width="20" height="20" viewBox="0 0 20 20" fill="none" xmlns="http://www.w3.org/2000/svg">
<g id="logout">
<path id="Vector" d="M11.0086 8.68327H7.19121C6.43556 8.68352 5.81625 9.30257 5.81621 10.0583C5.81621 10.7982 6.41214 11.432 7.19121 11.4235V11.4255H10.9998V17.5827C8.73979 17.575 6.86566 16.7863 5.55645 15.4772C4.24075 14.1615 3.45 12.2748 3.45 9.99967C3.45008 7.72471 4.24081 5.83874 5.55645 4.52311C6.86737 3.21219 8.74455 2.42238 11.0086 2.41667V8.68327Z" stroke="#005BAC" stroke-width="1.5"/>
<g id="Vector_2">
<mask id="path-2-inside-1_0_24" fill="white">
<path d="M17.1167 9.61667L14.75 7.24167C14.5083 7 14.1083 7 13.8667 7.24167C13.625 7.48333 13.625 7.88333 13.8667 8.125L15.1667 9.425H11.75V10.675H15.1583L13.8583 11.975C13.6167 12.2167 13.6167 12.6167 13.8583 12.8583C13.9833 12.9833 14.1417 13.0417 14.3 13.0417C14.4583 13.0417 14.6167 12.9833 14.7417 12.8583L17.1083 10.4833C17.3583 10.25 17.3583 9.85833 17.1167 9.61667Z"/>
</mask>
<path d="M17.1167 9.61667L16.0541 10.6755L16.056 10.6773L17.1167 9.61667ZM14.75 7.24167L15.8125 6.18287L15.8107 6.18101L14.75 7.24167ZM13.8667 8.125L12.806 9.18566L12.806 9.18566L13.8667 8.125ZM15.1667 9.425V10.925H18.788L16.2273 8.36434L15.1667 9.425ZM11.75 9.425V7.925H10.25V9.425H11.75ZM11.75 10.675H10.25V12.175H11.75V10.675ZM15.1583 10.675L16.219 11.7357L18.7797 9.175H15.1583V10.675ZM13.8583 11.975L12.7977 10.9143L12.7977 10.9143L13.8583 11.975ZM14.7417 12.8583L15.8023 13.919L15.8042 13.9171L14.7417 12.8583ZM17.1083 10.4833L16.0849 9.38675L16.065 9.40529L16.0458 9.42454L17.1083 10.4833ZM17.1167 9.61667L18.1792 8.55787L15.8125 6.18287L14.75 7.24167L13.6875 8.30046L16.0541 10.6755L17.1167 9.61667ZM14.75 7.24167L15.8107 6.18101C14.9832 5.35355 13.6335 5.35355 12.806 6.18101L13.8667 7.24167L14.9273 8.30233C14.5832 8.64645 14.0335 8.64645 13.6893 8.30233L14.75 7.24167ZM13.8667 7.24167L12.806 6.18101C11.9786 7.00846 11.9786 8.35821 12.806 9.18566L13.8667 8.125L14.9273 7.06434C15.2714 7.40846 15.2714 7.95821 14.9273 8.30233L13.8667 7.24167ZM13.8667 8.125L12.806 9.18566L14.106 10.4857L15.1667 9.425L16.2273 8.36434L14.9273 7.06434L13.8667 8.125ZM15.1667 9.425V7.925H11.75V9.425V10.925H15.1667V9.425ZM11.75 9.425H10.25V10.675H11.75H13.25V9.425H11.75ZM11.75 10.675V12.175H15.1583V10.675V9.175H11.75V10.675ZM15.1583 10.675L14.0977 9.61434L12.7977 10.9143L13.8583 11.975L14.919 13.0357L16.219 11.7357L15.1583 10.675ZM13.8583 11.975L12.7977 10.9143C11.9702 11.7418 11.9702 13.0915 12.7977 13.919L13.8583 12.8583L14.919 11.7977C15.2631 12.1418 15.2631 12.6915 14.919 13.0357L13.8583 11.975ZM13.8583 12.8583L12.7977 13.919C13.2188 14.3401 13.7653 14.5417 14.3 14.5417V13.0417V11.5417C14.518 11.5417 14.7479 11.6265 14.919 11.7977L13.8583 12.8583ZM14.3 13.0417V14.5417C14.8347 14.5417 15.3812 14.3401 15.8023 13.919L14.7417 12.8583L13.681 11.7977C13.8521 11.6265 14.082 11.5417 14.3 11.5417V13.0417ZM14.7417 12.8583L15.8042 13.9171L18.1709 11.5421L17.1083 10.4833L16.0458 9.42454L13.6791 11.7995L14.7417 12.8583ZM17.1083 10.4833L18.1318 11.5799C19.0245 10.7468 18.9974 9.37608 18.1773 8.55601L17.1167 9.61667L16.056 10.6773C15.7193 10.3406 15.6922 9.75323 16.0849 9.38675L17.1083 10.4833Z" fill="#005BAC" mask="url(#path-2-inside-1_0_24)"/>
</g>
<g id="Vector_3" opacity="0">
</g>
</g>
</svg>
