<svg width="20" height="20" viewBox="0 0 20 20" fill="none" xmlns="http://www.w3.org/2000/svg">
<g id="edit">
<path id="Vector" d="M9.16667 1.66667H7.5C3.33333 1.66667 1.66667 3.33333 1.66667 7.5V12.5C1.66667 16.6667 3.33333 18.3333 7.5 18.3333H12.5C16.6667 18.3333 18.3333 16.6667 18.3333 12.5V10.8333" stroke="#005BAC" stroke-width="1.5" stroke-linecap="round" stroke-linejoin="round"/>
<path id="Vector_2" d="M13.3667 2.51667L6.8 9.08333C6.55 9.33333 6.3 9.825 6.25 10.1833L5.89167 12.6917C5.75833 13.6 6.4 14.2333 7.30833 14.1083L9.81667 13.75C10.1667 13.7 10.6583 13.45 10.9167 13.2L17.4833 6.63333C18.6167 5.5 19.15 4.18333 17.4833 2.51667C15.8167 0.85 14.5 1.38333 13.3667 2.51667Z" stroke="#003060" stroke-width="1.25" stroke-miterlimit="10" stroke-linecap="round" stroke-linejoin="round"/>
<path id="Vector_3" d="M12.425 3.45833C12.9833 5.45 14.5417 7.00833 16.5417 7.575" stroke="#003060" stroke-width="1.25" stroke-miterlimit="10" stroke-linecap="round" stroke-linejoin="round"/>
<g id="Vector_4" opacity="0">
</g>
</g>
</svg>
