<svg width="40" height="40" viewBox="0 0 40 40" fill="none" xmlns="http://www.w3.org/2000/svg">

<g id="Single Campaign Overview-Desktop">

<g id="body">
<g id="Participant ">
<g id="Table">
<g id="leaderboard" filter="url(#filter0_d_5416_24318)">


<g id="Row Container">
<g id="header">
<mask id="path-3-inside-1_5416_24318" fill="white">
<path d="M-32 -22H1526V60H-32V-22Z"/>
</mask>
<path d="M1526 60V59H-32V60V61H1526V60Z" fill="#E7E9EB" mask="url(#path-3-inside-1_5416_24318)"/>
<g id="text">
<g id="Badge" clip-path="url(#clip0_5416_24318)">
<g id="Group">
<g id="Group_2">
<g id="Rank Icon Container">
<g id="Group_3">
<path id="Vector" d="M19.4637 11.7413L14.1883 14.1368L8.04974 3.66611L15.619 0.22876L19.4637 11.7413Z" fill="url(#paint0_linear_5416_24318)"/>
<path id="Vector_2" d="M13.781 14.5394L11.7443 19.9641L0 16.9002L2.92144 9.11768L13.781 14.5394Z" fill="url(#paint1_linear_5416_24318)"/>
<path id="Vector_3" d="M11.7412 20.5364L14.1367 25.8125L3.66605 31.9511L0.228699 24.3818L11.7412 20.5364Z" fill="url(#paint2_linear_5416_24318)"/>
<path id="Vector_4" d="M14.5394 26.2197L19.9642 28.2556L16.9003 39.9999L9.11774 37.0793L14.5394 26.2197Z" fill="url(#paint3_linear_5416_24318)"/>
<path id="Vector_5" d="M20.5363 28.2596L25.8125 25.8633L31.951 36.334L24.3818 39.7713L20.5363 28.2596Z" fill="url(#paint4_linear_5416_24318)"/>
<path id="Vector_6" d="M26.2198 25.4614L28.2557 20.0366L40 23.0997L37.0793 30.8823L26.2198 25.4614Z" fill="url(#paint5_linear_5416_24318)"/>
<path id="Vector_7" d="M28.2596 19.4637L25.8633 14.1884L36.334 8.0498L39.7713 15.6191L28.2596 19.4637Z" fill="url(#paint6_linear_5416_24318)"/>
<path id="Vector_8" d="M25.4613 13.781L20.0366 11.7443L23.0997 0L30.8822 2.92144L25.4613 13.781Z" fill="url(#paint7_linear_5416_24318)"/>
</g>
<g id="Group_4">
<path id="Vector_9" d="M20.0004 33.2966C27.3435 33.2966 33.2962 27.3438 33.2962 20.0007C33.2962 12.6576 27.3435 6.70483 20.0004 6.70483C12.6573 6.70483 6.70453 12.6576 6.70453 20.0007C6.70453 27.3438 12.6573 33.2966 20.0004 33.2966Z" fill="#E9C13A"/>
<g id="Group_5" style="mix-blend-mode:screen">
<path id="Vector_10" d="M20.0004 36.7614C15.5235 36.7614 11.3146 35.018 8.14829 31.8525C4.98199 28.687 3.23944 24.4781 3.23944 20.0004C3.23944 15.5228 4.98276 11.3147 8.14829 8.14835C11.3138 4.98205 15.5227 3.2395 20.0004 3.2395C24.478 3.2395 28.6861 4.98282 31.8524 8.14835C35.018 11.3139 36.7613 15.5228 36.7613 20.0004C36.7613 24.4781 35.018 28.6862 31.8524 31.8525C28.6869 35.0188 24.478 36.7614 20.0004 36.7614Z" fill="url(#paint8_radial_5416_24318)"/>
</g>
<g id="Group_6">
<path id="Vector_11" d="M20.0004 31.6018C13.6031 31.6018 8.39935 26.3972 8.39935 20.0007C8.39935 13.6042 13.6039 8.39966 20.0004 8.39966C26.3969 8.39966 31.6015 13.6042 31.6015 20.0007C31.6015 26.3972 26.3969 31.6018 20.0004 31.6018Z" fill="url(#paint9_radial_5416_24318)"/>
<path id="Vector_12" d="M20.0004 8.5082C23.0704 8.5082 25.9557 9.70326 28.1264 11.8739C30.297 14.0446 31.4921 16.9306 31.4921 19.9999C31.4921 23.0692 30.297 25.9552 28.1264 28.1259C25.9557 30.2966 23.0697 31.4916 20.0004 31.4916C16.9311 31.4916 14.0451 30.2966 11.8744 28.1259C9.70373 25.9552 8.50866 23.0692 8.50866 19.9999C8.50866 16.9306 9.70373 14.0446 11.8744 11.8739C14.0451 9.70326 16.9311 8.5082 20.0004 8.5082ZM20.0004 8.29028C13.533 8.29028 8.28998 13.5333 8.28998 20.0007C8.28998 26.468 13.533 31.7111 20.0004 31.7111C26.4677 31.7111 31.7108 26.468 31.7108 20.0007C31.7108 13.5333 26.4677 8.29028 20.0004 8.29028Z" fill="#C8802F"/>
</g>
<path id="Vector_13" d="M33.2963 20.0137C33.2963 22.7735 32.4554 25.3361 31.0162 27.4605L7.95197 14.3811C9.18553 11.7484 11.2569 9.58463 13.8218 8.23633L33.2755 19.2683C33.2893 19.5147 33.2963 19.7627 33.2963 20.0129V20.0137Z" fill="url(#paint10_linear_5416_24318)" style="mix-blend-mode:overlay"/>
<path id="Vector_14" d="M29.5331 29.2801C28.8309 30.0032 28.047 30.6469 27.1954 31.1952L6.71143 19.5787C6.74454 18.5469 6.89469 17.5451 7.15033 16.5864L29.5331 29.2809V29.2801Z" fill="url(#paint11_linear_5416_24318)" style="mix-blend-mode:overlay"/>
</g>
<g id="Group_7">
<g id="Vector_15" filter="url(#filter1_i_5416_24318)">
<path d="M20.0003 26.7204C23.7116 26.7204 26.7202 23.7118 26.7202 20.0004C26.7202 16.2891 23.7116 13.2805 20.0003 13.2805C16.289 13.2805 13.2804 16.2891 13.2804 20.0004C13.2804 23.7118 16.289 26.7204 20.0003 26.7204Z" fill="url(#paint12_linear_5416_24318)"/>
</g>
<g id="text_2" filter="url(#filter2_ddi_5416_24318)">
<path d="M19.3082 16.5405C19.3615 16.5138 19.4249 16.5005 19.4982 16.5005H21.1282C21.1749 16.5005 21.2115 16.5138 21.2382 16.5405C21.2649 16.5672 21.2782 16.6038 21.2782 16.6505V23.3505C21.2782 23.3972 21.2649 23.4338 21.2382 23.4605C21.2115 23.4872 21.1749 23.5005 21.1282 23.5005H19.5482C19.5015 23.5005 19.4649 23.4872 19.4382 23.4605C19.4115 23.4338 19.3982 23.3972 19.3982 23.3505V18.2605C19.3982 18.2472 19.3915 18.2338 19.3782 18.2205C19.3715 18.2072 19.3615 18.2038 19.3482 18.2105L18.3982 18.4005H18.3582C18.2782 18.4005 18.2382 18.3538 18.2382 18.2605V17.1105C18.2382 17.0172 18.2782 16.9572 18.3582 16.9305L19.3082 16.5405Z" fill="white"/>
</g>
</g>
</g>
</g>
</g>
</g>
</g>
</g>
</g>
</g>
</g>
</g>
</g>
</g>
<defs>
<filter id="filter0_d_5416_24318" x="-62" y="-120" width="1618" height="918" filterUnits="userSpaceOnUse" color-interpolation-filters="sRGB">
<feFlood flood-opacity="0" result="BackgroundImageFix"/>
<feColorMatrix in="SourceAlpha" type="matrix" values="0 0 0 0 0 0 0 0 0 0 0 0 0 0 0 0 0 0 127 0" result="hardAlpha"/>
<feOffset dy="4"/>
<feGaussianBlur stdDeviation="15"/>
<feComposite in2="hardAlpha" operator="out"/>
<feColorMatrix type="matrix" values="0 0 0 0 0 0 0 0 0 0.356863 0 0 0 0 0.67451 0 0 0 0.08 0"/>
<feBlend mode="normal" in2="BackgroundImageFix" result="effect1_dropShadow_5416_24318"/>
<feBlend mode="normal" in="SourceGraphic" in2="effect1_dropShadow_5416_24318" result="shape"/>
</filter>
<filter id="filter1_i_5416_24318" x="13.2804" y="13.2805" width="13.6399" height="13.8399" filterUnits="userSpaceOnUse" color-interpolation-filters="sRGB">
<feFlood flood-opacity="0" result="BackgroundImageFix"/>
<feBlend mode="normal" in="SourceGraphic" in2="BackgroundImageFix" result="shape"/>
<feColorMatrix in="SourceAlpha" type="matrix" values="0 0 0 0 0 0 0 0 0 0 0 0 0 0 0 0 0 0 127 0" result="hardAlpha"/>
<feOffset dx="0.2" dy="0.4"/>
<feGaussianBlur stdDeviation="0.8"/>
<feComposite in2="hardAlpha" operator="arithmetic" k2="-1" k3="1"/>
<feColorMatrix type="matrix" values="0 0 0 0 0.745098 0 0 0 0 0.352941 0 0 0 0 0.027451 0 0 0 1 0"/>
<feBlend mode="normal" in2="shape" result="effect1_innerShadow_5416_24318"/>
</filter>
<filter id="filter2_ddi_5416_24318" x="15.0382" y="13.3005" width="9.44004" height="13.4" filterUnits="userSpaceOnUse" color-interpolation-filters="sRGB">
<feFlood flood-opacity="0" result="BackgroundImageFix"/>
<feColorMatrix in="SourceAlpha" type="matrix" values="0 0 0 0 0 0 0 0 0 0 0 0 0 0 0 0 0 0 127 0" result="hardAlpha"/>
<feOffset/>
<feGaussianBlur stdDeviation="1.6"/>
<feComposite in2="hardAlpha" operator="out"/>
<feColorMatrix type="matrix" values="0 0 0 0 0.831373 0 0 0 0 0.564706 0 0 0 0 0.129412 0 0 0 1 0"/>
<feBlend mode="normal" in2="BackgroundImageFix" result="effect1_dropShadow_5416_24318"/>
<feColorMatrix in="SourceAlpha" type="matrix" values="0 0 0 0 0 0 0 0 0 0 0 0 0 0 0 0 0 0 127 0" result="hardAlpha"/>
<feOffset/>
<feGaussianBlur stdDeviation="0.6"/>
<feComposite in2="hardAlpha" operator="out"/>
<feColorMatrix type="matrix" values="0 0 0 0 0.776471 0 0 0 0 0.427451 0 0 0 0 0.0627451 0 0 0 1 0"/>
<feBlend mode="normal" in2="effect1_dropShadow_5416_24318" result="effect2_dropShadow_5416_24318"/>
<feBlend mode="normal" in="SourceGraphic" in2="effect2_dropShadow_5416_24318" result="shape"/>
<feColorMatrix in="SourceAlpha" type="matrix" values="0 0 0 0 0 0 0 0 0 0 0 0 0 0 0 0 0 0 127 0" result="hardAlpha"/>
<feOffset dy="-0.2"/>
<feGaussianBlur stdDeviation="0.2"/>
<feComposite in2="hardAlpha" operator="arithmetic" k2="-1" k3="1"/>
<feColorMatrix type="matrix" values="0 0 0 0 0.831373 0 0 0 0 0.564706 0 0 0 0 0.129412 0 0 0 1 0"/>
<feBlend mode="normal" in2="shape" result="effect3_innerShadow_5416_24318"/>
</filter>
<linearGradient id="paint0_linear_5416_24318" x1="11.8866" y1="2.04001" x2="16.669" y2="12.568" gradientUnits="userSpaceOnUse">
<stop stop-color="#E9C13A" stop-opacity="0"/>
<stop offset="0.1" stop-color="#E9C13A" stop-opacity="0.02"/>
<stop offset="0.23" stop-color="#E9C13A" stop-opacity="0.09"/>
<stop offset="0.38" stop-color="#E9C13A" stop-opacity="0.21"/>
<stop offset="0.54" stop-color="#E9C13A" stop-opacity="0.37"/>
<stop offset="0.71" stop-color="#E9C13A" stop-opacity="0.58"/>
<stop offset="0.89" stop-color="#E9C13A" stop-opacity="0.82"/>
<stop offset="1" stop-color="#E9C13A"/>
</linearGradient>
<linearGradient id="paint1_linear_5416_24318" x1="1.57511" y1="13.0197" x2="12.4012" y2="17.0825" gradientUnits="userSpaceOnUse">
<stop stop-color="#E9C13A" stop-opacity="0"/>
<stop offset="0.1" stop-color="#E9C13A" stop-opacity="0.02"/>
<stop offset="0.23" stop-color="#E9C13A" stop-opacity="0.09"/>
<stop offset="0.38" stop-color="#E9C13A" stop-opacity="0.21"/>
<stop offset="0.54" stop-color="#E9C13A" stop-opacity="0.37"/>
<stop offset="0.71" stop-color="#E9C13A" stop-opacity="0.58"/>
<stop offset="0.89" stop-color="#E9C13A" stop-opacity="0.82"/>
<stop offset="1" stop-color="#E9C13A"/>
</linearGradient>
<linearGradient id="paint2_linear_5416_24318" x1="2.04718" y1="28.075" x2="12.5752" y2="23.2926" gradientUnits="userSpaceOnUse">
<stop stop-color="#E9C13A" stop-opacity="0"/>
<stop offset="0.1" stop-color="#E9C13A" stop-opacity="0.02"/>
<stop offset="0.23" stop-color="#E9C13A" stop-opacity="0.09"/>
<stop offset="0.38" stop-color="#E9C13A" stop-opacity="0.21"/>
<stop offset="0.54" stop-color="#E9C13A" stop-opacity="0.37"/>
<stop offset="0.71" stop-color="#E9C13A" stop-opacity="0.58"/>
<stop offset="0.89" stop-color="#E9C13A" stop-opacity="0.82"/>
<stop offset="1" stop-color="#E9C13A"/>
</linearGradient>
<linearGradient id="paint3_linear_5416_24318" x1="13.0267" y1="38.3859" x2="17.0895" y2="27.5598" gradientUnits="userSpaceOnUse">
<stop stop-color="#E9C13A" stop-opacity="0"/>
<stop offset="0.1" stop-color="#E9C13A" stop-opacity="0.02"/>
<stop offset="0.23" stop-color="#E9C13A" stop-opacity="0.09"/>
<stop offset="0.38" stop-color="#E9C13A" stop-opacity="0.21"/>
<stop offset="0.54" stop-color="#E9C13A" stop-opacity="0.37"/>
<stop offset="0.71" stop-color="#E9C13A" stop-opacity="0.58"/>
<stop offset="0.89" stop-color="#E9C13A" stop-opacity="0.82"/>
<stop offset="1" stop-color="#E9C13A"/>
</linearGradient>
<linearGradient id="paint4_linear_5416_24318" x1="28.0815" y1="37.9147" x2="23.2988" y2="27.386" gradientUnits="userSpaceOnUse">
<stop stop-color="#E9C13A" stop-opacity="0"/>
<stop offset="0.1" stop-color="#E9C13A" stop-opacity="0.02"/>
<stop offset="0.23" stop-color="#E9C13A" stop-opacity="0.09"/>
<stop offset="0.38" stop-color="#E9C13A" stop-opacity="0.21"/>
<stop offset="0.54" stop-color="#E9C13A" stop-opacity="0.37"/>
<stop offset="0.71" stop-color="#E9C13A" stop-opacity="0.58"/>
<stop offset="0.89" stop-color="#E9C13A" stop-opacity="0.82"/>
<stop offset="1" stop-color="#E9C13A"/>
</linearGradient>
<linearGradient id="paint5_linear_5416_24318" x1="38.3936" y1="26.9355" x2="27.5668" y2="22.8725" gradientUnits="userSpaceOnUse">
<stop stop-color="#E9C13A" stop-opacity="0"/>
<stop offset="0.1" stop-color="#E9C13A" stop-opacity="0.02"/>
<stop offset="0.23" stop-color="#E9C13A" stop-opacity="0.09"/>
<stop offset="0.38" stop-color="#E9C13A" stop-opacity="0.21"/>
<stop offset="0.54" stop-color="#E9C13A" stop-opacity="0.37"/>
<stop offset="0.71" stop-color="#E9C13A" stop-opacity="0.58"/>
<stop offset="0.89" stop-color="#E9C13A" stop-opacity="0.82"/>
<stop offset="1" stop-color="#E9C13A"/>
</linearGradient>
<linearGradient id="paint6_linear_5416_24318" x1="37.9216" y1="11.8795" x2="27.3929" y2="16.6621" gradientUnits="userSpaceOnUse">
<stop stop-color="#E9C13A" stop-opacity="0"/>
<stop offset="0.1" stop-color="#E9C13A" stop-opacity="0.02"/>
<stop offset="0.23" stop-color="#E9C13A" stop-opacity="0.09"/>
<stop offset="0.38" stop-color="#E9C13A" stop-opacity="0.21"/>
<stop offset="0.54" stop-color="#E9C13A" stop-opacity="0.37"/>
<stop offset="0.71" stop-color="#E9C13A" stop-opacity="0.58"/>
<stop offset="0.89" stop-color="#E9C13A" stop-opacity="0.82"/>
<stop offset="1" stop-color="#E9C13A"/>
</linearGradient>
<linearGradient id="paint7_linear_5416_24318" x1="26.9424" y1="1.5675" x2="22.8793" y2="12.3943" gradientUnits="userSpaceOnUse">
<stop stop-color="#E9C13A" stop-opacity="0"/>
<stop offset="0.1" stop-color="#E9C13A" stop-opacity="0.02"/>
<stop offset="0.23" stop-color="#E9C13A" stop-opacity="0.09"/>
<stop offset="0.38" stop-color="#E9C13A" stop-opacity="0.21"/>
<stop offset="0.54" stop-color="#E9C13A" stop-opacity="0.37"/>
<stop offset="0.71" stop-color="#E9C13A" stop-opacity="0.58"/>
<stop offset="0.89" stop-color="#E9C13A" stop-opacity="0.82"/>
<stop offset="1" stop-color="#E9C13A"/>
</linearGradient>
<radialGradient id="paint8_radial_5416_24318" cx="0" cy="0" r="1" gradientUnits="userSpaceOnUse" gradientTransform="translate(20.0004 20.0004) scale(16.7609)">
<stop stop-color="#E3B534"/>
<stop offset="1" stop-color="#D29124" stop-opacity="0"/>
</radialGradient>
<radialGradient id="paint9_radial_5416_24318" cx="0" cy="0" r="1" gradientUnits="userSpaceOnUse" gradientTransform="translate(20.0004 20.0007) scale(13.9188)">
<stop stop-color="#E9C13A"/>
<stop offset="0.29" stop-color="#E7BE38"/>
<stop offset="0.49" stop-color="#E3B534"/>
<stop offset="0.66" stop-color="#DBA62E"/>
<stop offset="0.81" stop-color="#D19025"/>
<stop offset="0.95" stop-color="#C37519"/>
<stop offset="1" stop-color="#BE6A14"/>
</radialGradient>
<linearGradient id="paint10_linear_5416_24318" x1="7.95197" y1="17.8484" x2="33.2963" y2="17.8484" gradientUnits="userSpaceOnUse">
<stop stop-color="white"/>
<stop offset="0.51" stop-color="white" stop-opacity="0"/>
<stop offset="0.56" stop-color="white" stop-opacity="0.02"/>
<stop offset="0.62" stop-color="white" stop-opacity="0.09"/>
<stop offset="0.69" stop-color="white" stop-opacity="0.19"/>
<stop offset="0.76" stop-color="white" stop-opacity="0.34"/>
<stop offset="0.84" stop-color="white" stop-opacity="0.53"/>
<stop offset="0.92" stop-color="white" stop-opacity="0.75"/>
<stop offset="1" stop-color="white"/>
</linearGradient>
<linearGradient id="paint11_linear_5416_24318" x1="6.71143" y1="23.89" x2="29.5331" y2="23.89" gradientUnits="userSpaceOnUse">
<stop stop-color="white"/>
<stop offset="0.51" stop-color="white" stop-opacity="0"/>
<stop offset="0.56" stop-color="white" stop-opacity="0.02"/>
<stop offset="0.62" stop-color="white" stop-opacity="0.09"/>
<stop offset="0.69" stop-color="white" stop-opacity="0.19"/>
<stop offset="0.76" stop-color="white" stop-opacity="0.34"/>
<stop offset="0.84" stop-color="white" stop-opacity="0.53"/>
<stop offset="0.92" stop-color="white" stop-opacity="0.75"/>
<stop offset="1" stop-color="white"/>
</linearGradient>
<linearGradient id="paint12_linear_5416_24318" x1="24.8322" y1="24.8323" x2="14.7119" y2="14.712" gradientUnits="userSpaceOnUse">
<stop offset="0.15" stop-color="#E9C13A"/>
<stop offset="1" stop-color="#D49021"/>
</linearGradient>
<clipPath id="clip0_5416_24318">
<rect width="40" height="40" fill="white"/>
</clipPath>
</defs>
</svg>
