<svg width="40" height="40" viewBox="0 0 40 40" fill="none" xmlns="http://www.w3.org/2000/svg">

<g id="Single Campaign Overview-Desktop">

<g id="body">
<g id="Participant ">
<g id="Table">
<g id="leaderboard">


<g id="Row Container">
<g id="header">
<mask id="path-3-inside-1_5416_24318" fill="white">
<path d="M-32 -22H1526V60H-32V-22Z"/>
</mask>
<path d="M1526 60V59H-32V60V61H1526V60Z" fill="#E7E9EB" mask="url(#path-3-inside-1_5416_24318)"/>
<g id="text">
<g id="Badge" clip-path="url(#clip0_5416_24318)">
<g id="Group">
<g id="Group_2">
<path id="Vector" d="M19.4637 11.7413L14.1883 14.1368L8.04974 3.66611L15.619 0.22876L19.4637 11.7413Z" fill="url(#paint0_linear_5416_24318)"/>
<path id="Vector_2" d="M13.781 14.5394L11.7443 19.9641L0 16.9002L2.92144 9.11768L13.781 14.5394Z" fill="url(#paint1_linear_5416_24318)"/>
<path id="Vector_3" d="M11.7412 20.5364L14.1367 25.8125L3.66605 31.9511L0.228699 24.3818L11.7412 20.5364Z" fill="url(#paint2_linear_5416_24318)"/>
<path id="Vector_4" d="M14.5394 26.2197L19.9642 28.2556L16.9003 39.9999L9.11774 37.0793L14.5394 26.2197Z" fill="url(#paint3_linear_5416_24318)"/>
<path id="Vector_5" d="M20.5363 28.2596L25.8125 25.8633L31.951 36.334L24.3818 39.7713L20.5363 28.2596Z" fill="url(#paint4_linear_5416_24318)"/>
<path id="Vector_6" d="M26.2198 25.4614L28.2557 20.0366L40 23.0997L37.0793 30.8823L26.2198 25.4614Z" fill="url(#paint5_linear_5416_24318)"/>
<path id="Vector_7" d="M28.2596 19.4637L25.8633 14.1884L36.334 8.0498L39.7713 15.6191L28.2596 19.4637Z" fill="url(#paint6_linear_5416_24318)"/>
<path id="Vector_8" d="M25.4613 13.781L20.0366 11.7443L23.0997 0L30.8822 2.92144L25.4613 13.781Z" fill="url(#paint7_linear_5416_24318)"/>
</g>
<g id="Group_3">
<path id="Vector_9" d="M20.0003 33.2966C27.3434 33.2966 33.2962 27.3438 33.2962 20.0007C33.2962 12.6576 27.3434 6.70483 20.0003 6.70483C12.6572 6.70483 6.70447 12.6576 6.70447 20.0007C6.70447 27.3438 12.6572 33.2966 20.0003 33.2966Z" fill="#773F22"/>
<g id="Group_4" style="mix-blend-mode:screen">
<path id="Vector_10" d="M20.0004 36.7614C15.5235 36.7614 11.3146 35.018 8.14829 31.8525C4.98199 28.687 3.23944 24.4781 3.23944 20.0004C3.23944 15.5228 4.98276 11.3147 8.14829 8.14835C11.3138 4.98205 15.5227 3.2395 20.0004 3.2395C24.478 3.2395 28.6861 4.98282 31.8524 8.14835C35.0188 11.3139 36.7613 15.5228 36.7613 20.0004C36.7613 24.4781 35.018 28.6862 31.8524 31.8525C28.6869 35.0188 24.478 36.7614 20.0004 36.7614Z" fill="url(#paint8_radial_5416_24318)"/>
</g>
<path id="Vector_11" d="M20.0003 31.7111C26.4678 31.7111 31.7107 26.4682 31.7107 20.0007C31.7107 13.5332 26.4678 8.29028 20.0003 8.29028C13.5328 8.29028 8.28992 13.5332 8.28992 20.0007C8.28992 26.4682 13.5328 31.7111 20.0003 31.7111Z" fill="url(#paint9_linear_5416_24318)" stroke="#754C29" stroke-width="0.566" stroke-miterlimit="10"/>
<path id="Vector_12" d="M33.2962 20.0137C33.2962 22.7735 32.4553 25.3361 31.0162 27.4605L7.9519 14.3811C9.18547 11.7484 11.2568 9.58463 13.8217 8.23633L33.2754 19.2683C33.2893 19.5147 33.2962 19.7627 33.2962 20.0129V20.0137Z" fill="url(#paint10_linear_5416_24318)" style="mix-blend-mode:overlay"/>
<path id="Vector_13" d="M29.5331 29.2801C28.8308 30.0032 28.047 30.6469 27.1953 31.1952L6.71136 19.5787C6.74448 18.5469 6.89463 17.5451 7.15027 16.5864L29.5331 29.2809V29.2801Z" fill="url(#paint11_linear_5416_24318)" style="mix-blend-mode:overlay"/>
<g id="Rank Icon Container">
<g id="Vector_14" filter="url(#filter1_i_5416_24318)">
<path d="M20.0003 26.7206C23.7116 26.7206 26.7202 23.712 26.7202 20.0007C26.7202 16.2894 23.7116 13.2808 20.0003 13.2808C16.289 13.2808 13.2804 16.2894 13.2804 20.0007C13.2804 23.712 16.289 26.7206 20.0003 26.7206Z" fill="url(#paint12_linear_5416_24318)"/>
</g>
<g id="text_2" filter="url(#filter2_ddi_5416_24318)">
<path d="M22.5119 20.131C22.6453 20.4376 22.7119 20.771 22.7119 21.131C22.7119 21.471 22.6419 21.811 22.5019 22.151C22.3219 22.591 22.0253 22.941 21.6119 23.201C21.1986 23.4543 20.7186 23.581 20.1719 23.581C19.6386 23.581 19.1619 23.451 18.7419 23.191C18.3286 22.931 18.0253 22.5776 17.8319 22.131C17.7186 21.8843 17.6519 21.591 17.6319 21.251C17.6319 21.151 17.6819 21.101 17.7819 21.101H19.3819C19.4753 21.101 19.5286 21.1476 19.5419 21.241C19.5686 21.4343 19.6119 21.5843 19.6719 21.691C19.7786 21.8776 19.9419 21.971 20.1619 21.971C20.3819 21.971 20.5486 21.8776 20.6619 21.691C20.7619 21.5176 20.8119 21.311 20.8119 21.071C20.8119 20.8243 20.7653 20.6143 20.6719 20.441C20.5519 20.241 20.3786 20.141 20.1519 20.141C20.0719 20.141 19.9853 20.1676 19.8919 20.221C19.8053 20.2743 19.6819 20.361 19.5219 20.481C19.4953 20.5076 19.4619 20.521 19.4219 20.521C19.3753 20.521 19.3386 20.4976 19.3119 20.451L18.5219 19.331C18.5019 19.2976 18.4919 19.2643 18.4919 19.231C18.4919 19.1843 18.5153 19.1476 18.5619 19.121L20.0219 18.171C20.0419 18.1643 20.0486 18.1543 20.0419 18.141C20.0353 18.121 20.0219 18.111 20.0019 18.111H17.9819C17.9353 18.111 17.8986 18.0976 17.8719 18.071C17.8453 18.0443 17.8319 18.0076 17.8319 17.961V16.651C17.8319 16.6043 17.8453 16.5676 17.8719 16.541C17.8986 16.5143 17.9353 16.501 17.9819 16.501H22.4419C22.4886 16.501 22.5253 16.5143 22.5519 16.541C22.5786 16.5676 22.5919 16.6043 22.5919 16.651V18.121C22.5919 18.2076 22.5619 18.271 22.5019 18.311L21.4219 19.061C21.3886 19.0876 21.3953 19.111 21.4419 19.131C21.9353 19.2843 22.2919 19.6176 22.5119 20.131Z" fill="white"/>
</g>
</g>
</g>
</g>
</g>
</g>
</g>
</g>
</g>
</g>
</g>
</g>
</g>
<defs>

<filter id="filter1_i_5416_24318" x="13.2804" y="13.2808" width="13.6399" height="13.8399" filterUnits="userSpaceOnUse" color-interpolation-filters="sRGB">
<feFlood flood-opacity="0" result="BackgroundImageFix"/>
<feBlend mode="normal" in="SourceGraphic" in2="BackgroundImageFix" result="shape"/>
<feColorMatrix in="SourceAlpha" type="matrix" values="0 0 0 0 0 0 0 0 0 0 0 0 0 0 0 0 0 0 127 0" result="hardAlpha"/>
<feOffset dx="0.2" dy="0.4"/>
<feGaussianBlur stdDeviation="0.8"/>
<feComposite in2="hardAlpha" operator="arithmetic" k2="-1" k3="1"/>
<feColorMatrix type="matrix" values="0 0 0 0 0.447059 0 0 0 0 0.227451 0 0 0 0 0.105882 0 0 0 1 0"/>
<feBlend mode="normal" in2="shape" result="effect1_innerShadow_5416_24318"/>
</filter>
<filter id="filter2_ddi_5416_24318" x="14.432" y="13.301" width="11.48" height="13.4801" filterUnits="userSpaceOnUse" color-interpolation-filters="sRGB">
<feFlood flood-opacity="0" result="BackgroundImageFix"/>
<feColorMatrix in="SourceAlpha" type="matrix" values="0 0 0 0 0 0 0 0 0 0 0 0 0 0 0 0 0 0 127 0" result="hardAlpha"/>
<feOffset/>
<feGaussianBlur stdDeviation="1.6"/>
<feComposite in2="hardAlpha" operator="out"/>
<feColorMatrix type="matrix" values="0 0 0 0 0.631373 0 0 0 0 0.380392 0 0 0 0 0.211765 0 0 0 1 0"/>
<feBlend mode="normal" in2="BackgroundImageFix" result="effect1_dropShadow_5416_24318"/>
<feColorMatrix in="SourceAlpha" type="matrix" values="0 0 0 0 0 0 0 0 0 0 0 0 0 0 0 0 0 0 127 0" result="hardAlpha"/>
<feOffset/>
<feGaussianBlur stdDeviation="0.6"/>
<feComposite in2="hardAlpha" operator="out"/>
<feColorMatrix type="matrix" values="0 0 0 0 0.447059 0 0 0 0 0.227451 0 0 0 0 0.105882 0 0 0 1 0"/>
<feBlend mode="normal" in2="effect1_dropShadow_5416_24318" result="effect2_dropShadow_5416_24318"/>
<feBlend mode="normal" in="SourceGraphic" in2="effect2_dropShadow_5416_24318" result="shape"/>
<feColorMatrix in="SourceAlpha" type="matrix" values="0 0 0 0 0 0 0 0 0 0 0 0 0 0 0 0 0 0 127 0" result="hardAlpha"/>
<feOffset dy="-0.2"/>
<feGaussianBlur stdDeviation="0.2"/>
<feComposite in2="hardAlpha" operator="arithmetic" k2="-1" k3="1"/>
<feColorMatrix type="matrix" values="0 0 0 0 0.631373 0 0 0 0 0.380392 0 0 0 0 0.211765 0 0 0 1 0"/>
<feBlend mode="normal" in2="shape" result="effect3_innerShadow_5416_24318"/>
</filter>
<linearGradient id="paint0_linear_5416_24318" x1="11.8827" y1="2.0411" x2="16.6651" y2="12.5691" gradientUnits="userSpaceOnUse">
<stop stop-color="#F0DB88" stop-opacity="0"/>
<stop offset="0.1" stop-color="#EFDA87" stop-opacity="0.02"/>
<stop offset="0.23" stop-color="#EFDA87" stop-opacity="0.09"/>
<stop offset="0.37" stop-color="#EFDA87" stop-opacity="0.2"/>
<stop offset="0.53" stop-color="#EFDA87" stop-opacity="0.36"/>
<stop offset="0.7" stop-color="#EFDA87" stop-opacity="0.56"/>
<stop offset="0.87" stop-color="#EFDA87" stop-opacity="0.8"/>
<stop offset="1" stop-color="#EFDA87"/>
</linearGradient>
<linearGradient id="paint1_linear_5416_24318" x1="1.56743" y1="13.0247" x2="12.3935" y2="17.0875" gradientUnits="userSpaceOnUse">
<stop stop-color="#F0DB88" stop-opacity="0"/>
<stop offset="0.1" stop-color="#EFDA87" stop-opacity="0.02"/>
<stop offset="0.23" stop-color="#EFDA87" stop-opacity="0.09"/>
<stop offset="0.37" stop-color="#EFDA87" stop-opacity="0.2"/>
<stop offset="0.53" stop-color="#EFDA87" stop-opacity="0.36"/>
<stop offset="0.7" stop-color="#EFDA87" stop-opacity="0.56"/>
<stop offset="0.87" stop-color="#EFDA87" stop-opacity="0.8"/>
<stop offset="1" stop-color="#EFDA87"/>
</linearGradient>
<linearGradient id="paint2_linear_5416_24318" x1="2.0401" y1="28.0862" x2="12.5688" y2="23.3035" gradientUnits="userSpaceOnUse">
<stop stop-color="#F0DB88" stop-opacity="0"/>
<stop offset="0.1" stop-color="#EFDA87" stop-opacity="0.02"/>
<stop offset="0.23" stop-color="#EFDA87" stop-opacity="0.09"/>
<stop offset="0.37" stop-color="#EFDA87" stop-opacity="0.2"/>
<stop offset="0.53" stop-color="#EFDA87" stop-opacity="0.36"/>
<stop offset="0.7" stop-color="#EFDA87" stop-opacity="0.56"/>
<stop offset="0.87" stop-color="#EFDA87" stop-opacity="0.8"/>
<stop offset="1" stop-color="#EFDA87"/>
</linearGradient>
<linearGradient id="paint3_linear_5416_24318" x1="13.0242" y1="38.4015" x2="17.0872" y2="27.5747" gradientUnits="userSpaceOnUse">
<stop stop-color="#F0DB88" stop-opacity="0"/>
<stop offset="0.1" stop-color="#EFDA87" stop-opacity="0.02"/>
<stop offset="0.23" stop-color="#EFDA87" stop-opacity="0.09"/>
<stop offset="0.37" stop-color="#EFDA87" stop-opacity="0.2"/>
<stop offset="0.53" stop-color="#EFDA87" stop-opacity="0.36"/>
<stop offset="0.7" stop-color="#EFDA87" stop-opacity="0.56"/>
<stop offset="0.87" stop-color="#EFDA87" stop-opacity="0.8"/>
<stop offset="1" stop-color="#EFDA87"/>
</linearGradient>
<linearGradient id="paint4_linear_5416_24318" x1="28.0845" y1="37.9288" x2="23.3018" y2="27.4" gradientUnits="userSpaceOnUse">
<stop stop-color="#F0DB88" stop-opacity="0"/>
<stop offset="0.1" stop-color="#EFDA87" stop-opacity="0.02"/>
<stop offset="0.23" stop-color="#EFDA87" stop-opacity="0.09"/>
<stop offset="0.37" stop-color="#EFDA87" stop-opacity="0.2"/>
<stop offset="0.53" stop-color="#EFDA87" stop-opacity="0.36"/>
<stop offset="0.7" stop-color="#EFDA87" stop-opacity="0.56"/>
<stop offset="0.87" stop-color="#EFDA87" stop-opacity="0.8"/>
<stop offset="1" stop-color="#EFDA87"/>
</linearGradient>
<linearGradient id="paint5_linear_5416_24318" x1="38.4009" y1="26.9449" x2="27.5741" y2="22.8818" gradientUnits="userSpaceOnUse">
<stop stop-color="#F0DB88" stop-opacity="0"/>
<stop offset="0.1" stop-color="#EFDA87" stop-opacity="0.02"/>
<stop offset="0.23" stop-color="#EFDA87" stop-opacity="0.09"/>
<stop offset="0.37" stop-color="#EFDA87" stop-opacity="0.2"/>
<stop offset="0.53" stop-color="#EFDA87" stop-opacity="0.36"/>
<stop offset="0.7" stop-color="#EFDA87" stop-opacity="0.56"/>
<stop offset="0.87" stop-color="#EFDA87" stop-opacity="0.8"/>
<stop offset="1" stop-color="#EFDA87"/>
</linearGradient>
<linearGradient id="paint6_linear_5416_24318" x1="37.9278" y1="11.8845" x2="27.3998" y2="16.6668" gradientUnits="userSpaceOnUse">
<stop stop-color="#F0DB88" stop-opacity="0"/>
<stop offset="0.1" stop-color="#EFDA87" stop-opacity="0.02"/>
<stop offset="0.23" stop-color="#EFDA87" stop-opacity="0.09"/>
<stop offset="0.37" stop-color="#EFDA87" stop-opacity="0.2"/>
<stop offset="0.53" stop-color="#EFDA87" stop-opacity="0.36"/>
<stop offset="0.7" stop-color="#EFDA87" stop-opacity="0.56"/>
<stop offset="0.87" stop-color="#EFDA87" stop-opacity="0.8"/>
<stop offset="1" stop-color="#EFDA87"/>
</linearGradient>
<linearGradient id="paint7_linear_5416_24318" x1="26.9442" y1="1.56804" x2="22.8814" y2="12.3941" gradientUnits="userSpaceOnUse">
<stop stop-color="#F0DB88" stop-opacity="0"/>
<stop offset="0.1" stop-color="#EFDA87" stop-opacity="0.02"/>
<stop offset="0.23" stop-color="#EFDA87" stop-opacity="0.09"/>
<stop offset="0.37" stop-color="#EFDA87" stop-opacity="0.2"/>
<stop offset="0.53" stop-color="#EFDA87" stop-opacity="0.36"/>
<stop offset="0.7" stop-color="#EFDA87" stop-opacity="0.56"/>
<stop offset="0.87" stop-color="#EFDA87" stop-opacity="0.8"/>
<stop offset="1" stop-color="#EFDA87"/>
</linearGradient>
<radialGradient id="paint8_radial_5416_24318" cx="0" cy="0" r="1" gradientUnits="userSpaceOnUse" gradientTransform="translate(20.0004 20.0004) scale(16.7609)">
<stop stop-color="#F1DF8C"/>
<stop offset="1" stop-color="#F3E28E" stop-opacity="0"/>
</radialGradient>
<linearGradient id="paint9_linear_5416_24318" x1="8.28992" y1="20.0007" x2="31.7107" y2="20.0007" gradientUnits="userSpaceOnUse">
<stop stop-color="#D28B52"/>
<stop offset="0.16" stop-color="#CC864E"/>
<stop offset="0.37" stop-color="#BC7845"/>
<stop offset="0.61" stop-color="#A16136"/>
<stop offset="0.86" stop-color="#7C4220"/>
<stop offset="0.92" stop-color="#723A1B"/>
</linearGradient>
<linearGradient id="paint10_linear_5416_24318" x1="7.9519" y1="17.8484" x2="33.2962" y2="17.8484" gradientUnits="userSpaceOnUse">
<stop stop-color="white"/>
<stop offset="0.51" stop-color="white" stop-opacity="0"/>
<stop offset="0.56" stop-color="white" stop-opacity="0.02"/>
<stop offset="0.62" stop-color="white" stop-opacity="0.09"/>
<stop offset="0.69" stop-color="white" stop-opacity="0.19"/>
<stop offset="0.76" stop-color="white" stop-opacity="0.34"/>
<stop offset="0.84" stop-color="white" stop-opacity="0.53"/>
<stop offset="0.92" stop-color="white" stop-opacity="0.75"/>
<stop offset="1" stop-color="white"/>
</linearGradient>
<linearGradient id="paint11_linear_5416_24318" x1="6.71136" y1="23.89" x2="29.5331" y2="23.89" gradientUnits="userSpaceOnUse">
<stop stop-color="white"/>
<stop offset="0.51" stop-color="white" stop-opacity="0"/>
<stop offset="0.56" stop-color="white" stop-opacity="0.02"/>
<stop offset="0.62" stop-color="white" stop-opacity="0.09"/>
<stop offset="0.69" stop-color="white" stop-opacity="0.19"/>
<stop offset="0.76" stop-color="white" stop-opacity="0.34"/>
<stop offset="0.84" stop-color="white" stop-opacity="0.53"/>
<stop offset="0.92" stop-color="white" stop-opacity="0.75"/>
<stop offset="1" stop-color="white"/>
</linearGradient>
<linearGradient id="paint12_linear_5416_24318" x1="24.8322" y1="24.8325" x2="14.7119" y2="14.7122" gradientUnits="userSpaceOnUse">
<stop offset="0.15" stop-color="#D28B52"/>
<stop offset="1" stop-color="#A16136"/>
</linearGradient>
<clipPath id="clip0_5416_24318">
<rect width="40" height="40" fill="white"/>
</clipPath>
</defs>
</svg>
