<svg width="40" height="40" viewBox="0 0 40 40" fill="none" xmlns="http://www.w3.org/2000/svg">

<g id="Single Campaign Overview-Desktop">

<g id="body">
<g id="Participant ">
<g id="Table">
<g id="leaderboard" filter="url(#filter0_d_5416_24318)">


<g id="Row Container">
<g id="header">
<mask id="path-3-inside-1_5416_24318" fill="white">
<path d="M-32 -22H1526V60H-32V-22Z"/>
</mask>
<path d="M1526 60V59H-32V60V61H1526V60Z" fill="#E7E9EB" mask="url(#path-3-inside-1_5416_24318)"/>
<g id="text">
<g id="Badge" clip-path="url(#clip0_5416_24318)">
<g id="Group">
<g id="Layer 1">
<g id="Group_2">
<g id="Group_3">
<path id="Vector" d="M19.4637 11.7413L14.1883 14.1368L8.04974 3.66611L15.619 0.22876L19.4637 11.7413Z" fill="url(#paint0_linear_5416_24318)"/>
<path id="Vector_2" d="M13.781 14.5394L11.7443 19.9641L0 16.9002L2.92144 9.11768L13.781 14.5394Z" fill="url(#paint1_linear_5416_24318)"/>
<path id="Vector_3" d="M11.7412 20.5364L14.1367 25.8125L3.66605 31.9511L0.228699 24.3818L11.7412 20.5364Z" fill="url(#paint2_linear_5416_24318)"/>
<path id="Vector_4" d="M14.5394 26.2197L19.9642 28.2556L16.9003 39.9999L9.11774 37.0793L14.5394 26.2197Z" fill="url(#paint3_linear_5416_24318)"/>
<path id="Vector_5" d="M20.5363 28.2596L25.8125 25.8633L31.951 36.334L24.3818 39.7713L20.5363 28.2596Z" fill="url(#paint4_linear_5416_24318)"/>
<path id="Vector_6" d="M26.2198 25.4614L28.2557 20.0366L40 23.0997L37.0793 30.8823L26.2198 25.4614Z" fill="url(#paint5_linear_5416_24318)"/>
<path id="Vector_7" d="M28.2596 19.4637L25.8633 14.1884L36.334 8.0498L39.7713 15.6191L28.2596 19.4637Z" fill="url(#paint6_linear_5416_24318)"/>
<path id="Vector_8" d="M25.4613 13.781L20.0366 11.7443L23.0997 0L30.8822 2.92144L25.4613 13.781Z" fill="url(#paint7_linear_5416_24318)"/>
</g>
<g id="Group_4">
<path id="Vector_9" d="M20.0004 33.2966C27.3435 33.2966 33.2962 27.3438 33.2962 20.0007C33.2962 12.6576 27.3435 6.70483 20.0004 6.70483C12.6573 6.70483 6.70453 12.6576 6.70453 20.0007C6.70453 27.3438 12.6573 33.2966 20.0004 33.2966Z" fill="#A6AAB3"/>
<g id="Group_5" style="mix-blend-mode:screen">
<path id="Vector_10" d="M20.0004 36.7614C15.5235 36.7614 11.3146 35.018 8.14829 31.8525C4.98199 28.687 3.23944 24.4781 3.23944 20.0004C3.23944 15.5228 4.98276 11.3147 8.14829 8.14835C11.3138 4.98205 15.5227 3.2395 20.0004 3.2395C24.478 3.2395 28.6861 4.98282 31.8524 8.14835C35.0188 11.3139 36.7613 15.5228 36.7613 20.0004C36.7613 24.4781 35.018 28.6862 31.8524 31.8525C28.6869 35.0188 24.478 36.7614 20.0004 36.7614Z" fill="url(#paint8_radial_5416_24318)"/>
</g>
<g id="Group_6">
<path id="Vector_11" d="M20.0004 31.6018C13.6031 31.6018 8.39935 26.3972 8.39935 20.0007C8.39935 13.6042 13.6039 8.39966 20.0004 8.39966C26.3969 8.39966 31.6015 13.6042 31.6015 20.0007C31.6015 26.3972 26.3969 31.6018 20.0004 31.6018Z" fill="url(#paint9_radial_5416_24318)"/>
<path id="Vector_12" d="M20.0004 8.5082C23.0704 8.5082 25.9557 9.70326 28.1264 11.8739C30.297 14.0446 31.4921 16.9306 31.4921 19.9999C31.4921 23.0692 30.297 25.9552 28.1264 28.1259C25.9557 30.2966 23.0697 31.4916 20.0004 31.4916C16.9311 31.4916 14.0451 30.2966 11.8744 28.1259C9.70373 25.9552 8.50866 23.0692 8.50866 19.9999C8.50866 16.9306 9.70373 14.0446 11.8744 11.8739C14.0451 9.70326 16.9311 8.5082 20.0004 8.5082ZM20.0004 8.29028C13.533 8.29028 8.28998 13.5333 8.28998 20.0007C8.28998 26.468 13.533 31.7111 20.0004 31.7111C26.4677 31.7111 31.7108 26.468 31.7108 20.0007C31.7108 13.5333 26.4677 8.29028 20.0004 8.29028Z" fill="#58595B"/>
</g>
<path id="Vector_13" opacity="0.6" d="M33.2962 20.0677C33.2962 22.8274 32.4553 25.39 31.0162 27.5145L7.9519 14.435C9.18547 11.8023 11.2568 9.63858 13.8217 8.29028L33.2754 19.3223C33.2893 19.5687 33.2962 19.8166 33.2962 20.0669V20.0677Z" fill="url(#paint10_linear_5416_24318)" style="mix-blend-mode:overlay"/>
<path id="Vector_14" opacity="0.6" d="M29.5331 29.2801C28.8309 30.0032 28.047 30.6469 27.1954 31.1952L6.71143 19.5787C6.74454 18.5469 6.89469 17.5451 7.15033 16.5864L29.5331 29.2809V29.2801Z" fill="url(#paint11_linear_5416_24318)" style="mix-blend-mode:overlay"/>
</g>
</g>
<g id="Rank Icon Container">
<g id="Vector_15" filter="url(#filter1_i_5416_24318)">
<path d="M20 26.7199C23.7113 26.7199 26.7199 23.7113 26.7199 20C26.7199 16.2886 23.7113 13.28 20 13.28C16.2887 13.28 13.2801 16.2886 13.2801 20C13.2801 23.7113 16.2887 26.7199 20 26.7199Z" fill="url(#paint12_linear_5416_24318)"/>
</g>
<g id="text_2" filter="url(#filter2_ddi_5416_24318)">
<path d="M20.1291 21.8298C20.1091 21.8431 20.1024 21.8564 20.1091 21.8698C20.1158 21.8831 20.1291 21.8898 20.1491 21.8898H22.5291C22.5758 21.8898 22.6125 21.9031 22.6391 21.9298C22.6658 21.9564 22.6791 21.9931 22.6791 22.0398V23.3498C22.6791 23.3964 22.6658 23.4331 22.6391 23.4598C22.6125 23.4864 22.5758 23.4998 22.5291 23.4998H17.7291C17.6824 23.4998 17.6458 23.4864 17.6191 23.4598C17.5924 23.4331 17.5791 23.3964 17.5791 23.3498V22.1198C17.5791 22.0464 17.6058 21.9864 17.6591 21.9398C17.9591 21.6798 18.2591 21.3964 18.5591 21.0898C18.8658 20.7831 19.0591 20.5898 19.1391 20.5098C19.1391 20.5098 19.3624 20.2864 19.8091 19.8398C20.4091 19.2531 20.7091 18.8331 20.7091 18.5798C20.7091 18.4198 20.6491 18.2898 20.5291 18.1898C20.4091 18.0831 20.2558 18.0298 20.0691 18.0298C19.8758 18.0298 19.7191 18.0831 19.5991 18.1898C19.4791 18.2898 19.4191 18.4264 19.4191 18.5998V18.7998C19.4191 18.8464 19.4058 18.8831 19.3791 18.9098C19.3524 18.9364 19.3158 18.9498 19.2691 18.9498H17.6691C17.6224 18.9498 17.5858 18.9364 17.5591 18.9098C17.5324 18.8831 17.5191 18.8464 17.5191 18.7998V18.2998C17.5458 17.9198 17.6724 17.5898 17.8991 17.3098C18.1324 17.0231 18.4358 16.8031 18.8091 16.6498C19.1891 16.4964 19.6091 16.4198 20.0691 16.4198C20.5824 16.4198 21.0324 16.5164 21.4191 16.7098C21.8058 16.8964 22.0991 17.1531 22.2991 17.4798C22.5058 17.7998 22.6091 18.1531 22.6091 18.5398C22.6091 18.8131 22.5424 19.0831 22.4091 19.3498C22.2824 19.6164 22.0924 19.8964 21.8391 20.1898C21.5724 20.4898 21.1458 20.9031 20.5591 21.4298L20.1291 21.8298Z" fill="white"/>
</g>
</g>
</g>
</g>
</g>
</g>
</g>
</g>
</g>
</g>
</g>
</g>
</g>
<defs>
<filter id="filter0_d_5416_24318" x="-62" y="-202" width="1618" height="918" filterUnits="userSpaceOnUse" color-interpolation-filters="sRGB">
<feFlood flood-opacity="0" result="BackgroundImageFix"/>
<feColorMatrix in="SourceAlpha" type="matrix" values="0 0 0 0 0 0 0 0 0 0 0 0 0 0 0 0 0 0 127 0" result="hardAlpha"/>
<feOffset dy="4"/>
<feGaussianBlur stdDeviation="15"/>
<feComposite in2="hardAlpha" operator="out"/>
<feColorMatrix type="matrix" values="0 0 0 0 0 0 0 0 0 0.356863 0 0 0 0 0.67451 0 0 0 0.08 0"/>
<feBlend mode="normal" in2="BackgroundImageFix" result="effect1_dropShadow_5416_24318"/>
<feBlend mode="normal" in="SourceGraphic" in2="effect1_dropShadow_5416_24318" result="shape"/>
</filter>
<filter id="filter1_i_5416_24318" x="13.2801" y="13.28" width="13.6399" height="13.8399" filterUnits="userSpaceOnUse" color-interpolation-filters="sRGB">
<feFlood flood-opacity="0" result="BackgroundImageFix"/>
<feBlend mode="normal" in="SourceGraphic" in2="BackgroundImageFix" result="shape"/>
<feColorMatrix in="SourceAlpha" type="matrix" values="0 0 0 0 0 0 0 0 0 0 0 0 0 0 0 0 0 0 127 0" result="hardAlpha"/>
<feOffset dx="0.2" dy="0.4"/>
<feGaussianBlur stdDeviation="0.8"/>
<feComposite in2="hardAlpha" operator="arithmetic" k2="-1" k3="1"/>
<feColorMatrix type="matrix" values="0 0 0 0 0.345098 0 0 0 0 0.34902 0 0 0 0 0.356863 0 0 0 1 0"/>
<feBlend mode="normal" in2="shape" result="effect1_innerShadow_5416_24318"/>
</filter>
<filter id="filter2_ddi_5416_24318" x="14.3191" y="13.2197" width="11.56" height="13.4801" filterUnits="userSpaceOnUse" color-interpolation-filters="sRGB">
<feFlood flood-opacity="0" result="BackgroundImageFix"/>
<feColorMatrix in="SourceAlpha" type="matrix" values="0 0 0 0 0 0 0 0 0 0 0 0 0 0 0 0 0 0 127 0" result="hardAlpha"/>
<feOffset/>
<feGaussianBlur stdDeviation="1.6"/>
<feComposite in2="hardAlpha" operator="out"/>
<feColorMatrix type="matrix" values="0 0 0 0 0.541176 0 0 0 0 0.564706 0 0 0 0 0.596078 0 0 0 1 0"/>
<feBlend mode="normal" in2="BackgroundImageFix" result="effect1_dropShadow_5416_24318"/>
<feColorMatrix in="SourceAlpha" type="matrix" values="0 0 0 0 0 0 0 0 0 0 0 0 0 0 0 0 0 0 127 0" result="hardAlpha"/>
<feOffset/>
<feGaussianBlur stdDeviation="0.6"/>
<feComposite in2="hardAlpha" operator="out"/>
<feColorMatrix type="matrix" values="0 0 0 0 0.356863 0 0 0 0 0.384314 0 0 0 0 0.423529 0 0 0 1 0"/>
<feBlend mode="normal" in2="effect1_dropShadow_5416_24318" result="effect2_dropShadow_5416_24318"/>
<feBlend mode="normal" in="SourceGraphic" in2="effect2_dropShadow_5416_24318" result="shape"/>
<feColorMatrix in="SourceAlpha" type="matrix" values="0 0 0 0 0 0 0 0 0 0 0 0 0 0 0 0 0 0 127 0" result="hardAlpha"/>
<feOffset dy="-0.2"/>
<feGaussianBlur stdDeviation="0.2"/>
<feComposite in2="hardAlpha" operator="arithmetic" k2="-1" k3="1"/>
<feColorMatrix type="matrix" values="0 0 0 0 0.541176 0 0 0 0 0.564706 0 0 0 0 0.596078 0 0 0 1 0"/>
<feBlend mode="normal" in2="shape" result="effect3_innerShadow_5416_24318"/>
</filter>
<linearGradient id="paint0_linear_5416_24318" x1="11.8853" y1="2.04052" x2="16.6677" y2="12.5686" gradientUnits="userSpaceOnUse">
<stop stop-color="#AFB6D4" stop-opacity="0"/>
<stop offset="0.11" stop-color="#AFB6D3" stop-opacity="0.03"/>
<stop offset="0.25" stop-color="#AFB6D3" stop-opacity="0.1"/>
<stop offset="0.4" stop-color="#AFB6D3" stop-opacity="0.23"/>
<stop offset="0.58" stop-color="#AFB6D3" stop-opacity="0.41"/>
<stop offset="0.76" stop-color="#AFB6D3" stop-opacity="0.64"/>
<stop offset="0.94" stop-color="#AFB6D3" stop-opacity="0.91"/>
<stop offset="1" stop-color="#B0B7D3"/>
</linearGradient>
<linearGradient id="paint1_linear_5416_24318" x1="1.57137" y1="13.022" x2="12.3975" y2="17.0848" gradientUnits="userSpaceOnUse">
<stop stop-color="#AFB6D4" stop-opacity="0"/>
<stop offset="0.11" stop-color="#AFB6D3" stop-opacity="0.03"/>
<stop offset="0.25" stop-color="#AFB6D3" stop-opacity="0.1"/>
<stop offset="0.4" stop-color="#AFB6D3" stop-opacity="0.23"/>
<stop offset="0.58" stop-color="#AFB6D3" stop-opacity="0.41"/>
<stop offset="0.76" stop-color="#AFB6D3" stop-opacity="0.64"/>
<stop offset="0.94" stop-color="#AFB6D3" stop-opacity="0.91"/>
<stop offset="1" stop-color="#B0B7D3"/>
</linearGradient>
<linearGradient id="paint2_linear_5416_24318" x1="2.04332" y1="28.08" x2="12.5714" y2="23.2977" gradientUnits="userSpaceOnUse">
<stop stop-color="#AFB6D4" stop-opacity="0"/>
<stop offset="0.11" stop-color="#AFB6D3" stop-opacity="0.03"/>
<stop offset="0.25" stop-color="#AFB6D3" stop-opacity="0.1"/>
<stop offset="0.4" stop-color="#AFB6D3" stop-opacity="0.23"/>
<stop offset="0.58" stop-color="#AFB6D3" stop-opacity="0.41"/>
<stop offset="0.76" stop-color="#AFB6D3" stop-opacity="0.64"/>
<stop offset="0.94" stop-color="#AFB6D3" stop-opacity="0.91"/>
<stop offset="1" stop-color="#B0B7D3"/>
</linearGradient>
<linearGradient id="paint3_linear_5416_24318" x1="13.0255" y1="38.3942" x2="17.0885" y2="27.5674" gradientUnits="userSpaceOnUse">
<stop stop-color="#AFB6D4" stop-opacity="0"/>
<stop offset="0.11" stop-color="#AFB6D3" stop-opacity="0.03"/>
<stop offset="0.25" stop-color="#AFB6D3" stop-opacity="0.1"/>
<stop offset="0.4" stop-color="#AFB6D3" stop-opacity="0.23"/>
<stop offset="0.58" stop-color="#AFB6D3" stop-opacity="0.41"/>
<stop offset="0.76" stop-color="#AFB6D3" stop-opacity="0.64"/>
<stop offset="0.94" stop-color="#AFB6D3" stop-opacity="0.91"/>
<stop offset="1" stop-color="#B0B7D3"/>
</linearGradient>
<linearGradient id="paint4_linear_5416_24318" x1="28.0836" y1="37.922" x2="23.3009" y2="27.3933" gradientUnits="userSpaceOnUse">
<stop stop-color="#AFB6D4" stop-opacity="0"/>
<stop offset="0.11" stop-color="#AFB6D3" stop-opacity="0.03"/>
<stop offset="0.25" stop-color="#AFB6D3" stop-opacity="0.1"/>
<stop offset="0.4" stop-color="#AFB6D3" stop-opacity="0.23"/>
<stop offset="0.58" stop-color="#AFB6D3" stop-opacity="0.41"/>
<stop offset="0.76" stop-color="#AFB6D3" stop-opacity="0.64"/>
<stop offset="0.94" stop-color="#AFB6D3" stop-opacity="0.91"/>
<stop offset="1" stop-color="#B0B7D3"/>
</linearGradient>
<linearGradient id="paint5_linear_5416_24318" x1="38.3977" y1="26.9402" x2="27.5709" y2="22.8771" gradientUnits="userSpaceOnUse">
<stop stop-color="#AFB6D4" stop-opacity="0"/>
<stop offset="0.11" stop-color="#AFB6D3" stop-opacity="0.03"/>
<stop offset="0.25" stop-color="#AFB6D3" stop-opacity="0.1"/>
<stop offset="0.4" stop-color="#AFB6D3" stop-opacity="0.23"/>
<stop offset="0.58" stop-color="#AFB6D3" stop-opacity="0.41"/>
<stop offset="0.76" stop-color="#AFB6D3" stop-opacity="0.64"/>
<stop offset="0.94" stop-color="#AFB6D3" stop-opacity="0.91"/>
<stop offset="1" stop-color="#B0B7D3"/>
</linearGradient>
<linearGradient id="paint6_linear_5416_24318" x1="37.9248" y1="11.8818" x2="27.3961" y2="16.6645" gradientUnits="userSpaceOnUse">
<stop stop-color="#AFB6D4" stop-opacity="0"/>
<stop offset="0.11" stop-color="#AFB6D3" stop-opacity="0.03"/>
<stop offset="0.25" stop-color="#AFB6D3" stop-opacity="0.1"/>
<stop offset="0.4" stop-color="#AFB6D3" stop-opacity="0.23"/>
<stop offset="0.58" stop-color="#AFB6D3" stop-opacity="0.41"/>
<stop offset="0.76" stop-color="#AFB6D3" stop-opacity="0.64"/>
<stop offset="0.94" stop-color="#AFB6D3" stop-opacity="0.91"/>
<stop offset="1" stop-color="#B0B7D3"/>
</linearGradient>
<linearGradient id="paint7_linear_5416_24318" x1="26.9436" y1="1.56793" x2="22.8808" y2="12.394" gradientUnits="userSpaceOnUse">
<stop stop-color="#AFB6D4" stop-opacity="0"/>
<stop offset="0.11" stop-color="#AFB6D3" stop-opacity="0.03"/>
<stop offset="0.25" stop-color="#AFB6D3" stop-opacity="0.1"/>
<stop offset="0.4" stop-color="#AFB6D3" stop-opacity="0.23"/>
<stop offset="0.58" stop-color="#AFB6D3" stop-opacity="0.41"/>
<stop offset="0.76" stop-color="#AFB6D3" stop-opacity="0.64"/>
<stop offset="0.94" stop-color="#AFB6D3" stop-opacity="0.91"/>
<stop offset="1" stop-color="#B0B7D3"/>
</linearGradient>
<radialGradient id="paint8_radial_5416_24318" cx="0" cy="0" r="1" gradientUnits="userSpaceOnUse" gradientTransform="translate(20.0004 20.0004) scale(16.7609)">
<stop stop-color="#ADB4D0"/>
<stop offset="1" stop-color="#B0B9D6" stop-opacity="0"/>
</radialGradient>
<radialGradient id="paint9_radial_5416_24318" cx="0" cy="0" r="1" gradientUnits="userSpaceOnUse" gradientTransform="translate(20.0004 20.0007) scale(13.9188)">
<stop stop-color="#828A9E"/>
<stop offset="0.41" stop-color="#80879B"/>
<stop offset="0.64" stop-color="#798093"/>
<stop offset="0.82" stop-color="#6E7385"/>
<stop offset="0.98" stop-color="#5E6272"/>
<stop offset="1" stop-color="#5C5F6F"/>
</radialGradient>
<linearGradient id="paint10_linear_5416_24318" x1="7.9519" y1="17.9024" x2="33.2962" y2="17.9024" gradientUnits="userSpaceOnUse">
<stop stop-color="white"/>
<stop offset="0.51" stop-color="white" stop-opacity="0"/>
<stop offset="0.56" stop-color="white" stop-opacity="0.02"/>
<stop offset="0.62" stop-color="white" stop-opacity="0.09"/>
<stop offset="0.69" stop-color="white" stop-opacity="0.19"/>
<stop offset="0.76" stop-color="white" stop-opacity="0.34"/>
<stop offset="0.84" stop-color="white" stop-opacity="0.53"/>
<stop offset="0.92" stop-color="white" stop-opacity="0.75"/>
<stop offset="1" stop-color="white"/>
</linearGradient>
<linearGradient id="paint11_linear_5416_24318" x1="6.71143" y1="23.89" x2="29.5331" y2="23.89" gradientUnits="userSpaceOnUse">
<stop stop-color="white"/>
<stop offset="0.51" stop-color="white" stop-opacity="0"/>
<stop offset="0.56" stop-color="white" stop-opacity="0.02"/>
<stop offset="0.62" stop-color="white" stop-opacity="0.09"/>
<stop offset="0.69" stop-color="white" stop-opacity="0.19"/>
<stop offset="0.76" stop-color="white" stop-opacity="0.34"/>
<stop offset="0.84" stop-color="white" stop-opacity="0.53"/>
<stop offset="0.92" stop-color="white" stop-opacity="0.75"/>
<stop offset="1" stop-color="white"/>
</linearGradient>
<linearGradient id="paint12_linear_5416_24318" x1="24.8319" y1="24.8318" x2="14.7115" y2="14.7115" gradientUnits="userSpaceOnUse">
<stop stop-color="#B5B9C3"/>
<stop offset="0.495" stop-color="#828A9E"/>
<stop offset="1" stop-color="#8A9098"/>
</linearGradient>
<clipPath id="clip0_5416_24318">
<circle cx="20" cy="20" r="12.6" fill="white"/>
</clipPath>
</defs>
</svg>
