<svg viewBox="36 19 186.234 38.8" fill="none" xmlns="http://www.w3.org/2000/svg">
C1C1C1"/>s*#C1C1C1"/>
<g id="Campaign Dashboards">
F4F8F9"/>s*#F4F8F9"/>
<g id="Side Menu">
paint0_linear_5416_24318)"/>s*#paint0_linear_5416_24318)"/>
paint1_linear_5416_24318)"/>s*#paint1_linear_5416_24318)"/>
<g id="Side Menu Content Container">
<g id="Content">
<g id="logo">
<path id="Vector" d="M45.1724 19C40.1066 19 36 23.1676 36 28.3085V40.88H42.7664V32.071C42.7664 30.8675 43.7274 29.8923 44.9132 29.8923H58.9799V33.4275H46.7873V37.6647H57.5962V40.8882H46.8135L39.7345 57.8005H51.4449L63.25 40.8809V19H45.1724Z" fill="#28C45D"/>
<g id="Group">
<g id="Group_2">
<path id="Vector_2" d="M87.2881 32.6127H77.3945V35.9975H86.1658V38.5718H77.3945V43.5344H74.1311V31.4397C74.1311 30.5277 74.8705 29.7891 75.7834 29.7891H87.2871V32.6127H87.2881Z" fill="white"/>
<path id="Vector_3" d="M99.8427 33.6719H102.856V43.5346H100.134V41.3545C99.1573 42.9746 97.2649 43.784 94.6468 43.784C90.7604 43.784 88.5983 42.4969 88.5983 38.7179V33.6719H91.612V38.198C91.612 40.5651 92.7755 41.3545 95.4782 41.3545C98.1809 41.3545 99.8427 40.358 99.8427 38.012V33.6719Z" fill="white"/>
<path id="Vector_4" d="M120.792 38.488V43.534H117.8V39.0079C117.8 36.6408 116.615 35.8514 113.996 35.8514C111.232 35.8514 109.548 36.869 109.548 39.1527V43.534H106.555V33.6713H109.278V35.8926C110.254 34.2525 112.167 33.4219 114.848 33.4219C118.631 33.4219 120.793 34.7301 120.793 38.488H120.792Z" fill="white"/>
<path id="Vector_5" d="M135.425 29.7891H138.417V43.5344H135.695V41.9978C134.78 43.1191 133.055 43.7838 130.104 43.7838C125.24 43.7838 123.432 42.2261 123.432 39.133V38.0952C123.432 34.9809 125.24 33.4233 130.104 33.4233C132.93 33.4233 134.552 34.0256 135.425 35.1257V29.7891ZM135.425 39.0917V38.1364C135.425 36.5999 134.427 35.8105 131.06 35.8105C127.485 35.8105 126.571 36.5576 126.571 38.1565V39.0283C126.571 40.6484 127.506 41.3955 131.06 41.3955C134.427 41.3955 135.425 40.586 135.425 39.0907V39.0917Z" fill="white"/>
</g>
<g id="Group_3">
<g id="Group_4">
<path id="Vector_6" d="M141.411 43.5354V29.7891H142.866V36.2512H142.968C143.398 34.5117 144.852 33.2235 147.289 33.2235C150.464 33.2235 152.204 35.4132 152.204 38.482C152.204 41.5508 150.463 43.7404 147.166 43.7404C144.914 43.7404 143.295 42.5738 142.824 40.549H142.722V43.5365H141.411V43.5354ZM146.818 42.41C149.235 42.41 150.729 41.4071 150.729 38.482C150.729 35.5569 149.194 34.5741 146.859 34.5741C144.299 34.5741 142.866 35.9658 142.866 38.4609V38.6447C142.866 41.0383 144.382 42.4089 146.819 42.4089L146.818 42.41Z" fill="white"/>
<path id="Vector_7" d="M154.047 47.0124V45.683H155.583C156.607 45.683 156.996 45.3765 157.386 44.5375L157.878 43.5145L152.86 33.4277H154.458L157.427 39.4428L158.553 41.9188H158.676L159.761 39.4227L162.567 33.4277H164.164L158.676 44.9464C157.939 46.5009 156.996 47.0124 155.318 47.0124H154.048H154.047Z" fill="white"/>
</g>
<g id="Group_5">
<path id="Vector_8" d="M180.27 29.7891V32.6127H174.596V43.5344H171.333V32.6127H165.637V29.7891H180.27Z" fill="white"/>
<path id="Vector_9" d="M194.965 39.1117H183.595V39.174C183.595 40.6271 184.51 41.3753 187.731 41.3753C190.952 41.3753 191.889 40.8141 191.889 39.9011V39.7764H194.965V39.9423C194.943 42.413 193.239 43.8048 187.711 43.8048C182.183 43.8048 180.478 42.1847 180.478 39.1328V38.0739C180.478 35.0421 182.223 33.402 187.711 33.3809C193.219 33.3809 194.965 34.9586 194.965 37.8658V39.1117ZM183.617 37.5963H191.867C191.784 36.3504 190.724 35.7068 187.71 35.7068C184.697 35.7068 183.761 36.3292 183.615 37.5963H183.617Z" fill="white"/>
<path id="Vector_10" d="M210.741 43.5346H206.771L203.133 40.2122L199.6 43.5346H195.755L201.117 38.5932L195.9 33.6719H199.891L203.258 36.932L206.709 33.6719H210.575L205.275 38.5509L210.742 43.5346H210.741Z" fill="white"/>
<path id="Vector_11" d="M222.234 41.0636V43.5343H217.765C214.108 43.5343 212.964 42.1225 212.964 39.0283V36.0387H211.176V33.6715H212.964V31.1797H215.957V33.6715H221.901V36.0387H215.957V38.6552C215.957 40.3376 216.497 41.0636 218.492 41.0636H222.234Z" fill="white"/>
</g>
</g>
</g>
</g>
</g>
</g>
</g>
</g>

</svg>
