<svg width="25" height="32" viewBox="0 0 25 32" fill="none" xmlns="http://www.w3.org/2000/svg">
<rect width="25" height="32" fill="#C1C1C1"/>
<g id="Campaign Dashboards">
<rect width="1920" height="1590" transform="translate(-525 -1410)" fill="#F4F8F9"/>
<g id="Campaign dashboard container">
<g id="body">
<g id="Statistics Content Container">
<rect x="-192.5" y="-23.5" width="1547" height="123" rx="15.5" fill="white"/>
<rect x="-192.5" y="-23.5" width="1547" height="123" rx="15.5" stroke="#E7E9EB"/>
<g id="analytics">
<g id="Statistic Title">
<g id="Fundbuddy Illustration">
<g id="uuid-9978d674-3040-48b2-b789-19039c46b6a5">
<g id="Group">
<path id="Vector" d="M20.2648 25.6332C20.2648 25.6332 20.2677 25.6304 20.2691 25.6282C20.2641 25.6189 20.2591 25.6096 20.254 25.6003C20.1634 25.1921 20.0555 24.7904 19.952 24.4022C19.939 24.3499 19.9261 24.2977 19.9139 24.2454C19.9139 24.2389 19.9131 24.2332 19.9117 24.2268C19.6952 23.1576 19.3658 22.0985 18.8977 21.1109C18.902 21.1102 18.9056 21.1095 18.9092 21.1088C18.7351 20.7113 18.5337 20.3268 18.2849 19.9644C17.3622 18.7134 15.9144 18.1054 14.484 17.6205C13.0291 17.1386 11.5576 16.7053 10.0811 16.295C9.73301 16.1933 9.38564 16.0895 9.03467 15.9985C9.01022 15.9892 8.98361 15.9813 8.95628 15.9749C8.91673 15.9491 8.8671 15.9269 8.80669 15.9119C8.37589 15.6899 7.98609 15.3905 7.66749 15.0268C6.2363 13.2937 5.82205 10.7952 6.57792 8.68621C6.6146 8.49071 6.79655 8.27802 6.80015 8.08897C6.93032 8.01735 7.05546 7.86052 7.1583 7.78676C7.66965 7.31484 8.07168 6.71903 8.28959 6.05805C8.32052 5.96853 8.34353 5.87615 8.3723 5.7852C8.38884 5.77589 8.40466 5.76372 8.41976 5.74868C8.51686 5.65415 8.62114 5.56822 8.72542 5.48157C9.17635 5.11276 9.64886 4.77046 10.1027 4.40452C10.6989 3.99633 11.0498 3.27806 10.4033 2.73381C9.45468 1.93318 7.83866 3.40195 7.03101 3.94477C6.59877 4.25772 6.56353 4.04861 6.23271 3.77362C5.71417 3.35039 5.0259 3.42415 4.41747 3.56236C4.33692 3.57024 4.27291 3.5151 4.21178 3.47141C4.02983 3.34323 3.80184 3.26732 3.57817 3.29453C2.49579 3.40768 1.89311 4.49189 1.79602 5.48085C1.75646 5.91124 1.8291 6.33948 1.86866 6.76629C1.89095 6.87944 1.82623 7.01478 1.81616 7.13151C1.62989 7.51535 1.23002 8.57879 1.20269 9.14167C1.19262 9.18105 1.19046 9.22259 1.19478 9.26269C1.18039 9.44602 1.15378 9.62934 1.12861 9.81124C1.06604 10.256 1.01498 10.7035 0.994842 11.1518C0.917888 13.9662 2.11246 16.7755 4.0212 18.8279C4.93744 19.6887 5.98027 20.4542 7.1245 20.9913C7.49489 21.2835 7.6042 21.7905 7.70777 22.2274C7.78832 22.6291 7.82715 23.0387 7.8552 23.4469C7.86023 23.4705 7.86311 23.4949 7.86527 23.5207C7.89763 23.5128 7.92928 23.5056 7.96164 23.4985C8.18603 23.4483 8.41761 23.4111 8.64343 23.472C8.76282 23.5042 8.87357 23.5701 8.97426 23.6396C9.0505 23.6918 9.12026 23.7513 9.1893 23.8129C9.2943 23.9059 9.39427 24.0055 9.49855 24.0993C9.58126 24.1709 9.66684 24.2397 9.75674 24.302C9.8078 24.3356 9.8603 24.3664 9.91496 24.3943C9.96746 24.4194 10.0207 24.4416 10.0753 24.4617C10.1559 24.4882 10.2379 24.5104 10.3213 24.5283C10.4882 24.5605 10.6579 24.5827 10.8255 24.6099C11.0182 24.6407 11.2102 24.6779 11.4008 24.718C11.5238 24.7438 11.6461 24.7703 11.769 24.7954C11.7741 24.7961 11.7784 24.7975 11.7834 24.7982C12.1732 24.877 12.5637 24.9465 12.9571 25.003C13.3469 25.0589 13.7375 25.109 14.1273 25.1656C14.5264 25.2236 14.9256 25.2788 15.324 25.3425C15.5153 25.3733 15.7066 25.4062 15.8972 25.442C16.0813 25.4764 16.2654 25.5129 16.4495 25.5444C16.4467 25.5351 16.4431 25.5258 16.4402 25.5165C16.3776 25.3389 16.3093 25.1635 16.246 24.9866C16.1726 24.7832 16.1029 24.5784 16.0338 24.3736C15.9576 24.148 15.8828 23.9217 15.8044 23.6968C15.8073 23.7047 15.8094 23.7119 15.8123 23.7198C15.8102 23.714 15.8087 23.709 15.8066 23.7033C15.8051 23.7004 15.8044 23.6968 15.803 23.6933C15.803 23.6933 15.803 23.694 15.803 23.6947C15.803 23.6947 15.803 23.694 15.803 23.6933C15.803 23.6925 15.803 23.6918 15.8023 23.6911C15.8008 23.6868 15.7994 23.6832 15.7979 23.6789C15.7476 23.5357 15.6944 23.3932 15.6404 23.2514C15.6124 23.1777 15.5843 23.1039 15.5563 23.0308C15.5433 22.9965 15.5297 22.9614 15.5167 22.927C15.4988 22.8797 15.4772 22.8318 15.4642 22.7824C15.4491 22.7236 15.452 22.6628 15.4757 22.6069C15.5031 22.5432 15.5549 22.4909 15.6189 22.4644C15.6742 22.4408 15.7375 22.4372 15.7951 22.4529C15.8591 22.4708 15.9252 22.516 15.9562 22.5761C15.9713 22.6055 15.9835 22.6341 15.995 22.6649C16.0029 22.6857 16.0108 22.7072 16.0187 22.7279C16.0338 22.7673 16.0482 22.8074 16.0633 22.8468C16.0942 22.9299 16.1252 23.0129 16.1554 23.096C16.2208 23.2772 16.2848 23.4591 16.3467 23.6417C16.4761 24.0212 16.597 24.4029 16.7228 24.7839C16.7832 24.9665 16.8487 25.1491 16.8947 25.3368C16.9192 25.4377 16.9393 25.5401 16.9472 25.644C16.9508 25.6898 16.9522 25.7356 16.9501 25.7815C16.9479 25.8316 16.9407 25.8774 16.9242 25.9247C16.9112 25.9942 16.8724 26.0579 16.8163 26.1009C16.7868 26.1238 16.7523 26.141 16.7163 26.1503C16.6912 26.1574 16.6667 26.1596 16.6416 26.1596C16.6279 26.1596 16.6142 26.1596 16.5998 26.1582C16.5452 26.1546 16.492 26.1388 16.4387 26.1266C16.0568 26.0507 15.6735 25.9755 15.2895 25.9097C14.8925 25.8416 14.494 25.7779 14.0956 25.7185C13.7058 25.6597 13.3146 25.6075 12.9248 25.5494C12.7227 25.5194 12.5213 25.4879 12.3207 25.4492C12.1099 25.4091 11.8992 25.3647 11.6899 25.3181C11.4066 25.2551 11.1254 25.1835 10.8406 25.1248C10.8391 25.1248 10.8377 25.1248 10.8362 25.1241C10.8377 25.1241 10.8391 25.1241 10.8406 25.1248C10.8391 25.1248 10.8377 25.1248 10.8362 25.1241C10.8312 25.1234 10.8262 25.1219 10.8219 25.1212C10.6392 25.0847 10.4565 25.0517 10.2738 25.0138C10.089 24.9751 9.90705 24.925 9.73445 24.8484C9.51941 24.7531 9.32379 24.6192 9.14687 24.466C9.03971 24.3714 8.9383 24.2712 8.83114 24.1759C8.77648 24.1287 8.72039 24.0835 8.66141 24.0427C8.63049 24.0227 8.59956 24.0048 8.5672 23.9876C8.54706 23.9783 8.52692 23.969 8.50679 23.9611C8.49528 23.9575 8.48377 23.9546 8.47155 23.9518C8.44853 23.9475 8.4248 23.9446 8.40178 23.9425C8.36439 23.941 8.32771 23.941 8.29031 23.9425C8.13712 23.9546 7.98465 23.9776 7.83075 23.989C7.76674 23.994 7.70273 23.9976 7.63872 23.9955C7.42297 24.0979 7.19354 24.0613 6.96268 24.0248C6.81741 24.0019 6.67069 23.9783 6.52686 23.9905C6.00185 23.9869 5.40779 24.1824 5.17262 24.6872C5.04892 24.92 5.08847 25.1878 5.0446 25.437C4.57569 26.2799 4.2089 26.8578 4.52894 27.8554C4.59942 28.1526 4.49298 28.4476 4.49874 28.7448C4.53542 29.1766 4.79145 29.612 5.19635 29.7932C5.39629 29.8863 5.62139 29.897 5.82852 29.9679C6.44846 30.263 7.11875 30.4785 7.81133 30.4971C7.85664 30.4986 7.90195 30.5 7.94654 30.5C8.62258 30.5 9.27776 30.3045 9.89698 30.0395C9.92287 30.0424 9.95092 30.041 9.98041 30.0317C10.6823 29.8211 11.4209 29.9364 12.1315 30.0345C13.375 30.2093 14.6206 30.4005 15.8771 30.4391C17.2557 30.4169 19.2616 30.5222 20.0527 29.1694C20.628 28.0623 20.5158 26.8191 20.2533 25.6254C20.2555 25.6297 20.2576 25.6332 20.2591 25.6375L20.2648 25.6332Z" fill="#EA6725"/>
<path id="Vector_2" d="M15.8058 23.6875L15.8072 23.6889L15.8058 23.6875Z" fill="#FF0000"/>
<path id="Vector_3" d="M15.8048 23.6858C15.8048 23.6858 15.8048 23.6865 15.8048 23.6872C15.8048 23.6872 15.8048 23.6865 15.8048 23.6858C15.8034 23.6816 15.8019 23.6773 15.8005 23.6738C15.8005 23.6745 15.8005 23.6759 15.8012 23.6766C15.8019 23.6795 15.8034 23.6823 15.8041 23.6851L15.8048 23.6858Z" fill="#FF0000"/>
<path id="Vector_4" d="M10.8323 25.1191C10.8323 25.1191 10.8382 25.1206 10.8412 25.1213C10.8382 25.1213 10.8352 25.1199 10.833 25.1199L10.8323 25.1191Z" fill="#FF0000"/>
<path id="Vector_5" d="M10.8315 25.1168C10.8256 25.1154 10.8198 25.1147 10.8139 25.1133C10.819 25.114 10.8234 25.1154 10.8285 25.1161C10.8293 25.1161 10.8307 25.1161 10.8315 25.1161V25.1168Z" fill="#FF0000"/>
</g>
<path id="Vector_6" d="M15.7122 13.1451C15.2087 12.9727 14.7057 12.7992 14.2031 12.6246C13.7009 12.4489 13.202 12.2681 12.7052 12.0781C12.6645 12.0623 12.6226 12.0461 12.5818 12.0303C12.1185 11.8507 11.6597 11.6629 11.208 11.4564C11.1681 11.4384 11.1286 11.4193 11.0887 11.4013C10.8435 11.2874 10.5984 11.1698 10.3614 11.0414C10.3112 11.1592 10.2664 11.2803 10.229 11.4031C10.146 11.6769 10.092 11.9556 10.0643 12.2421C10.0397 12.5033 10.0462 12.7702 10.0744 13.033C10.1033 13.3111 10.1632 13.5924 10.2531 13.8615C10.3401 14.1206 10.4451 14.3779 10.5819 14.6185C10.7239 14.8699 10.8853 15.1126 11.0758 15.335C11.2564 15.5447 11.4515 15.7412 11.6669 15.9191C11.8977 16.1093 12.1498 16.2787 12.4147 16.4217C12.5577 16.4985 12.7052 16.5708 12.8565 16.6332C12.8891 16.6458 12.9224 16.66 12.955 16.6726C13.0318 16.7024 13.1107 16.7304 13.1896 16.7547C13.4819 16.8466 13.7813 16.9198 14.0848 16.9543C14.3629 16.9852 14.6445 16.9999 14.9212 16.9787C15.0699 16.9671 15.219 16.9544 15.3665 16.9284C15.5183 16.9016 15.6695 16.8695 15.8181 16.8302C16.0885 16.7587 16.3494 16.6558 16.5975 16.5341C17.1095 16.2843 17.558 15.9242 17.9156 15.4974C18.2599 15.0881 18.5094 14.6119 18.6646 14.1029C18.1855 13.9576 17.7083 13.8041 17.2322 13.6511C16.7242 13.487 16.218 13.3185 15.7129 13.1467L15.7122 13.1451Z" fill="#EA6725"/>
<path id="Vector_7" d="M21.8262 12.4919C21.6491 11.2146 20.4876 10.3974 19.3491 10.1117C19.1829 10.0812 18.9544 10.0267 18.7142 9.98981C18.0124 8.2257 16.2527 6.95711 14.3539 7.11891C13.5846 7.17883 12.8854 7.42004 12.2614 7.79888C12.2477 7.81186 12.2325 7.82555 12.2187 7.83853C12.0714 7.97873 11.9333 8.12772 11.8036 8.28393C11.5809 8.55955 11.3864 8.85654 11.1979 9.15722L11.1905 9.17003L11.1888 9.17459C11.1282 9.2713 11.0686 9.36843 11.0102 9.46599C10.9624 9.54546 10.9141 9.62607 10.8674 9.70596C10.8557 9.74978 10.843 9.79317 10.8291 9.83614C10.8022 9.91981 10.7717 10.0033 10.74 10.0865C10.724 10.1286 10.7079 10.1707 10.6914 10.214C10.688 10.2231 10.6841 10.2333 10.6806 10.2424C10.6645 10.2846 10.6463 10.3258 10.6292 10.3675C10.6274 10.3721 10.6261 10.3755 10.6244 10.3801C10.6222 10.3858 10.6201 10.3915 10.6179 10.3971C10.617 10.406 10.6166 10.4136 10.6169 10.4229C10.6169 10.4294 10.6158 10.4355 10.6158 10.4421C10.6135 10.5039 10.6146 10.567 10.6186 10.6287C10.6206 10.6465 10.6226 10.6642 10.6257 10.6824L10.6261 10.6878C10.6281 10.699 10.629 10.7098 10.6315 10.7199C10.6354 10.7358 10.6394 10.7517 10.6438 10.7665C10.6438 10.7665 10.6451 10.7696 10.6457 10.7712C10.6486 10.7801 10.651 10.7902 10.655 10.7996C10.6556 10.8011 10.6569 10.8043 10.6576 10.8058C10.6611 10.8163 10.665 10.8257 10.6701 10.8355C10.6721 10.8402 10.674 10.8449 10.6756 10.8507C10.6815 10.8647 10.6867 10.8772 10.6931 10.8901C10.6944 10.8933 10.6951 10.8948 10.6964 10.8979C10.7001 10.9046 10.7032 10.9097 10.7069 10.9164C10.7156 10.9328 10.7244 10.9493 10.7336 10.9646C10.7991 10.9965 10.8646 11.0284 10.9294 11.0588C11.3474 11.2535 11.7726 11.4326 12.2015 11.5988C12.2386 11.6132 12.2757 11.6275 12.3128 11.6419C12.7796 11.8202 13.2499 11.9894 13.7217 12.1513C14.1936 12.3133 14.6667 12.4718 15.1402 12.6292C15.2179 12.6553 15.296 12.6804 15.3726 12.7062C15.7718 12.8386 16.1724 12.9704 16.5729 13.0994C16.8762 13.1974 17.1793 13.2926 17.4844 13.386C17.6736 13.4449 17.8647 13.502 18.0544 13.5598C18.0971 13.5725 18.1399 13.5851 18.1816 13.5974C18.2287 13.6117 18.2747 13.6256 18.3219 13.64C18.3398 13.6456 18.3581 13.6501 18.3771 13.6562C18.3961 13.6622 18.4166 13.6675 18.4367 13.674C18.4524 13.6788 18.4692 13.684 18.4849 13.6888C18.5898 13.719 18.6933 13.7499 18.7987 13.779C18.915 13.8123 19.0317 13.8445 19.1473 13.8762C19.1895 13.8873 19.2322 13.9 19.2743 13.9111L19.2765 13.9119C19.3365 13.9287 19.3959 13.9438 19.4559 13.9605C19.4829 13.9684 19.5093 13.9747 19.5364 13.9826C19.6202 14.0059 19.7016 14.0322 19.7845 14.0578C21.0415 14.3973 22.0426 14.0313 21.8245 12.4899L21.8262 12.4919ZM12.3057 11.059C12.7259 9.95578 13.8438 9.36199 14.8019 9.73328C15.7601 10.1046 16.1961 11.3006 15.7759 12.4038L12.3057 11.059Z" fill="#0268C0"/>
</g>
</g>
</g>
</g>
</g>
</g>
</g>
</g>
</svg>
