<svg width="24" height="24" viewBox="0 0 24 24" fill="none" xmlns="http://www.w3.org/2000/svg"><defs><linearGradient id="g" x1="12.0006" y1="0.428223" x2="12.0006" y2="23.5715" gradientUnits="userSpaceOnUse">
<stop stop-color="white"/>
<stop offset="1" stop-color="white" stop-opacity="0.7"/>
</linearGradient></defs><path fill-rule="evenodd" clip-rule="evenodd" d="M6.05431 15.2438C6.0528 15.0999 6.05203 14.9558 6.05203 14.8114C6.05203 13.1387 6.15441 11.4944 6.32651 9.91565C6.53167 8.03362 8.01604 6.55983 9.88963 6.34741C11.4742 6.16777 13.1259 6.05134 14.8121 6.05134C14.9602 6.05134 15.108 6.05223 15.2556 6.054C15.2176 5.55488 15.1715 5.06021 15.1182 4.57119C15.0446 3.89636 14.5122 3.35765 13.8216 3.27936C12.3109 3.10808 10.7581 2.99965 9.18881 2.99965C7.61954 2.99965 6.06674 3.10808 4.55599 3.27936C3.86546 3.35765 3.33304 3.89636 3.25948 4.57119L0.703185 4.29253C0.908344 2.41051 2.3927 0.936723 4.26631 0.724302C5.85086 0.544655 7.50257 0.428223 9.18881 0.428223C10.8751 0.428223 12.5268 0.544655 14.1113 0.724302C15.9849 0.936723 17.4692 2.41051 17.6744 4.29253C17.7416 4.9086 17.7982 5.53465 17.8421 6.16849C17.9108 7.15892 17.9489 8.16835 17.9489 9.18831C17.9489 10.861 17.8465 12.5054 17.6744 14.0841C17.4692 15.9661 15.9849 17.44 14.1113 17.6524C12.5268 17.832 10.8751 17.9484 9.18881 17.9484C8.2403 17.9484 7.30271 17.9116 6.38186 17.8473C6.30741 17.8421 6.23306 17.8368 6.15883 17.8312C5.51897 17.7835 4.88748 17.7228 4.26631 17.6524C2.3927 17.44 0.908344 15.9661 0.703184 14.0841C0.531083 12.5054 0.428711 10.861 0.428711 9.18831C0.428711 7.51562 0.531083 5.87127 0.703185 4.29253L3.25948 4.57119C3.09621 6.06888 3.00014 7.61957 3.00014 9.18831C3.00014 10.7571 3.09621 12.3078 3.25946 13.8054C3.33304 14.4803 3.86546 15.019 4.55599 15.0973C5.05121 15.1534 5.55095 15.2028 6.05431 15.2438ZM6.36844 19.9943C7.29043 20.0558 8.23262 20.0913 9.18905 20.0913C10.9728 20.0913 12.7069 19.9682 14.3529 19.7815C17.2124 19.4573 19.49 17.2043 19.8049 14.3163C19.9844 12.67 20.0921 10.9476 20.0921 9.18828C20.0921 8.24179 20.0609 7.30599 20.0041 6.387C21.7491 6.70344 23.1027 8.12468 23.298 9.9156C23.4701 11.4944 23.5724 13.1387 23.5724 14.8114C23.5724 16.4841 23.4701 18.1284 23.298 19.7071C23.0928 21.5892 21.6085 23.063 19.7348 23.2754C18.1503 23.4551 16.4986 23.5715 14.8124 23.5715C13.1261 23.5715 11.4744 23.4551 9.88987 23.2754C8.11264 23.074 6.68565 21.7375 6.36844 19.9943Z" fill="url(#g)"/></svg>