<svg width="24" height="24" viewBox="0 0 24 24" fill="none" xmlns="http://www.w3.org/2000/svg"><defs><linearGradient id="g" x1="12" y1="0" x2="12" y2="24.0004" gradientUnits="userSpaceOnUse">
<stop stop-color="white"/>
<stop offset="1" stop-color="white" stop-opacity="0.7"/>
</linearGradient></defs><path fill-rule="evenodd" clip-rule="evenodd" d="M17.3817 2.57271C17.3817 3.89901 16.4344 5.08815 14.9363 5.8944L14.9392 5.89635C13.6651 6.48213 12.0059 6.80143 10.2858 6.80136C8.56586 6.80129 6.90698 6.4819 5.63318 5.89596L5.63637 5.89378C4.13894 5.08754 3.19212 3.89866 3.19212 2.57271C3.19212 0.43128 5.66174 -0.883469 8.93198 0.696554C9.77654 1.10461 10.7973 1.10461 11.6419 0.696554C14.9121 -0.883469 17.3817 0.43128 17.3817 2.57271ZM3.82185 7.35468C1.4841 9.58598 0.479988 12.2154 0.0732868 15.0403C-0.58243 19.595 3.24665 23.7195 8.16936 23.9503C8.93319 23.9861 9.69504 24.0026 10.4571 23.9997C10.2657 23.85 10.0875 23.6777 9.92619 23.483C8.71846 22.0246 8.92166 19.8633 10.3801 18.6555C13.2257 16.2989 16.5885 15.8359 19.6035 16.6245C19.8682 16.3152 20.1919 16.0489 20.5682 15.8444C20.5601 15.5784 20.537 15.3102 20.4982 15.0405C20.0916 12.2157 19.0877 9.58644 16.7505 7.35526C14.9811 8.44438 12.5901 8.94432 10.2857 8.94422C7.98165 8.94411 5.59102 8.44414 3.82185 7.35468ZM18.0106 22.3716C18.1155 21.8494 18.5229 21.4653 19.0137 21.3648C17.1128 20.6721 15.0482 20.9105 13.3868 22.2864C12.8399 22.7393 12.0294 22.663 11.5765 22.1162C11.1236 21.5693 11.1998 20.7588 11.7467 20.3059C14.6311 17.9172 18.1872 17.9556 21.0838 19.4878C21.0722 19.4611 21.06 19.4349 21.0477 19.4091C20.7418 18.7682 21.0135 18.0009 21.6543 17.695C22.2951 17.3892 23.0626 17.6607 23.3685 18.3015C23.945 19.5096 24.1476 21.1215 23.8896 22.4376C23.845 22.6874 23.7262 22.9265 23.5332 23.1195C23.4069 23.2457 23.261 23.3403 23.1051 23.4031C21.8981 23.9566 20.3121 24.1452 19.0179 23.8853C18.3218 23.7454 17.8707 23.0678 18.0106 22.3716Z" fill="url(#g)"/></svg>