<svg width="28" height="28" viewBox="0 0 28 28" fill="none" xmlns="http://www.w3.org/2000/svg"><defs><linearGradient id="g" x1="13.915" y1="0" x2="13.915" y2="28.0002" gradientUnits="userSpaceOnUse">
<stop stop-color="white"/>
<stop offset="1" stop-color="white" stop-opacity="0.7"/>
</linearGradient></defs><path fill-rule="evenodd" clip-rule="evenodd" d="M13.9144 0C14.9085 0 15.8813 0.195424 16.8249 0.404116C17.8077 0.621472 18.5594 1.47377 18.6337 2.48012C18.6463 2.65084 18.659 2.84028 18.6716 3.06208C17.1859 2.89796 15.5785 2.75 13.9146 2.75C12.2507 2.75 10.6431 2.89798 9.15722 3.06212C9.16986 2.84016 9.18254 2.65072 9.19512 2.4801C9.26932 1.47374 10.0211 0.62147 11.004 0.404116C11.9476 0.195424 12.9204 0 13.9144 0ZM9.16434 24.9386C9.1768 25.1558 9.1893 25.3454 9.20166 25.5194C9.2731 26.526 10.0212 27.3786 11.004 27.596C11.9476 27.8046 12.9204 28.0002 13.9145 28.0002C14.9085 28.0002 15.8813 27.8046 16.8249 27.596C17.8078 27.3786 18.5557 26.526 18.6271 25.5194C18.6395 25.3452 18.652 25.1556 18.6645 24.9388C17.1807 25.1026 15.5758 25.25 13.9146 25.25C12.2533 25.25 10.6482 25.1024 9.16434 24.9386ZM5.47672 18.7418C5.68478 20.6624 7.22732 22.2048 9.14698 22.4212C10.6966 22.5958 12.2896 22.75 13.915 22.75C15.5404 22.75 17.1335 22.5958 18.6831 22.4212C20.6028 22.2048 22.1452 20.6624 22.3534 18.7418C22.5204 17.2006 22.665 15.6163 22.665 14C22.665 12.3837 22.5204 10.7994 22.3534 9.25822C22.1452 7.33762 20.6028 5.79526 18.6831 5.57884C17.1335 5.40414 15.5404 5.25 13.915 5.25C12.2896 5.25 10.6966 5.40414 9.14698 5.57884C7.22732 5.79526 5.68478 7.33762 5.47672 9.25822C5.30974 10.7994 5.16504 12.3837 5.16504 14C5.16504 15.6163 5.30974 17.2006 5.47672 18.7418ZM15.3691 9.75C15.3691 9.05964 14.8095 8.5 14.1191 8.5C13.4288 8.5 12.8691 9.05964 12.8691 9.75V14C12.8691 14.3315 13.0008 14.6495 13.2353 14.8839L15.7353 17.3839C16.2234 17.872 17.0149 17.872 17.503 17.3839C17.9912 16.8957 17.9912 16.1043 17.503 15.6161L15.3691 13.4822V9.75Z" fill="url(#g)"/></svg>