<svg width="24" height="24" viewBox="0 0 24 24" fill="none" xmlns="http://www.w3.org/2000/svg"><defs><linearGradient id="g" x1="11.9997" y1="0.00195312" x2="11.9997" y2="23.9983" gradientUnits="userSpaceOnUse">
<stop stop-color="white"/>
<stop offset="1" stop-color="white" stop-opacity="0.7"/>
</linearGradient></defs><path fill-rule="evenodd" clip-rule="evenodd" d="M0.496066 0.27426C-0.0636538 0.711212 -0.16318 1.51917 0.273771 2.0789C7.88852 11.8332 11.9647 15.8551 21.9147 23.7212C22.4717 24.1616 23.2803 24.0669 23.7207 23.51C24.1611 22.9528 24.0665 22.1444 23.5093 21.704C22.6273 21.0066 21.7928 20.3406 20.9991 19.6991C22.1112 15.5416 21.7248 9.48544 21.45 5.17996L21.4491 5.16574C21.3965 4.34116 20.7128 3.69982 19.8865 3.69982C19.0248 3.69982 18.3262 4.39836 18.3262 5.26006V10.1167C18.3262 10.7084 17.8465 11.1881 17.2548 11.1881C16.6631 11.1881 16.1834 10.7084 16.1834 10.1167V2.79206C16.1834 1.72348 15.3171 0.857213 14.2485 0.857213C13.1799 0.857213 12.3137 1.72348 12.3137 2.79206V10.2029C12.3137 10.7075 11.9649 11.1306 11.4953 11.2443C11.0504 10.7918 10.6101 10.3332 10.1708 9.865V3.80122C10.1708 2.83564 9.38806 2.05288 8.42247 2.05288C7.58213 2.05288 6.85688 2.65024 6.72883 3.48077C6.61757 4.20235 6.52462 4.92586 6.44895 5.65089C5.15839 4.11074 3.80098 2.41838 2.30071 0.496554C1.86375 -0.0631664 1.05579 -0.162691 0.496066 0.27426ZM6.21193 12.3984C9.72917 16.2397 13.203 19.3706 18.2688 23.4551C18.1798 23.4728 18.0898 23.4866 17.9994 23.4969C15.1572 23.8196 12.375 23.8165 9.53165 23.488C8.89332 23.4143 8.29542 23.1438 7.80336 22.7306L1.70826 17.6118C0.863321 16.9023 0.615413 15.7057 1.10886 14.7188C1.65322 13.6301 2.93009 13.126 4.07137 13.5493L6.31788 14.6036C6.26897 13.8686 6.23331 13.1334 6.21193 12.3984Z" fill="url(#g)"/></svg>