<svg width="234" height="32" viewBox="0 0 234 32" fill="none" xmlns="http://www.w3.org/2000/svg">
<path d="M43.4203 0C39.2424 0 35.8555 3.43713 35.8555 7.67704V18.0451H41.436V10.7801C41.436 9.78754 42.2285 8.98325 43.2065 8.98325H54.8077V11.8988H44.7521V15.3934H53.6666V18.0519H44.7737L38.9355 32H48.5933L58.3294 18.0459V0H43.4203Z" fill="#28C45D"/>
<path d="M79.0093 10.8506H70.2071V13.862H78.0108V16.1523H70.2071V20.5674H67.3037V9.80696C67.3037 8.99558 67.9616 8.33839 68.7737 8.33839H79.0084V10.8506H79.0093Z" fill="#003060"/>
<path d="M90.1779 11.7923H92.8591V20.5671H90.4367V18.6275C89.5681 20.0688 87.8844 20.789 85.5551 20.789C82.0975 20.789 80.1738 19.6438 80.1738 16.2817V11.7923H82.8551V15.8191C82.8551 17.9251 83.8903 18.6275 86.2949 18.6275C88.6994 18.6275 90.1779 17.7409 90.1779 15.6536V11.7923Z" fill="#003060"/>
<path d="M108.817 16.0784V20.5678H106.154V16.5409C106.154 14.4349 105.1 13.7326 102.77 13.7326C100.311 13.7326 98.8128 14.638 98.8128 16.6698V20.5678H96.1504V11.793H98.5728V13.7693C99.4415 12.3101 101.143 11.5711 103.529 11.5711C106.894 11.5711 108.818 12.7351 108.818 16.0784H108.817Z" fill="#003060"/>
<path d="M121.835 8.33829H124.498V20.5673H122.075V19.2003C121.261 20.1978 119.727 20.7892 117.101 20.7892C112.774 20.7892 111.166 19.4034 111.166 16.6514V15.7282C111.166 12.9574 112.774 11.5716 117.101 11.5716C119.616 11.5716 121.059 12.1075 121.835 13.0862V8.33829ZM121.835 16.6148V15.7648C121.835 14.3978 120.948 13.6955 117.952 13.6955C114.771 13.6955 113.958 14.3602 113.958 15.7827V16.5584C113.958 17.9997 114.79 18.6644 117.952 18.6644C120.948 18.6644 121.835 17.9442 121.835 16.6138V16.6148Z" fill="#003060"/>
<path d="M127.161 20.5682V8.33827H128.455V14.0875H128.546C128.929 12.54 130.223 11.3939 132.391 11.3939C135.215 11.3939 136.763 13.342 136.763 16.0723C136.763 18.8026 135.214 20.7506 132.281 20.7506C130.277 20.7506 128.837 19.7127 128.418 17.9113H128.327V20.5692H127.161V20.5682ZM131.971 19.5669C134.122 19.5669 135.451 18.6747 135.451 16.0723C135.451 13.4698 134.085 12.5954 132.008 12.5954C129.73 12.5954 128.455 13.8337 128.455 16.0535V16.2171C128.455 18.3466 129.804 19.566 131.972 19.566L131.971 19.5669Z" fill="#003060"/>
<path d="M138.401 23.6619V22.4791H139.768C140.679 22.4791 141.025 22.2065 141.372 21.46L141.809 20.5499L137.345 11.5758H138.767L141.408 16.9273L142.411 19.1302H142.52L143.485 16.9094L145.981 11.5758H147.402L142.52 21.8238C141.864 23.2068 141.025 23.6619 139.532 23.6619H138.402H138.401Z" fill="#003060"/>
<path d="M161.733 8.33807V10.8503H156.685V20.5671H153.782V10.8503H148.715V8.33807H161.733Z" fill="#003060"/>
<path d="M174.805 16.6318H164.69V16.6873C164.69 17.98 165.504 18.6457 168.37 18.6457C171.236 18.6457 172.069 18.1465 172.069 17.3341V17.2232H174.805V17.3708C174.787 19.569 173.27 20.8072 168.352 20.8072C163.434 20.8072 161.917 19.3659 161.917 16.6506V15.7085C161.917 13.0111 163.47 11.552 168.352 11.5332C173.252 11.5332 174.805 12.9369 174.805 15.5233V16.6318ZM164.709 15.2836H172.05C171.975 14.1751 171.032 13.6025 168.351 13.6025C165.67 13.6025 164.838 14.1563 164.708 15.2836H164.709Z" fill="#003060"/>
<path d="M188.842 20.5675H185.31L182.073 17.6116L178.93 20.5675H175.509L180.28 16.1712L175.638 11.7928H179.189L182.184 14.6932L185.254 11.7928H188.694L183.979 16.1336L188.843 20.5675H188.842Z" fill="#003060"/>
<path d="M199.067 18.3689V20.567H195.091C191.837 20.567 190.82 19.3109 190.82 16.5581V13.8983H189.229V11.7923H190.82V9.57529H193.482V11.7923H198.771V13.8983H193.482V16.2262C193.482 17.723 193.963 18.3689 195.738 18.3689H199.067Z" fill="#003060"/>
</svg>
