<svg width="68" height="71" viewBox="0 0 68 71" fill="none" xmlns="http://www.w3.org/2000/svg">
<path d="M1.5 28.5V69.5" stroke="#EAEEF3" stroke-width="3" stroke-linecap="round"/>
<path d="M17.66 22.39V34.81L3 41.13V28.71L17.66 22.39Z" fill="#EAEEF3"/>
<path d="M49.99 8.46997V20.88L33.83 27.84V15.43L49.99 8.46997Z" fill="#EAEEF3"/>
<path d="M66.16 1.5V13.91L49.99 20.88V8.47L66.16 1.5Z" fill="#D4DEE7"/>
<path d="M66.16 13.91V26.33L49.99 33.3V20.88L66.16 13.91Z" fill="#EAEEF3"/>
<path d="M49.99 20.88V33.3L33.83 40.26V27.84L49.99 20.88Z" fill="#D4DEE7"/>
<path d="M33.83 27.84V40.26L17.66 47.22V34.81L33.83 27.84Z" fill="#EAEEF3"/>
<path d="M17.66 34.8101V47.2201L3 53.5401V41.1301L17.66 34.8101Z" fill="#D4DEE7"/>
<path d="M33.83 15.4301V27.8401L17.66 34.8101V22.3901L33.83 15.4301Z" fill="#D4DEE7"/>
<path d="M66.16 1.5L66.4856 69.5001" stroke="#EAEEF3" stroke-width="3" stroke-linecap="round"/>
</svg>
