<svg width="68" height="71" viewBox="0 0 68 71" fill="none" xmlns="http://www.w3.org/2000/svg">
<path d="M1.5 28.5V69.5" stroke="#0268C0" stroke-width="3" stroke-linecap="round"/>
<path d="M17.66 22.3906V34.8106L3 41.1306V28.7106L17.66 22.3906Z" fill="#FF8C53"/>
<path d="M49.99 8.4707V20.8807L33.83 27.8407V15.4307L49.99 8.4707Z" fill="#FF8C53"/>
<path d="M66.16 1.5V13.91L49.99 20.88V8.47L66.16 1.5Z" fill="#F47435"/>
<path d="M66.16 13.9102V26.3302L49.99 33.3002V20.8802L66.16 13.9102Z" fill="#FF8C53"/>
<path d="M49.99 20.8809V33.3009L33.83 40.2609V27.8409L49.99 20.8809Z" fill="#F47435"/>
<path d="M33.83 27.8398V40.2598L17.66 47.2198V34.8098L33.83 27.8398Z" fill="#FF8C53"/>
<path d="M17.66 34.8105V47.2205L3 53.5405V41.1305L17.66 34.8105Z" fill="#F47435"/>
<path d="M33.83 15.4297V27.8397L17.66 34.8097V22.3897L33.83 15.4297Z" fill="#F47435"/>
<path d="M66.16 1.5L66.4856 69.5001" stroke="#0268C0" stroke-width="3" stroke-linecap="round"/>
</svg>
