<svg width="59" height="45" viewBox="0 0 59 45" fill="none" xmlns="http://www.w3.org/2000/svg">
<path d="M31.9616 32.7869C31.7107 32.6291 31.452 32.4828 31.1985 32.3275C30.9425 32.1723 30.6915 32.0107 30.4431 31.8427C30.0647 31.5869 29.6966 31.3158 29.3195 31.0588C28.8456 30.7419 28.3487 30.462 27.8583 30.1705C27.3564 29.8715 26.857 29.5648 26.3678 29.2454C25.8875 28.9311 25.42 28.6002 24.9588 28.2579C24.5091 27.9232 24.0607 27.5873 23.6084 27.2564C23.1333 26.9077 22.6415 26.5794 22.1791 26.2129C21.9409 26.0246 21.7103 25.8222 21.495 25.6072C21.4632 25.5753 21.4326 25.5435 21.402 25.5117C21.6211 26.1544 21.8695 26.7894 22.1052 27.418C22.7524 29.0252 23.6569 30.5205 24.2531 32.1494C23.2492 31.9216 22.3269 31.4393 21.3727 31.0664C19.7 30.3729 17.9496 29.8817 16.2744 29.1983C15.6782 28.9387 15.468 28.2833 15.2693 27.7171C15.054 27.0935 14.8769 26.4585 14.6553 25.8362C14.5533 25.5473 14.4412 25.2394 14.2094 25.0281C13.2985 24.2621 11.9647 24.7113 10.8806 25.1363C10.5634 25.051 10.1583 25.1732 9.84107 25.1414C8.88817 25.1745 7.934 25.2038 6.97982 25.2368C6.31993 25.3005 5.6129 25.2076 4.97975 25.4061C4.63834 25.5919 4.64343 26.1174 4.97975 26.3045C5.56449 26.5005 6.22056 26.4292 6.83077 26.517C7.14161 26.5387 7.45245 26.5616 7.76329 26.5845C5.67787 27.6356 3.63703 28.7745 1.63186 29.9695C1.14649 30.2723 0.58851 30.5129 0.220343 30.9646C-0.233176 31.5182 0.0496365 32.2512 0.737559 32.395C1.66243 32.6291 2.62935 32.6406 3.57588 32.7118C5.57086 32.8556 7.58112 32.8709 9.5659 33.1127C10.3557 33.2909 11.0781 33.6777 11.8029 34.0277C16.57 36.4252 21.2313 39.2401 26.3818 40.7379C26.8022 40.8524 27.2404 40.9084 27.6799 40.9084C29.638 40.9084 31.6253 39.8038 32.2725 37.8962C32.8355 36.2368 32.4814 34.4502 31.9782 32.7996C31.9718 32.7958 31.9654 32.7907 31.9578 32.7869H31.9616Z" fill="#299CE6"/>
<path d="M57.7156 29.0265C55.6314 29.0316 51.9485 32.8111 50.1013 34.2389C49.6223 33.8851 49.1407 33.5339 48.6605 33.1814C48.0108 32.7055 47.3623 32.2283 46.7126 31.751C46.0387 31.256 45.3661 30.7623 44.6922 30.2672C44.0055 29.7633 43.3202 29.2594 42.6348 28.7567C41.9469 28.2515 41.2589 27.7463 40.571 27.2411C39.8971 26.7461 39.2219 26.2511 38.548 25.756C37.8716 25.2585 37.1938 24.7622 36.5174 24.2646C35.8524 23.7759 35.1874 23.2885 34.5224 22.7999C34.1453 22.5237 33.7695 22.2463 33.3924 21.9702C33.0395 21.7831 32.6917 21.5871 32.3401 21.3988C31.8624 21.143 31.3796 20.8949 30.8968 20.6493C30.7452 20.5716 30.5923 20.4953 30.4407 20.4176C30.3362 20.3642 30.2318 20.312 30.1273 20.2586C30.0802 20.2344 30.0331 20.2102 29.9859 20.186C29.9362 20.1606 29.884 20.1377 29.8381 20.1059C29.7553 20.0512 29.6878 19.9837 29.6483 19.8908C29.6012 19.7788 29.6012 19.649 29.6483 19.537C29.7451 19.308 30.0152 19.2024 30.2432 19.2953C30.3261 19.3296 30.405 19.3767 30.484 19.4174C30.5503 19.4518 30.6178 19.4861 30.684 19.5218C30.8063 19.5854 30.9286 19.649 31.0509 19.7127C31.2637 19.8246 31.4751 19.9404 31.6841 20.0601C32.1733 20.3413 32.6548 20.6353 33.1313 20.9369C33.3083 21.0488 33.4841 21.1634 33.6548 21.2855C33.6587 21.2843 33.6638 21.2817 33.6676 21.2804C34.1249 21.0565 34.5733 20.8134 35.0128 20.5576C35.0472 20.5144 35.0944 20.48 35.1492 20.4609C35.1721 20.4469 35.195 20.4316 35.218 20.4176C35.2269 20.4126 35.2345 20.4062 35.2434 20.3998C35.246 20.3973 35.2498 20.396 35.2523 20.3935C35.2587 20.3897 35.2638 20.3858 35.2702 20.3807C35.2689 20.382 35.2664 20.3833 35.2651 20.3846C35.3441 20.3311 35.4231 20.2789 35.502 20.2255C35.5555 20.1899 35.609 20.153 35.6626 20.1173C35.6536 20.1237 35.6434 20.1301 35.6345 20.1364C35.6473 20.1275 35.6613 20.1186 35.674 20.1097C35.688 20.1008 35.702 20.0906 35.7148 20.0817C35.7364 20.0677 35.7568 20.0537 35.7785 20.0384C35.7836 20.0346 35.7887 20.0321 35.7925 20.0282C35.7925 20.0282 35.795 20.027 35.7963 20.0257C35.8001 20.0232 35.804 20.0206 35.8078 20.0181C35.8052 20.0193 35.804 20.0206 35.8014 20.0219C36.0078 19.8819 36.2129 19.7419 36.4193 19.6007C36.497 19.5472 36.5747 19.4938 36.6524 19.4403C36.7199 19.3551 36.8104 19.2889 36.9161 19.2533C36.99 19.1998 37.0626 19.1451 37.1352 19.0904C37.3212 18.9478 37.5021 18.8015 37.6792 18.6475C38.0881 18.2861 38.4716 17.8954 38.8436 17.4971C38.9862 17.3432 39.1276 17.1879 39.2665 17.0314C39.3417 16.9461 39.4156 16.8596 39.4894 16.773C39.4984 16.7616 39.5073 16.7514 39.5162 16.7412C39.6028 16.6394 39.6894 16.5363 39.7748 16.4333C39.9583 16.2131 40.1379 15.9904 40.306 15.7588C40.3417 15.7092 40.3774 15.6583 40.413 15.6074C40.5252 15.4407 40.6271 15.2676 40.7188 15.0882C40.7532 15.0169 40.7863 14.9457 40.8182 14.8718C40.8182 14.8693 40.8194 14.8655 40.8207 14.8629C40.8334 14.7879 40.8411 14.7128 40.8475 14.6377C40.8602 14.4214 40.8538 14.205 40.8411 13.9887C40.8334 13.8805 40.8232 13.7736 40.8105 13.6667C40.808 13.6629 40.8054 13.6591 40.8029 13.6553C40.013 11.9246 38.1225 11.1674 36.539 10.3161C36.283 10.2206 35.874 9.96105 35.4778 9.76126C35.3759 9.75617 35.2804 9.71035 35.2116 9.63782C35.1441 9.60982 35.0765 9.58437 35.0128 9.56401C35.0065 9.51692 34.9988 9.46984 34.9899 9.42403C34.9632 9.40112 34.939 9.37567 34.9186 9.3464C34.8651 9.27005 34.8294 9.19624 34.8014 9.10971C34.7937 9.08425 34.7861 9.05753 34.7772 9.03208C34.7746 9.02317 34.7721 9.01554 34.7695 9.00663C34.6791 8.90101 34.5886 8.79538 34.4969 8.69104C34.316 8.4887 34.1275 8.29272 33.9249 8.11075C33.7453 7.95677 33.5529 7.81679 33.358 7.68317C32.9262 7.39557 32.4764 7.14106 32.014 6.90691C31.4739 6.6384 30.9197 6.39789 30.3706 6.14719C29.9235 5.94231 29.4776 5.73361 29.033 5.52491C28.5808 5.31367 28.1272 5.10879 27.6737 4.90009C27.1884 4.67739 26.7068 4.44451 26.2291 4.20527C25.894 4.03729 25.5603 3.86423 25.2252 3.69498C24.7169 3.44174 24.1997 3.20886 23.6736 2.99507C23.55 2.94544 23.4264 2.89708 23.3016 2.85127C23.2405 2.82836 23.1793 2.80673 23.1182 2.7851L23.071 2.76855C23.0353 2.75583 22.9984 2.74438 22.9627 2.73165C22.629 2.62094 22.2914 2.52422 21.9474 2.45042C21.6353 2.38933 21.3194 2.34861 21.0022 2.32443C20.3856 2.28753 19.7677 2.30789 19.1511 2.34861C17.9256 2.43387 16.7052 2.57131 15.4835 2.68966C14.8249 2.75328 14.1637 2.80546 13.5063 2.87545C12.9649 2.93271 12.4248 3.00907 11.8834 3.07142C11.319 3.13505 10.7534 3.19232 10.1839 3.2025C10.1674 3.2025 10.1508 3.2025 10.1342 3.2025C10.0909 3.21395 10.0476 3.2254 10.0056 3.23558C9.98647 3.2254 9.96736 3.21522 9.94698 3.20504C9.56862 3.21013 9.18899 3.21649 8.81063 3.2394C8.47559 3.26358 8.14182 3.30048 7.81187 3.36411C7.58638 3.41247 7.36472 3.47482 7.1456 3.54736C6.93922 3.62117 6.73794 3.70516 6.54176 3.80187C6.38124 3.88459 6.22582 3.97621 6.0755 4.0742C5.91881 4.18237 5.76848 4.29944 5.62453 4.42415C5.48312 4.55268 5.34936 4.68757 5.22069 4.82882C5.10986 4.95735 5.0054 5.0897 4.90858 5.22841C4.80794 5.38111 4.71367 5.53891 4.62959 5.70053C4.53914 5.88886 4.46143 6.08102 4.39136 6.27699C4.34423 6.41952 4.30091 6.56332 4.2627 6.70839C4.28053 6.75802 4.29327 6.8102 4.30091 6.8611C4.31747 6.96417 4.32639 7.06852 4.34423 7.17033C4.35569 7.2225 4.36971 7.27341 4.38627 7.32431C4.46652 7.54573 4.57226 7.75825 4.66781 7.97331C4.78501 8.23673 4.88183 8.51033 4.9175 8.79793C4.95699 9.11989 4.92514 9.44184 4.90221 9.7638C4.89457 9.89106 4.89202 10.0183 4.89839 10.1456C4.90348 10.1927 4.90985 10.241 4.9175 10.2881C4.93024 10.3441 4.94552 10.3988 4.96336 10.4523C4.98374 10.507 5.00667 10.5604 5.03088 10.6139C5.06018 10.6699 5.09202 10.7233 5.12642 10.7755C5.17356 10.8417 5.22451 10.9066 5.27674 10.9676C5.43089 11.1394 5.60032 11.2972 5.76721 11.4576C5.8653 11.5505 5.95957 11.6472 6.04238 11.7528C6.13792 11.875 6.21563 12.0086 6.27933 12.1486C6.40417 12.4209 6.4564 12.7187 6.55068 13.0025C6.58635 13.1017 6.62584 13.201 6.6717 13.2964C6.70227 13.355 6.7354 13.4122 6.77234 13.4682C6.80801 13.5191 6.84623 13.5687 6.88699 13.6158C6.92394 13.6553 6.96216 13.6935 7.00165 13.7304C7.04751 13.7685 7.09337 13.8042 7.14178 13.8385C7.2042 13.8793 7.26917 13.9162 7.33414 13.9505C7.4195 13.9912 7.50612 14.0269 7.59403 14.06C7.69721 14.0943 7.80295 14.1223 7.90996 14.1452C7.99914 14.1618 8.08704 14.1745 8.17749 14.1821C8.26921 14.1859 8.36093 14.1859 8.45266 14.1821C8.59534 14.1707 8.73674 14.1503 8.87815 14.1236C9.05905 14.0841 9.2374 14.0345 9.4132 13.9747C9.42212 13.9721 9.43103 13.9683 9.43995 13.9645C10.11 13.8818 10.8846 13.6795 11.1508 13.5369C12.4655 13.0343 12.5139 11.3354 11.705 10.9142C11.7432 10.8989 11.7827 10.8862 11.8222 10.8773C11.8617 10.806 11.933 10.7526 12.0184 10.7437C12.0248 10.7437 12.0299 10.7424 12.0362 10.7411C12.0362 10.7411 12.0388 10.7411 12.0388 10.7399C12.0388 10.7399 12.0375 10.7399 12.0362 10.7411C12.2961 10.6151 12.5802 10.5477 12.8605 10.4803C13.1458 10.4128 13.4325 10.3479 13.7204 10.297C14.049 10.2385 14.379 10.2016 14.7102 10.1647C15.0096 10.1316 15.3077 10.1023 15.6071 10.0705C15.8555 10.0438 16.1052 10.0183 16.3536 9.99159C16.737 9.93305 17.1218 9.87579 17.5052 9.82107C18.0734 9.73962 18.6416 9.6709 19.2136 9.62127C19.5206 9.59455 19.8276 9.57164 20.1346 9.55256C20.1996 9.54874 20.2658 9.54492 20.3308 9.5411C20.5907 9.51183 20.8518 9.48384 21.1117 9.45839C21.4034 9.42912 21.6952 9.40494 21.9882 9.38331C22.3602 9.35658 22.736 9.32095 23.108 9.37822C23.3131 9.41003 23.5105 9.46602 23.7054 9.53856C23.8659 9.59964 24.0214 9.67472 24.1768 9.74471C24.443 9.86561 24.7055 9.99541 24.9692 10.1239C25.1679 10.2206 25.3654 10.3186 25.5628 10.4179C25.5666 10.4192 25.5705 10.4217 25.573 10.423C25.5845 10.4281 25.5959 10.4344 25.6074 10.4408L25.5807 10.4268C25.6864 10.4803 25.7921 10.5324 25.8979 10.5859C25.894 10.5846 25.8902 10.5821 25.8864 10.5808C25.8915 10.5833 25.8966 10.5859 25.903 10.5884L25.9144 10.5948C25.9144 10.5948 25.917 10.5948 25.9183 10.5961C25.9183 10.5961 25.9208 10.5961 25.9221 10.5973C25.9221 10.5973 25.9221 10.5973 25.9208 10.5973C25.9208 10.5973 25.9208 10.5973 25.9195 10.5973C25.9195 10.5973 25.9195 10.5973 25.9208 10.5973C25.9208 10.5973 25.9221 10.5973 25.9233 10.5986C26.3437 10.8086 26.7705 11.0071 27.1858 11.2247C27.1884 11.2361 27.1922 11.2463 27.1947 11.2578C27.2291 11.3609 27.261 11.4652 27.2877 11.5708C27.1642 11.7757 27.0342 11.9755 26.9005 12.174C26.6762 12.5138 26.4367 12.8434 26.1896 13.1653C23.3487 13.2913 20.5028 13.2201 17.6606 13.3053C17.2415 13.2939 16.6848 13.383 16.7421 13.9263C16.7727 14.1847 16.9549 14.3043 17.1714 14.3628C17.2364 14.4112 17.3167 14.4481 17.4109 14.4697C17.4109 14.4697 17.4109 14.4697 17.4122 14.4697C17.4224 14.4748 17.4313 14.4786 17.4428 14.4824C20.3397 15.2167 23.2876 15.7575 26.2431 16.2309C26.252 16.2958 26.2584 16.3595 26.2584 16.4244C26.252 16.4473 26.2431 16.4676 26.2342 16.4893C25.9221 16.474 25.6112 16.46 25.2991 16.446C24.4328 16.4091 23.5653 16.3875 22.699 16.4256C22.5653 16.4065 22.4315 16.3887 22.2977 16.3722C22.1512 16.3544 22.006 16.3327 21.8621 16.3009C21.6213 16.3047 21.3805 16.3086 21.141 16.3124C20.9729 16.3277 20.7996 16.3238 20.6251 16.3187C20.3053 16.3111 19.9843 16.3047 19.69 16.4155C19.4938 16.5313 19.3804 16.7794 19.4492 17.0021C19.5397 17.347 19.9078 17.4081 20.2123 17.4513C20.8238 17.5518 21.4353 17.6486 22.0493 17.7364C21.9232 17.9222 21.8047 18.1118 21.6952 18.309C20.6212 20.0499 20.3282 21.6635 20.8021 23.1015C20.8085 23.1486 20.8149 23.1956 20.8213 23.2427C20.8773 23.3738 20.9372 23.5036 21.0009 23.6321C21.0926 23.8116 21.1907 23.9872 21.3015 24.1552C21.3996 24.2977 21.5079 24.4326 21.6226 24.5624C21.7805 24.738 21.95 24.9034 22.127 25.0599C22.5729 25.4468 23.0595 25.7828 23.5449 26.1174C23.6965 26.2218 23.8468 26.3261 23.9997 26.4279L24.0125 26.4368C24.0125 26.4368 24.0137 26.4368 24.015 26.4381C24.0201 26.4419 24.0265 26.4458 24.0328 26.4496C24.0303 26.4483 24.0277 26.4458 24.0252 26.4445C24.4915 26.7588 24.9577 27.0719 25.4163 27.3976C25.7654 27.6458 26.1119 27.8977 26.466 28.1383C26.9298 28.45 27.4049 28.7453 27.8865 29.0278C28.3884 29.3217 28.8967 29.6068 29.3961 29.9046C29.6878 30.0776 29.9719 30.2634 30.2534 30.453C30.256 30.4543 30.2573 30.4556 30.2598 30.4569C30.4955 30.6159 30.7286 30.7775 30.9643 30.9366C31.1388 31.0537 31.3146 31.1669 31.493 31.2777C31.4802 31.2344 31.4675 31.1911 31.4548 31.1479C34.0816 32.7665 36.6906 34.4107 39.2283 36.1643C39.478 36.3284 39.7289 36.4926 39.9786 36.658C39.8016 36.672 39.6258 36.6924 39.4512 36.7229C38.7493 36.8565 38.8614 37.7817 39.557 37.8084C40.5162 37.9191 41.464 38.1138 42.4169 38.2742C42.8883 38.5898 43.3584 38.9066 43.8272 39.2273C42.3481 39.1637 40.8678 39.1191 39.3875 39.0721C38.8831 39.081 38.3353 38.9537 37.8563 39.1484C37.4703 39.3508 37.5199 39.9349 37.9047 40.1092C38.613 40.365 39.3913 40.3866 40.129 40.533C41.3672 40.734 42.6042 40.9376 43.8437 41.1247C45.0374 41.2965 46.2222 41.551 47.4158 41.7266C49.0032 42.8337 50.565 44.0147 52.3409 44.7858C52.467 44.824 52.5893 44.8418 52.7103 44.8418C54.225 44.8418 55.3461 42.032 55.9372 40.9211C57.3652 37.9357 58.4111 34.7441 58.8583 31.4609C59.0417 30.4594 58.9819 29.1461 57.7143 29.0189L57.7156 29.0265ZM45.4272 40.3421C45.4272 40.3421 45.44 40.351 45.4463 40.3548C45.4094 40.3484 45.3712 40.3421 45.3342 40.337C45.3648 40.3383 45.3967 40.3408 45.4272 40.3421Z" fill="#0268C0"/>
<path d="M25.9414 10.6114C25.9414 10.6114 25.9312 10.6063 25.9248 10.6037C25.9299 10.6063 25.9363 10.6088 25.9414 10.6126V10.6114Z" fill="#299CE6"/>
<path d="M12.0271 10.7475C12.0259 10.7475 12.0236 10.7487 12.0225 10.7498C12.0236 10.7498 12.0259 10.7487 12.0271 10.7475Z" fill="#299CE6"/>
<path d="M39.8048 7.67174C39.7093 8.34238 39.7449 9.04101 39.9182 9.69638C40.0914 10.3505 40.3857 10.9702 40.7959 11.511C41.2112 12.0595 41.7361 12.5329 42.3348 12.874C42.9425 13.2201 43.6164 13.4568 44.3132 13.5344C44.4929 13.5548 44.675 13.5713 44.8572 13.5713H44.8687C45.0521 13.5713 45.2343 13.5637 45.4177 13.5484C45.7502 13.5217 46.0815 13.4517 46.4012 13.3588C47.0573 13.1692 47.665 12.8383 48.1975 12.4133C48.7427 11.9781 49.1988 11.4169 49.5185 10.7971C49.586 10.6661 49.651 10.5337 49.7083 10.3963C49.7746 10.2372 49.8306 10.0756 49.8841 9.91144C49.9377 9.74728 49.9797 9.57676 50.0128 9.40623C49.7389 9.31334 49.465 9.22171 49.1911 9.12882C48.8446 9.01174 48.5007 8.88958 48.1542 8.77377C47.456 8.53962 46.7579 8.30802 46.0585 8.07641C45.3362 7.83717 44.6139 7.59793 43.8928 7.35487C43.2928 7.15254 42.6928 6.95147 42.0966 6.73768C42.117 6.74532 42.1386 6.75295 42.159 6.76059C41.5361 6.53789 40.9068 6.33428 40.28 6.12177C40.0405 6.60915 39.8787 7.13599 39.8023 7.67174H39.8048Z" fill="#299CE6"/>
<path d="M50.3902 12.2109C49.8565 13.0228 49.8182 14.0192 49.6412 14.9469C49.5775 15.2473 49.501 15.545 49.408 15.8377C49.3813 15.8683 49.3545 15.9001 49.3265 15.9293C49.0832 16.1928 48.7762 16.3862 48.4691 16.5656C48.4131 16.5987 48.3558 16.6305 48.2972 16.6623C48.2895 16.6763 48.2819 16.6916 48.273 16.7056C47.3443 17.3152 46.2245 17.6053 45.2142 18.0647C44.6767 18.2199 43.9518 18.8168 43.4919 18.2365C43.074 17.7033 42.7951 17.0746 42.4715 16.4829C42.2715 16.0973 42.0574 15.7194 41.8358 15.3452C41.7746 15.4776 41.7084 15.6074 41.6358 15.7334C41.4765 16.0146 41.2867 16.278 41.088 16.5338C40.9186 16.7527 40.7402 16.9652 40.558 17.1752C40.5185 17.221 40.479 17.2655 40.4396 17.3101C40.3924 17.3635 40.3466 17.4221 40.2956 17.4742C40.2918 17.478 40.2892 17.4819 40.2854 17.4857C40.2829 17.4882 40.2803 17.492 40.2778 17.4946C40.2778 17.4946 40.2778 17.4946 40.2778 17.4959C40.2778 17.4959 40.2778 17.4959 40.2765 17.4971C40.2752 17.4984 40.2739 17.4997 40.2727 17.501C40.2727 17.501 40.2701 17.5035 40.2701 17.5048C40.2701 17.5048 40.2701 17.506 40.2701 17.5073C40.2701 17.5073 40.2701 17.5073 40.2688 17.5086C40.2688 17.5099 40.2663 17.5111 40.265 17.5124C39.8765 17.9527 39.4765 18.3816 39.0535 18.7901C38.9236 18.916 38.7911 19.0407 38.6548 19.1604C38.6535 19.1616 38.6522 19.1629 38.651 19.1642C38.651 19.1642 38.651 19.1642 38.6497 19.1642C38.3898 19.392 38.1185 19.607 37.8369 19.8081C37.9083 19.8972 37.9783 19.9875 38.0446 20.0804C38.0726 20.1186 38.0993 20.1568 38.1261 20.1962C38.1337 20.2051 38.1401 20.2153 38.1465 20.2255C38.1758 20.2675 38.2038 20.3108 38.2318 20.354C38.265 20.396 38.2968 20.438 38.3274 20.4826C38.4025 20.592 38.4752 20.7027 38.5439 20.8147C38.6497 20.9839 38.7541 21.1545 38.865 21.3212C39.0815 21.6355 39.3019 21.9485 39.53 22.2552C39.7555 22.5594 39.995 22.8521 40.2306 23.1498C40.4128 23.3802 40.5937 23.613 40.7861 23.8357C40.9186 23.9834 41.0587 24.1246 41.2052 24.2582C41.2867 24.3269 41.3695 24.3918 41.4574 24.4529C41.5542 24.5166 41.6536 24.5764 41.7568 24.6311C41.8778 24.6896 42.0001 24.7443 42.1275 24.7914C42.2371 24.8271 42.3479 24.8589 42.46 24.8843C42.6702 24.9225 42.883 24.9429 43.0957 24.9581C43.2435 24.967 43.3913 24.9696 43.5378 24.9696C43.7964 24.9696 44.0562 24.9581 44.3149 24.9416C44.8614 24.9021 45.4028 24.836 45.9404 24.7303C46.678 24.5764 47.4029 24.3626 48.115 24.1195C48.1354 24.1119 48.157 24.1055 48.1774 24.0979C48.8258 23.8714 49.4654 23.622 50.1074 23.3802C50.5049 23.2313 50.9074 23.0684 51.3304 23.0086C51.3304 23.0086 51.3317 23.0086 51.3329 23.0086C51.361 22.9997 51.3877 22.992 51.4157 22.9844C51.6183 22.9297 51.8259 22.894 52.0311 22.8533C52.5457 22.7452 53.0566 22.609 53.5547 22.4385C53.8502 22.3341 54.1407 22.217 54.4222 22.0783C54.6006 21.9867 54.7764 21.89 54.9433 21.7793C55.0312 21.7182 55.1165 21.6533 55.1993 21.5846C55.2592 21.5299 55.3178 21.4726 55.3738 21.4128C55.4159 21.3619 55.4567 21.3097 55.4949 21.2563C55.528 21.2054 55.5586 21.1545 55.5866 21.101C55.6197 21.0298 55.6503 20.9572 55.6783 20.8834C55.7012 20.8147 55.7216 20.7447 55.7382 20.6747C55.7484 20.6174 55.7548 20.5602 55.7611 20.5029C55.7624 20.4635 55.7637 20.424 55.7624 20.3846C55.7586 20.3502 55.7535 20.3146 55.7484 20.2802C55.7178 20.1504 55.6732 20.0244 55.6325 19.8984C55.579 19.7368 55.5331 19.5752 55.5012 19.4072C55.4325 19.0547 55.4694 18.6972 55.5739 18.3561C55.6312 18.169 55.7 17.9845 55.7649 17.8C55.8006 17.6957 55.8325 17.5913 55.8579 17.4844C55.8669 17.4373 55.8732 17.3902 55.8771 17.3432C55.8783 17.3024 55.8783 17.2617 55.8771 17.221C55.8732 17.1803 55.8669 17.1395 55.8605 17.0988C55.8477 17.0428 55.8312 16.9868 55.8134 16.9321C55.7522 16.7667 55.6796 16.6051 55.6019 16.446C55.5318 16.3149 55.4465 16.1928 55.3738 16.063C55.2783 15.8924 55.2006 15.7156 55.142 15.5285C55.1305 15.4916 55.1203 15.4534 55.1101 15.4152C55.0719 15.3452 55.0388 15.274 55.0044 15.2014C54.9522 15.0907 54.8999 14.98 54.8464 14.8706C54.7891 14.7586 54.728 14.6479 54.6592 14.5423C54.6273 14.4964 54.5942 14.4532 54.5585 14.4099C54.5318 14.3819 54.505 14.3539 54.477 14.3285C54.4502 14.3056 54.4222 14.2839 54.3929 14.2636C54.3611 14.2432 54.3292 14.2254 54.2961 14.2076C54.235 14.1783 54.1725 14.1516 54.1076 14.1287C54.0439 14.1083 53.9802 14.0905 53.9152 14.0752C53.8897 14.0701 53.8655 14.0663 53.84 14.0638C53.8222 14.0638 53.8056 14.0638 53.7878 14.0638C53.7534 14.0663 53.7177 14.0714 53.6833 14.0778C53.5967 14.0943 53.5012 14.0765 53.4209 14.0371C53.3012 14.0396 53.1814 14.0447 53.0617 14.0523C52.9585 14.06 52.8553 14.0701 52.7521 14.0829C52.9712 13.5675 53.0935 13.0215 53.0324 12.4502C52.8222 10.9104 51.0399 11.0058 50.394 12.2071L50.3902 12.2109Z" fill="#299CE6"/>
<path d="M2.77089 26.2561C3.43716 26.3388 3.57729 25.3335 2.91102 25.2355C2.60528 25.1986 2.29444 25.1973 1.98742 25.1884C1.54282 25.1706 1.2995 25.7662 1.62308 26.0678C1.93264 26.3401 2.39636 26.1759 2.77089 26.2561Z" fill="#299CE6"/>
<path d="M17.7476 17.333C18.4126 17.4195 18.554 16.4129 17.8877 16.3124C17.6826 16.2818 17.4788 16.2449 17.2724 16.2271C16.8303 16.1559 16.5093 16.7056 16.7947 17.0517C17.0176 17.3368 17.4329 17.2464 17.7476 17.333Z" fill="#0268C0"/>
<path d="M35.7061 39.5926C35.6984 40.2899 36.9049 40.2797 36.8972 39.5887C36.9036 38.8914 35.7023 38.9016 35.7061 39.5926Z" fill="#0268C0"/>
<path d="M51.5636 4.48394C51.5356 2.58402 49.9279 1.30001 48.2794 0.672637C46.4551 0.000726403 44.3047 -0.363225 42.4945 0.532655C41.9569 0.815163 41.5097 1.22747 41.0626 1.63087C38.9198 0.554289 37.2077 -0.14689 34.7643 0.824071C34.3923 0.984413 33.4279 1.48962 33.0164 2.02791C32.5718 2.24806 32.6139 2.93779 33.3158 3.00523C34.4687 3.33737 35.614 3.6975 36.7554 4.07036C36.8255 4.08945 36.8968 4.10854 36.9669 4.12763C37.1478 4.17726 37.3287 4.22943 37.5096 4.27779C37.6905 4.32742 37.8701 4.3745 38.0497 4.42668C38.7873 4.64429 39.5237 4.86571 40.2587 5.0935C40.9645 5.31365 41.6664 5.54907 42.3747 5.76286C43.0474 5.96647 43.7162 6.17899 44.3863 6.39278C45.106 6.62311 45.8258 6.85854 46.5443 7.09014C47.2462 7.31666 47.9482 7.54826 48.6514 7.77096C49.175 7.93639 49.6998 8.09928 50.2221 8.26598C50.7534 8.18708 50.9037 7.16649 51.1254 6.75037C51.3954 6.02628 51.5827 5.2602 51.5623 4.48267L51.5636 4.48394ZM49.6221 7.50372L44.4219 5.85703C44.9251 4.27397 46.4959 3.359 47.9316 3.81331C49.3673 4.26761 50.1241 5.92066 49.6209 7.50372H49.6221Z" fill="#EA6725"/>
</svg>
