<svg width="42" height="40" viewBox="0 0 42 40" fill="none" xmlns="http://www.w3.org/2000/svg">
<path d="M22.1142 33.0257C21.9678 32.9041 21.8188 32.7825 21.6711 32.6624C21.3282 32.3829 20.984 32.1076 20.6385 31.8323C20.2828 31.5472 19.9283 31.2621 19.5738 30.9771C19.2194 30.6906 18.8636 30.4041 18.5092 30.1162C18.1534 29.8284 17.799 29.5405 17.4458 29.2498C17.0913 28.9578 16.7356 28.6657 16.3811 28.3737C16.0215 28.0774 15.6632 27.7811 15.3061 27.4835C14.9401 27.1775 14.5702 26.877 14.2004 26.5766C13.9268 26.3544 13.6533 26.1336 13.3784 25.9128C13.9705 27.5757 14.7822 29.1632 15.5694 30.7129C14.2736 30.1051 12.9495 29.5726 11.6344 29.0193C11.3557 28.9103 11.077 28.7817 10.7893 28.6951C10.5915 28.0201 10.4271 27.2976 10.0085 26.7401C8.92965 25.3734 5.99505 27.3633 4.86102 28.0522C3.73983 28.7565 2.61351 29.4483 1.50774 30.1805C1.08906 30.4698 0.689646 30.7563 0.297938 31.0931C0.00126714 31.3474 -0.136152 31.905 0.182352 32.1998C0.669098 32.6009 1.68497 32.4136 2.29886 32.4695C2.96798 32.4961 3.63709 32.4597 4.30621 32.4234C4.92652 32.3899 5.54683 32.3563 6.16586 32.3717C6.33538 32.6512 6.67315 32.7504 6.93001 32.9167C7.75452 33.3876 8.58931 33.839 9.43052 34.2736C11.4982 35.3776 13.53 36.571 15.7338 37.3312C16.8563 37.7225 18.0109 38.1109 19.1975 38.1305C19.263 38.1319 19.3285 38.1305 19.394 38.1305C21.2678 38.0606 22.7717 36.3628 22.3569 34.2568C22.303 33.8418 22.2182 33.4323 22.1142 33.0299V33.0257Z" fill="#299CE6"/>
<path d="M27.6726 8.0703C27.7792 7.83833 27.8614 7.59098 27.9243 7.34084C27.9885 7.08651 28.0245 6.82799 28.0437 6.56667C28.054 6.41295 28.0579 6.25784 28.0514 6.10272C27.9294 6.10412 27.8087 6.10691 27.6867 6.10831C27.1704 6.1167 26.6541 6.12229 26.1391 6.13207C25.6164 6.14185 25.0937 6.14325 24.5697 6.14325C24.0188 6.14325 23.4691 6.14325 22.9181 6.15023C22.4481 6.15443 21.9793 6.16561 21.5093 6.17539C21.2704 6.17958 21.0315 6.17818 20.7926 6.17958C20.7143 6.17958 20.6372 6.18098 20.5589 6.18238C20.5525 6.44789 20.5704 6.7134 20.6128 6.97472V6.97891C20.6141 6.99568 20.618 7.01105 20.6205 7.02642C20.6205 7.03061 20.6218 7.03481 20.6231 7.039C20.6244 7.05437 20.627 7.06835 20.6308 7.08232C20.6321 7.0907 20.6334 7.09909 20.6359 7.10887L20.6488 7.17315C20.6835 7.34504 20.7323 7.51273 20.7849 7.67762C20.8222 7.79221 20.8671 7.90261 20.9133 8.01301C20.9647 8.13458 21.0225 8.25476 21.0867 8.36935C21.219 8.60272 21.3654 8.82491 21.5362 9.02754C21.698 9.21899 21.8766 9.39367 22.0679 9.55018C22.2708 9.71508 22.4905 9.85202 22.7178 9.9722C22.8282 10.0309 22.9425 10.0798 23.0581 10.1231C23.1634 10.1637 23.27 10.2 23.3779 10.2293C23.6283 10.2964 23.8826 10.3369 24.1408 10.3523C24.1986 10.3551 24.2564 10.3579 24.3141 10.3579C24.7444 10.3579 25.1721 10.2685 25.5779 10.1147C25.8026 10.0295 26.0171 9.91211 26.2226 9.78215C26.4332 9.648 26.6259 9.48729 26.8082 9.31262C27.1678 8.96745 27.4555 8.53844 27.6687 8.0731L27.6726 8.0703Z" fill="#299CE6"/>
<path d="M26.3048 12.3173C26.1892 12.26 26.0711 12.2083 25.9516 12.1594C25.985 12.2376 26.0158 12.3173 26.0454 12.3969C26.0852 12.5101 26.1211 12.6233 26.152 12.7407C26.1828 12.8623 26.2059 12.9852 26.2265 13.1082C26.2676 13.3542 26.283 13.6043 26.2817 13.8544C26.2817 14.0724 26.265 14.2918 26.2354 14.5084C26.2033 14.739 26.1558 14.9668 26.1044 15.1932C26.0531 15.4182 25.994 15.6432 25.9272 15.8625C25.863 16.0708 25.7949 16.2776 25.7153 16.4788C25.637 16.6745 25.5471 16.8645 25.452 17.0518C25.3608 17.232 25.2671 17.4109 25.1669 17.5856C25.1078 17.6317 25.059 17.7016 25.0346 17.7994C24.9165 18.3486 25.3878 18.772 25.6639 19.1675C26.4576 20.1499 28.3109 21.7122 29.5014 21.8813C29.5528 21.8855 29.6041 21.8883 29.6555 21.8883C30.4376 21.8883 31.2891 21.3824 32.1124 20.8723C32.26 20.734 32.4116 20.6026 32.5644 20.4713C32.7853 20.2826 33.0114 20.1023 33.2438 19.9305C33.249 19.9263 33.2541 19.9221 33.2592 19.9193C33.2554 19.9221 33.2528 19.9249 33.249 19.9277C33.2567 19.9221 33.2656 19.9151 33.2734 19.9095C33.2682 19.9123 33.2644 19.9165 33.2592 19.9193C33.326 19.8704 33.3941 19.8215 33.4621 19.7726C33.4776 19.7614 33.4917 19.7516 33.5071 19.7404C33.5726 19.6943 33.6394 19.6468 33.7062 19.6021C33.7331 19.5825 33.7614 19.5643 33.7884 19.5462C33.7884 19.5462 33.7794 19.5434 33.7755 19.542C33.6676 19.5056 33.561 19.4693 33.4532 19.4316C33.4506 19.4316 33.4493 19.4302 33.4467 19.4288C33.4121 19.4162 33.3774 19.405 33.3427 19.3939C33.3337 19.3911 33.326 19.3883 33.317 19.3855C33.2823 19.3743 33.2477 19.3631 33.213 19.3533C33.2091 19.3533 33.2053 19.3505 33.2027 19.3505C33.0858 19.3156 32.969 19.2835 32.8521 19.2499C32.7879 19.2304 32.7224 19.2066 32.6569 19.1898H32.653C32.603 19.1842 32.5593 19.1577 32.5259 19.12C32.4951 19.1144 32.4668 19.1004 32.4424 19.0822C32.3628 19.0585 32.3101 18.9788 32.287 18.8978C32.2755 18.8572 32.2742 18.8153 32.2742 18.7734C32.2742 18.7161 32.278 18.6588 32.2832 18.6015C32.2973 18.4646 32.323 18.329 32.3512 18.1963C32.3782 18.0691 32.409 17.9419 32.4347 17.8148C32.4565 17.6974 32.4758 17.5786 32.4976 17.4612C32.5002 17.4486 32.5015 17.4375 32.5041 17.4263C32.4835 17.4193 32.463 17.4123 32.4424 17.4053C32.2511 17.3382 32.0623 17.2628 31.8722 17.1887C31.6616 17.1063 31.4535 17.021 31.2455 16.9316C31.0464 16.8449 30.8512 16.7443 30.6598 16.6395C30.6329 16.6241 30.6059 16.6102 30.5789 16.5948C30.2822 16.8547 29.843 17.1971 29.6401 16.9511C29.0468 16.2035 28.6807 15.2868 28.1978 14.4497C27.6867 13.6378 27.1357 12.77 26.3048 12.3201V12.3173Z" fill="#299CE6"/>
<path d="M41.2436 5.66812C40.9662 5.38165 40.5411 5.39982 40.1738 5.36768C40.0698 5.09937 39.8103 4.84224 39.3852 4.80731C38.6121 4.6508 37.8287 4.55717 37.0427 4.52363C36.3774 4.4831 35.6557 4.35035 35.4335 5.17763C35.201 5.18461 34.9711 5.21396 34.7554 5.30619C34.4921 5.41938 34.3598 5.69188 34.3341 5.98115C34.2995 6.08037 34.2879 6.18937 34.3059 6.28858C34.293 6.32771 34.2866 6.37103 34.2866 6.41715C34.2905 6.7148 34.5114 6.81402 34.7387 6.81402C34.7978 6.81402 34.8581 6.80703 34.9159 6.79585C35.6107 6.72877 36.3055 6.67288 37.0016 6.63375C37.5294 6.59741 38.0573 6.56248 38.5826 6.4982C38.8728 6.46186 39.1618 6.42693 39.4533 6.40177C39.5471 6.70502 39.5882 7.02782 39.6383 7.34224C39.7821 8.27433 39.8386 9.2134 39.8232 10.1525C39.5445 12.6427 39.4251 15.3132 38.0265 17.4149C37.7837 17.7964 37.5217 18.1695 37.2251 18.5035C36.294 18.5273 35.3744 18.2729 34.4613 18.0913C34.1646 18.0228 33.8718 17.9362 33.5841 17.8341C33.4698 17.7727 33.3401 17.7293 33.2232 17.7321C33.2155 17.7279 33.2091 17.7251 33.2014 17.7209C33.1308 17.6846 33.0614 17.6469 32.9908 17.6092C32.9728 17.6036 32.9548 17.598 32.9368 17.5924C32.9343 17.605 32.9317 17.6175 32.9304 17.6301C32.9214 17.679 32.9124 17.7279 32.9034 17.7754C32.888 17.8537 32.8713 17.9306 32.8533 18.0074C32.8251 18.1276 32.7891 18.245 32.7545 18.3624C32.7545 18.3694 32.7545 18.3763 32.7532 18.3833C32.7557 18.4001 32.7596 18.4183 32.7609 18.4364C32.7634 18.4672 32.7647 18.4979 32.7673 18.5287C32.7686 18.5482 32.7712 18.5692 32.7737 18.5888C32.7827 18.6293 32.793 18.6698 32.8045 18.7089C32.8354 18.7243 32.8662 18.7383 32.897 18.7536C32.9715 18.79 33.046 18.8249 33.123 18.8557C33.2874 18.9227 33.4518 18.987 33.6175 19.0499C33.674 19.0709 33.7305 19.0918 33.787 19.1114C34.0734 19.1701 34.3585 19.2316 34.6449 19.2861C34.993 19.3517 35.3449 19.3909 35.6955 19.4482C35.8637 19.4761 36.0307 19.5138 36.1951 19.5614C36.2631 19.5809 36.3312 19.6033 36.3993 19.6242C36.4275 19.6326 36.4558 19.6424 36.4828 19.6508C37.1018 19.7528 37.7195 19.8688 38.3373 19.975C38.4439 19.9932 38.5428 20.0016 38.6327 20.0016C39.5573 20.0016 39.6357 19.0848 39.7667 18.1709C39.9735 16.7791 40.2059 15.3928 40.4615 14.0108C40.7723 12.3269 40.8814 10.6108 41.1242 8.91575C41.2308 8.09406 41.3451 7.27377 41.4324 6.44929C41.4709 6.17819 41.4838 5.7897 41.2487 5.66673L41.2436 5.66812ZM35.0533 5.98255C35.0854 5.98255 35.1176 5.97975 35.1484 5.97975C35.1163 5.98255 35.0854 5.98534 35.0533 5.98814C35.0533 5.98674 35.0533 5.98394 35.0533 5.98255ZM34.356 6.1684C34.3534 6.15163 34.3495 6.13487 34.347 6.1167C34.347 6.1167 34.347 6.11251 34.347 6.10971C34.347 6.10971 34.347 6.10971 34.3483 6.10971C34.3508 6.13347 34.356 6.15583 34.3611 6.17819C34.3598 6.17399 34.3585 6.1712 34.3573 6.16701L34.356 6.1684Z" fill="#0268C0"/>
<path d="M31.058 16.0426C31.225 16.1335 31.3971 16.2131 31.5691 16.2914C31.7335 16.3654 31.9005 16.4367 32.0662 16.5066C32.2601 16.589 32.4553 16.6687 32.6467 16.7567C32.8098 16.8308 32.9716 16.9104 33.1347 16.9873C33.3145 17.0725 33.4956 17.155 33.6805 17.2263C33.8655 17.2961 34.0517 17.3632 34.2405 17.4233C34.4344 17.4848 34.6296 17.5379 34.8274 17.5826C34.8351 17.584 34.8428 17.5854 34.8492 17.5882C35.187 17.6623 35.5273 17.7195 35.8702 17.7587C36.1528 17.7908 36.4353 17.8216 36.7179 17.8425C36.7757 17.8467 36.8347 17.8509 36.8925 17.8537C36.9156 17.8551 36.9388 17.8565 36.9619 17.8579C37.4242 17.5616 37.7492 16.944 37.9675 16.4269C38.625 14.7249 39.0745 12.9054 39.2415 11.0664C39.3096 10.2168 39.2351 9.36572 39.2081 8.51469C39.167 8.09406 39.2248 7.61055 39.0411 7.22626C39.0155 7.23744 38.9885 7.24582 38.959 7.25001C38.95 7.25001 38.9397 7.25281 38.9294 7.25421C38.9037 7.257 38.878 7.2556 38.8524 7.25141C38.503 7.27656 38.155 7.30451 37.8057 7.32967C37.3831 7.36041 36.9606 7.39255 36.5368 7.4205C36.3287 7.43447 36.122 7.44845 35.9139 7.46242C35.8099 7.46941 35.7046 7.475 35.6005 7.48199C35.5479 7.48478 35.4952 7.48897 35.4413 7.49177C35.4272 7.49177 35.413 7.49456 35.3989 7.49456C35.3963 7.49456 35.3938 7.49456 35.3899 7.49456C35.3886 7.49456 35.3873 7.49456 35.3861 7.49456C35.3796 7.49456 35.3719 7.49456 35.3655 7.49456C35.3013 7.49876 35.2371 7.50155 35.1742 7.50574C35.1664 7.50574 35.1587 7.50574 35.1497 7.50574C35.1497 7.50574 35.1497 7.50574 35.1485 7.50574C35.1472 7.50574 35.1485 7.50574 35.1472 7.50574C35.142 7.50574 35.1382 7.50574 35.1331 7.50574C35.1279 7.50574 35.1241 7.50574 35.1189 7.50574C35.1215 7.50574 35.1241 7.50574 35.1279 7.50574C35.1241 7.50574 35.1215 7.50574 35.1176 7.50574C35.1164 7.50574 35.1151 7.50574 35.1138 7.50574C34.9494 7.51553 34.785 7.52391 34.6219 7.53369C34.6155 7.53369 34.6091 7.53369 34.6026 7.53369C34.6039 7.53369 34.6052 7.53369 34.6065 7.53369C34.2495 7.55465 33.8937 7.57701 33.538 7.60077C33.5457 7.63011 33.5521 7.65946 33.5572 7.68881C33.5816 7.81038 33.5958 7.93056 33.5996 8.05353C33.6073 8.27712 33.5893 8.50071 33.5726 8.7243C33.547 9.06947 33.5136 9.41323 33.4648 9.75421C33.4147 10.1106 33.3543 10.4669 33.2927 10.8218C33.2207 11.2383 33.1398 11.6519 33.023 12.0558C32.9639 12.2626 32.8971 12.4666 32.8278 12.6706C32.7623 12.8621 32.6852 13.0493 32.6056 13.2338C32.5324 13.4043 32.4579 13.5748 32.3808 13.7425C32.377 13.7523 32.3731 13.7606 32.368 13.769C32.3705 13.7634 32.3731 13.7564 32.3757 13.7509C32.2794 13.9605 32.1753 14.1645 32.0649 14.3657C31.9583 14.5586 31.8453 14.7472 31.7181 14.9261C31.5948 15.1008 31.4613 15.2657 31.32 15.4236C31.2545 15.4976 31.1877 15.5703 31.1184 15.6388C31.0477 15.7087 30.9758 15.7785 30.9 15.8428C30.8782 15.861 30.8551 15.8805 30.8333 15.8973C30.8371 15.9001 30.841 15.9029 30.8448 15.9057C30.9116 15.9546 30.9822 15.9965 31.0541 16.0356L31.058 16.0426Z" fill="#299CE6"/>
<path d="M37.6605 27.8134C36.1399 28.6644 34.713 29.7362 33.4185 30.9506C33.1988 31.1574 32.9818 31.367 32.757 31.5682C32.7378 31.5417 32.7134 31.5151 32.6851 31.4914C32.6659 31.476 32.6466 31.4606 32.626 31.4453C32.5965 31.4453 32.5683 31.4397 32.54 31.4299C32.4886 31.4145 32.4424 31.3852 32.3974 31.3544C32.3512 31.3223 32.3037 31.2916 32.2575 31.2594C32.1393 31.1784 32.0237 31.0917 31.9107 31.0051C31.6782 30.8276 31.4496 30.6445 31.221 30.4629C30.9911 30.2784 30.7587 30.0982 30.5224 29.9235C30.2886 29.7516 30.0523 29.5853 29.8186 29.4162C29.5579 29.2276 29.2997 29.0347 29.0416 28.8419C28.7873 28.6518 28.533 28.4604 28.28 28.2675C28.0373 28.0831 27.7958 27.8944 27.5518 27.7113C27.4542 27.6387 27.3566 27.5646 27.259 27.4919C27.2474 27.4836 27.2359 27.4752 27.2243 27.4654C27.1126 27.3829 27.0021 27.2991 26.8904 27.2167C26.8686 27.1999 26.8467 27.1845 26.8249 27.1677C26.7299 27.0965 26.6348 27.0252 26.5398 26.9553C26.5128 26.9344 26.4846 26.9148 26.4576 26.8938C26.3446 26.8086 26.2316 26.7234 26.1185 26.6381C25.931 26.4956 25.7448 26.353 25.5573 26.2105C25.488 26.1574 25.4173 26.1043 25.348 26.0498C25.1027 25.8611 24.8587 25.6683 24.6121 25.481C24.517 25.4084 24.422 25.3385 24.327 25.2672C24.1767 25.1568 24.0252 25.0478 23.8749 24.9374C23.8646 24.9305 23.8543 24.9235 23.8454 24.9151C23.7644 24.855 23.6835 24.7949 23.6039 24.7334C23.3779 24.5601 23.157 24.3757 22.9361 24.194C22.5868 23.9061 22.231 23.6267 21.8688 23.3597C21.63 23.1851 21.3872 23.016 21.1471 22.8427C20.8864 22.654 20.6269 22.4626 20.3739 22.2614C19.8705 21.8617 19.3773 21.4481 18.8944 21.0205C18.6453 20.7997 18.3987 20.5775 18.156 20.3497C17.9184 20.1289 17.6795 19.9095 17.4445 19.6873C17.3597 19.6077 17.2724 19.5294 17.1953 19.4428C17.1131 19.3505 17.1118 19.2024 17.1953 19.1102C17.2775 19.0207 17.4188 19.0179 17.501 19.1102C17.5035 19.113 17.5048 19.1144 17.5074 19.1172C17.5562 19.1619 17.6088 19.2024 17.6589 19.2429C17.7219 19.2946 17.7848 19.3463 17.8477 19.398C17.9736 19.5028 18.0994 19.6077 18.2253 19.7139C18.4757 19.9235 18.7288 20.1303 18.9843 20.3329C19.2386 20.5328 19.4955 20.7298 19.751 20.9268C20.0066 21.1253 20.2596 21.3265 20.519 21.5179C20.5229 21.5207 20.528 21.5249 20.5319 21.5277C20.7399 21.68 20.9506 21.8282 21.1625 21.9763C21.3949 21.8268 21.6068 21.49 21.7866 21.3349C22.389 20.6501 22.9579 19.9319 23.5166 19.2066C23.7567 18.895 23.9918 18.5777 24.2178 18.2521C24.2396 18.2088 24.2615 18.1655 24.2846 18.1222C24.4824 17.7379 24.6956 17.362 24.8831 16.9721C24.9254 16.8841 24.9678 16.796 25.0089 16.7066C25.1194 16.4648 25.2144 16.2161 25.2966 15.9618C25.3891 15.6683 25.4648 15.3692 25.5239 15.0646C25.5702 14.8103 25.6036 14.5545 25.6202 14.2946C25.6292 14.1353 25.6267 13.976 25.619 13.8167C25.6074 13.6476 25.5881 13.4799 25.5586 13.3136C25.5329 13.1795 25.4982 13.0481 25.4584 12.9182C25.4109 12.7742 25.3544 12.6359 25.2928 12.4989C25.2786 12.4696 25.2645 12.4402 25.2504 12.4109C25.2298 12.3983 25.2106 12.3829 25.1939 12.3634C25.1553 12.3187 25.1232 12.267 25.086 12.2208C25.0552 12.1845 25.0231 12.1496 24.9897 12.1174C24.9421 12.0727 24.8933 12.0322 24.842 11.9945C24.7688 11.9414 24.6917 11.8924 24.6134 11.8491C24.517 11.7974 24.4182 11.7485 24.318 11.7024C24.3064 11.6968 24.2949 11.6912 24.2833 11.6856C24.0136 11.6269 23.7452 11.5682 23.4793 11.504C22.8963 11.3852 22.3158 11.2482 21.7378 11.1001C20.8504 10.6571 19.9617 10.2183 19.0588 9.81307C18.9805 9.76835 18.9073 9.73901 18.8392 9.72224C18.7352 9.68032 18.6286 9.64538 18.5207 9.61743C17.9132 9.47629 17.2878 9.4735 16.6687 9.46232C16.6071 9.46511 16.5352 9.46232 16.4607 9.46092C14.9761 9.32956 13.4298 9.55315 11.9657 9.64678C10.5131 9.80329 8.68175 9.93605 7.69798 11.0875C7.67744 11.1057 7.65817 11.1225 7.63762 11.1406C7.58754 11.1909 7.53873 11.2426 7.4925 11.2985C7.43342 11.3726 7.37948 11.4509 7.32811 11.5319C7.27931 11.613 7.23436 11.6954 7.19326 11.7807C7.15088 11.8757 7.11363 11.9721 7.08024 12.0713C7.05969 12.1398 7.04043 12.2083 7.0263 12.2795C7.01474 12.3452 7.00704 12.4095 7.0019 12.4752C6.99676 12.5814 6.99676 12.6876 7.0019 12.7924C7.01089 12.9084 7.02502 13.0216 7.04557 13.1362C7.0751 13.2857 7.11492 13.4338 7.15987 13.5791C7.22665 13.7832 7.30499 13.983 7.39232 14.1772C7.5169 14.4428 7.66331 14.6943 7.81614 14.9416C8.08199 15.3665 8.36453 15.7801 8.60084 16.2259C8.75752 16.5193 8.88724 16.8296 8.98484 17.1524C9.01053 17.2362 9.03108 17.3229 9.05163 17.4081C8.92577 18.3947 9.47801 19.7474 10.2165 20.3301C10.2704 20.3399 10.3256 20.3469 10.3796 20.3511C10.4232 20.3539 10.4682 20.3553 10.5119 20.3553C10.5941 20.3553 10.6775 20.3511 10.7597 20.3455C10.7957 20.3427 10.8304 20.3385 10.8663 20.3343C10.9177 20.2966 10.9691 20.2589 11.023 20.2225C11.0461 20.2071 11.0692 20.1918 11.0936 20.1778C11.2079 20.1079 11.3312 20.0534 11.4597 20.0199C11.583 19.9878 11.7075 19.9724 11.8334 19.9682C11.836 19.9682 11.8385 19.9682 11.8411 19.9682C11.8668 19.9682 11.8912 19.9668 11.9169 19.9668C11.922 19.9668 11.9259 19.9668 11.931 19.9668C11.958 19.9668 11.9849 19.9668 12.0119 19.9668C12.0222 19.9668 12.0312 19.9668 12.0415 19.9668C12.0915 19.9668 12.1416 19.9668 12.1917 19.964C12.2431 19.9598 12.2945 19.9528 12.3445 19.943C12.3805 19.9346 12.4165 19.9235 12.4511 19.9109C12.4897 19.8955 12.5269 19.8774 12.5642 19.8592C12.613 19.8312 12.6605 19.8005 12.7067 19.7684C12.7093 19.767 12.7106 19.7656 12.7131 19.7642C12.7324 19.7502 12.7504 19.7348 12.7684 19.7194C12.7748 19.7139 12.7812 19.7097 12.7876 19.7041C12.8133 19.6817 12.8377 19.6594 12.8634 19.637C12.9353 19.5657 13.0047 19.4903 13.0702 19.412C13.0804 19.3994 13.0907 19.3855 13.101 19.3715C13.1023 19.3701 13.1036 19.3673 13.1048 19.3659C13.1267 19.3366 13.1485 19.3086 13.1691 19.2779C13.1729 19.2723 13.1755 19.2681 13.1793 19.2625C13.1999 19.2331 13.2191 19.2038 13.2384 19.1731C13.2384 19.1717 13.241 19.1703 13.241 19.1689C13.2628 19.1339 13.2834 19.0976 13.3039 19.0627C13.3052 19.0599 13.3078 19.0557 13.309 19.0529C13.3309 19.0151 13.3514 18.9774 13.3733 18.9383C13.3912 18.9047 13.4105 18.8726 13.4285 18.8391C13.4311 18.8335 13.4349 18.8279 13.4375 18.8223C13.4567 18.7874 13.4773 18.7524 13.4978 18.7189C13.5107 18.6979 13.5235 18.6756 13.5377 18.6546C13.6417 18.4897 13.7688 18.3346 13.9152 18.2116C13.9217 18.206 13.9268 18.2018 13.9332 18.1962C13.9525 18.1795 13.973 18.1641 13.9923 18.1487C14.0295 18.1208 14.0681 18.0942 14.1066 18.0677C14.1271 18.0537 14.1477 18.0397 14.1695 18.0258C14.1798 18.0188 14.1901 18.0118 14.2003 18.0062C14.2273 17.9894 14.2556 17.9727 14.2825 17.9559C14.2851 17.9545 14.2877 17.9531 14.2902 17.9517C14.375 17.9028 14.4585 17.8539 14.5394 17.7966C14.5689 17.7742 14.5959 17.7505 14.6242 17.7267C14.6344 17.7169 14.646 17.7071 14.6563 17.6988C14.6576 17.6974 14.6601 17.696 14.6614 17.6946C14.6755 17.6806 14.6884 17.6666 14.7012 17.6526C14.7038 17.6499 14.7064 17.6471 14.7089 17.6443C14.7102 17.6415 14.7128 17.6387 14.7141 17.6373C14.7179 17.6317 14.7218 17.6261 14.7256 17.6205C14.7295 17.6135 14.7333 17.6065 14.7372 17.5995C14.741 17.594 14.7436 17.587 14.7475 17.5814C14.75 17.5758 14.7526 17.5716 14.7552 17.566C14.759 17.5576 14.7641 17.5492 14.768 17.5409C14.7731 17.5297 14.777 17.5185 14.7821 17.5073C14.7911 17.4836 14.8001 17.4598 14.8091 17.436C14.8091 17.4333 14.8091 17.4319 14.8104 17.4291C14.8104 17.4263 14.8117 17.4221 14.8129 17.4193C14.8168 17.4067 14.8194 17.3927 14.8232 17.3802C14.8258 17.3704 14.8284 17.362 14.8296 17.3522C14.8386 17.2949 14.8451 17.2362 14.8502 17.1775C14.8553 17.0601 14.854 16.9414 14.8476 16.824C14.8476 16.8086 14.8476 16.7932 14.8451 16.7779C14.8451 16.7709 14.8451 16.7625 14.8438 16.7555C14.8425 16.7359 14.8412 16.715 14.8399 16.6954C14.8399 16.6898 14.8399 16.6842 14.8386 16.6786C14.8386 16.6758 14.8386 16.6744 14.8386 16.6717C14.8386 16.6647 14.8386 16.6577 14.8374 16.6507C14.8374 16.6381 14.8348 16.6255 14.8335 16.613C14.8335 16.606 14.8322 16.599 14.8309 16.592C14.8284 16.5724 14.8271 16.5515 14.8245 16.5319C14.8245 16.5235 14.8219 16.5137 14.8207 16.5054C14.8194 16.4928 14.8181 16.4802 14.8155 16.4662C14.8155 16.4578 14.8129 16.4481 14.8117 16.4397C14.8052 16.3964 14.7988 16.353 14.7911 16.3083C14.7629 16.1602 14.7308 16.0135 14.6871 15.8709C14.6665 15.8094 14.6447 15.748 14.619 15.6893C14.6087 15.6683 14.5985 15.6487 14.5869 15.6278C14.5689 15.6012 14.551 15.5747 14.5317 15.5495C14.524 15.5411 14.5163 15.5327 14.5086 15.5244C14.506 15.523 14.5034 15.5202 14.5022 15.5188C14.4726 15.495 14.4495 15.4643 14.4328 15.4307C14.393 15.3958 14.3519 15.3623 14.3095 15.3301C14.2389 15.2798 14.167 15.2337 14.0925 15.1918C14.0308 15.1582 13.9666 15.1303 13.9024 15.1023C13.8973 15.0954 13.8908 15.0884 13.8857 15.0814C13.8639 15.0772 13.8433 15.0702 13.824 15.0562C13.824 15.0562 13.824 15.0562 13.8228 15.0548C13.7752 15.0367 13.7277 15.0199 13.6815 14.9989C13.6121 14.9668 13.5441 14.9319 13.476 14.8969C13.3938 14.855 13.3103 14.8117 13.2294 14.7642C13.2191 14.7586 13.2089 14.7516 13.1986 14.746C13.187 14.739 13.1768 14.732 13.1652 14.725C13.1549 14.718 13.1434 14.7111 13.1331 14.7041C13.1254 14.6985 13.1177 14.6943 13.1113 14.6887C13.0971 14.6789 13.0817 14.6677 13.0676 14.6566C13.0612 14.651 13.0535 14.6468 13.0471 14.6412C13.0265 14.6244 13.006 14.6077 12.9854 14.5895C12.8801 14.4959 12.794 14.3841 12.7183 14.2639C12.7157 14.2597 12.7119 14.2541 12.7093 14.2485C12.699 14.2303 12.6874 14.2136 12.6772 14.1954C12.6733 14.1884 12.6682 14.18 12.6643 14.1731C12.6553 14.1563 12.6464 14.1409 12.6361 14.1241C12.6322 14.1172 12.6284 14.1102 12.6245 14.1032C12.6117 14.0808 12.6001 14.0571 12.5873 14.0347C12.559 13.9802 12.5308 13.9243 12.5025 13.8698C12.4332 13.7329 12.3664 13.5945 12.297 13.4576C12.2662 13.3961 12.2354 13.336 12.2046 13.2745C12.202 13.2689 12.1981 13.2619 12.1956 13.2563C12.1455 13.1599 12.0941 13.0621 12.0427 12.9671C12.0196 12.9251 11.9965 12.8846 11.9734 12.8427C11.9734 12.8413 11.9721 12.8399 11.9708 12.8371C11.9541 12.8078 11.9387 12.7798 11.922 12.7519C11.8321 12.594 11.7396 12.4374 11.6497 12.2795C11.5958 12.1845 11.5393 12.0909 11.4943 11.9889C11.461 11.912 11.4648 11.8254 11.4943 11.7499C11.4943 11.7471 11.4969 11.7457 11.4969 11.7429C11.4995 11.7373 11.5021 11.7317 11.5046 11.7262C11.5059 11.7234 11.5072 11.7206 11.5085 11.7178C11.511 11.7122 11.5136 11.708 11.5162 11.7024C11.5175 11.6996 11.52 11.6968 11.5213 11.694C11.5239 11.6898 11.5277 11.6842 11.5303 11.68C11.5316 11.6772 11.5342 11.6744 11.5354 11.673C11.5393 11.6689 11.5419 11.6647 11.5457 11.6591C11.547 11.6563 11.5496 11.6549 11.5509 11.6521C11.5547 11.6479 11.5586 11.6437 11.5637 11.6395C11.565 11.6381 11.5675 11.6353 11.5688 11.6339C11.574 11.6297 11.5791 11.6255 11.5842 11.6199C11.5855 11.6199 11.5868 11.6172 11.5881 11.6172C11.5945 11.6116 11.6022 11.6074 11.6086 11.6018C11.6086 11.6018 11.6099 11.6018 11.6112 11.6004C11.6176 11.5962 11.6241 11.592 11.6305 11.5892C11.633 11.5878 11.6356 11.5864 11.6395 11.585C11.6446 11.5822 11.6497 11.5808 11.6536 11.578C11.6562 11.578 11.66 11.5752 11.6639 11.5752C11.669 11.5738 11.6729 11.5724 11.678 11.571C11.6819 11.571 11.6844 11.5696 11.6883 11.5682C11.6934 11.5682 11.6973 11.5654 11.7024 11.5654C11.7063 11.5654 11.7088 11.5654 11.7127 11.5641C11.7178 11.5641 11.7217 11.5641 11.7268 11.5627C11.7307 11.5627 11.7332 11.5627 11.7371 11.5627C11.7422 11.5627 11.7461 11.5627 11.7512 11.5627C11.7551 11.5627 11.7576 11.5627 11.7615 11.5627C11.7666 11.5627 11.7705 11.5627 11.7756 11.5627C11.7795 11.5627 11.782 11.5627 11.7859 11.5627C11.8591 11.5724 11.9284 11.613 11.976 11.6786C12.0171 11.7345 12.0517 11.7974 12.0864 11.8575C12.1134 11.905 12.1403 11.9511 12.1673 11.9987C12.2187 12.0895 12.2713 12.1817 12.3227 12.2725C12.4357 12.4724 12.5423 12.675 12.6451 12.8804C12.6541 12.8986 12.6618 12.9154 12.6708 12.9335C12.7581 13.1096 12.8403 13.2871 12.9238 13.4646C12.9302 13.4785 12.9366 13.4925 12.943 13.5065C12.9443 13.5093 12.9456 13.5121 12.9469 13.5149C12.9803 13.5875 13.0149 13.6588 13.0483 13.7315C13.0689 13.7748 13.0894 13.8167 13.1113 13.8586C13.119 13.874 13.1267 13.888 13.1344 13.9033C13.1344 13.9033 13.1344 13.9047 13.1357 13.9061C13.1472 13.9271 13.1588 13.9481 13.1703 13.9676C13.1768 13.9774 13.1832 13.9858 13.1896 13.9956C13.2063 14.0193 13.223 14.0431 13.2397 14.0654C13.2448 14.0724 13.2513 14.078 13.2564 14.085C13.2718 14.1018 13.2872 14.1186 13.3039 14.1353C13.3193 14.1493 13.3347 14.1619 13.3501 14.1758C13.3553 14.18 13.3617 14.1842 13.3668 14.1898C13.3771 14.1982 13.3874 14.2066 13.3977 14.215C13.4054 14.2206 13.4118 14.2262 13.4195 14.2317C13.4285 14.2387 13.4388 14.2457 13.4477 14.2527C13.4529 14.2569 13.458 14.2597 13.4632 14.2639C13.4747 14.2723 13.4863 14.2807 13.4978 14.2904C13.503 14.2946 13.5081 14.2988 13.5132 14.303C13.5775 14.3519 13.6417 14.4022 13.7033 14.4539C13.7637 14.5042 13.8253 14.5532 13.8857 14.6035C13.9294 14.6412 13.9705 14.6817 14.0103 14.7236C14.0128 14.725 14.0154 14.7278 14.0167 14.7292H14.0154C14.0334 14.7432 14.0501 14.7614 14.0616 14.7809C14.5882 14.8326 15.116 14.8815 15.6452 14.9109C15.5142 15.1387 15.387 15.3665 15.2612 15.597C15.2689 15.6124 15.2766 15.6278 15.283 15.6445C15.2984 15.6767 15.3113 15.7102 15.3241 15.7438C15.3305 15.7591 15.3357 15.7745 15.3421 15.7913C15.3421 15.7941 15.3446 15.7969 15.3446 15.7997C15.3446 15.8011 15.3459 15.8038 15.3472 15.8052C15.3562 15.8304 15.3639 15.8556 15.3729 15.8821C15.3742 15.8877 15.3768 15.8933 15.378 15.8989C15.3857 15.9254 15.3947 15.9506 15.4024 15.9771C15.4191 16.0302 15.4345 16.0833 15.4487 16.1378C15.4551 16.163 15.4615 16.1881 15.4679 16.2133C15.4679 16.2161 15.4692 16.2189 15.4705 16.2231C15.4769 16.251 15.4833 16.2804 15.4885 16.3097C15.4911 16.3223 15.4936 16.3363 15.4962 16.3488C15.4988 16.3656 15.5026 16.3824 15.5052 16.3992C15.5052 16.4033 15.5065 16.4075 15.5078 16.4131C15.5103 16.4257 15.5116 16.4383 15.5142 16.4509C15.5167 16.4662 15.5193 16.4802 15.5219 16.4956C15.5219 16.4984 15.5219 16.5012 15.5219 16.504C15.5244 16.5193 15.5257 16.5333 15.5283 16.5487C15.5309 16.5654 15.5334 16.5808 15.5347 16.5976C15.5373 16.6144 15.5386 16.6297 15.5411 16.6465C15.5437 16.6633 15.545 16.6786 15.5463 16.6954C15.5488 16.715 15.5501 16.7345 15.5527 16.7555C15.5527 16.7569 15.5527 16.7597 15.5527 16.7611C15.5553 16.7904 15.5578 16.8184 15.5604 16.8477C15.5604 16.8519 15.5604 16.8575 15.5604 16.8617C15.5643 16.9176 15.5681 16.9749 15.5707 17.0308C15.5707 17.0545 15.5707 17.0769 15.572 17.1007C15.572 17.1118 15.572 17.123 15.572 17.1342C15.572 17.1566 15.572 17.1803 15.572 17.2027C15.572 17.2125 15.572 17.2222 15.572 17.2306C15.572 17.2572 15.5694 17.2851 15.5681 17.3117C15.5681 17.3173 15.5681 17.3229 15.5681 17.327C15.5655 17.3592 15.563 17.3927 15.5591 17.4249C15.5578 17.4416 15.5553 17.457 15.5527 17.4738C15.5527 17.478 15.5527 17.4808 15.5514 17.485C15.5501 17.4975 15.5476 17.5101 15.545 17.5227C15.545 17.5269 15.5437 17.5311 15.5424 17.5353C15.5399 17.5478 15.5373 17.5604 15.5347 17.573C15.5347 17.5758 15.5334 17.58 15.5322 17.5828C15.5283 17.5981 15.5244 17.6149 15.5206 17.6303C15.5167 17.6457 15.5129 17.661 15.5078 17.675C15.5078 17.6792 15.5052 17.6834 15.5039 17.6876C15.5 17.6988 15.4975 17.7113 15.4936 17.7225C15.4923 17.7267 15.4911 17.7309 15.4898 17.7351C15.4795 17.7658 15.4692 17.7966 15.4577 17.8273C15.4114 17.9475 15.3498 18.0677 15.2714 18.1655C15.2291 18.2186 15.1828 18.2675 15.1353 18.3136C15.0878 18.3597 15.0364 18.4017 14.9838 18.4422C14.8592 18.5372 14.7256 18.6113 14.5933 18.6923C14.5933 18.6923 14.5933 18.6923 14.5921 18.6923C14.5741 18.7035 14.5548 18.7147 14.5368 18.7273C14.5317 18.7301 14.5266 18.7343 14.5214 18.7371C14.4983 18.7524 14.4752 18.7678 14.4521 18.7832C14.4444 18.7888 14.4367 18.7943 14.4289 18.7999C14.4264 18.8013 14.4238 18.8041 14.4212 18.8055C14.4058 18.8181 14.3904 18.8307 14.375 18.8433C14.3634 18.853 14.3519 18.8628 14.3403 18.874C14.3313 18.8838 14.3224 18.8922 14.3134 18.9019C14.2851 18.9313 14.2581 18.9606 14.2325 18.9914C14.1952 19.0403 14.1605 19.0906 14.1271 19.1423C14.122 19.1507 14.1181 19.1577 14.113 19.1661C14.1027 19.1828 14.0925 19.201 14.0822 19.2178C14.0796 19.222 14.0771 19.2262 14.0745 19.2303C14.0616 19.2527 14.0488 19.2751 14.0372 19.2974C14.0372 19.2974 14.036 19.3002 14.0347 19.3016C14.009 19.3491 13.9833 19.3966 13.9576 19.4428C13.9473 19.4609 13.9383 19.4791 13.9281 19.4973C13.9268 19.5 13.9255 19.5028 13.9242 19.5056C13.9139 19.5238 13.9024 19.5434 13.8921 19.5615C13.8921 19.5615 13.8921 19.5629 13.8908 19.5643C13.8844 19.5755 13.8767 19.5881 13.8703 19.5993C13.8651 19.6077 13.8613 19.616 13.8562 19.623C13.8562 19.623 13.8562 19.6244 13.8549 19.6258C13.8318 19.6635 13.8074 19.6999 13.7842 19.7362C13.6751 19.9011 13.5543 20.0548 13.4195 20.196C13.3989 20.2169 13.3784 20.2379 13.3578 20.2589C13.354 20.263 13.3501 20.2658 13.3476 20.2686C13.3437 20.2714 13.3412 20.2756 13.3373 20.2784C13.3232 20.2924 13.309 20.305 13.2949 20.3175C13.2898 20.3231 13.2834 20.3273 13.2782 20.3329C13.2731 20.3371 13.2692 20.3413 13.2641 20.3455C13.2525 20.3567 13.2397 20.3665 13.2281 20.3776C13.223 20.3818 13.2191 20.386 13.214 20.3902C13.2076 20.3958 13.1999 20.4014 13.1935 20.407C13.1819 20.4168 13.1703 20.4265 13.1588 20.4349C13.1562 20.4377 13.1524 20.4405 13.1498 20.4419C13.1498 20.4419 13.1485 20.4419 13.1472 20.4433C13.1395 20.4503 13.1305 20.4559 13.1228 20.4629C13.11 20.4727 13.0971 20.4824 13.0843 20.4908C13.0817 20.4922 13.0792 20.4936 13.0766 20.4964C13.0676 20.5034 13.0586 20.509 13.0483 20.516C13.0355 20.5244 13.0226 20.5327 13.0098 20.5411C13.0085 20.5411 13.006 20.5439 13.0047 20.5439C12.9944 20.5509 12.9841 20.5565 12.9738 20.5635C12.961 20.5719 12.9469 20.5789 12.934 20.5872C12.934 20.5872 12.9327 20.5872 12.9315 20.5872C12.9212 20.5928 12.9109 20.5984 12.9006 20.604C12.8968 20.6068 12.8917 20.6082 12.8878 20.611C12.8724 20.6194 12.8557 20.6278 12.839 20.6362C12.8197 20.6459 12.8005 20.6543 12.7812 20.6627C12.6952 20.7004 12.6065 20.7298 12.5154 20.7521C12.4293 22.151 12.8788 24.2359 13.5171 25.059C13.5582 25.1163 13.6057 25.1554 13.6545 25.1806C13.8484 25.4056 14.0758 25.5956 14.3262 25.7312C14.4251 25.808 14.524 25.8863 14.6216 25.9632C14.7796 26.0875 14.935 26.2133 15.0916 26.3391C15.7081 26.8324 16.3246 27.327 16.9397 27.8217C17.6166 28.3667 18.2908 28.9159 18.9651 29.4651C19.6316 30.0059 20.2969 30.5481 20.9621 31.0889C21.6389 31.6381 22.3158 32.1887 22.9926 32.7393C23.5333 33.1795 24.0727 33.6211 24.6134 34.0613C24.7315 34.1577 24.8484 34.2527 24.9665 34.3491C25.6511 34.9081 26.3382 35.4657 27.0227 36.0246C27.3181 36.265 27.6135 36.5054 27.9101 36.7471C28.009 36.8184 28.1079 36.8883 28.2068 36.9595C29.3588 37.8399 30.462 38.8041 31.7193 39.5084C32.0828 39.7083 32.4424 39.9654 32.8585 39.9975C32.8893 39.9989 32.9214 40.0003 32.9523 40.0003C34.4125 40.0003 35.395 37.8651 36.0834 36.6842C37.288 34.2094 38.431 31.6269 39.0218 28.8894C39.2067 27.8008 38.5569 27.2991 37.6643 27.812L37.6605 27.8134Z" fill="#0268C0"/>
<path d="M28.3944 3.6727C28.3931 3.50641 28.3931 3.34012 28.3879 3.17522C28.3777 2.93905 28.352 2.70568 28.3147 2.47231C28.3122 2.45554 28.3096 2.43878 28.3058 2.42061C28.1067 1.7163 27.7574 1.03715 27.2128 0.58299C26.0197 -0.325339 23.7054 -0.055635 22.4417 0.598362C21.8175 0.92536 21.2486 1.38931 20.8261 1.9902C20.7554 2.10619 20.6527 2.23475 20.573 2.3717C20.4754 2.35493 20.3727 2.35213 20.2841 2.34794C20.0991 2.32838 19.9155 2.30462 19.7306 2.29484C18.4193 2.22357 16.9976 2.96421 16.4441 4.30155C16.3002 4.73056 16.0318 5.31049 16.322 5.72553C16.3272 5.73251 16.3336 5.7381 16.3387 5.74509C16.3606 5.79121 16.3914 5.83173 16.4325 5.86667C16.462 5.88763 16.4941 5.9044 16.5263 5.91837C16.5956 5.91418 16.6662 5.90859 16.7356 5.9044C16.8666 5.89601 16.9989 5.89042 17.1299 5.88483C17.2596 5.87924 17.3893 5.87645 17.5177 5.86108C17.6282 5.8485 17.7412 5.8471 17.8529 5.84291C18.1136 5.83313 18.3731 5.82614 18.6338 5.82335C18.8701 5.82055 19.1064 5.81496 19.3427 5.81496C19.7819 5.81357 20.2199 5.81217 20.6591 5.81217C20.9365 5.81217 21.2139 5.80378 21.4926 5.80099C21.892 5.79819 22.2901 5.80239 22.6896 5.79959C23.2482 5.794 23.8069 5.78422 24.3656 5.77583C24.6301 5.77164 24.896 5.76186 25.1605 5.75767C25.42 5.75208 25.6794 5.74928 25.9388 5.74649C26.4564 5.7409 26.9739 5.7395 27.4915 5.73671C27.7497 5.73671 28.0078 5.73391 28.2659 5.73251C28.2659 5.73251 28.2672 5.72972 28.2685 5.72972C28.2736 5.67801 28.2775 5.62631 28.2839 5.5746C28.2929 5.49076 28.3045 5.40831 28.3122 5.32447C28.3263 5.14839 28.3391 4.97092 28.352 4.79484C28.3674 4.58523 28.3815 4.37421 28.3892 4.1632C28.3957 3.9997 28.3944 3.8362 28.3931 3.6727H28.3944ZM23.6309 5.42229C23.6309 4.14643 24.4914 3.11373 25.5535 3.11373C26.6156 3.11373 27.4761 4.14783 27.4761 5.42229H23.6309Z" fill="#EA6725"/>
</svg>
