<svg width="86" height="70" viewBox="0 0 86 70" fill="none" xmlns="http://www.w3.org/2000/svg">
<path d="M13.948 40.6712C13.6877 40.3325 13.415 40.0007 13.1728 39.6509C12.9544 39.3362 12.7812 38.9934 12.728 38.6246C12.702 38.4482 12.7076 38.2678 12.7405 38.0934C12.7767 37.906 12.8389 37.7256 12.9102 37.5462C13.0132 37.2866 13.1445 37.035 13.2826 36.7895C13.2826 36.7895 13.2848 36.7855 13.2859 36.7845C13.2859 36.7835 13.2871 36.7815 13.2882 36.7805C13.2882 36.7805 13.2905 36.7775 13.2905 36.7754C13.4942 36.4176 13.7115 36.0638 13.9819 35.7421C14.1144 35.5848 14.2592 35.4354 14.4109 35.2921C14.4618 35.244 14.5127 35.1979 14.5659 35.1518C14.5557 35.1528 14.5444 35.1538 14.5342 35.1558C14.2852 35.1839 14.0329 35.2069 13.7816 35.2079C13.7794 35.2079 13.7771 35.2079 13.7737 35.2079C13.501 35.2079 13.2316 35.1648 12.9838 35.0606C12.5752 34.8882 12.2278 34.6226 11.9415 34.3149C11.6382 33.9882 11.4209 33.6063 11.2806 33.2034C11.2206 33.031 11.1685 32.8556 11.1289 32.6782C10.0414 36.143 8.33475 39.4144 6.23205 42.4903C4.6703 44.3675 2.98407 46.1616 1.23333 47.8724C0.905134 48.1781 0.581468 48.4898 0.231772 48.7765C0.0303294 48.8817 -0.0692603 49.1062 0.0540951 49.2856C0.0540951 49.2916 0.0540951 49.2986 0.0540951 49.3047C0.138973 50.2859 0.219324 51.2741 0.471693 52.2353C0.703692 53.0491 1.0432 53.8359 1.34989 54.6296C1.70525 55.3733 2.33674 57.3578 3.30095 57.5071C3.30887 57.5071 3.31566 57.5071 3.32358 57.5071C3.89848 57.5071 4.29571 56.9719 4.47905 56.5399C4.79479 55.7632 5.00868 54.9594 5.27803 54.1696C5.63451 53.1754 6.00571 52.1791 6.49008 51.227C6.72321 50.796 7.151 50.4893 7.5154 50.1496C7.82888 49.8639 8.13784 49.5753 8.44679 49.2856C8.6007 49.1403 8.75462 48.996 8.90966 48.8516C8.92098 48.8396 8.93342 48.8286 8.947 48.8166C8.9968 48.7895 9.04546 48.7554 9.09186 48.7153C9.20503 48.578 9.32047 48.4427 9.43477 48.3064C9.59094 48.121 9.74485 47.9336 9.8965 47.7451C9.93045 47.703 9.9644 47.661 9.99836 47.6189C10.0255 47.5848 10.0527 47.5517 10.0798 47.5176C10.1364 47.4475 10.1919 47.3763 10.2473 47.3052C10.2564 47.2931 10.2666 47.2811 10.2768 47.2681C10.2915 47.249 10.3062 47.23 10.3209 47.2109C10.3481 47.1759 10.3763 47.1408 10.4035 47.1047C10.4601 47.0305 10.5155 46.9564 10.571 46.8822C10.7815 46.5996 10.9875 46.3139 11.1957 46.0293C11.4537 45.6765 11.7118 45.3237 11.9766 44.9759C12.0003 44.9448 12.0241 44.9138 12.0479 44.8827C12.0547 44.8737 12.0603 44.8657 12.0671 44.8566C12.0671 44.8566 12.0671 44.8556 12.0682 44.8546C12.075 44.8456 12.0818 44.8376 12.0875 44.8286C12.0909 44.8246 12.0931 44.8206 12.0965 44.8165C12.0999 44.8115 12.1045 44.8055 12.1078 44.8005C12.1135 44.7925 12.1192 44.7855 12.126 44.7775C12.3365 44.5008 12.5492 44.2262 12.762 43.9506C12.8163 43.8794 12.8717 43.8093 12.9261 43.7381C12.9261 43.7381 12.9295 43.7341 12.9306 43.7321C13.1931 43.3933 13.4546 43.0536 13.7171 42.7148C13.8145 42.5895 13.9118 42.4633 14.008 42.337C14.0306 42.3069 14.0532 42.2778 14.0759 42.2478C14.0815 42.2397 14.0872 42.2317 14.094 42.2247C14.1596 42.1375 14.2241 42.0513 14.2886 41.9631C14.3328 41.903 14.3769 41.8419 14.421 41.7817C14.4742 41.7086 14.5229 41.6334 14.5863 41.5672C14.5353 41.4941 14.4844 41.4199 14.4324 41.3467C14.2739 41.1202 14.1155 40.8937 13.948 40.6722V40.6712Z" fill="#299CE6"/>
<path d="M18.8665 27.1909C18.8665 27.1909 18.864 27.1909 18.8628 27.1921H18.8653L18.8665 27.1909Z" fill="#299CE6"/>
<path d="M17.5689 17.5993C17.5836 17.6153 17.5961 17.6334 17.6051 17.6514C17.6153 17.6564 17.6255 17.6604 17.6357 17.6655C17.6663 17.6795 17.6968 17.6935 17.7274 17.7086C18.2321 18.2407 19.0515 18.4131 19.7927 18.5354C20.1209 18.5825 20.4582 18.6086 20.7977 18.6086C21.5503 18.6086 22.3062 18.4793 22.9649 18.1636C23.5387 17.8519 24.0547 17.4199 24.392 16.9007C24.8582 16.0488 25.0506 14.7499 24.0955 14.1074C23.2455 13.7987 22.2689 13.892 21.3692 13.925C21.3251 13.928 21.2741 13.9331 21.2187 13.9391C21.0331 13.9401 20.8475 13.9441 20.663 13.9521C20.6358 13.9531 20.6076 13.9551 20.5804 13.9561C20.3212 13.9721 20.0643 14.0032 19.8097 14.0483C19.6037 14.0874 19.4023 14.1385 19.202 14.1986C19.0096 14.2588 18.8206 14.3249 18.6384 14.4051C18.4494 14.4903 18.2593 14.5805 18.0816 14.6837C17.9752 14.7489 17.8711 14.818 17.7726 14.8932C17.6323 15.0045 17.5022 15.1247 17.3765 15.249C17.3573 15.2691 17.3381 15.2891 17.32 15.3112C17.2917 15.3492 17.2656 15.3883 17.2419 15.4294C17.2192 15.4705 17.1989 15.5136 17.1808 15.5567C17.1762 15.5677 17.1717 15.5798 17.166 15.5918C17.1638 15.5978 17.1615 15.6028 17.1593 15.6088C17.1389 15.6649 17.1208 15.7221 17.1072 15.7792C17.0936 15.8434 17.0834 15.9085 17.0778 15.9746C17.071 16.0889 17.0755 16.2022 17.0834 16.3164C17.0981 16.4898 17.1219 16.6622 17.1593 16.8326C17.1785 16.9148 17.2011 16.9959 17.2317 17.0751C17.2521 17.1252 17.2758 17.1743 17.3019 17.2225C17.372 17.3417 17.458 17.453 17.5418 17.5642C17.535 17.5552 17.5282 17.5462 17.5203 17.5362C17.5361 17.5572 17.5508 17.5793 17.5689 17.5983V17.5993Z" fill="#299CE6"/>
<path d="M5.24604 26.0603C5.25397 26.0753 5.26189 26.0904 5.26868 26.1054C5.40109 26.374 5.4373 26.6717 5.43957 26.9613C5.43957 27.0586 5.43391 27.1548 5.43617 27.252C5.43957 27.2831 5.44409 27.3141 5.44862 27.3442C5.44975 27.3492 5.45201 27.3542 5.45315 27.3582C5.46899 27.3923 5.48483 27.4274 5.50294 27.4605C5.51313 27.4775 5.52444 27.4935 5.53576 27.5096C5.54029 27.5146 5.54368 27.5196 5.54821 27.5246C5.55274 27.5276 5.55613 27.5306 5.56066 27.5336L5.56858 27.5376C5.58555 27.5446 5.60366 27.5517 5.62064 27.5577C5.71117 27.5827 5.80284 27.6028 5.89338 27.6238C6.04163 27.6569 6.18536 27.696 6.33021 27.7411C6.62672 27.8333 6.90399 27.9756 7.12467 28.1751C7.25255 28.2913 7.35554 28.4216 7.44494 28.5619C7.49247 28.6351 7.53887 28.7093 7.5898 28.7804C7.65204 28.8596 7.71881 28.9358 7.78898 29.0099C7.84217 29.0611 7.89762 29.1102 7.95534 29.1573C7.99495 29.1863 8.03456 29.2144 8.07643 29.2415C8.11491 29.2635 8.15452 29.2836 8.19526 29.3036C8.23147 29.3186 8.26769 29.3317 8.3039 29.3447C8.33219 29.3527 8.36049 29.3597 8.38878 29.3657C8.42386 29.3708 8.46008 29.3748 8.49629 29.3788C8.51779 29.3788 8.5393 29.3788 8.56193 29.3788C8.58796 29.3788 8.61399 29.3788 8.64115 29.3778C8.72376 29.3708 8.80638 29.3597 8.88786 29.3467C8.97161 29.3297 9.05422 29.3096 9.13683 29.2866C9.29754 29.2335 9.45145 29.1703 9.60649 29.1032C9.68571 29.0691 9.76606 29.036 9.84528 29.0009C9.92676 28.9658 10.0048 28.9358 10.092 28.9097C10.3138 28.8446 10.5639 28.8426 10.7789 28.9227C10.805 28.9197 10.831 28.9177 10.857 28.9167C10.9917 28.8967 11.1558 28.9037 11.3255 28.9097C11.3561 28.9107 11.3855 28.9117 11.4161 28.9127C11.4512 28.8225 11.4885 28.7333 11.5304 28.6461C11.5802 28.5409 11.6345 28.4367 11.69 28.3334C11.7194 28.2803 11.7488 28.2272 11.7782 28.1751C11.7839 28.165 11.7907 28.154 11.7963 28.144C11.9197 27.7621 12.0408 27.3793 12.1664 26.9974C12.3033 26.5835 12.4437 26.1696 12.5817 25.7556C12.7153 25.3557 12.8477 24.9548 12.9846 24.5559C13.0174 24.4607 13.0491 24.3655 13.0819 24.2703C12.2275 24.2843 11.3765 24.3946 10.522 24.3925C10.4858 24.3915 10.4496 24.3885 10.4145 24.3835C10.4032 24.3905 10.393 24.3976 10.3817 24.4036C10.2697 24.3314 10.1327 24.2783 10.0139 24.2402C9.35412 23.9796 8.65926 23.7521 7.93044 23.7271C7.21634 23.6589 6.5509 23.9225 5.99976 24.3064C5.41354 24.6642 4.62814 25.2314 5.08761 25.923C5.12495 25.9861 5.18154 26.0302 5.24604 26.0573V26.0603Z" fill="#299CE6"/>
<path d="M29.6422 1.18454C29.4012 1.0322 29.1092 0.98108 28.824 0.934976C28.1586 0.840764 28.1846 0.0299385 27.1129 0.0118979C26.624 0.0169092 26.1736 0.26146 25.6779 0.220367C25.3372 0.156223 25.026 -0.0492397 24.6593 0.0108957C24.5394 0.019916 24.4409 0.0469769 24.3628 0.0870672C24.2746 0.105108 24.1931 0.148205 24.1365 0.214354C23.6544 0.709468 23.0863 1.17652 22.8068 1.79491C22.5419 2.34816 22.7977 2.92746 22.8758 3.48973C22.9109 4.10912 23.316 4.60724 23.9543 4.78966C24.003 5.69068 24.0969 6.59372 24.184 7.49875C24.1433 8.10612 24.1195 8.71349 24.1252 9.32186C24.1274 9.49124 24.1003 9.73078 24.1546 9.91319C24.1682 10.1377 24.2135 10.3602 24.3097 10.5757C24.4647 10.8814 24.6503 11.175 24.7646 11.4958C24.9208 11.8997 25.0498 12.3156 25.0826 12.7436C25.0962 13.1866 24.9344 13.5604 25.2094 13.9814C25.2094 13.9824 25.2116 13.9844 25.2116 13.9854C25.3146 14.4264 25.3972 14.8693 25.4312 15.3164C25.4187 15.4928 25.4029 15.6692 25.3836 15.8445C25.335 16.2765 25.2456 16.7125 25.0317 17.1064C24.9208 17.3108 24.7872 17.5073 24.6322 17.6877C24.5541 17.7779 24.4715 17.8641 24.3843 17.9473C24.2927 18.0355 24.1897 18.1157 24.0867 18.1948C23.9226 18.3211 23.7461 18.4334 23.565 18.5406C23.3737 18.6549 23.17 18.7541 22.9607 18.8403C22.7456 18.9285 22.5193 18.9976 22.2907 19.0508C22.0485 19.1069 21.8007 19.15 21.5517 19.17C21.3593 19.1861 21.1669 19.1941 20.9745 19.1941C20.9383 19.1941 20.9021 19.1941 20.8659 19.1941C20.6248 19.1901 20.3826 19.174 20.1427 19.154C19.7127 19.1179 19.2849 19.0417 18.8707 18.9325C18.6625 18.8774 18.461 18.8032 18.272 18.711C18.0027 18.5105 17.7729 18.3081 17.4945 18.1768C17.4912 18.1738 17.4878 18.1698 17.4832 18.1668C17.4787 18.1668 17.473 18.1668 17.4685 18.1658C17.2399 18.0625 16.9785 18.0064 16.6345 18.0365C16.5767 18.0425 16.5156 18.0445 16.4534 18.0475C15.7314 17.9663 15.0105 17.9182 14.3009 18.0906C12.5535 18.5065 11.595 20.2575 12.0703 21.7639C12.2084 22.3492 12.4392 22.9135 12.7108 23.4597C12.8512 23.6712 12.8919 23.9789 13.1352 24.1162C13.2212 23.8636 13.3061 23.61 13.3921 23.3575C13.5223 22.9776 13.6468 22.5957 13.7746 22.2149C13.9025 21.838 14.0259 21.4592 14.147 21.0803C14.1741 20.9961 14.2002 20.913 14.2273 20.8288C14.2251 20.8197 14.2239 20.8117 14.2228 20.8027C14.2137 20.7386 14.2273 20.6804 14.2522 20.6203C14.2601 20.6003 14.2703 20.5822 14.2794 20.5622C14.2918 20.5311 14.3031 20.501 14.3167 20.47C14.3563 20.3798 14.4367 20.2875 14.5431 20.2555C14.6925 20.2024 14.8747 20.2384 14.9754 20.3587C15.0274 20.4198 15.0546 20.495 15.0535 20.5712C15.0523 20.6153 15.0433 20.6554 15.032 20.6985C15.0252 20.7245 15.0161 20.7516 15.0082 20.7777C15.0025 20.8027 14.9969 20.8268 14.989 20.8508C14.9709 20.913 14.9324 20.9661 14.8814 21.0082C14.8362 21.1254 14.7909 21.2427 14.7456 21.36C14.6721 21.5484 14.603 21.7388 14.5295 21.9272C14.4582 22.1097 14.3926 22.2941 14.3247 22.4775C14.2556 22.6649 14.1843 22.8523 14.1153 23.0407C13.9704 23.4366 13.821 23.8315 13.6773 24.2274C13.5313 24.6273 13.3853 25.0272 13.2371 25.4261C13.0866 25.83 12.9361 26.2349 12.7855 26.6388C12.6339 27.0468 12.4788 27.4537 12.3227 27.8596C12.1869 28.2124 12.0488 28.5652 11.9187 28.92C11.8994 28.9821 11.8824 29.0443 11.8655 29.1064C11.7546 29.7378 11.6708 30.4013 11.6663 31.0428C11.6448 31.0578 11.6255 31.0758 11.6086 31.0959V31.131C11.6006 31.3074 11.5927 31.4838 11.5905 31.6602C11.5893 31.7654 11.5905 31.8706 11.5984 31.9759C11.612 32.1282 11.638 32.2795 11.6708 32.4299C11.7116 32.5973 11.7602 32.7636 11.8225 32.927C11.8802 33.0703 11.9492 33.2106 12.0262 33.348C12.0861 33.4512 12.1507 33.5524 12.2231 33.6496C12.2921 33.7378 12.3657 33.822 12.4449 33.9032C12.5309 33.9884 12.6226 34.0686 12.7188 34.1447C12.7199 34.1457 12.7222 34.1468 12.7233 34.1488C12.8082 34.2129 12.8953 34.274 12.987 34.3302C13.056 34.3703 13.1273 34.4083 13.2009 34.4414C13.2518 34.4635 13.305 34.4835 13.3582 34.5016C13.3989 34.5136 13.4397 34.5226 13.4804 34.5316C13.5313 34.5396 13.5811 34.5456 13.632 34.5497C13.7452 34.5547 13.8595 34.5517 13.9727 34.5457C14.1662 34.5326 14.3586 34.5116 14.551 34.4875C14.7026 34.4685 14.8554 34.4484 15.0059 34.4224C15.0637 34.4113 15.1214 34.3993 15.178 34.3853C15.2379 34.3703 15.299 34.3602 15.3579 34.3422C15.3805 34.3352 15.4043 34.3322 15.4292 34.3302C15.4869 34.2901 15.5424 34.25 15.5978 34.2079C15.6046 34.2029 15.6114 34.1969 15.6182 34.1919C15.8117 33.9603 16.0007 33.7258 16.1942 33.4953C16.4681 33.1696 16.7454 32.8438 17.0441 32.5351C17.3395 32.2294 17.6541 31.9398 17.9676 31.6491C18.2867 31.3535 18.6183 31.0678 18.9499 30.7822C19.2792 30.4985 19.6108 30.2159 19.9526 29.9433C20.2797 29.6827 20.6146 29.4281 20.9587 29.1846C21.0141 29.1445 21.0707 29.1054 21.1318 29.0723C21.2744 28.9952 21.4668 29.0322 21.5675 29.1475C21.6694 29.2638 21.6581 29.4361 21.5392 29.5404C21.4544 29.6145 21.3559 29.6787 21.2642 29.7468C21.1884 29.803 21.1126 29.8581 21.0368 29.9142C20.8783 30.0325 20.7199 30.1518 20.5637 30.272C20.2231 30.5386 19.8938 30.8153 19.5678 31.0939C19.234 31.3795 18.9001 31.6642 18.5753 31.9588C18.4214 32.0981 18.2709 32.2395 18.1204 32.3808C17.9676 32.5241 17.8148 32.6674 17.6666 32.8148C17.6541 32.8278 17.6417 32.8398 17.6292 32.8528C17.3327 33.1535 17.0577 33.4702 16.7827 33.7859C16.51 34.0976 16.2429 34.4133 15.952 34.712C15.6465 35.0267 15.307 35.3144 14.9765 35.608C14.8237 35.7433 14.6721 35.8787 14.5204 36.015C14.4989 36.041 14.4786 36.0671 14.4582 36.0931C14.3247 36.2705 14.2058 36.4549 14.0972 36.6454C14.0032 36.8128 13.915 36.9841 13.829 37.1545C13.743 37.3259 13.6581 37.4973 13.5834 37.6727C13.5687 37.7068 13.5551 37.7408 13.5415 37.7749C13.4974 37.8902 13.4578 38.0064 13.4283 38.1247C13.4148 38.1868 13.4046 38.249 13.3989 38.3121C13.3955 38.3652 13.3955 38.4184 13.3989 38.4715C13.4046 38.5286 13.4136 38.5847 13.4249 38.6409C13.4431 38.712 13.4646 38.7812 13.4906 38.8503C13.5257 38.9345 13.5653 39.0177 13.6105 39.0979C13.7181 39.2833 13.8482 39.4577 13.9795 39.6301C14.2409 39.9709 14.5148 40.3046 14.7694 40.6504C14.9731 40.927 15.1678 41.2087 15.3658 41.4883C15.3771 41.4712 15.3884 41.4532 15.4009 41.4362C16.4941 42.7491 17.8635 43.8907 19.5033 44.6283C19.5905 44.6424 19.6708 44.6494 19.7455 44.6494C20.9485 44.6494 20.5931 42.8965 20.5615 42.1518C20.4551 41.0202 20.3453 39.8887 20.1303 38.7682C20.2401 38.7531 20.3453 38.699 20.4155 38.6138C20.8093 38.25 21.1918 37.8782 21.5777 37.5073C22.8396 36.3086 24.0686 35.0819 25.2116 33.792C26.4972 32.2675 28.4132 30.5907 28.7063 28.6474C29.0809 26.4153 26.7089 24.8749 24.347 25.2106C24.3029 25.2166 24.2587 25.2217 24.2146 25.2287C24.1263 25.2557 24.0392 25.2828 23.9509 25.3089C23.9011 25.3239 23.8513 25.3389 23.8004 25.355C23.7891 25.358 23.7778 25.362 23.7664 25.365C23.7619 25.366 23.7574 25.368 23.7529 25.369C23.728 25.377 23.7019 25.385 23.677 25.392C23.4756 25.4542 23.2753 25.5193 23.075 25.5835C22.6449 25.7208 22.2149 25.8601 21.7882 26.0074C21.3638 26.1548 20.944 26.3151 20.5286 26.4825C20.1405 26.6398 19.7546 26.8032 19.3709 26.9686C19.2034 27.0408 19.0359 27.1129 18.8684 27.1871C18.865 27.1891 18.8605 27.1901 18.8571 27.1921C18.8571 27.1921 18.8515 27.1941 18.8492 27.1961L18.8152 27.2111C18.3976 27.3976 17.9834 27.592 17.5817 27.8035C17.3802 27.9097 17.1822 28.02 16.9853 28.1342C16.7918 28.2465 16.6005 28.3627 16.3968 28.4599C16.3866 28.465 16.3753 28.47 16.3651 28.475C16.3323 28.491 16.2972 28.499 16.261 28.499C16.1897 28.499 16.1195 28.467 16.0811 28.4088C16.0245 28.3226 16.0573 28.2074 16.1557 28.1573H16.158C16.1954 28.1322 16.2293 28.1041 16.2644 28.0781C16.3063 28.047 16.3493 28.017 16.3923 27.9859C16.4873 27.9167 16.579 27.8456 16.6729 27.7754C16.8529 27.6411 17.0407 27.5168 17.2343 27.3986C17.6337 27.154 18.0457 26.9275 18.4678 26.716C18.7994 26.5496 19.1366 26.3923 19.4773 26.241C19.4807 26.2389 19.4852 26.2379 19.4886 26.2359C19.492 26.2349 19.4954 26.2329 19.4988 26.2319C19.5022 26.2309 19.5044 26.2289 19.5078 26.2279C19.879 26.0636 20.2536 25.9062 20.6316 25.7559C21.0673 25.5845 21.5076 25.4231 21.9512 25.2688C22.3224 25.1395 22.6936 25.0132 23.067 24.8909C23.8264 23.6672 24.5417 22.4224 25.1788 21.1455C26.6557 17.9222 28.506 14.725 29.3853 11.3204C29.4091 11.2392 29.4306 11.155 29.4487 11.0678C29.4487 11.0678 29.4487 11.0678 29.4487 11.0668C29.4521 11.0538 29.4555 11.0407 29.4578 11.0277C29.8799 10.0264 29.9376 7.99688 29.8799 7.60499C29.8799 7.60499 29.8799 7.60399 29.8799 7.60299C29.8505 6.87034 29.8142 6.13869 29.7848 5.40604C29.8052 5.06828 29.812 4.73052 29.7927 4.39777C30.0032 3.94576 30.1266 3.46367 30.1492 2.96956C30.1934 2.35918 30.2986 1.5674 29.6354 1.18253L29.6422 1.18454ZM11.8191 30.4063C11.8191 30.4063 11.8077 30.4133 11.801 30.4133C11.7942 30.4133 11.7874 30.4113 11.7817 30.4063C11.7704 30.3973 11.7715 30.3813 11.7817 30.3733C11.7874 30.3682 11.793 30.3662 11.7998 30.3662C11.8066 30.3662 11.8134 30.3682 11.8191 30.3733C11.8304 30.3823 11.8292 30.3983 11.8191 30.4063Z" fill="#0268C0"/>
<path d="M24.3335 13.5353C24.312 13.4912 24.2984 13.4461 24.2893 13.401C24.2871 13.39 24.2848 13.379 24.2837 13.3679C24.2837 13.3639 24.2837 13.3599 24.2825 13.3559C24.2825 13.3469 24.2803 13.3379 24.2803 13.3289C24.2803 13.3278 24.2803 13.3268 24.2803 13.3248C24.2803 13.3238 24.2803 13.3228 24.2803 13.3208C24.2803 13.3108 24.2803 13.3008 24.2803 13.2918C24.2803 13.2868 24.2803 13.2807 24.2803 13.2757C24.2803 13.2677 24.2803 13.2587 24.2803 13.2507C24.2803 13.2487 24.2803 13.2467 24.2803 13.2447C24.2837 13.2016 24.2859 13.1585 24.2893 13.1164C24.2893 13.1264 24.2882 13.1374 24.2871 13.1474C24.2871 13.1334 24.2882 13.1194 24.2893 13.1053C24.2893 13.0913 24.2905 13.0763 24.2905 13.0623C24.2905 13.0552 24.2905 13.0502 24.2905 13.0452C24.2905 13.0452 24.2905 13.0432 24.2905 13.0422C24.2905 13.0342 24.2905 13.0262 24.2905 13.0182V13.0161C24.2905 12.9911 24.2905 12.965 24.2905 12.94C24.2905 12.939 24.2905 12.938 24.2905 12.937C24.2905 12.8738 24.2871 12.8117 24.2837 12.7495C24.2656 12.5371 24.2316 12.3246 24.1863 12.1161C24.1637 12.0209 24.1377 11.9267 24.1049 11.8345C24.0743 11.7623 24.0381 11.6922 23.9985 11.622C23.9589 11.5529 23.9193 11.4837 23.8774 11.4155C23.831 11.3414 23.7755 11.2712 23.728 11.1981C23.6771 11.1439 23.6262 11.0908 23.5741 11.0377C23.4903 10.9535 23.4032 10.8713 23.3127 10.7921C23.3127 10.7941 23.3127 10.7951 23.3127 10.7972C23.2561 10.7621 23.1984 10.729 23.1406 10.6959C22.3881 10.269 21.5087 9.99735 20.6079 10.0204C18.933 10.0735 17.1109 10.8052 16.4002 12.2174C16.0426 12.9199 15.7925 13.6736 15.6443 14.4343C15.2165 14.6949 14.8 14.9716 14.3926 15.2572C13.8154 15.6431 13.2394 16.0329 12.7064 16.4659C12.5649 16.5782 12.3567 16.7355 12.2401 16.9029C12.162 16.96 12.1111 17.0462 12.1134 17.1575C12.1088 17.815 13.0278 17.8099 13.5687 17.8119C13.64 17.8119 13.7294 17.8119 13.8358 17.8119C14.5635 17.8119 16.0211 17.8009 16.871 17.6265C16.7454 17.4561 16.6526 17.2677 16.5802 17.0753C16.5191 16.9139 16.4783 16.7486 16.4455 16.5812C16.4104 16.4058 16.3878 16.2274 16.3867 16.049C16.3867 15.8445 16.4217 15.6391 16.4896 15.4436C16.4942 15.4316 16.4987 15.4196 16.5021 15.4075C16.5044 15.4015 16.5066 15.3955 16.5089 15.3895C16.5383 15.3123 16.5711 15.2361 16.6119 15.163C16.6651 15.0668 16.7262 14.9705 16.8043 14.8884C17.1109 14.5616 17.4686 14.27 17.8839 14.0545C18.0933 13.9462 18.3072 13.841 18.529 13.7548C18.7463 13.6696 18.9726 13.5995 19.2001 13.5373C19.6222 13.4201 20.0613 13.3509 20.5004 13.3098C20.9576 13.2667 21.4216 13.2437 21.8811 13.2597C22.2851 13.2737 22.6902 13.3148 23.0886 13.379C23.4756 13.4411 23.8638 13.5113 24.2429 13.6055C24.2972 13.6185 24.3516 13.6335 24.4048 13.6486C24.3776 13.6155 24.3538 13.5794 24.3357 13.5403L24.3335 13.5353ZM24.0834 12.951C23.6397 12.8337 23.0456 12.7135 22.3337 12.6724C21.6117 12.6303 20.9961 12.6824 20.5343 12.7495C20.54 12.6243 20.5853 12.068 21.1364 11.6431C21.1817 11.608 21.9297 11.0497 22.8091 11.2542C23.5877 11.4356 24.1569 12.1402 24.0822 12.951H24.0834Z" fill="#EA6725"/>
<path d="M70.4235 62.7518C70.3837 62.5159 70.3393 62.2818 70.2914 62.0475C70.2225 61.7111 70.1422 61.3762 70.0697 61.0407C70.046 60.9292 70.0211 60.8166 69.9962 60.7051C70.0101 60.7149 70.0238 60.7257 70.0377 60.7355C70.2662 60.9037 70.4728 61.0936 70.6928 61.2696C70.7964 61.3528 70.9014 61.4339 71.0062 61.5161C71.1079 61.5961 71.2106 61.6762 71.3147 61.7543C71.4475 61.853 71.584 61.9478 71.7242 62.0376C71.8602 62.1242 72.0012 62.2038 72.1461 62.2775C72.4239 62.4202 72.7187 62.5329 73.022 62.6235C73.0836 62.6414 73.1451 62.6594 73.2068 62.6763C73.0043 62.6903 72.8009 62.7021 72.5985 62.716C72.3417 62.7338 72.0849 62.7526 71.8281 62.7704C71.8136 62.7688 71.8003 62.7672 71.7857 62.7666C71.7026 62.7651 71.6231 62.7883 71.5594 62.8398C71.4861 62.8991 71.4465 62.9865 71.4519 63.0747C71.4573 63.1486 71.4946 63.2177 71.555 63.2652C71.6058 63.3052 71.6725 63.3295 71.742 63.3325C71.7689 63.3336 71.7972 63.3317 71.8235 63.3257C71.8384 63.3222 71.8522 63.3187 71.8672 63.3143C72.1436 63.2891 72.4196 63.2701 72.6956 63.2501C72.9819 63.2295 73.2681 63.2089 73.5541 63.177C73.7187 63.1584 73.8825 63.1356 74.0446 63.1046C74.2148 63.073 74.3842 63.0351 74.5544 63.0035C74.6605 62.9844 74.7665 62.9664 74.8734 62.9515C74.8734 62.9515 74.8757 62.9516 74.8768 62.9516C74.8768 62.9516 74.8779 62.9517 74.879 62.9517C74.8813 62.9518 74.8824 62.9519 74.8847 62.9509C75.0383 62.9298 75.1928 62.9098 75.3466 62.8856C75.4138 62.8751 75.4799 62.8646 75.5472 62.8521C75.6146 62.8396 75.6811 62.8241 75.7476 62.8074C75.7877 62.7979 75.8291 62.7873 75.8701 62.7809C75.8723 62.781 75.8757 62.7811 75.8779 62.7812C75.8994 62.7801 75.9201 62.7738 75.9367 62.7633C76.648 62.6307 77.3666 62.5343 78.0802 62.4151C78.6441 62.2825 79.2314 62.4229 79.6415 62.784C80.7055 63.6526 81.3689 64.8347 82.0912 65.9405C82.35 66.3791 82.6422 66.8088 82.8252 67.2811C82.9711 67.7261 82.5328 68.0329 82.0761 68.034C80.3945 67.9331 78.9212 67.1055 77.4024 66.541C77.0478 66.3879 76.6498 66.4702 76.2735 66.5208C75.5577 66.6102 74.8457 66.7233 74.1382 66.8652C73.0095 67.112 71.8645 67.2672 70.7232 67.4459C70.7259 67.3826 70.7288 67.3183 70.7304 67.2549C70.7439 66.9005 70.7461 66.5456 70.7393 66.1914C70.7361 66.0194 70.7294 65.8482 70.7238 65.6771C70.7183 65.5061 70.7126 65.336 70.7058 65.1659C70.6905 64.8205 70.6536 64.4762 70.6144 64.1328C70.5748 63.7813 70.5295 63.4305 70.4762 63.0804C70.4599 62.9733 70.4426 62.8662 70.4241 62.759C70.4242 62.757 70.4244 62.755 70.4234 62.7529L70.4235 62.7518Z" fill="#299CE6"/>
<path d="M69.7458 62.9054C69.746 62.9033 69.7462 62.9011 69.7452 62.8989L69.7451 62.9011C69.7451 62.9011 69.7449 62.9032 69.746 62.9033L69.7458 62.9054Z" fill="#299CE6"/>
<path d="M71.1895 55.0112C71.1895 55.0112 71.1936 55.0135 71.1956 55.0147C71.1956 55.0147 71.1945 55.0146 71.1935 55.0146C71.1924 55.0145 71.1904 55.0123 71.1894 55.0123L71.1895 55.0112Z" fill="#299CE6"/>
<path d="M72.5506 48.7133C72.4811 48.884 72.3865 49.0464 72.2793 49.2002C72.2275 49.2742 72.1705 49.3448 72.1103 49.4123C72.055 49.475 71.9975 49.5375 71.9348 49.5947C71.8636 49.6597 71.7915 49.7226 71.7141 49.7823C71.639 49.84 71.5599 49.8935 71.4786 49.9449C71.3149 50.0486 71.1373 50.1304 70.955 50.2009C70.8765 50.2311 70.795 50.2581 70.7127 50.28C70.6167 50.3064 70.5208 50.3307 70.4221 50.3479C70.3235 50.364 70.2239 50.3791 70.1226 50.387C70.0213 50.3949 69.9193 50.3977 69.8176 50.3964C69.7875 50.3952 69.7585 50.395 69.7284 50.3937C69.5712 50.3871 69.4139 50.3682 69.2632 50.3355C69.1654 50.3141 69.0689 50.2897 68.9739 50.2613C68.8821 50.2331 68.7921 50.1978 68.7033 50.1616C68.5375 50.0937 68.3825 50.0039 68.2359 49.9064C68.1551 49.8532 68.0793 49.7942 68.007 49.7323C67.9379 49.6735 67.8701 49.6118 67.8094 49.5453C67.7446 49.4735 67.681 49.4008 67.6222 49.3242C67.5675 49.2529 67.5198 49.1778 67.4732 49.1018C67.4277 49.0278 67.3892 48.949 67.354 48.8704C67.3218 48.7969 67.2908 48.7226 67.2668 48.6454C67.2382 48.5539 67.2131 48.4625 67.1947 48.3693C67.1771 48.2813 67.1663 48.1925 67.1588 48.1039C67.145 47.9257 67.1526 47.7444 67.1824 47.567C67.2116 47.3957 67.2542 47.2259 67.3209 47.0623C67.3544 46.9784 67.3923 46.8958 67.4355 46.8154C67.4826 46.7301 67.5328 46.647 67.5885 46.5651C67.7926 46.2621 68.0748 46.004 68.3942 45.7993C68.5462 45.7022 68.7103 45.6218 68.8801 45.5539C69.0614 45.4814 69.2515 45.4255 69.4445 45.39C69.8168 45.3215 70.2053 45.3166 70.5732 45.3879C70.7582 45.4242 70.9388 45.4744 71.1123 45.5426C71.2034 45.578 71.2908 45.6192 71.3756 45.6634C71.3843 45.6668 71.3918 45.6712 71.4004 45.6756C71.4026 45.6757 71.4036 45.6768 71.4047 45.6778C71.4133 45.6822 71.4208 45.6856 71.4293 45.691C71.4712 45.7131 71.5118 45.7371 71.5512 45.7622C71.5597 45.7676 71.5682 45.774 71.5766 45.7805C71.6256 45.811 71.6746 45.8425 71.721 45.8769C71.8615 45.9813 71.9968 46.0946 72.1107 46.2243C72.1732 46.2959 72.2334 46.3685 72.2901 46.444C72.3446 46.5173 72.391 46.5954 72.4363 46.6735C72.5229 46.8212 72.5852 46.9812 72.635 47.1427C72.6618 47.227 72.684 47.3142 72.6972 47.4011C72.7114 47.49 72.7256 47.5799 72.7295 47.6704C72.7379 47.8473 72.7293 48.0256 72.6974 48.2019C72.6657 48.3761 72.6153 48.5456 72.5485 48.7112L72.5506 48.7133Z" fill="#299CE6"/>
<path d="M60.5339 45.6265C60.6608 45.3691 61.0309 45.2786 61.2876 45.4149C61.3228 45.4335 61.3556 45.4541 61.3872 45.4757C61.5315 45.1947 61.874 45.0182 62.2216 45.1553C62.4348 45.2249 62.5503 45.3774 62.6229 45.5544C62.8537 45.5136 63.118 45.6097 63.296 45.9124C63.445 46.2038 63.4671 46.5423 63.6469 46.8219C63.7923 47.0474 64.1208 47.0613 64.3867 47.0675C64.5216 46.8216 64.6929 46.5913 64.941 46.43C65.6166 46.027 66.1897 46.5688 65.8334 47.2007C65.6372 47.6472 64.9358 47.9126 64.8305 48.3317C64.8159 48.3907 64.7921 48.4382 64.7637 48.4744C64.9244 49.7124 65.6966 50.9925 67.1762 51.1452C69.4129 51.2825 71.8991 50.2861 73.6638 49.0377C74.5662 48.3907 75.1964 47.8321 75.4305 46.9363C75.4398 46.2847 75.2887 45.5718 75.1432 45.04C75.1312 44.9808 75.1072 44.9202 75.0853 44.8596C75.0601 44.8414 75.0349 44.8231 75.0086 44.8048C74.8873 44.6976 74.5363 44.5179 74.2503 44.3178C74.2503 44.3178 74.2491 44.3177 74.248 44.3177C73.6682 44.1273 73.1512 43.3665 73.7813 42.9363C74.2762 42.6571 74.7449 43.1015 75.1225 43.3793C75.1337 43.3778 75.1449 43.3762 75.1572 43.3757C75.5528 43.3834 75.9353 43.1924 76.0645 42.836C76.175 42.59 76.2476 42.3313 76.2893 42.0702C76.2963 41.7713 76.495 41.337 76.8982 41.4592C76.9856 41.4771 77.0657 41.5442 77.1304 41.6379C77.5539 41.111 78.2423 41.22 78.4112 41.7933C78.4983 41.7717 78.5896 41.7685 78.6762 41.7823L78.6939 41.783L78.7189 41.7891L78.7417 41.7962L78.745 41.7963C78.8599 41.8305 78.9622 41.8985 79.0317 42.0025C79.3431 42.5272 78.9092 43.3407 78.4321 43.83C78.4574 43.9311 78.4815 44.0332 78.5057 44.1343C78.5337 44.2568 78.5584 44.3791 78.5775 44.5033C78.6 44.6528 78.6147 44.8041 78.6227 44.955C78.6241 44.9803 78.6254 45.0057 78.6267 45.032C78.7927 45.8376 78.8476 46.6587 78.7858 47.4819C78.7909 48.68 78.3349 49.6735 76.9849 50.5765C76.448 51.0076 75.8335 51.3677 75.3616 51.8612C75.3604 51.8632 75.358 51.8651 75.3567 51.867C75.4083 51.9865 75.461 52.106 75.5137 52.2255C75.5234 52.2289 75.5342 52.2324 75.544 52.2359C75.536 52.2385 75.5291 52.2413 75.5211 52.244C75.5418 52.2914 75.5636 52.3388 75.5853 52.3862C75.754 52.6956 75.9226 53.005 76.0695 53.3235C76.6883 54.677 77.3024 56.0474 77.5686 57.5082C77.8427 58.8986 77.7538 60.8498 76.5196 61.7618C76.518 61.7678 76.5165 61.7728 76.5138 61.7787C76.454 61.8045 76.3944 61.8293 76.3357 61.8551C76.2748 61.8818 76.2147 61.9116 76.1537 61.9393C76.0881 61.9689 76.0226 61.9975 75.9569 62.028C75.9097 62.0493 75.8614 62.0705 75.8121 62.0906C75.6999 62.1344 75.5847 62.173 75.4679 62.2044L75.4646 62.2043C75.4646 62.2043 75.4646 62.2043 75.4645 62.2053C75.2798 62.2531 75.0907 62.2865 74.901 62.3138C74.7899 62.3293 74.6769 62.3397 74.5652 62.3491C74.4624 62.3579 74.3598 62.3647 74.2574 62.3674C74.1408 62.3685 74.0247 62.3626 73.9091 62.3516C73.7275 62.3318 73.5478 62.3029 73.37 62.2631C73.1489 62.2102 72.9309 62.1454 72.7195 62.0687C72.5383 62.0014 72.3623 61.9252 72.1916 61.8381C72.0382 61.7568 71.8909 61.6687 71.7499 61.5717C71.53 61.4189 71.321 61.2543 71.1121 61.0898C71.0076 61.0075 70.902 60.9252 70.7988 60.841C70.7028 60.7631 70.6093 60.6834 70.5146 60.6035C70.3949 60.5024 70.2729 60.4033 70.1448 60.3109C70.0377 60.2346 69.927 60.1601 69.8236 60.0789C69.7996 60.0597 69.7755 60.0405 69.7528 60.0193C69.7394 60.0066 69.726 59.9939 69.7125 59.9812C69.7043 59.9728 69.6961 59.9644 69.6879 59.9559C69.655 59.9222 69.615 59.8952 69.5698 59.8771C69.5722 59.8752 69.5757 59.8733 69.578 59.8714C69.4013 59.7204 69.2291 59.5685 69.0635 59.417C69.0672 59.4404 69.0708 59.4648 69.0756 59.4882C69.1058 59.6816 69.1371 59.875 69.1673 60.0693C69.1601 60.1034 69.1596 60.1387 69.1657 60.1733C69.1712 60.2019 69.1824 60.2286 69.1972 60.2525C69.2011 60.3012 69.206 60.3509 69.2122 60.3997C69.2303 60.5632 69.2529 60.7269 69.2733 60.8895C69.3176 61.228 69.3697 61.5648 69.4241 61.9017C69.4779 62.2315 69.5407 62.5606 69.5911 62.8913C69.5931 62.9076 69.5962 62.9249 69.5982 62.9411L69.5981 62.9431C69.5981 62.9431 69.598 62.9442 69.5979 62.9452C69.5978 62.9472 69.5986 62.9502 69.5995 62.9533C69.5995 62.9533 69.5995 62.9533 69.5994 62.9543L69.5993 62.9553C69.5992 62.9573 69.599 62.9594 69.6 62.9614C69.6 62.9614 69.6 62.9614 69.6 62.9604C69.6448 63.2787 69.6751 63.5974 69.6986 63.9178C69.7108 64.0861 69.7207 64.2553 69.734 64.4237C69.7462 64.592 69.7618 64.7595 69.7752 64.9278C69.7996 65.2503 69.8162 65.5735 69.8328 65.8966C69.8429 66.0911 69.8519 66.2866 69.8509 66.4816C69.8479 66.7575 69.8262 67.0325 69.8177 67.3081C69.8133 67.4626 69.8087 67.618 69.8021 67.7724C69.7999 67.8279 69.7977 67.8834 69.7944 67.9399C69.5429 68.4528 68.6607 68.3386 68.1552 68.3586C67.7297 68.3497 67.3051 68.3297 66.8801 68.3147C66.6842 68.3084 66.4871 68.3021 66.2913 68.2938C64.7902 68.2301 63.2938 68.0939 61.8205 67.8475C61.4251 67.7529 60.9619 67.7565 60.6335 67.5171C60.2644 67.2164 60.528 66.7323 60.8467 66.478C61.6785 65.7834 62.6955 65.2888 63.736 64.9023C63.6814 64.162 63.6815 63.4171 63.6736 62.6748C63.6742 60.269 63.7023 57.823 64.3649 55.4656C64.4649 55.0432 64.6281 54.6509 64.8657 54.3264C64.9113 54.2838 64.9578 54.2423 65.0055 54.2009C65.1092 54.1527 65.2148 54.1087 65.3214 54.0657C65.4692 54.0073 65.6197 53.957 65.774 53.9151C65.8759 53.8891 65.9797 53.8672 66.0833 53.8493C66.09 53.8486 66.0968 53.8469 66.1046 53.8462C66.144 53.8398 66.1844 53.8334 66.2249 53.827C66.3864 53.8056 66.5471 53.7942 66.7106 53.79C66.8039 53.7889 66.8972 53.7888 66.9911 53.7938C67.1039 53.7986 67.2163 53.8094 67.3286 53.8213C67.7457 53.8662 68.1584 53.9383 68.5654 54.0263C68.6123 54.0364 68.6582 54.0464 68.705 54.0575C69.069 54.1427 69.426 54.2458 69.7732 54.3737C70.1732 54.5231 70.5621 54.6993 70.9413 54.8872C71.0032 54.9181 71.0662 54.9491 71.1281 54.981C71.1281 54.981 71.1281 54.981 71.1292 54.9811C71.1335 54.9833 71.1377 54.9855 71.142 54.9877C71.1494 54.9921 71.1569 54.9954 71.1643 54.9998C71.1579 54.9965 71.1515 54.9932 71.1463 54.9899C71.3307 55.0857 71.5126 55.1854 71.6907 55.291C71.8752 55.3999 72.0549 55.5136 72.2334 55.6283C72.5946 55.861 72.9606 56.0878 73.3156 56.3292C73.3272 56.3368 73.3387 56.3454 73.3503 56.3529C73.3566 56.3573 73.3619 56.3615 73.3683 56.3648C73.3683 56.3648 73.3694 56.3649 73.3704 56.3659C73.4567 56.4252 73.5407 56.4864 73.6257 56.5476C73.6656 56.5766 73.7044 56.6045 73.7444 56.6325C73.7833 56.6604 73.8222 56.6873 73.866 56.7084C73.8886 56.7184 73.9136 56.7245 73.9379 56.7256C74.0132 56.7288 74.0905 56.6906 74.1256 56.6264C74.1709 56.5444 74.1397 56.4481 74.0591 56.4012C74.0371 56.3841 74.0153 56.365 73.9946 56.3459C73.9946 56.3459 73.9884 56.3406 73.9853 56.3374C73.9791 56.3321 73.9739 56.3268 73.9677 56.3215C73.6507 56.0351 73.2905 55.7904 72.9384 55.541C72.5885 55.2926 72.2437 55.0354 71.874 54.8115C71.5054 54.5887 71.1206 54.3884 70.7292 54.201C70.3549 54.0223 69.9702 53.8615 69.5708 53.7334C69.1909 53.6111 68.8001 53.5147 68.4074 53.4283C68.2023 53.3832 67.9959 53.3401 67.7866 53.307C67.5552 53.2709 67.3211 53.2417 67.0873 53.2227C66.9274 53.2099 66.7655 53.2081 66.6044 53.2103C66.4121 53.2143 66.22 53.2294 66.0291 53.2567C66.0145 53.2591 66 53.2605 65.9865 53.263C65.9865 53.263 65.9854 53.2629 65.9843 53.2629C65.9809 53.2628 65.9764 53.2636 65.973 53.2644C65.8843 53.2779 65.7944 53.2923 65.7063 53.3108C65.6578 53.3208 65.6103 53.332 65.5627 53.3441C65.5094 53.3307 65.456 53.3183 65.4026 53.306C65.2992 53.2804 65.1954 53.2598 65.0891 53.2421C65.0661 53.2381 65.0419 53.2351 65.0179 53.231C64.9967 53.218 64.9754 53.207 64.9528 53.1979C64.9344 53.1911 64.9172 53.1843 64.8989 53.1775C64.8645 53.1639 64.83 53.1503 64.7956 53.1367C64.7246 53.1084 64.6537 53.0781 64.5839 53.0479C64.4734 52.9997 64.363 52.9506 64.2563 52.8965C64.1711 52.8504 64.0885 52.8004 64.0084 52.7475C63.9243 52.6883 63.8438 52.6253 63.7681 52.5574C63.6781 52.4747 63.5952 52.3863 63.5159 52.294C63.3527 52.0991 63.214 51.888 63.0775 51.677C62.9156 51.4225 62.7733 51.1597 62.6299 50.8959C62.5262 50.7055 62.4248 50.5142 62.3326 50.3182C62.2031 50.0337 62.0952 49.7411 62.0021 49.445C61.9906 49.4081 61.9791 49.3712 61.9687 49.3344C61.9689 49.3324 61.9679 49.3303 61.967 49.3283C61.9276 49.1942 61.8893 49.0612 61.8545 48.9262C61.8547 48.8959 61.8515 48.8655 61.845 48.8359C61.8304 48.7675 61.8192 48.6983 61.8047 48.629C61.7894 48.5566 61.7762 48.4842 61.7643 48.4109C61.7453 48.2717 61.7341 48.1327 61.733 47.9921C61.7344 47.9053 61.7411 47.8196 61.7491 47.733C61.3881 47.4418 61.0564 47.1033 60.8297 46.7136C60.8113 46.6936 60.793 46.6726 60.7758 46.6516C60.5553 46.3663 60.3435 45.9712 60.531 45.6213L60.5339 45.6265Z" fill="#0268C0"/>
<path d="M65.5865 43.4274C68.9127 43.5814 71.7843 41.2873 72.0003 38.3033C72.2164 35.3193 69.6951 32.7753 66.3689 32.6213C63.0427 32.4672 60.1712 34.7613 59.9551 37.7453C59.7391 40.7294 62.2603 43.2733 65.5865 43.4274Z" fill="#299CE6"/>
<path d="M61.2246 47.753L79.193 42.0718C80.6276 41.6182 81.3881 40.2321 80.8915 38.9759L77.6232 30.7088C77.1266 29.4526 75.561 28.8019 74.1263 29.2555L56.1579 34.9367C54.7233 35.3903 53.9628 36.7764 54.4595 38.0326L57.7277 46.2998C58.2243 47.556 59.7899 48.2066 61.2246 47.753Z" fill="#299CE6"/>
<path d="M61.3339 40.6884L74.1076 36.6496C75.1655 36.3151 75.7262 35.293 75.36 34.3667L72.9949 28.384C72.6287 27.4577 71.4743 26.9779 70.4165 27.3124L57.6427 31.3513C56.5848 31.6857 56.0241 32.7078 56.3903 33.6341L58.7554 39.6168C59.1216 40.5431 60.276 41.0229 61.3339 40.6884Z" fill="#299CE6"/>
<path d="M66.9971 42.8528C70.1516 42.9989 72.875 40.8232 73.0799 37.9932C73.2848 35.1632 70.8936 32.7505 67.7391 32.6044C64.5846 32.4583 61.8612 34.634 61.6563 37.464C61.4514 40.2941 63.8426 42.7067 66.9971 42.8528Z" fill="white"/>
<path d="M67.0957 41.5058C69.421 41.6135 71.4285 40.0097 71.5795 37.9236C71.7306 35.8375 69.968 34.0591 67.6427 33.9514C65.3174 33.8437 63.3099 35.4475 63.1589 37.5336C63.0078 39.6196 64.7704 41.3981 67.0957 41.5058Z" fill="#299CE6"/>
</svg>
