<svg width="151" height="63" viewBox="0 0 151 63" fill="none" xmlns="http://www.w3.org/2000/svg">
<path d="M76.0864 54.507C76.0424 53.9094 76.0895 53.2955 75.9358 52.7122C75.2254 50.9093 73.0471 53.8166 72.4608 54.5233C72.4085 54.612 72.3234 54.714 72.2445 54.82C71.7351 54.3948 71.2358 53.9553 70.7182 53.5382C69.3118 52.4726 67.9464 51.3519 66.5267 50.3036C65.8153 49.8019 65.1019 49.3012 64.4079 48.775C63.8851 48.3599 63.2588 48.0091 62.9144 47.4197C62.7442 47.0261 62.778 46.5835 62.7463 46.1644C62.7319 45.8789 62.7053 45.5944 62.6837 45.3099C62.6766 45.2038 62.6714 45.0978 62.6643 44.9917C62.7842 44.9642 62.9041 44.9193 62.9974 44.8857C63.4689 44.7184 63.921 44.5043 64.3669 44.2789C68.2734 42.4128 69.6173 38.2583 69.1765 34.1916C69.158 33.9784 69.1375 33.7653 69.1119 33.5532C69.2103 33.4278 69.2892 33.2769 69.3364 33.1657C69.4727 32.8934 69.4246 32.5844 69.485 32.2959C69.6316 31.8094 69.9022 31.0762 69.2769 30.8121C69.0484 30.7112 68.7962 30.7428 68.5553 30.7978C68.4999 30.7978 68.4446 30.8019 68.3892 30.8019C68.296 30.8029 68.2017 30.7978 68.1104 30.7825C67.9946 30.7632 67.8829 30.7305 67.7732 30.6877C67.6912 30.6561 67.6133 30.6143 67.5323 30.5796C67.5118 30.5715 67.4923 30.5633 67.4718 30.5562C67.437 30.5449 67.4021 30.5358 67.3662 30.5276C67.3262 30.5205 67.2863 30.5154 67.2453 30.5113C67.194 30.5093 67.1428 30.5093 67.0915 30.5113C67.03 30.5164 66.9685 30.5246 66.907 30.5358C66.8383 30.5511 66.7717 30.5684 66.704 30.5898C66.6538 30.6092 66.6046 30.6306 66.5554 30.653C66.2335 30.8213 65.9383 31.0416 65.5918 31.1599C65.5088 31.1874 65.4227 31.2006 65.3397 31.2261C65.3089 31.2374 65.2792 31.2506 65.2495 31.2639C65.2074 31.2863 65.1664 31.3108 65.1265 31.3363C65.108 31.3485 65.0906 31.3618 65.0732 31.375C65.0588 31.3883 65.0455 31.4026 65.0322 31.4168C65.0127 31.4393 64.9942 31.4627 64.9768 31.4872C64.9604 31.5137 64.944 31.5402 64.9296 31.5678C64.9163 31.5963 64.904 31.6238 64.8938 31.6534C64.8835 31.685 64.8753 31.7166 64.8671 31.7482C64.8671 31.7544 64.8651 31.7595 64.864 31.7656C64.6078 31.632 64.3392 31.5239 64.0532 31.4841C62.8067 31.3607 62.8313 32.6803 64.2131 32.8333C64.6549 32.9016 64.9573 33.0576 65.2249 33.2575C65.2577 33.334 65.2905 33.4115 65.3222 33.489C65.4002 33.5736 65.4483 33.6797 65.4668 33.7949C65.4781 33.8652 65.4832 33.9356 65.4904 34.007C65.4996 34.109 65.5068 34.2109 65.5119 34.3129C65.5211 34.4842 65.5252 34.6566 65.5252 34.8279C65.5242 35.1777 65.4965 35.5264 65.4586 35.8731C65.4248 36.1791 65.3776 36.484 65.3161 36.7858C65.2433 37.1356 65.1593 37.4823 65.0619 37.8259C65.0096 38.0105 64.9501 38.1941 64.8733 38.3705C64.8025 38.5347 64.7216 38.6948 64.6344 38.8508C64.536 39.0262 64.4233 39.1934 64.2931 39.3464C64.1701 39.4912 64.0389 39.6278 63.9036 39.7614C63.6411 40.0225 63.3572 40.2591 63.0538 40.4712C63.0036 40.5069 62.9523 40.5415 62.901 40.5752C62.9133 40.567 62.9256 40.5589 62.9369 40.5507C62.9236 40.5599 62.9103 40.5691 62.8969 40.5772C62.8969 40.5772 62.8969 40.5772 62.8959 40.5772C62.8959 40.5772 62.8949 40.5772 62.8939 40.5782H62.8959V40.5772C62.8939 40.5793 62.8908 40.5803 62.8887 40.5823C62.817 40.6303 62.7452 40.6761 62.6704 40.719C62.5823 40.7689 62.491 40.8138 62.3988 40.8566C62.2214 40.9413 62.042 41.0137 61.8555 41.0759C61.6863 41.132 61.5131 41.1799 61.3409 41.2258C61.1646 41.2727 60.9872 41.3196 60.8089 41.3624C60.444 41.4491 60.0708 41.495 59.6987 41.5378C59.3246 41.5796 58.9504 41.6225 58.5743 41.6418C58.3908 41.651 58.2073 41.6541 58.0238 41.652C57.9254 41.652 57.826 41.652 57.7275 41.6551C57.6435 41.6561 57.5605 41.6582 57.4764 41.6582C57.4723 41.6582 57.4692 41.6582 57.4651 41.6582C57.3175 41.6582 57.1709 41.6459 57.0244 41.6337C56.9864 41.6306 56.9485 41.6276 56.9106 41.6245C56.8296 41.6378 56.7486 41.6469 56.6656 41.6469C56.6605 41.6469 56.6553 41.6469 56.6512 41.6469C56.6082 41.6469 56.5651 41.6439 56.5221 41.6398C56.1971 41.5643 55.8794 41.4562 55.5718 41.3043C54.5468 40.77 53.7411 39.6717 53.1066 38.7284C52.5233 37.8056 52.4413 36.6787 52.4679 35.6151C52.4659 35.0747 52.4987 34.5332 52.5807 33.9978C52.799 33.7031 53.0809 33.4553 53.3095 33.1688C53.4746 32.9526 53.6529 32.7374 53.7964 32.5049C54.0947 32.1256 54.2034 31.3638 53.5986 31.2557C53.1014 31.2455 52.6617 31.7238 52.3562 32.1959C52.3275 31.9808 52.2476 31.7778 52.0784 31.6279C51.8765 31.3771 51.3619 31.3822 51.0452 31.5412C51.0021 31.5382 50.9591 31.531 50.917 31.5259C50.8719 31.5198 50.8268 31.5157 50.7817 31.5127C50.6823 31.5066 50.5829 31.5066 50.4824 31.5127C50.3973 31.5198 50.3133 31.5321 50.2292 31.5474C50.098 31.5759 49.9699 31.6157 49.8438 31.6585C49.7833 31.6799 49.7228 31.7024 49.6634 31.7268C49.5691 31.7768 49.4727 31.8207 49.3733 31.8594C49.3528 31.8676 49.3313 31.8757 49.3107 31.8839C49.3046 31.888 49.2995 31.892 49.2933 31.8971C49.2533 31.9338 49.2011 31.9532 49.1498 31.9532C49.1426 31.9532 49.1365 31.9532 49.1303 31.9532C49.0965 31.9655 49.0637 31.9767 49.0299 31.9879C48.913 32.0266 48.7931 32.0572 48.6752 32.096C48.6496 32.1052 48.625 32.1154 48.6004 32.1276C48.5696 32.1439 48.5389 32.1623 48.5092 32.1806C48.463 32.2133 48.4179 32.2489 48.3749 32.2857C48.3226 32.3326 48.2724 32.3815 48.2242 32.4335C48.1863 32.4784 48.1504 32.5253 48.1166 32.5732C48.0889 32.6161 48.0632 32.6589 48.0397 32.7038C48.011 32.7639 47.9853 32.8241 47.9628 32.8863C47.9464 32.9363 47.932 32.9872 47.9208 33.0393C47.9085 33.1066 47.9003 33.1749 47.8941 33.2432C47.8869 33.3686 47.889 33.493 47.8962 33.6185C47.9064 33.7521 47.9218 33.8846 47.9464 34.0162C47.9659 34.1059 47.9905 34.1936 48.0202 34.2803C48.0653 34.4047 48.1196 34.526 48.1729 34.6474C48.2303 34.7769 48.2877 34.9064 48.3431 35.0369C48.4107 35.194 48.4784 35.351 48.5348 35.5132C48.5871 35.6671 48.624 35.8262 48.6496 35.9863C48.6629 36.0689 48.6721 36.1525 48.6793 36.2362C48.7008 36.2984 48.7172 36.3616 48.7285 36.4279C48.7336 36.4513 48.7377 36.4738 48.7418 36.4972C48.7459 36.5247 48.748 36.5523 48.75 36.5798C48.7531 36.6043 48.7562 36.6277 48.7593 36.6522C48.7654 36.7022 48.7685 36.7522 48.7716 36.8021C48.7757 36.8653 48.7685 36.9296 48.7705 36.9928C48.7931 37.2936 48.8341 37.5924 48.8853 37.8902C48.9315 38.1563 48.9745 38.4245 49.0278 38.6897C49.0719 38.9018 49.1273 39.1118 49.197 39.3168C49.28 39.5483 49.3784 39.7757 49.4891 39.996C49.4942 40.0051 49.4983 40.0143 49.5035 40.0235C49.6367 40.3661 49.7854 40.7016 49.9606 41.0249C50.7233 42.3271 51.8949 43.5141 53.2121 44.4043C53.3464 44.5073 53.4817 44.6073 53.6181 44.7052C53.6908 44.7572 53.7636 44.8092 53.8374 44.8591C53.9932 44.9621 54.1531 45.057 54.3192 45.1416C54.4063 45.1844 54.4935 45.2242 54.5827 45.263C54.6298 45.2834 54.677 45.3038 54.7241 45.3221C54.7405 45.3282 54.7569 45.3354 54.7733 45.3415C54.9035 45.8167 54.9507 46.3184 55.0029 46.8089C54.9701 46.8018 54.9394 46.7946 54.9117 46.7875C54.2536 46.6202 53.5894 46.4836 52.9313 46.3133C51.9042 46.0635 50.876 45.8177 49.8479 45.5689C49.1877 45.4261 48.4733 45.2232 47.8193 45.4934C46.458 46.1124 46.2745 47.9735 46.5195 49.2767C46.7409 50.3393 47.2104 51.3294 47.6727 52.3053C48.4928 54.0868 49.5147 55.7602 50.6679 57.347C50.8391 57.5662 50.9488 57.8222 50.8617 58.1006C50.7684 58.5125 50.6454 58.9174 50.508 59.3171C50.2056 60.1849 49.8633 61.0425 49.6316 61.9328C49.5568 62.2785 49.3518 62.8373 49.8161 62.9882C49.8438 62.9933 49.8735 62.9954 49.9032 62.9954H49.9043C50.6597 62.9954 51.9718 61.5106 52.5243 61.0364C53.5361 60.0799 54.5857 59.1591 55.5073 58.1128C55.9224 57.6335 56.397 57.1838 56.6994 56.6219C57.0244 55.9265 56.5641 55.1963 56.1746 54.6293C55.6313 53.8421 55.046 53.0844 54.514 52.29C54.5406 52.29 54.5673 52.29 54.5939 52.29C54.4771 52.1167 54.3623 51.9423 54.2444 51.77C54.0527 51.4906 53.8446 51.2224 53.6539 50.943C53.4664 50.6676 53.3003 50.378 53.1342 50.0894C53.0512 49.9436 52.9713 49.7947 52.878 49.656C52.8462 49.6112 52.8093 49.5673 52.7857 49.5174C52.7437 49.4286 52.7939 49.3185 52.8821 49.2818C52.9672 49.2461 53.0594 49.2818 53.1066 49.3552C53.1066 49.3562 53.1086 49.3583 53.1096 49.3593C53.1496 49.4133 53.1957 49.4643 53.2378 49.5163C53.29 49.5806 53.3413 49.6458 53.3905 49.7121C53.4879 49.8447 53.5822 49.9803 53.6806 50.1129C53.7749 50.2404 53.8723 50.3668 53.9656 50.4953C54.0691 50.636 54.1737 50.7767 54.2792 50.9154C54.3807 51.048 54.4822 51.1806 54.5868 51.3111C54.6923 51.4426 54.801 51.5711 54.9045 51.7047C55.046 51.8872 55.1823 52.0739 55.3166 52.2615C55.3597 52.2595 55.3986 52.2595 55.4335 52.2615C55.7933 52.2442 56.152 52.2197 56.5108 52.1922C57.543 52.1197 58.5784 52.0198 59.6137 52.0892C59.6547 52.0912 59.6967 52.0973 59.7387 52.1034C59.8976 52.2544 60.1129 52.3941 60.2349 52.5225C62.8293 54.8088 65.5078 56.9931 68.2027 59.1591C69.2052 60.0167 70.261 60.8141 71.364 61.5402C71.9114 61.893 72.47 62.2877 73.123 62.411C73.9287 62.5824 74.7672 62.15 75.2469 61.5137C75.9624 60.5327 75.9973 59.2723 76.0485 58.1067C76.1008 56.9075 76.1582 55.7072 76.0803 54.508L76.0864 54.507ZM69.0719 31.4801C69.0709 31.4892 69.0699 31.4994 69.0678 31.5086C69.0566 31.4627 69.0453 31.4168 69.032 31.3709C69.0648 31.3913 69.0812 31.425 69.0719 31.4801Z" fill="#0268C0"/>
<path d="M53.1188 49.3661C53.1188 49.3661 53.1174 49.3634 53.1161 49.362C53.1161 49.362 53.1161 49.3607 53.1147 49.3594C53.1161 49.362 53.1174 49.3634 53.1188 49.3661Z" fill="#299CE6"/>
<path d="M55.5913 38.2562C55.6446 38.4407 55.7194 38.6192 55.8076 38.7905C55.9008 38.971 56.0136 39.1454 56.1428 39.3024C56.2668 39.4544 56.4031 39.5981 56.5548 39.7236C56.7137 39.8541 56.8808 39.9734 57.0622 40.0703C57.2334 40.1621 57.4118 40.2396 57.5973 40.2997C57.7962 40.364 58.0032 40.4078 58.2103 40.4292C58.3231 40.4415 58.4369 40.4476 58.5506 40.4476C58.6326 40.4476 58.7146 40.4445 58.7967 40.4364C59.0088 40.416 59.221 40.3813 59.425 40.3181C59.6116 40.261 59.7961 40.1906 59.9683 40.0978C60.0606 40.0478 60.1528 39.9969 60.241 39.9377C60.3312 39.8765 60.4193 39.8123 60.5044 39.7429C60.6592 39.6175 60.7986 39.4737 60.9257 39.3218C61.1881 39.0077 61.3798 38.6365 61.4967 38.246C61.6145 37.8523 61.6463 37.4373 61.6002 37.0294C61.5561 36.6276 61.4239 36.2381 61.2271 35.8852C61.1256 35.7037 61.0046 35.5293 60.8663 35.3733C60.7996 35.2979 60.7299 35.2255 60.6571 35.1571C60.5905 35.0929 60.5188 35.0348 60.447 34.9766C60.3496 34.9012 60.2492 34.8308 60.1436 34.7666C59.8463 34.5871 59.5224 34.4607 59.1831 34.3872C59.1749 34.3852 59.1677 34.3831 59.1595 34.3811C59.1318 34.376 59.1052 34.3699 59.0775 34.3658C59.0703 34.3648 59.0632 34.3638 59.055 34.3628C59.0468 34.3617 59.0396 34.3607 59.0314 34.3597C58.9104 34.3444 58.7905 34.3281 58.6685 34.323C58.567 34.3179 58.4645 34.3209 58.363 34.325C58.1642 34.3342 57.9653 34.3679 57.7726 34.4178C57.5727 34.4688 57.3739 34.5381 57.1893 34.6309C57.0909 34.6809 56.9936 34.7339 56.8993 34.7921C56.808 34.8482 56.7219 34.9114 56.6368 34.9766C56.561 35.0348 56.4892 35.099 56.4195 35.1633C56.3467 35.2316 56.275 35.304 56.2104 35.3805C56.072 35.5446 55.9459 35.717 55.8434 35.9046C55.7491 36.0759 55.6692 36.2574 55.6097 36.4441C55.4877 36.8285 55.4344 37.2384 55.4724 37.6412C55.4918 37.8513 55.5308 38.0553 55.5892 38.2572L55.5913 38.2562Z" fill="#299CE6"/>
<path d="M80.648 19.3578C78.7086 19.0937 76.8921 18.5012 75.2469 17.5956C73.2737 16.5106 72.0067 15.2217 70.8883 14.0857C69.566 12.7416 68.4241 11.5812 66.4877 11.1111C65.9373 10.9775 65.3817 10.9122 64.7913 10.9122C63.7221 10.9122 62.5689 11.1345 61.3645 11.573L60.8232 11.7698L65.1142 1.16649L65.2085 1.12468C66.499 0.547507 67.7506 0.255859 68.9305 0.255859C69.2534 0.255859 69.5783 0.278294 69.894 0.322143C72.1348 0.632146 73.49 1.93334 75.0583 3.43951C76.2597 4.59387 77.622 5.90118 79.6496 7.02596C81.223 7.89887 82.9452 8.52193 84.7677 8.87782L85.0722 8.93697L80.8448 19.3843L80.647 19.3578H80.648Z" fill="#0268C0"/>
<path d="M68.9315 0.50996C69.2769 0.50996 69.5865 0.535454 69.8602 0.573184C73.696 1.10447 74.8246 4.63892 79.5265 7.24743C81.5521 8.37119 83.4351 8.87597 84.7205 9.12683C83.3746 12.4522 82.0287 15.7776 80.6838 19.103C79.4384 18.9337 77.4692 18.5248 75.3719 17.3705C71.1087 15.025 70.2333 11.7547 66.5502 10.8614C66.0838 10.7482 65.4996 10.6554 64.7933 10.6554C63.8451 10.6554 62.6776 10.8227 61.2783 11.3315C62.6243 8.00612 63.9702 4.68073 65.315 1.35533C66.7829 0.699633 67.9905 0.507921 68.9315 0.507921M68.9315 -0.00195312C67.7158 -0.00195312 66.4283 0.297853 65.1049 0.889306L64.9163 0.973945L64.8394 1.16464L60.8027 11.1408L60.3722 12.2034L61.4536 11.8098C62.6294 11.3815 63.7529 11.1643 64.7923 11.1643C65.3622 11.1643 65.8973 11.2265 66.4272 11.356C68.2918 11.8088 69.4102 12.9448 70.7048 14.2613C71.8355 15.4105 73.1168 16.7127 75.1229 17.8161C76.7947 18.7359 78.6419 19.3386 80.6131 19.6068L81.0088 19.6608L81.1584 19.2917L83.2649 14.0869L85.1951 9.31548L85.4268 8.7434L84.8189 8.62511C83.023 8.27432 81.3265 7.66043 79.7767 6.80078C77.7788 5.69232 76.4288 4.39622 75.2387 3.25308C73.6375 1.7153 72.2547 0.38759 69.9319 0.06637C69.6039 0.0204813 69.2677 -0.00195312 68.9325 -0.00195312H68.9315Z" fill="white"/>
<path d="M77.4805 11.514C76.7455 13.7095 74.4883 14.667 72.2639 13.4138C69.7607 12.0045 68.5101 8.55568 69.691 6.04302C70.794 3.69658 73.4684 3.43961 75.5124 5.15176C77.3523 6.6926 78.1765 9.43572 77.4815 11.5129L77.4805 11.514Z" fill="white"/>
<path d="M72.8729 6.79205C72.9928 6.50754 73.1711 6.31277 73.4059 6.20773C73.6376 6.10372 73.902 6.08842 74.1952 6.15879C74.4843 6.22813 74.7784 6.38211 75.0788 6.61767C75.3791 6.85323 75.6098 7.10919 75.7789 7.38554C75.946 7.65985 76.0485 7.9413 76.0854 8.23091C76.1223 8.52052 76.0895 8.80605 75.986 9.08852L75.1239 8.45016C75.1915 8.27374 75.1905 8.09936 75.1239 7.92805C75.0562 7.75571 74.9271 7.59765 74.7364 7.45183C74.5355 7.29886 74.3571 7.2234 74.2034 7.22544C74.0476 7.22748 73.9358 7.3111 73.8682 7.47936C73.8108 7.62212 73.8016 7.76387 73.8426 7.90357C73.8836 8.04226 73.981 8.19216 74.1337 8.35226L74.7303 8.96819C75.087 9.33632 75.3125 9.67895 75.4119 10.0032C75.5103 10.3255 75.495 10.6651 75.3638 11.026C75.2531 11.3299 75.088 11.5543 74.8687 11.7001C74.6462 11.8469 74.3848 11.9061 74.0824 11.8755C73.7749 11.8439 73.4428 11.7174 73.0861 11.4951C72.7293 11.2728 72.4485 11.0169 72.2301 10.7171C72.0098 10.4142 71.8724 10.095 71.8201 9.75951C71.7678 9.42402 71.8088 9.09872 71.9411 8.78566L72.9938 9.49438C72.9159 9.68609 72.918 9.87373 72.9979 10.0573C73.0779 10.2398 73.2326 10.4071 73.4623 10.557C73.6919 10.7069 73.901 10.7833 74.0732 10.7752C74.2444 10.767 74.3592 10.6824 74.4207 10.5213C74.5222 10.2531 74.4422 9.98896 74.1788 9.72586L73.5504 9.10178C73.1701 8.72549 72.92 8.34104 72.8062 7.95048C72.6914 7.5589 72.715 7.17139 72.8739 6.79409L72.8729 6.79205ZM72.6473 11.9132L75.0132 5.9375L75.5267 6.3505L73.2388 12.2712L72.6484 11.9132H72.6473Z" fill="#0268C0"/>
<path d="M98.318 19.1024C97.417 17.3423 96.2607 16.0615 94.881 15.2957C93.533 14.5462 92.2507 14.4452 91.1733 14.4452C90.6721 14.4452 90.1616 14.4697 89.6224 14.4952C89.0402 14.5227 88.4385 14.5513 87.7998 14.5513C86.4293 14.5513 85.23 14.4126 84.0276 14.1158C82.204 13.6651 80.4675 12.8687 78.8654 11.749L78.7024 11.6348L82.7534 1.11914L83.0169 1.28128C84.5955 2.25514 86.2827 2.96386 88.0335 3.39012C89.8325 3.82759 91.3568 3.88674 92.6094 3.88674C93.0359 3.88674 93.45 3.87858 93.8508 3.87144C94.2362 3.8643 94.6001 3.85716 94.9609 3.85716C96.8399 3.85716 98.2985 4.06213 99.7675 5.08494C100.978 5.92725 101.948 7.19276 102.65 8.84577L102.69 8.9406L98.5784 19.6143L98.317 19.1034L98.318 19.1024Z" fill="#0268C0"/>
<path d="M82.8826 1.49799C83.9958 2.18428 85.7199 3.08982 87.973 3.63844C89.7156 4.06266 91.2379 4.1422 92.6104 4.1422C93.4438 4.1422 94.2228 4.11263 94.9619 4.11263C96.6584 4.11263 98.1478 4.26865 99.6218 5.29349C100.464 5.87985 101.559 6.92917 102.415 8.94521L98.5466 18.9877C97.3667 16.6841 95.988 15.6184 95.007 15.0739C93.7093 14.3519 92.4772 14.1908 91.1743 14.1908C90.1205 14.1908 89.0206 14.2958 87.8008 14.2958C86.6835 14.2958 85.4647 14.2071 84.0901 13.8675C81.7642 13.2924 80.0421 12.2594 79.014 11.5394C80.3035 8.19162 81.593 4.8448 82.8826 1.49697M82.6263 0.738281L82.4049 1.31444L80.4706 6.33568L78.5363 11.3569L78.3938 11.7281L78.7208 11.9565C80.3486 13.0946 82.1138 13.9032 83.9681 14.3621C85.192 14.665 86.4098 14.8057 87.8018 14.8057C88.4466 14.8057 89.0514 14.7771 89.6367 14.7496C90.1738 14.7241 90.6802 14.7007 91.1753 14.7007C92.2711 14.7007 93.4643 14.7996 94.7579 15.5185C96.0915 16.2599 97.2129 17.505 98.0914 19.2192L98.6142 20.2399L99.0263 19.1702L102.895 9.12774L102.969 8.93603L102.889 8.74636C102.167 7.04848 101.168 5.74524 99.9171 4.8754C98.2288 3.70065 96.4749 3.60173 94.964 3.60173C94.6001 3.60173 94.2351 3.60887 93.8487 3.61601C93.4489 3.62315 93.0368 3.6313 92.6125 3.6313C91.3742 3.6313 89.8694 3.57318 88.0971 3.14183C86.3729 2.72271 84.7102 2.02316 83.1542 1.06358L82.6273 0.738281H82.6263Z" fill="white"/>
<path d="M86.5533 8.14841C85.5897 10.2552 86.5882 12.4844 89.075 13.0728C91.8724 13.7356 95.1495 12.0561 96.0034 9.41596C96.8009 6.95021 95.0173 4.9515 92.348 4.82097C89.9463 4.70472 87.4646 6.15582 86.5533 8.14739V8.14841Z" fill="white"/>
<path d="M92.4177 8.70281C92.0671 8.91186 91.6212 9.02505 91.0851 9.04238L90.1984 9.074C89.8253 9.08827 89.5854 9.22696 89.4768 9.49209C89.4112 9.65117 89.4378 9.7919 89.5577 9.91325C89.6787 10.0366 89.8765 10.1213 90.1543 10.1672C90.4321 10.2131 90.6535 10.1957 90.837 10.1162C91.0205 10.0356 91.1507 9.89897 91.2245 9.70624L92.4802 9.89999C92.3623 10.2192 92.1696 10.4853 91.9021 10.6954C91.6345 10.9055 91.3157 11.0472 90.9467 11.1196C90.5818 11.191 90.1943 11.1879 89.7874 11.1104C89.3732 11.0319 89.0432 10.8993 88.7972 10.7148C88.5542 10.5333 88.4035 10.313 88.341 10.054C88.2795 9.79904 88.3123 9.52268 88.4394 9.22492C88.5901 8.87209 88.8105 8.61205 89.1036 8.44277C89.3968 8.27349 89.7976 8.17356 90.3112 8.14602L91.1692 8.0981C91.3906 8.08484 91.5638 8.04099 91.6889 7.96655C91.8139 7.89211 91.9041 7.78299 91.9605 7.63921C92.0261 7.47095 92.0015 7.33329 91.8887 7.22621C91.777 7.12016 91.5946 7.05591 91.3424 7.03144C91.0902 7.00697 90.9006 7.03756 90.7325 7.1171C90.5654 7.19766 90.4465 7.32411 90.3747 7.4995L89.3066 7.38325C89.4245 7.10588 89.5957 6.8744 89.8212 6.68779C90.0467 6.50117 90.3142 6.36351 90.6248 6.27581C90.9385 6.18709 91.2829 6.15752 91.6632 6.18709C92.0445 6.21666 92.3654 6.30334 92.6247 6.44917C92.8882 6.59703 93.0706 6.7867 93.169 7.02022C93.2695 7.25681 93.2664 7.5199 93.1598 7.80951C93.0173 8.19395 92.7703 8.49274 92.4177 8.70281ZM89.1426 11.5765L91.5177 5.68945L92.1768 5.73432L89.8212 11.7141L89.1436 11.5765H89.1426Z" fill="#0268C0"/>
<path d="M20.9606 57.9214C19.0037 57.8775 17.1309 57.4941 15.3934 56.7813C13.3095 55.9257 11.9031 54.7887 10.6617 53.7863C9.19488 52.6004 7.9279 51.5765 5.95055 51.3287C5.66456 51.293 5.37241 51.2747 5.08232 51.2747C3.76921 51.2747 2.36693 51.6418 0.913386 52.3668L0.398804 52.6238L3.45144 41.6044L3.54063 41.5524C5.03312 40.6703 6.51126 40.2227 7.93507 40.2227C7.99248 40.2227 8.04886 40.2227 8.10421 40.2247C10.3655 40.2798 11.86 41.4188 13.5914 42.7384C14.9168 43.7489 16.4195 44.8951 18.5629 45.7833C20.2266 46.4727 22.0082 46.8979 23.8594 47.0448L24.168 47.0692L21.1604 57.9265L20.9606 57.9224V57.9214Z" fill="#0268C0"/>
<path d="M7.93507 40.4768C7.99042 40.4768 8.04475 40.4768 8.09805 40.4788C11.9697 40.5726 13.495 43.9572 18.4635 46.0181C20.6049 46.9063 22.532 47.1949 23.8379 47.2989C22.8805 50.7548 21.9231 54.2107 20.9657 57.6666C19.709 57.6391 17.706 57.4545 15.4908 56.5459C10.9867 54.6971 9.74431 51.5471 5.98232 51.076C5.71786 51.0424 5.41751 51.0199 5.08232 51.0199C4.006 51.0199 2.57091 51.2555 0.798573 52.1386C1.75598 48.6827 2.71339 45.2267 3.6708 41.7708C5.46364 40.7113 6.91206 40.4768 7.93404 40.4768M7.93404 39.9669C6.4641 39.9669 4.94188 40.4258 3.40941 41.3323L3.23208 41.4374L3.17775 41.6352L1.45461 47.8556L0.305518 52.003L-0.000976562 53.1073L1.02921 52.5934C2.44585 51.8867 3.81021 51.5288 5.08334 51.5288C5.36318 51.5288 5.64405 51.5461 5.91877 51.5808C7.82334 51.8194 9.06366 52.8228 10.5008 53.9833C11.7555 54.9969 13.1772 56.1462 15.2961 57.016C17.0622 57.7411 18.9668 58.1316 20.9554 58.1755L21.3552 58.1847L21.4618 57.8012L21.5828 57.3648L24.334 47.4325L24.4991 46.8379L23.881 46.789C22.0564 46.6432 20.3014 46.2251 18.6624 45.5459C16.5507 44.67 15.0613 43.535 13.7482 42.5336C11.982 41.1875 10.4567 40.024 8.11138 39.9669C8.05398 39.9659 7.99555 39.9648 7.93609 39.9648L7.93404 39.9669Z" fill="white"/>
<path d="M16.9187 50.488C16.439 52.7528 14.3059 53.9582 11.9523 52.9649C9.30457 51.8473 7.66754 48.5617 8.55422 45.9327C9.38247 43.4772 12.0097 42.9194 14.2361 44.3899C16.2401 45.7135 17.3718 48.3455 16.9187 50.4869V50.488Z" fill="white"/>
<path d="M11.8016 46.3177C11.8878 46.0209 12.0436 45.8078 12.265 45.6763C12.4833 45.5468 12.7437 45.5019 13.044 45.5386C13.3392 45.5743 13.6488 45.6936 13.9738 45.8945C14.2977 46.0944 14.557 46.3228 14.7569 46.5787C14.9547 46.8327 15.088 47.1009 15.1587 47.3843C15.2284 47.6678 15.2284 47.9554 15.1587 48.2481L14.23 47.7117C14.2772 47.5292 14.2567 47.3558 14.1706 47.1926C14.0834 47.0295 13.9379 46.8867 13.7308 46.7633C13.5135 46.6348 13.328 46.5787 13.1752 46.5981C13.0204 46.6175 12.919 46.7144 12.8708 46.8877C12.8298 47.0366 12.837 47.1784 12.8944 47.3119C12.9507 47.4455 13.0645 47.5832 13.2347 47.7249L13.8969 48.2695C14.2936 48.5948 14.556 48.9099 14.6923 49.2209C14.8276 49.5299 14.8502 49.8695 14.761 50.2427C14.6852 50.5568 14.5478 50.7985 14.3459 50.9677C14.1419 51.1391 13.8887 51.2278 13.5842 51.2308C13.2747 51.2339 12.9313 51.1462 12.5499 50.9657C12.1758 50.7872 11.8621 50.5619 11.611 50.2896C11.3568 50.0143 11.1846 49.7114 11.0944 49.3851C11.0041 49.0578 11.0072 48.7304 11.1036 48.4041L12.2301 48.9894C12.1748 49.1883 12.1973 49.3749 12.2978 49.5483C12.3972 49.7206 12.5715 49.8685 12.8165 49.9918C13.0615 50.1152 13.2777 50.1672 13.4489 50.1387C13.6181 50.1112 13.7226 50.0143 13.7657 49.847C13.8364 49.5686 13.7267 49.3157 13.4346 49.0843L12.7396 48.5356C12.3183 48.2052 12.0261 47.8504 11.8693 47.4761C11.7114 47.0998 11.6899 46.7123 11.8047 46.3197L11.8016 46.3177ZM12.1625 51.4307L13.8302 45.2266L14.3869 45.5794L12.7898 51.7203L12.1614 51.4307H12.1625Z" fill="#0268C0"/>
<path d="M30.4855 47.4066C28.5461 47.1425 26.7297 46.55 25.0844 45.6445C23.1112 44.5595 21.8442 43.2705 20.7259 42.1345C19.4035 40.7905 18.2616 39.63 16.3253 39.1599C15.7748 39.0263 15.2192 38.961 14.6288 38.961C13.5596 38.961 12.4065 39.1834 11.202 39.6218L10.6608 39.8187L14.9517 29.2153L15.046 29.1735C16.3365 28.5963 17.5892 28.3047 18.768 28.3047C19.0909 28.3047 19.4158 28.3271 19.7316 28.371C21.9723 28.681 23.3275 29.9822 24.8958 31.4883C26.0972 32.6427 27.4595 33.95 29.4871 35.0748C31.0606 35.9477 32.7827 36.5708 34.6052 36.9267L34.9097 36.9858L30.6823 47.4331L30.4845 47.4066H30.4855Z" fill="#0268C0"/>
<path d="M18.769 28.5588C19.1144 28.5588 19.424 28.5843 19.6977 28.622C23.5335 29.1533 24.6621 32.6877 29.3641 35.2963C31.3896 36.42 33.2726 36.9248 34.5581 37.1757C33.2122 40.501 31.8673 43.8264 30.5214 47.1518C29.2759 46.9826 27.3068 46.5736 25.2095 45.4193C20.9462 43.0739 20.0708 39.8035 16.3878 38.9102C15.9214 38.7971 15.3371 38.7043 14.6308 38.7043C13.6826 38.7043 12.5151 38.8715 11.1159 39.3803L15.1526 29.4042C16.6205 28.7485 17.828 28.5567 18.769 28.5567M18.769 28.0469C17.5533 28.0469 16.2658 28.3467 14.9424 28.9381L14.7538 29.0228L14.6769 29.2135L12.6586 34.2021L10.6402 39.1907L10.2097 40.2533L11.2912 39.8596C12.4669 39.4313 13.5904 39.2141 14.6298 39.2141C15.1997 39.2141 15.7348 39.2763 16.2648 39.4058C18.1294 39.8586 19.2477 40.9946 20.5424 42.3111C21.673 43.4604 22.9543 44.7626 24.9604 45.8659C26.6323 46.7858 28.4794 47.3884 30.4506 47.6566L30.8463 47.7107L30.996 47.3415L35.0327 37.3653L35.2643 36.7932L34.6565 36.675C32.8606 36.3242 31.1641 35.7103 29.6142 34.8506C27.6163 33.7422 26.2663 32.4461 25.0762 31.3029C23.4751 29.7651 22.0923 28.4374 19.7695 28.1162C19.4414 28.0703 19.1052 28.0479 18.77 28.0479L18.769 28.0469Z" fill="white"/>
<path d="M27.318 39.5628C26.583 41.7583 24.3258 42.7159 22.1015 41.4626C19.5982 40.0533 18.3477 36.6045 19.5285 34.0919C20.6315 31.7454 23.3059 31.4884 25.3499 33.2006C27.1899 34.7414 28.014 37.4846 27.319 39.5618L27.318 39.5628Z" fill="white"/>
<path d="M22.7104 34.8409C22.8303 34.5564 23.0087 34.3616 23.2434 34.2566C23.4751 34.1525 23.7395 34.1372 24.0327 34.2076C24.3218 34.277 24.616 34.4309 24.9163 34.6665C25.2167 34.9021 25.4473 35.158 25.6164 35.4344C25.7835 35.7087 25.886 35.9901 25.9229 36.2797C25.9598 36.5693 25.927 36.8549 25.8235 37.1373L24.9614 36.499C25.0291 36.3226 25.028 36.1482 24.9614 35.9769C24.8938 35.8045 24.7646 35.6465 24.5739 35.5007C24.373 35.3477 24.1947 35.2722 24.0409 35.2743C23.8851 35.2763 23.7734 35.3599 23.7057 35.5282C23.6483 35.671 23.6391 35.8127 23.6801 35.9524C23.7211 36.0911 23.8185 36.241 23.9712 36.4011L24.5678 37.017C24.9245 37.3851 25.15 37.7278 25.2495 38.0521C25.3479 38.3743 25.3325 38.7139 25.2013 39.0749C25.0906 39.3788 24.9255 39.6031 24.7062 39.7489C24.4837 39.8958 24.2223 39.9549 23.92 39.9243C23.6124 39.8927 23.2803 39.7663 22.9236 39.544C22.5669 39.3216 22.286 39.0657 22.0677 38.7659C21.8473 38.463 21.7099 38.1438 21.6576 37.8083C21.6054 37.4728 21.6464 37.1475 21.7786 36.8345L22.8313 37.5432C22.7534 37.7349 22.7555 37.9226 22.8354 38.1061C22.9154 38.2886 23.0702 38.4559 23.2998 38.6058C23.5345 38.7598 23.7385 38.8322 23.9107 38.824C24.0819 38.8159 24.1967 38.7312 24.2582 38.5701C24.3597 38.3019 24.2798 38.0378 24.0163 37.7747L23.3879 37.1506C23.0076 36.7743 22.7575 36.3899 22.6438 35.9993C22.5289 35.6077 22.5525 35.2202 22.7114 34.8429L22.7104 34.8409ZM22.4849 39.962L24.8507 33.9863L25.3643 34.3993L23.0763 40.32L22.4859 39.962H22.4849Z" fill="#0268C0"/>
<path d="M35.6856 58.5896C35.4488 58.5896 35.21 58.5773 34.9762 58.5539C32.7262 58.3244 31.325 57.0722 29.7023 55.6231C28.4599 54.5126 27.0504 53.2553 24.9839 52.2029C23.3797 51.3871 21.6361 50.8262 19.8022 50.5356L19.4957 50.4866L23.3418 39.8945L23.5406 39.9139C25.4883 40.1087 27.3252 40.6359 29.0011 41.4802C31.0123 42.4939 32.3254 43.7359 33.4837 44.8322C34.8543 46.1282 36.0372 47.2469 37.9889 47.6467C38.4574 47.7425 38.9238 47.7894 39.4158 47.7894C40.5649 47.7894 41.8011 47.5243 43.0917 47.0012L43.6247 46.785L39.7213 57.5351L39.629 57.581C38.2677 58.249 36.9413 58.5875 35.6846 58.5875L35.6856 58.5896Z" fill="#0268C0"/>
<path d="M23.515 40.1695C24.7656 40.295 26.748 40.6325 28.8863 41.7104C33.2326 43.9018 34.2249 47.1375 37.9387 47.8992C38.3436 47.9818 38.8366 48.0471 39.4168 48.0471C40.4132 48.0471 41.6689 47.8564 43.189 47.2405C41.9651 50.6118 40.7402 53.9841 39.5162 57.3554C37.9438 58.1273 36.6594 58.3363 35.6856 58.3363C35.4375 58.3363 35.2099 58.3231 35.0029 58.3017C31.1507 57.9081 29.894 54.4164 25.1008 51.9782C23.0353 50.9279 21.1358 50.4904 19.8422 50.2865C21.0661 46.9152 22.2911 43.5429 23.515 40.1716M23.1685 39.625L23.0332 39.9992L19.3604 50.1141L19.1503 50.6944L19.7622 50.7912C21.5694 51.0768 23.2874 51.6295 24.8681 52.434C26.9049 53.4701 28.301 54.7173 29.5321 55.8165C31.1876 57.2952 32.6176 58.5729 34.9516 58.8105C35.1946 58.835 35.4416 58.8483 35.6866 58.8483C36.9823 58.8483 38.3477 58.5005 39.7438 57.8153L39.9293 57.7245L39.999 57.5318L43.6452 47.4913L43.6718 47.4169L44.0634 46.339L42.9963 46.7714C41.7376 47.2813 40.5331 47.5403 39.4178 47.5403C38.9432 47.5403 38.4942 47.4954 38.0432 47.4026C36.1633 47.0171 35.0039 45.9219 33.6631 44.6534C32.4915 43.5459 31.164 42.2896 29.119 41.2586C27.4143 40.399 25.5467 39.8636 23.5673 39.6658L23.1695 39.626L23.1685 39.625Z" fill="white"/>
<path d="M26.99 47.6401C27.645 45.4191 29.8663 44.382 32.1348 45.5537C34.6872 46.8722 36.0628 50.2741 34.9732 52.8276C33.9563 55.2117 31.2932 55.5646 29.1877 53.9269C27.2934 52.4523 26.3698 49.7408 26.99 47.6401Z" fill="white"/>
<path d="M31.7658 52.1942C31.6561 52.4828 31.4849 52.6847 31.2543 52.7979C31.0257 52.91 30.7633 52.9345 30.467 52.8754C30.1759 52.8162 29.8756 52.6735 29.568 52.4481C29.2616 52.2238 29.0196 51.976 28.8403 51.7057C28.6629 51.4375 28.5512 51.1602 28.503 50.8716C28.4548 50.584 28.4774 50.2975 28.5707 50.0109L29.4553 50.6177C29.3948 50.7961 29.401 50.9705 29.4748 51.1398C29.5486 51.3101 29.6829 51.463 29.8797 51.6017C30.0857 51.7465 30.2661 51.8169 30.4209 51.8097C30.5767 51.8026 30.6854 51.7139 30.7469 51.5446C30.7992 51.3998 30.8032 51.2581 30.7571 51.1204C30.711 50.9827 30.6085 50.8369 30.4506 50.6829L29.8325 50.0884C29.4625 49.7335 29.2247 49.398 29.1139 49.0789C29.0032 48.7607 29.0073 48.4201 29.1252 48.055C29.2247 47.7471 29.3815 47.5166 29.5957 47.3636C29.813 47.2086 30.0724 47.1403 30.3748 47.1607C30.6833 47.1811 31.0195 47.2953 31.3845 47.5054C31.7432 47.7114 32.0385 47.9612 32.2681 48.2529C32.4997 48.5476 32.6484 48.8617 32.7119 49.1951C32.7765 49.5286 32.7478 49.8549 32.6268 50.173L31.5495 49.5031C31.6202 49.3083 31.612 49.1207 31.5259 48.9402C31.4398 48.7607 31.2779 48.5996 31.0431 48.4578C30.8084 48.3161 30.5962 48.2478 30.424 48.262C30.2538 48.2763 30.1411 48.365 30.0857 48.5282C29.9934 48.7994 30.0837 49.0605 30.3563 49.3144L31.0062 49.9151C31.3998 50.2771 31.6633 50.6533 31.7914 51.0388C31.9195 51.4263 31.9113 51.8138 31.7658 52.1972V52.1942ZM31.8058 47.0689L29.6583 53.1262L29.1303 52.7316L31.202 46.7324L31.8058 47.0689Z" fill="#0268C0"/>
<path d="M97.5349 36.9938C97.3094 36.9407 97.0808 37.0254 96.8635 37.0835C95.7379 37.3976 94.637 37.8014 93.5043 38.0879C93.1025 38.2052 93.0174 38.0023 92.9344 37.6576C92.7519 36.8194 92.5838 35.9862 92.4362 35.1378C92.0416 33.4012 91.8232 30.6122 89.6214 30.3205C87.3119 30.0646 84.9912 30.4857 82.7637 31.1353C82.6776 31.1639 82.5905 31.1914 82.5044 31.2189C82.3404 31.2699 82.1774 31.3189 82.0134 31.3709C81.8801 31.4137 81.7468 31.4586 81.6146 31.5034C81.2835 31.6187 80.9617 31.7553 80.6429 31.8981C80.6275 31.9052 80.6111 31.9124 80.5957 31.9195C80.5916 31.9215 80.5865 31.9246 80.5824 31.9266C80.5567 31.9409 80.5291 31.948 80.5004 31.948C80.444 31.948 80.3886 31.9195 80.3579 31.8675C80.3128 31.791 80.3394 31.689 80.4163 31.6452C80.4225 31.6421 80.4276 31.638 80.4327 31.635C80.5024 31.5881 80.5721 31.5401 80.6449 31.4973C80.7187 31.4524 80.7935 31.4096 80.8694 31.3688C81.0355 31.2781 81.2046 31.1914 81.3758 31.1108C81.6874 30.964 82.0082 30.8365 82.3301 30.7121C82.6397 30.5928 82.9513 30.4755 83.2619 30.3583C83.3203 30.3358 83.3798 30.3144 83.4382 30.292C83.5858 30.14 83.7303 29.984 83.8708 29.8249C84.0727 29.5975 84.1568 29.3742 84.5073 29.4915C85.2198 29.6577 85.9045 29.9289 86.6251 30.0615C87.7014 30.3899 88.3226 29.416 88.8321 28.6451C89.5978 27.4622 90.3287 26.2538 91.1026 25.077C91.4593 25.1055 91.8263 25.2157 92.1789 25.0913C92.7284 24.9087 93.0256 24.3397 93.1917 23.8227C93.5535 22.6877 93.1599 21.41 92.3501 20.5595C91.9155 20.122 91.3322 19.8477 90.7469 19.6733C90.2057 19.5041 89.8756 19.6764 89.402 19.9007C89.1673 19.9793 88.9172 19.9915 88.6763 20.0384C88.1781 20.1149 87.8409 20.5544 87.7291 21.0204C87.559 21.6619 87.7619 22.3114 87.9915 22.9172C87.9423 23.0232 87.9003 23.1364 87.8347 23.2251C87.5251 23.7931 87.2412 24.3764 86.9111 24.9332C86.6569 25.3013 86.3412 26.0243 85.9168 26.1732C85.6482 26.2344 85.3674 26.1844 85.0947 26.1783C84.247 26.0998 83.3952 26.0294 82.5577 25.8693C81.2989 25.5777 79.1678 24.7915 78.2688 23.8788C77.6599 22.8957 77.2878 19.3154 77.5554 18.1906C77.7245 18.1254 77.9152 18.16 78.0915 18.1264C78.4 18.0825 78.7096 17.9755 78.9535 17.7776C79.5983 17.2361 79.8515 16.2154 79.2805 15.5342C79.1268 15.2089 79.2252 14.8275 79.1073 14.491C78.8131 13.6415 77.9387 13.1786 77.1371 12.89C76.0834 12.5147 74.7918 12.3301 73.818 13.0011C72.4044 14.0556 72.6935 16.0328 73.697 17.2718C73.7831 17.3942 73.9082 17.5003 73.941 17.6502C73.9625 18.0163 73.8016 18.366 73.7442 18.724C73.5371 19.7274 73.5771 20.7624 73.6939 21.774C73.9461 24.1704 74.5109 25.8092 76.1879 27.5223C76.1797 27.5417 76.1725 27.5621 76.1664 27.5835C76.108 27.7406 75.9409 27.9017 75.8927 28.0659C75.7533 28.2872 75.6088 28.5064 75.4817 28.7358C74.8051 29.8953 74.0343 31.014 73.5402 32.2682C73.1742 33.1697 73.1763 34.1833 73.4971 35.097C73.6355 35.5631 73.8969 35.9995 73.9297 36.491C74.0097 37.3395 73.5955 38.091 73.1168 38.761C72.5192 39.6227 71.8775 40.4527 71.2604 41.3012C70.8863 41.7754 70.5614 42.2975 70.507 42.9124C70.2836 44.2901 70.549 45.7391 71.1948 46.974C71.4819 47.4482 71.9257 48.3996 72.5264 48.468C72.5438 48.468 72.5602 48.469 72.5777 48.469C73.3834 48.469 73.9184 47.6929 74.3715 47.1188C75.0429 46.2092 75.494 45.1538 75.7533 44.0586C75.8558 43.7883 76.0014 43.5365 76.1592 43.2948C76.8563 42.3321 77.6261 41.4235 78.2873 40.4334C78.8869 39.5696 79.2467 38.5835 79.4282 37.5567C79.4282 37.4965 79.4323 37.4363 79.4364 37.3762C79.4446 37.263 79.4538 37.1508 79.462 37.0376C79.4774 36.7939 79.4845 36.5481 79.4702 36.3034C79.4528 36.0688 79.4169 35.8353 79.3707 35.6038C79.2949 35.2398 79.1975 34.8808 79.0868 34.526C79.0304 34.3455 78.972 34.167 78.9095 33.9886C78.807 33.6969 78.6942 33.4073 78.565 33.1259C78.5497 33.0922 78.5343 33.0585 78.5179 33.0259C78.5097 33.0096 78.5015 32.9933 78.4933 32.977C78.4687 32.927 78.4554 32.8719 78.4574 32.8159C78.4605 32.7118 78.5117 32.616 78.603 32.563C78.7065 32.5028 78.8357 32.513 78.931 32.5844C78.9669 32.6109 79.0007 32.6456 79.0222 32.6843C79.0335 32.7037 79.0427 32.7231 79.052 32.7424C79.0622 32.7638 79.0714 32.7853 79.0817 32.8067C79.0991 32.8454 79.1165 32.8842 79.1329 32.9229C79.1616 32.9882 79.1893 33.0535 79.216 33.1187C79.2785 33.2696 79.3369 33.4226 79.3913 33.5756C79.5225 33.9427 79.6383 34.3149 79.7316 34.6932C79.7664 34.836 79.7992 34.9798 79.83 35.1235C79.8372 35.1582 79.8454 35.1939 79.8525 35.2286C79.8566 35.2459 79.8597 35.2643 79.8638 35.2816C79.8638 35.2847 79.8648 35.2877 79.8659 35.2898C79.8659 35.2908 79.8659 35.2918 79.8659 35.2938C79.8679 35.3061 79.871 35.3173 79.873 35.3295C79.9479 35.6926 80.0104 36.0597 80.0032 36.4309C80.0012 36.541 79.9919 36.6501 79.9786 36.7592C80.0391 36.7256 80.0996 36.6929 80.16 36.6603C82.0913 35.6538 84.9861 34.5035 87.1776 34.6524C87.4267 34.7003 87.4155 35.0246 87.4923 35.2174C87.8983 36.6858 88.3503 38.141 88.7562 39.6094C89.0217 40.4711 89.2431 41.3522 89.5999 42.1822C89.8889 42.8349 90.5009 43.4467 91.2441 43.5089C93.368 43.5385 96.5816 39.279 97.7245 37.5974C97.8752 37.3843 97.8076 37.057 97.5339 36.9927L97.5349 36.9938Z" fill="#299CE6"/>
<path d="M80.7792 20.4563C80.6757 20.5746 80.5804 20.699 80.4861 20.8245C80.442 20.8836 80.3969 20.9438 80.3528 21.0029C80.1949 21.3129 80.0863 21.6504 80.0453 21.9951C80.0217 22.1899 80.0135 22.3877 80.0279 22.5835C80.0443 22.7956 80.0812 23.0016 80.1375 23.2066C80.1642 23.3024 80.198 23.3963 80.2349 23.4891C80.2687 23.5737 80.3046 23.6563 80.3466 23.7368C80.442 23.9204 80.5517 24.0989 80.6829 24.26C80.8089 24.415 80.9484 24.5567 81.1011 24.6873C81.178 24.7525 81.2589 24.8157 81.343 24.8708C81.4322 24.93 81.5234 24.9891 81.6187 25.0391C81.8053 25.137 82.0001 25.2206 82.203 25.2787C82.3968 25.3338 82.5946 25.3735 82.7965 25.3919C82.8868 25.4001 82.978 25.4041 83.0682 25.4041C83.3829 25.4041 83.6986 25.3552 83.9969 25.2583C84.3823 25.1329 84.7472 24.9351 85.0527 24.6689C85.3674 24.3946 85.6319 24.0611 85.8102 23.6828L85.8133 23.6757C85.8225 23.6563 85.8318 23.6369 85.841 23.6165C85.9035 23.4809 85.9537 23.3412 85.9947 23.1974C86.1085 22.7966 86.1352 22.3775 86.0809 21.9645C86.0552 21.7687 86.0091 21.5719 85.9425 21.3863C85.8707 21.1865 85.7836 20.9907 85.6708 20.8092C85.6021 20.699 85.5294 20.594 85.4494 20.493C85.4515 20.492 85.4535 20.49 85.4556 20.489C85.4207 20.4451 85.3848 20.4023 85.3479 20.3605C85.2587 20.2616 85.1644 20.1688 85.0732 20.0729C85.066 20.0647 85.0589 20.0576 85.0517 20.0494C85.0466 20.0556 85.0425 20.0617 85.0384 20.0678C84.9789 20.0178 84.9184 19.9699 84.8559 19.925C84.5258 19.6885 84.1517 19.5182 83.756 19.4254C83.6402 19.3988 83.5233 19.3784 83.4054 19.3662C83.3921 19.3632 83.3788 19.3611 83.3644 19.3611C83.3552 19.3611 83.346 19.3611 83.3368 19.3601C83.2732 19.355 83.2096 19.3509 83.1461 19.3489C83.0538 19.3458 82.9616 19.3489 82.8693 19.354C82.8345 19.356 82.7996 19.3591 82.7648 19.3632C82.7166 19.3683 82.6684 19.3734 82.6202 19.3805C82.612 19.3805 82.6038 19.3825 82.5946 19.3835C82.5915 19.3835 82.5874 19.3846 82.5844 19.3856C82.5772 19.3866 82.571 19.3886 82.5639 19.3897C82.5311 19.3948 82.4983 19.4009 82.4655 19.408C82.445 19.4152 82.4245 19.4233 82.4039 19.4305C82.3332 19.457 82.2635 19.4835 82.1938 19.511C82.0595 19.564 81.9273 19.6232 81.794 19.6803C81.7274 19.7088 81.6608 19.7394 81.5952 19.7711C81.5449 19.7965 81.4957 19.821 81.4465 19.8475C81.3533 19.9179 81.2631 19.9923 81.1749 20.0688C81.0365 20.1912 80.9043 20.3187 80.7813 20.4563H80.7792Z" fill="#299CE6"/>
<path d="M21.3592 27.3777C21.5776 27.4552 21.7221 27.652 21.8718 27.8182C22.6416 28.6942 23.3407 29.6313 24.132 30.4869C24.4037 30.804 24.5872 30.6806 24.8455 30.4369C25.4585 29.8343 26.0581 29.2285 26.6475 28.5983C27.933 27.3593 29.6489 25.1434 31.6529 26.0969C33.7277 27.1391 35.4375 28.7554 36.9464 30.5114C37.0027 30.5817 37.0601 30.6521 37.1175 30.7224C37.2262 30.854 37.3369 30.9845 37.4445 31.1171C37.5327 31.2252 37.6198 31.3353 37.7059 31.4454C37.9191 31.7218 38.1139 32.0114 38.3025 32.3051C38.3117 32.3194 38.321 32.3347 38.3302 32.3489C38.3322 32.353 38.3353 32.3581 38.3374 32.3622C38.3507 32.3887 38.3702 32.4091 38.3937 32.4244C38.4409 32.455 38.5034 32.4611 38.5567 32.4346C38.6367 32.3948 38.6705 32.2949 38.6305 32.2164C38.6275 32.2103 38.6244 32.2041 38.6223 32.198C38.5895 32.1205 38.5578 32.043 38.5209 31.9676C38.484 31.8901 38.444 31.8136 38.404 31.7381C38.3148 31.5719 38.2215 31.4067 38.1221 31.2466C37.9417 30.9539 37.7428 30.6725 37.5419 30.3931C37.3482 30.1239 37.1524 29.8567 36.9566 29.5895C36.9197 29.5395 36.8828 29.4886 36.8449 29.4386C36.8049 29.2306 36.769 29.0225 36.7393 28.8125C36.6952 28.5127 36.7485 28.2791 36.3897 28.1863C35.7019 27.9375 34.9793 27.7927 34.3027 27.5113C33.2213 27.2002 33.2367 26.0479 33.2336 25.124C33.2438 23.7168 33.2961 22.3085 33.2951 20.9023C32.9804 20.732 32.6124 20.6239 32.3869 20.3282C32.0271 19.8754 32.0917 19.2381 32.2372 18.7149C32.5581 17.5677 33.5913 16.7121 34.7363 16.4409C35.3401 16.3114 35.9797 16.3991 36.5661 16.5724C37.1124 16.7254 37.2928 17.0497 37.5675 17.4953C37.7203 17.6891 37.9232 17.8349 38.0996 18.0062C38.4747 18.3417 38.5157 18.8934 38.3527 19.3441C38.1426 19.9733 37.6157 20.4067 37.0899 20.7891C37.0735 20.9053 37.0458 21.0226 37.0519 21.1317C36.9986 21.7762 36.9156 22.4186 36.8859 23.0652C36.8961 23.5118 36.7629 24.2889 37.0366 24.6448C37.2283 24.8416 37.4907 24.9537 37.7223 25.0965C38.4747 25.4922 39.2271 25.897 40.0154 26.2192C41.2301 26.6608 43.4453 27.1615 44.701 26.8872C45.7517 26.3957 48.0314 23.6016 48.4261 22.5135C48.3205 22.3666 48.1421 22.2922 48.0129 22.1678C47.7792 21.9628 47.5783 21.7048 47.483 21.4071C47.2411 20.6025 47.5906 19.6103 48.4424 19.3512C48.75 19.1626 48.8771 18.7904 49.161 18.5732C49.8745 18.0225 50.8606 18.1102 51.6909 18.305C52.7795 18.565 53.9624 19.1126 54.4073 20.2048C55.0111 21.8568 53.6826 23.3548 52.1604 23.8453C52.0209 23.9014 51.858 23.9207 51.7483 24.0298C51.5299 24.3246 51.4705 24.7049 51.3229 25.0353C50.9446 25.9878 50.3419 26.8321 49.6879 27.6153C48.1595 29.4835 46.7859 30.5481 44.4396 31.0702C44.4355 31.0906 44.4304 31.112 44.4232 31.1324C44.3852 31.2955 44.4375 31.5219 44.3873 31.6851C44.3822 31.9461 44.3822 32.2082 44.3637 32.4693C44.293 33.8082 44.3227 35.1635 44.047 36.482C43.8584 37.4354 43.2987 38.2829 42.5278 38.8733C42.1557 39.1884 41.6965 39.4107 41.3992 39.8053C40.8652 40.4723 40.7985 41.3268 40.8314 42.1477C40.858 43.194 40.939 44.2382 40.9892 45.2844C41.0425 45.8851 41.0271 46.499 40.735 47.0435C40.1651 48.3182 39.1451 49.3869 37.9263 50.0691C37.4251 50.3098 36.5302 50.8655 35.99 50.5953C35.9756 50.5861 35.9613 50.578 35.9469 50.5688C35.2724 50.1303 35.2509 49.1901 35.1873 48.463C35.1258 47.3362 35.3288 46.2063 35.7132 45.1488C35.7768 44.8663 35.7932 44.5767 35.7932 44.2882C35.7399 43.1032 35.5943 41.9223 35.5851 40.7353C35.5584 39.686 35.7993 38.6642 36.2114 37.7067C36.2442 37.6557 36.2749 37.6037 36.3047 37.5507C36.36 37.4518 36.4133 37.3518 36.4697 37.2539C36.5907 37.0408 36.7198 36.8318 36.8664 36.6349C37.0099 36.4473 37.1678 36.2719 37.3338 36.1037C37.5973 35.8406 37.8761 35.5928 38.1641 35.3562C38.3097 35.2359 38.4583 35.1186 38.608 35.0033C38.855 34.8147 39.1082 34.6342 39.3706 34.469C39.4024 34.4496 39.4332 34.4292 39.466 34.4109C39.4813 34.4017 39.4977 34.3925 39.5131 34.3833C39.5613 34.3548 39.6023 34.316 39.632 34.2681C39.6864 34.1794 39.6966 34.0713 39.6495 33.9775C39.5961 33.8704 39.4813 33.8092 39.3624 33.8164C39.3173 33.8194 39.2702 33.8296 39.2312 33.85C39.2118 33.8602 39.1933 33.8714 39.1738 33.8826C39.1533 33.8949 39.1338 33.9081 39.1133 33.9204C39.0775 33.9428 39.0416 33.9663 39.0067 33.9897C38.9473 34.0285 38.8878 34.0682 38.8294 34.108C38.6941 34.2008 38.5619 34.2967 38.4317 34.3946C38.1201 34.6301 37.8177 34.8789 37.5317 35.1451C37.424 35.245 37.3174 35.348 37.2129 35.451C37.1873 35.4765 37.1616 35.502 37.136 35.5275C37.1227 35.5408 37.1104 35.553 37.097 35.5662C37.095 35.5683 37.0929 35.5703 37.0909 35.5724C37.0909 35.5724 37.0888 35.5744 37.0878 35.5754C37.0796 35.5836 37.0704 35.5928 37.0622 35.6009C36.8008 35.864 36.5456 36.1373 36.3477 36.4524C36.2893 36.5452 36.237 36.6421 36.1878 36.741C36.156 36.6808 36.1232 36.6196 36.0904 36.5595C35.0274 34.6658 33.2367 32.1277 31.3198 31.06C31.085 30.9641 30.9159 31.2425 30.7457 31.3618C29.5987 32.3704 28.4199 33.3422 27.2728 34.3507C26.5768 34.9279 25.9074 35.5448 25.152 36.0455C24.5503 36.4351 23.7025 36.6145 23.0465 36.2607C21.2526 35.1298 20.9041 29.8149 20.8723 27.7856C20.8631 27.5255 21.0999 27.2879 21.3644 27.3828L21.3592 27.3777Z" fill="#299CE6"/>
<path d="M44.4786 22.6534C44.5001 22.8084 44.5114 22.9644 44.5216 23.1205C44.5268 23.1939 44.5309 23.2683 44.535 23.3428C44.497 23.6885 44.4017 24.029 44.2459 24.3411C44.1577 24.5165 44.0573 24.6868 43.9363 24.8428C43.8061 25.0111 43.6616 25.164 43.5017 25.3048C43.4269 25.371 43.3469 25.4312 43.2649 25.4883C43.1911 25.5403 43.1142 25.5903 43.0353 25.6352C42.8539 25.7371 42.6642 25.8269 42.4664 25.8901C42.2747 25.9513 42.081 25.9941 41.8821 26.0206C41.7816 26.0339 41.6791 26.042 41.5787 26.043C41.471 26.043 41.3624 26.0431 41.2558 26.0339C41.0456 26.0145 40.8365 25.9778 40.6346 25.9166C40.4419 25.8575 40.2543 25.783 40.0759 25.6882C39.996 25.6453 39.9181 25.5995 39.8412 25.5505C39.5778 25.3792 39.3399 25.1661 39.1441 24.9234C38.8899 24.6083 38.6941 24.2442 38.5845 23.8547C38.4717 23.4539 38.4338 23.0307 38.4932 22.6167V22.6085C38.4973 22.5871 38.5004 22.5657 38.5035 22.5443C38.526 22.3975 38.5609 22.2516 38.605 22.1099C38.73 21.7122 38.9381 21.3471 39.2108 21.031C39.3399 20.8811 39.4865 20.7414 39.6444 20.6221C39.8145 20.4936 39.995 20.3773 40.1887 20.2866C40.3066 20.2315 40.4255 20.1836 40.5475 20.1428C40.5475 20.1408 40.5454 20.1387 40.5454 20.1357C40.5987 20.1183 40.652 20.102 40.7063 20.0867C40.8345 20.052 40.9657 20.0265 41.0948 19.9949C41.1051 19.9929 41.1153 19.9898 41.1256 19.9878C41.1256 19.9949 41.1266 20.0031 41.1276 20.0102C41.2045 20.001 41.2814 19.9939 41.3583 19.9898C41.7642 19.9705 42.1712 20.0316 42.5535 20.1703C42.6652 20.2111 42.7739 20.258 42.8795 20.311C42.8928 20.3161 42.9051 20.3212 42.9164 20.3284C42.9246 20.3335 42.9318 20.3376 42.94 20.3427C42.9963 20.3722 43.0517 20.4038 43.106 20.4375C43.185 20.4854 43.2608 20.5374 43.3346 20.5915C43.3623 20.6119 43.39 20.6343 43.4176 20.6557C43.4556 20.6863 43.4925 20.7169 43.5283 20.7485C43.5355 20.7536 43.5417 20.7587 43.5478 20.7648C43.5509 20.7669 43.5529 20.7699 43.556 20.772C43.5612 20.7771 43.5663 20.7812 43.5704 20.7863C43.595 20.8087 43.6186 20.8311 43.6421 20.8546C43.6555 20.8719 43.6678 20.8892 43.6811 20.9066C43.7252 20.9667 43.7692 21.0279 43.8133 21.0891C43.8963 21.2074 43.9753 21.3288 44.0552 21.4481C44.0952 21.5082 44.1342 21.5704 44.1711 21.6326C44.1987 21.6806 44.2264 21.7285 44.2541 21.7774C44.293 21.8876 44.3279 21.9987 44.3597 22.1109C44.4089 22.2883 44.4489 22.4678 44.4765 22.6493L44.4786 22.6534Z" fill="#299CE6"/>
<path d="M132.411 25.1501C132.429 25.3255 132.426 25.5029 132.415 25.6783C132.404 25.8548 132.384 26.0301 132.357 26.2055C132.345 26.2861 132.332 26.3667 132.317 26.4472C132.31 26.489 132.302 26.5298 132.295 26.5716C132.285 26.6226 132.277 26.6777 132.263 26.7287L132.26 26.7429C132.244 26.8235 132.226 26.903 132.208 26.9826C132.164 27.1723 132.12 27.363 132.07 27.5516C132.049 27.6322 132.027 27.7137 132.004 27.7943C132.003 27.7994 132.001 27.8045 132 27.8096C132.039 27.8198 132.078 27.83 132.116 27.8402C132.17 27.8535 132.222 27.8677 132.274 27.884C132.323 27.8973 132.372 27.9116 132.42 27.9248C132.611 27.9779 132.8 28.0319 132.991 28.0849C133.386 28.1941 133.779 28.3062 134.173 28.4174C134.522 28.5173 134.874 28.607 135.229 28.6907C135.254 28.6968 135.281 28.7029 135.306 28.709C135.489 28.4306 135.637 28.1308 135.773 27.828C136.264 26.7766 136.63 24.9798 135.424 24.2792C135.064 24.0702 134.638 23.9366 134.219 24.011C133.183 24.1844 132.889 25.0726 132.411 25.1521V25.1501Z" fill="#299CE6"/>
<path d="M132.85 16.4935C132.656 16.5404 132.461 16.5843 132.266 16.6332C131.871 16.7332 131.477 16.8372 131.082 16.9392C130.674 17.0442 130.267 17.1492 129.858 17.2502C129.454 17.3491 129.049 17.445 128.645 17.5398C128.244 17.6336 127.84 17.7203 127.438 17.81C127.269 17.8478 127.099 17.8855 126.929 17.9202C126.77 17.9528 126.611 17.9905 126.453 18.0293C126.461 18.0558 126.468 18.0823 126.476 18.1088C126.498 18.1935 126.518 18.2781 126.538 18.3627C126.575 18.5218 126.612 18.6819 126.645 18.842C126.676 18.998 126.714 19.153 126.763 19.305C126.766 19.3152 126.77 19.3264 126.773 19.3366C126.811 19.4406 126.853 19.5416 126.9 19.6415C126.911 19.6649 126.922 19.6884 126.934 19.7119C127.06 19.9556 127.208 20.1881 127.362 20.4155C127.369 20.4257 127.376 20.4349 127.383 20.4451C127.407 20.4318 127.429 20.4175 127.448 20.4012C127.492 20.442 127.539 20.4807 127.586 20.5175C128.039 20.8958 128.614 21.0691 129.19 21.1548C130.469 21.3608 131.809 20.8876 132.522 19.8026C132.738 19.5548 132.919 19.2795 133.063 18.9838C133.271 18.5555 133.394 18.0772 133.414 17.601C133.424 17.3634 133.418 17.1217 133.38 16.8861C133.354 16.7189 133.318 16.5537 133.271 16.3926C133.13 16.4272 132.989 16.4609 132.848 16.4956L132.85 16.4935Z" fill="#299CE6"/>
<path d="M126.948 19.7378C126.948 19.7378 126.943 19.7281 126.941 19.7227C126.941 19.7237 126.941 19.7248 126.942 19.7259C126.944 19.7302 126.946 19.7335 126.947 19.7378H126.948Z" fill="#299CE6"/>
<path d="M150.299 32.5992C150.295 32.4779 150.269 32.3606 150.222 32.2495C150.198 32.1924 150.167 32.1312 150.127 32.0832C150.091 32.0404 150.053 32.0006 150.008 31.969C149.971 31.9425 149.934 31.9231 149.893 31.9028C149.787 31.8507 149.667 31.8202 149.548 31.8171C149.416 31.813 149.285 31.8416 149.161 31.8834C148.899 31.9731 148.658 32.1057 148.423 32.2525C148.205 32.3892 147.993 32.537 147.785 32.689C147.405 32.9653 147.042 33.2651 146.68 33.5619C146.272 33.8953 145.865 34.2308 145.477 34.5877C145.308 34.7427 145.142 34.9008 144.979 35.0619C144.858 35.1823 144.74 35.3056 144.612 35.4188C144.581 35.4454 144.551 35.4708 144.518 35.4953C144.494 35.4892 144.471 35.4831 144.448 35.4749C144.382 35.4505 144.319 35.4229 144.256 35.3933C144.026 35.2751 143.811 35.1252 143.595 34.9834C143.376 34.8406 143.157 34.6969 142.94 34.551C142.938 34.55 142.917 34.5347 142.895 34.5204C142.474 34.237 142.038 33.9463 141.589 33.674C141.353 33.5313 141.117 33.3916 140.881 33.2488C140.676 33.1244 140.472 32.998 140.267 32.8735C139.851 32.6207 139.431 32.3708 139.008 32.1291C138.542 31.862 138.068 31.608 137.591 31.3582C137.092 31.0972 136.594 30.8341 136.107 30.5495C135.858 30.4353 135.608 30.3242 135.361 30.209C135.311 30.1855 135.26 30.162 135.21 30.1376C135.194 30.1304 135.178 30.1223 135.163 30.1151C135.142 30.1049 135.121 30.0947 135.1 30.0845C134.731 29.9051 134.365 29.7195 133.993 29.5451C133.595 29.3575 133.197 29.1688 132.805 28.9659C132.672 28.8965 132.54 28.8262 132.41 28.7528C132.388 28.7405 132.367 28.7283 132.345 28.716C132.324 28.7038 132.302 28.6916 132.28 28.6783C132.274 28.6742 132.267 28.6702 132.261 28.6671C132.252 28.662 132.243 28.6559 132.233 28.6508C132.213 28.6385 132.192 28.6263 132.173 28.6141C132.017 28.5182 131.865 28.4162 131.715 28.3122C131.674 28.2837 131.634 28.2541 131.593 28.2255C131.574 28.2143 131.556 28.2031 131.536 28.1929C131.535 28.1929 131.533 28.1919 131.532 28.1909C131.511 28.1837 131.491 28.1735 131.474 28.1603C131.39 28.1276 131.307 28.096 131.222 28.0654C131.211 28.0624 131.201 28.0583 131.19 28.0552C131.185 28.0379 131.182 28.0196 131.181 28.0012C131.167 27.9431 131.168 27.8819 131.188 27.8227C131.226 27.7034 131.277 27.5892 131.319 27.4709C131.383 27.2843 131.432 27.0926 131.477 26.8999C131.502 26.7877 131.528 26.6745 131.553 26.5613C131.554 26.5542 131.556 26.5481 131.557 26.5409C131.564 26.5073 131.571 26.4736 131.578 26.44C131.641 26.131 131.693 25.821 131.737 25.5089C131.761 25.3478 131.781 25.1857 131.793 25.0235C131.793 25.0368 131.791 25.0511 131.789 25.0643C131.792 25.0409 131.793 25.0174 131.795 24.994C131.795 24.9797 131.797 24.9644 131.798 24.9501C131.8 24.9124 131.803 24.8736 131.809 24.8359C131.812 24.8155 131.816 24.7951 131.819 24.7737C131.819 24.7717 131.819 24.7696 131.819 24.7676C131.818 24.7421 131.821 24.7186 131.828 24.6952C131.822 24.6034 131.814 24.5106 131.801 24.4198C131.446 22.1958 129.221 22.3691 127.486 22.0754C127.202 22.0132 126.919 21.9266 126.668 21.7787C126.404 21.4065 126.181 21.0037 126.028 20.5744C126.01 20.5275 125.995 20.4806 125.983 20.4326C125.978 20.4224 125.974 20.4112 125.97 20.401C125.896 20.2103 125.831 20.0135 125.787 19.8136C125.755 19.6699 125.729 19.524 125.707 19.3782C125.664 19.21 125.633 19.0376 125.601 18.8663C125.57 18.698 125.539 18.5298 125.52 18.3605C125.502 18.1984 125.501 18.0372 125.498 17.8741C125.497 17.8231 125.498 17.7731 125.5 17.7221C125.5 17.7191 125.5 17.716 125.499 17.713C125.467 17.4907 125.442 17.2684 125.428 17.044C125.415 16.8339 125.418 16.6208 125.421 16.4107C125.423 16.2986 125.427 16.1864 125.436 16.0753C125.444 15.9672 125.459 15.8591 125.474 15.752C125.505 15.5287 125.555 15.3094 125.609 15.0902C125.71 14.6802 125.821 14.2734 125.959 13.8746C126.028 13.6768 126.1 13.48 126.188 13.2893C126.273 13.1017 126.365 12.9171 126.466 12.7366C126.598 12.5041 126.744 12.2787 126.905 12.0646C126.917 12.0483 126.93 12.033 126.941 12.0167C126.95 12.0044 126.959 11.9922 126.969 11.981C126.972 11.9769 126.975 11.9738 126.977 11.9697L126.989 11.9545C126.995 11.9463 127.002 11.9381 127.009 11.93C127.023 11.9116 127.037 11.8943 127.053 11.8759C127.065 11.8606 127.078 11.8453 127.091 11.83C127.103 11.8147 127.116 11.7994 127.13 11.7842C127.13 11.7842 127.13 11.7842 127.131 11.7831C127.385 11.5924 127.647 11.414 127.916 11.2457C128.748 10.6991 129.661 10.2994 130.63 10.0618C131.065 9.96492 131.44 9.66716 131.622 9.26844C131.622 9.23886 131.622 9.20929 131.622 9.17972C131.618 9.13587 131.612 9.09304 131.605 9.05021C131.596 9.01248 131.586 8.97475 131.574 8.93804C131.561 8.90439 131.548 8.87175 131.532 8.83912C131.512 8.80241 131.491 8.7657 131.469 8.73001C131.447 8.69942 131.424 8.66984 131.4 8.64129C131.378 8.61886 131.356 8.59642 131.333 8.57501C131.308 8.55461 131.282 8.53422 131.255 8.51484C131.222 8.49445 131.188 8.47405 131.153 8.4557C131.069 8.41593 130.983 8.38228 130.896 8.35066C130.772 8.30987 130.647 8.27316 130.518 8.24563C130.429 8.22931 130.339 8.21708 130.249 8.20892C130.148 8.20382 130.048 8.20484 129.947 8.21096C129.86 8.2181 129.773 8.22625 129.686 8.24155C129.623 8.25583 129.56 8.27418 129.496 8.29356C129.413 8.31905 129.33 8.33843 129.246 8.35576C129.214 8.36188 129.18 8.37004 129.147 8.37922C129.106 8.39451 129.064 8.40879 129.02 8.41287C128.94 8.42001 128.862 8.41287 128.788 8.38839C128.653 8.37106 128.525 8.30172 128.439 8.19056C128.374 8.10796 128.334 8.01619 128.311 7.91523C128.3 7.8673 128.292 7.81835 128.284 7.76941C128.277 7.74391 128.268 7.7174 128.26 7.69191C128.248 7.66029 128.236 7.62868 128.22 7.59809C128.168 7.49917 128.114 7.40026 128.052 7.30644C128.048 7.30032 128.043 7.2942 128.039 7.28911C128.025 7.27483 128.011 7.26055 127.997 7.2473C127.919 7.20957 127.86 7.14022 127.832 7.05966C127.556 6.87305 127.218 6.75986 126.898 6.71805C126.594 6.65482 126.257 6.74048 125.971 6.61505C125.105 5.85534 123.914 6.16636 123.22 6.95973C123.187 7.01785 123.15 7.07394 123.117 7.13206C123.091 7.17795 123.066 7.22486 123.042 7.27177C122.98 7.3972 122.928 7.52569 122.881 7.65622C122.826 7.81632 122.779 7.97744 122.735 8.13958C122.71 8.22931 122.686 8.32007 122.663 8.41083C122.674 8.46487 122.683 8.5179 122.694 8.57195C122.727 8.72797 122.764 8.88297 122.815 9.03491C122.832 9.08284 122.851 9.13077 122.871 9.17768C122.553 9.76607 122.306 10.3902 122.116 11.0316C122.061 11.1743 122.005 11.3181 121.954 11.464C121.952 11.468 121.951 11.4731 121.95 11.4772C121.824 11.8464 121.722 12.2237 121.642 12.6061C121.593 12.8518 121.552 13.0986 121.509 13.3454C121.48 13.5096 121.453 13.6748 121.425 13.8389C121.421 13.997 121.416 14.1551 121.413 14.3131C121.126 15.8723 121.291 17.0083 121.533 18.9081C121.671 20.5326 122.284 22.053 122.999 23.5031C123.112 23.7438 123.232 23.9803 123.359 24.2139C123.359 24.3148 123.356 24.4096 123.34 24.4912C123.318 24.8053 123.289 25.1194 123.254 25.4335C123.216 25.773 123.172 26.1136 123.112 26.4502C123.091 26.4981 123.069 26.546 123.047 26.5939C123.036 26.6347 123.026 26.6745 123.016 26.7153C122.948 26.8397 122.888 26.9631 122.918 27.0865C122.847 27.3455 122.776 27.6035 122.715 27.8645C122.302 29.4921 121.813 31.1033 121.241 32.6829C120.928 32.2525 120.734 31.7498 120.495 31.2776C120.095 30.4486 119.558 29.695 119.047 28.9322C118.695 28.4326 118.313 27.8513 117.695 27.6688C117.046 27.4801 116.384 27.7871 115.946 28.2633C114.698 29.5573 114.046 31.2991 113.852 33.0622C113.719 34.3746 113.422 37.4543 114.171 38.5117C114.762 39.0349 115.392 38.2996 115.679 37.8C116.01 37.3125 116.276 36.7843 116.462 36.2244C117.033 37.6184 119.142 41.0631 120.553 41.5343C120.719 41.573 120.878 41.5904 121.031 41.5904C122.688 41.5904 123.621 39.4774 124.278 38.1854C124.978 36.7588 125.478 35.2434 126.049 33.7628C126.194 33.3243 126.32 32.8817 126.442 32.4361C126.538 32.4432 126.633 32.4514 126.73 32.4606C128.004 32.5299 129.221 32.9276 130.39 33.412C130.684 33.5231 130.973 33.6475 131.255 33.7811C131.384 33.8505 131.511 33.9218 131.638 33.9932C132.11 34.2614 132.573 34.5459 133.025 34.8478C133.454 35.1384 133.871 35.4474 134.276 35.7727C134.689 36.1041 135.097 36.4447 135.496 36.7924C135.715 36.9852 135.934 37.1789 136.149 37.3747C136.582 37.7694 137.003 38.1773 137.416 38.5923C137.841 39.0196 138.265 39.4479 138.682 39.8833C139.06 40.279 139.442 40.6726 139.831 41.057C140.206 41.4272 140.595 41.7841 140.991 42.1308C141.37 42.4612 141.752 42.7865 142.154 43.0894C142.349 43.2362 142.547 43.3831 142.755 43.5095C142.884 43.588 143.018 43.6594 143.155 43.7247C143.28 43.7848 143.408 43.843 143.538 43.894C143.676 43.948 143.816 43.9888 143.961 44.0184C144.091 44.0449 144.221 44.0592 144.354 44.0643C144.394 44.0663 144.434 44.0673 144.474 44.0673C144.576 44.0673 144.679 44.0622 144.78 44.053C144.92 44.0408 145.059 44.0194 145.194 43.9806C145.486 43.896 145.759 43.7543 145.998 43.5676C146.222 43.3922 146.435 43.1975 146.614 42.9762C146.812 42.7335 146.986 42.4694 147.145 42.2002C147.289 41.9544 147.421 41.7015 147.545 41.4445C147.789 40.9367 147.997 40.4115 148.194 39.8843C148.295 39.611 148.393 39.3377 148.494 39.0644C148.587 38.8126 148.68 38.5617 148.774 38.3098C148.969 37.7826 149.158 37.2534 149.331 36.719C149.499 36.2061 149.66 35.6911 149.8 35.17C149.865 34.9232 149.928 34.6754 149.988 34.4266C150.049 34.1798 150.107 33.9341 150.159 33.6853C150.199 33.4895 150.238 33.2937 150.263 33.0959C150.273 33.0173 150.282 32.9388 150.288 32.8603C150.295 32.7746 150.303 32.688 150.3 32.6023L150.299 32.5992Z" fill="#0268C0"/>
<path d="M131.558 12.3434C131.017 11.9988 130.394 11.8529 129.763 11.8438C129.728 11.8468 129.693 11.8499 129.658 11.8529C129.564 11.8611 129.469 11.8672 129.374 11.8662C129.339 11.8662 129.304 11.8652 129.268 11.8631C128.961 11.8917 128.657 11.9478 128.363 12.0263C128.237 12.0538 128.113 12.0875 127.99 12.1252C127.976 12.1344 127.962 12.1425 127.945 12.1476C127.941 12.1507 127.937 12.1548 127.932 12.1578C127.887 12.1986 127.846 12.2445 127.806 12.2894C127.74 12.3628 127.673 12.4352 127.607 12.5096C127.477 12.6585 127.356 12.8186 127.244 12.9818C127.223 13.0144 127.201 13.046 127.18 13.0787C127.098 13.2153 127.022 13.356 126.949 13.4968C126.815 13.769 126.706 14.0525 126.606 14.3381C126.593 14.3901 126.582 14.4431 126.571 14.4951C126.489 14.8999 126.42 15.3078 126.366 15.7178C126.331 15.9778 126.302 16.2378 126.284 16.4989C126.273 16.6804 126.267 16.8609 126.272 17.0424C126.275 17.178 126.282 17.3137 126.29 17.4493C126.291 17.4534 126.292 17.4575 126.294 17.4615C126.306 17.5033 126.317 17.5462 126.329 17.589C126.343 17.64 126.358 17.691 126.371 17.742C126.492 17.7083 126.613 17.6736 126.733 17.638C126.833 17.6074 126.933 17.5737 127.033 17.5421C127.134 17.5115 127.233 17.4819 127.334 17.4513C127.728 17.331 128.123 17.2086 128.518 17.0934C128.916 16.9782 129.314 16.8629 129.713 16.7508C130.109 16.6396 130.507 16.5336 130.905 16.4275C131.304 16.3215 131.703 16.2164 132.102 16.1073C132.302 16.0522 132.501 15.9921 132.7 15.936C132.891 15.882 133.084 15.8279 133.277 15.7739C133.284 15.7718 133.291 15.7698 133.298 15.7677C133.34 15.6678 133.366 15.5434 133.373 15.3894C133.267 14.2871 132.487 12.9594 131.56 12.3414L131.558 12.3434ZM128.22 16.2888C127.984 15.1498 128.634 14.0546 129.672 13.8425C130.709 13.6303 131.741 14.3819 131.976 15.521L128.219 16.2898L128.22 16.2888Z" fill="#EA6725"/>
</svg>
