<svg width="32" height="32" viewBox="0 0 32 32" fill="none" xmlns="http://www.w3.org/2000/svg">
<path d="M18.5423 17.4379C20.3696 16.5098 21.6218 14.6123 21.6218 12.4224C21.6218 9.31756 19.1048 6.80054 15.9999 6.80054C12.895 6.80054 10.378 9.31756 10.378 12.4224C10.378 14.6129 11.6308 16.5109 13.459 17.4388C10.8563 18.3205 8.88195 20.5181 8.36758 23.218C8.20033 24.0961 8.7142 24.814 9.60083 24.9275C10.6848 25.0664 12.6089 25.1995 16.0018 25.1995C19.3948 25.1995 21.3188 25.0664 22.4028 24.9275C23.2894 24.814 23.8033 24.0961 23.636 23.218C23.1215 20.5173 21.1461 18.3192 18.5423 17.4379Z" fill="#E2F1FF" stroke="#005BAC" stroke-width="1.5" stroke-linecap="round" stroke-linejoin="round"/>
</svg>
