<svg width="32" height="32" viewBox="0 0 32 32" fill="none" xmlns="http://www.w3.org/2000/svg">
<g transform="translate(7.58 6.05)">
<path d="M10.956 11.3874C12.7833 10.4593 14.0355 8.56177 14.0355 6.3719C14.0355 3.26702 11.5185 0.75 8.41359 0.75C5.30865 0.75 2.79165 3.26702 2.79165 6.3719C2.79165 8.5624 4.04446 10.4603 5.87265 11.3882C3.27002 12.27 1.29565 14.4676 0.781275 17.1675C0.614025 18.0455 1.1279 18.7635 2.01453 18.877C3.09853 19.0158 5.02259 19.149 8.41552 19.149C11.8085 19.149 13.7325 19.0158 14.8165 18.877C15.7031 18.7635 16.217 18.0455 16.0497 17.1675C15.5352 14.4668 13.5598 12.2687 10.956 11.3874Z" fill="#E2F1FF" stroke="#005BAC" stroke-width="1.5" stroke-linecap="round" stroke-linejoin="round"/>
</g>
</svg>
