<svg width="40" height="40" viewBox="0 0 40 40" fill="none" xmlns="http://www.w3.org/2000/svg">
  <path d="M21.737 6.65476C20.2693 6.41956 18.7316 6.41956 17.2639 6.65476L16.714 3.22002C18.5443 2.92666 20.4566 2.92666 22.2869 3.22002L21.737 6.65476Z" fill="#FFFFFF" fill-opacity="1.0"/>
  <path d="M10.6408 9.62715L8.44702 6.92708C9.1663 6.34208 9.94117 5.80925 10.7502 5.34227C11.5585 4.8753 12.4078 4.47076 13.2741 4.14062L14.5151 7.39063C13.8207 7.65576 13.139 7.98076 12.4899 8.35537C11.8399 8.73083 11.2181 9.15846 10.6416 9.62715H10.6408Z" fill="#FFFFFF" fill-opacity="1.0"/>
  <path d="M6.39264 15.5135L3.14264 14.2725C3.47363 13.4062 3.87817 12.5569 4.34429 11.7487C4.81126 10.9404 5.34409 10.1656 5.92909 9.44629L8.62916 11.64C8.16048 12.2173 7.73199 12.8391 7.35738 13.4883C6.98192 14.1374 6.65778 14.8191 6.39264 15.5135Z" fill="#FFFFFF" fill-opacity="0.85"/>
  <path d="M2.22066 23.2868C2.07441 22.3716 2 21.4343 2 20.5003C2 19.5664 2.07441 18.629 2.22066 17.7139L5.6554 18.2638C5.53823 18.9976 5.47836 19.7503 5.47836 20.5003C5.47836 21.2504 5.53823 22.003 5.6554 22.7368L2.22066 23.2868Z" fill="#FFFFFF" fill-opacity="0.72"/>
  <path d="M5.92909 31.5526C5.34495 30.8333 4.81126 30.0585 4.34429 29.2502C3.87731 28.442 3.47277 27.5927 3.14264 26.7263L6.39264 25.4854C6.65778 26.1798 6.98278 26.8615 7.35738 27.5106C7.73284 28.1606 8.16048 28.7824 8.62916 29.3588L5.92909 31.5526Z" fill="#FFFFFF" fill-opacity="0.6"/>
  <path d="M13.2733 36.8566C12.4069 36.5257 11.5585 36.1211 10.7494 35.655C9.94117 35.188 9.1663 34.6552 8.44617 34.0702L10.6399 31.3701C11.2172 31.8388 11.839 32.2664 12.4881 32.6419C13.1381 33.0174 13.8189 33.3415 14.5134 33.6066L13.2724 36.8566H13.2733Z" fill="#FFFFFF" fill-opacity="0.5"/>
  <path d="M19.5004 37.9992C18.5665 37.9992 17.6291 37.9247 16.714 37.7785L17.2639 34.3438C18.7316 34.5789 20.2693 34.5789 21.737 34.3438L22.2869 37.7785C21.3718 37.9247 20.4344 37.9992 19.5004 37.9992Z" fill="#FFFFFF" fill-opacity="0.42"/>
  <path d="M25.7268 36.8566L24.4858 33.6066C25.1803 33.3415 25.8619 33.0165 26.511 32.6419C27.161 32.2664 27.7828 31.8388 28.3593 31.3701L30.553 34.0702C29.8337 34.6552 29.0589 35.188 28.2498 35.655C27.4416 36.122 26.5932 36.5265 25.7268 36.8566Z" fill="#FFFFFF" fill-opacity="0.35"/>
  <path d="M33.0709 31.5526L30.3708 29.3588C30.8395 28.7815 31.2672 28.1598 31.6426 27.5106C32.0181 26.8615 32.3422 26.1798 32.6074 25.4854L35.8574 26.7263C35.5264 27.5927 35.1218 28.442 34.6557 29.2502C34.1888 30.0585 33.6559 30.8333 33.0709 31.5526Z" fill="#FFFFFF" fill-opacity="0.3"/>
  <path d="M36.7793 23.2858L33.3446 22.7359C33.4618 22.002 33.5216 21.2494 33.5216 20.4993C33.5216 19.7493 33.4618 18.9966 33.3446 18.2628L36.7793 17.7129C36.9256 18.628 37 19.5654 37 20.4993C37 21.4333 36.9256 22.3707 36.7793 23.2858Z" fill="#FFFFFF" fill-opacity="0.25"/>
  <path d="M32.6082 15.5145C32.3431 14.82 32.0181 14.1384 31.6435 13.4892C31.268 12.8392 30.8404 12.2175 30.3717 11.641L33.0718 9.44727C33.6568 10.1665 34.1896 10.9414 34.6566 11.7505C35.1236 12.5587 35.5281 13.408 35.8582 14.2744L32.6082 15.5154V15.5145Z" fill="#FFFFFF" fill-opacity="0.2"/>
  <path d="M28.3593 9.62715C27.782 9.15846 27.1602 8.73083 26.511 8.35537C25.8619 7.97991 25.1803 7.65576 24.4858 7.39063L25.7268 4.14062C26.5932 4.47161 27.4424 4.87615 28.2507 5.34227C29.0589 5.80925 29.8337 6.34208 30.553 6.92708L28.3593 9.62715Z" fill="#FFFFFF" fill-opacity="0.15"/>
</svg>
