<svg width="32" height="32" viewBox="0 0 32 32" fill="none" xmlns="http://www.w3.org/2000/svg">
<path d="M18.5421 17.4379C20.3694 16.5098 21.6215 14.6123 21.6215 12.4224C21.6215 9.31756 19.1045 6.80054 15.9996 6.80054C12.8947 6.80054 10.3777 9.31756 10.3777 12.4224C10.3777 14.6129 11.6305 16.5109 13.4587 17.4388C10.8561 18.3205 8.88171 20.5181 8.36733 23.218C8.20008 24.0961 8.71396 24.814 9.60058 24.9275C10.6846 25.0664 12.6086 25.1995 16.0016 25.1995C19.3945 25.1995 21.3186 25.0664 22.4026 24.9275C23.2891 24.814 23.8031 24.0961 23.6358 23.218C23.1213 20.5173 21.1458 18.3192 18.5421 17.4379Z" fill="#E2F1FF"/>
<path d="M23.6655 24.7857C23.5653 25.3873 23.104 25.8385 22.4222 25.9288C21.3293 26.0691 19.4041 26.1995 16.005 26.1995C12.6059 26.1995 10.6707 26.0691 9.5778 25.9288C8.89598 25.8385 8.43474 25.3873 8.33447 24.7857C9.9488 22.2689 12.7864 20.6045 16.005 20.6045C19.2236 20.6045 22.0512 22.2689 23.6655 24.7857Z" fill="#9FD2FF"/>
<path d="M26.1762 23.4511C27.4076 23.4204 28.2025 23.3569 28.7135 23.2914C29.2962 23.2168 29.634 22.7449 29.524 22.1679C29.1859 20.3929 27.8875 18.9482 26.1762 18.3691C27.3772 17.7591 28.2002 16.5119 28.2002 15.0727C28.2002 13.0321 26.5459 11.3778 24.5053 11.3778C24.217 11.3778 23.9365 11.4108 23.6672 11.4732" stroke="#005BAC" stroke-width="1.5" stroke-linecap="round" stroke-linejoin="round"/>
<path d="M5.82689 23.4511C4.59553 23.4204 3.80059 23.3569 3.28964 23.2914C2.70694 23.2168 2.36919 22.7449 2.47914 22.1679C2.8173 20.3929 4.11559 18.9482 5.82689 18.3691C4.6259 17.7591 3.80298 16.5119 3.80298 15.0727C3.80298 13.0321 5.45723 11.3778 7.49787 11.3778C7.78613 11.3778 8.06669 11.4108 8.33594 11.4732" stroke="#005BAC" stroke-width="1.5" stroke-linecap="round" stroke-linejoin="round"/>
<path d="M18.5422 17.4378C20.3695 16.5097 21.6216 14.6122 21.6216 12.4223C21.6216 9.31744 19.1046 6.80042 15.9998 6.80042C12.8948 6.80042 10.3778 9.31744 10.3778 12.4223C10.3778 14.6128 11.6306 16.5108 13.4588 17.4386C10.8562 18.3204 8.88183 20.518 8.36746 23.2179C8.20021 24.0959 8.71408 24.8139 9.60071 24.9274C10.6847 25.0663 12.6088 25.1994 16.0017 25.1994C19.3946 25.1994 21.3187 25.0663 22.4027 24.9274C23.2893 24.8139 23.8032 24.0959 23.6359 23.2179C23.1214 20.5172 21.146 18.3191 18.5422 17.4378Z" stroke="#005BAC" stroke-width="1.5" stroke-linecap="round" stroke-linejoin="round"/>
</svg>
