<svg width="24" height="24" viewBox="0 0 24 24" fill="none" xmlns="http://www.w3.org/2000/svg">
  <path d="M9.16 10.87a1.62 1.62 0 0 0-.29 0 3.89 3.89 0 1 1 .29 0Z" stroke="#0268C0" stroke-width="1.6" stroke-linecap="round" stroke-linejoin="round"/>
  <path d="M15.09 4.5a3.07 3.07 0 0 1 .22 6.13" stroke="#0268C0" stroke-width="1.6" stroke-linecap="round" stroke-linejoin="round"/>
  <path d="M6.94 14.56c-2.16 1.45-2.16 3.81 0 5.25 2.46 1.65 6.49 1.65 8.95 0 2.16-1.45 2.16-3.81 0-5.25-2.45-1.64-6.48-1.64-8.95 0Z" stroke="#0268C0" stroke-width="1.6" stroke-linecap="round" stroke-linejoin="round"/>
  <path d="M17.34 19c.64-.13 1.25-.39 1.75-.77 1.39-1.04 1.39-2.76 0-3.8-.49-.37-1.09-.62-1.72-.76" stroke="#0268C0" stroke-width="1.6" stroke-linecap="round" stroke-linejoin="round"/>
</svg>
