<svg width="24" height="24" viewBox="0 0 24 24" fill="none" xmlns="http://www.w3.org/2000/svg">
  <path d="M8.25 22.3125C11.8744 22.3125 14.8125 19.3744 14.8125 15.75C14.8125 12.1256 11.8744 9.1875 8.25 9.1875C4.62563 9.1875 1.6875 12.1256 1.6875 15.75C1.6875 19.3744 4.62563 22.3125 8.25 22.3125Z" stroke="#0268C0" stroke-width="2" stroke-linecap="round" stroke-linejoin="round"/>
  <path d="M15.75 22.3125C19.3744 22.3125 22.3125 19.3744 22.3125 15.75C22.3125 12.1256 19.3744 9.1875 15.75 9.1875C12.1256 9.1875 9.1875 12.1256 9.1875 15.75C9.1875 19.3744 12.1256 22.3125 15.75 22.3125Z" stroke="#0268C0" stroke-width="2" stroke-linecap="round" stroke-linejoin="round"/>
  <path d="M18.5625 8.25C18.5625 11.8744 15.6244 14.8125 12 14.8125C8.37562 14.8125 5.4375 11.8744 5.4375 8.25C5.4375 4.62563 8.37562 1.6875 12 1.6875C15.6244 1.6875 18.5625 4.62563 18.5625 8.25Z" stroke="#0268C0" stroke-width="2" stroke-linecap="round" stroke-linejoin="round"/>
</svg>
