<svg width="22" height="16" viewBox="0 0 22 16" fill="none" xmlns="http://www.w3.org/2000/svg">
  <path d="M1.50392 9.12904C1.23994 8.76703 1.10794 8.58554 1.01671 8.23615C0.955122 7.92503 0.955122 7.60487 1.01671 7.29375C1.10794 6.94339 1.23994 6.7619 1.50392 6.40086C2.94905 4.41611 6.11689 0.970703 10.6755 0.970703C15.2341 0.970703 18.4019 4.41611 19.8471 6.39989C20.1111 6.7619 20.2431 6.94339 20.3343 7.29278C20.3959 7.60389 20.3959 7.92406 20.3343 8.23517C20.2431 8.58554 20.1111 8.76703 19.8471 9.12807C18.4019 11.1128 15.2341 14.5582 10.6755 14.5582C6.11689 14.5582 2.94905 11.1128 1.50392 9.12904Z" stroke="#0268C0" stroke-width="1.94107" stroke-linecap="round" stroke-linejoin="round"/>
  <path d="M10.6748 9.70734C11.1896 9.70734 11.6833 9.50284 12.0473 9.13882C12.4113 8.77479 12.6159 8.28108 12.6159 7.76627C12.6159 7.25146 12.4113 6.75775 12.0473 6.39372C11.6833 6.0297 11.1896 5.8252 10.6748 5.8252C10.16 5.8252 9.66625 6.0297 9.30223 6.39372C8.93821 6.75775 8.7337 7.25146 8.7337 7.76627C8.7337 8.28108 8.93821 8.77479 9.30223 9.13882C9.66625 9.50284 10.16 9.70734 10.6748 9.70734Z" stroke="#0268C0" stroke-width="1.94107" stroke-linecap="round" stroke-linejoin="round"/>
</svg>
