<svg width="24" height="24" viewBox="0 0 24 24" fill="none" xmlns="http://www.w3.org/2000/svg">
  <path d="M8.67 14.33c0 1.29 1 2.33 2.23 2.33h2.51c1.07 0 1.94-.91 1.94-2.04 0-1.21-.53-1.65-1.32-1.93l-4.04-1.41c-.79-.28-1.32-.71-1.32-1.93 0-1.12.87-2.03 1.94-2.03h2.51c1.23 0 2.23 1.04 2.23 2.33" stroke="#0268C0" stroke-width="1.6" stroke-linecap="round" stroke-linejoin="round"/>
  <path d="M12 6.5v11" stroke="#0268C0" stroke-width="1.6" stroke-linecap="round" stroke-linejoin="round"/>
  <path d="M12 22c5.52 0 10-4.48 10-10S17.52 2 12 2 2 6.48 2 12s4.48 10 10 10Z" stroke="#0268C0" stroke-width="1.6" stroke-linecap="round" stroke-linejoin="round"/>
</svg>
