<svg width="90" height="67" viewBox="0 0 90 67" fill="none" xmlns="http://www.w3.org/2000/svg">
<rect width="90" height="67" fill="#C1C1C1"/>
<g id="Single Campaign Overview-Desktop">
<rect width="1920" height="11221" transform="translate(-957 -593)" fill="#F4F8F9"/>
<g id="body">
<g id="PRogress Bar + Donation Feed">
<g id="Column 1">
<g id="Progress Statistics days" filter="url(#filter0_d_5416_24318)">
<rect x="-627" y="-166" width="1230" height="426" rx="16" fill="white"/>
<rect x="-626.5" y="-165.5" width="1229" height="425" rx="15.5" stroke="#E7E9EB"/>
<g id="Rocket">
<g id="Group">
<path id="Vector" opacity="0.19" d="M51.8551 48.499L37.2597 17.9528L5.51886e-05 35.7559L14.5955 66.3021L51.8551 48.499Z" fill="url(#paint0_linear_5416_24318)"/>
<path id="Vector_2" opacity="0.93" d="M36.0805 40.9455L33.2901 35.1055L7.64729 47.3579L10.4377 53.198L36.0805 40.9455Z" fill="url(#paint1_linear_5416_24318)"/>
<g id="Group_2">
<g id="Group_3">
<path id="Vector_3" d="M56.4157 35.5096L54.9284 45.156C54.7164 46.5314 53.8383 47.7131 52.5825 48.3132L51.918 48.6307L47.6498 39.6978L56.4157 35.5096Z" fill="#0268C0"/>
<path id="Vector_4" d="M50.2936 22.6969L41.8542 17.7936C40.651 17.0944 39.1799 17.0352 37.9241 17.6352L37.2596 17.9527L41.5279 26.8856L50.2936 22.6969Z" fill="#0268C0"/>
<path id="Vector_5" opacity="0.42" d="M48.1048 21.4252L46.4403 20.4581C46.4403 20.4581 42.8718 22.5746 40.7285 25.212L41.5281 26.8855L48.1048 21.4252Z" fill="#59B0FD"/>
<path id="Vector_6" opacity="0.42" d="M56.0301 38.0116L55.7368 39.9142C55.7368 39.9142 51.8482 41.3608 48.4497 41.3714L47.6501 39.6979L56.0301 38.0116Z" fill="#59B0FD"/>
<g id="Group_4">
<g id="Group_5">
<path id="Vector_7" d="M41.4173 30.1015C41.2434 29.7375 40.7763 29.6289 40.4597 29.8792L36.3877 32.6097C36.1571 32.7918 36.0834 33.1094 36.21 33.3744L37.6863 36.4641L43.1989 33.8301L41.4173 30.1015Z" fill="#344B7E"/>
<path id="Vector_8" d="M39.8689 39.896L44.5516 38.4434C44.9451 38.3543 45.1542 37.9227 44.9802 37.5587L43.1986 33.8301L37.686 36.4641L39.1623 39.5538C39.289 39.8188 39.5824 39.9609 39.8689 39.896Z" fill="#003060"/>
</g>
<path id="Vector_9" opacity="0.63" d="M39.7421 30.3601L37.7869 31.6713L41.4783 39.3969L43.7267 38.6993L39.7421 30.3601Z" fill="#AEB5BD"/>
<g id="Group_6">
<path id="Vector_10" d="M70.4083 13.0859C64.9892 13.5145 58.2421 15.1999 50.7778 19.6222C50.7778 19.6222 42.7999 24.5602 38.8206 29.9411L41.2801 35.0884L73.5532 19.6679L70.4083 13.0859Z" fill="white"/>
<path id="Vector_11" d="M82.2442 15.5155C81.7294 14.5162 80.7734 13.7397 79.552 13.5146C77.2775 13.0956 74.1616 12.7891 70.4085 13.0859L73.5536 19.668L82.2442 15.5155Z" fill="#0268C0"/>
<path id="Vector_12" d="M76.7234 26.3028L73.5533 19.6681L41.2802 35.0886L43.5189 39.7739C43.5189 39.7739 49.5713 40.8738 59.8057 36.8024C65.7028 34.4565 72.0072 30.8808 76.7234 26.3028Z" fill="#B2D0F9"/>
<path id="Vector_13" d="M76.7235 26.3028C79.0431 24.0512 80.9793 21.5578 82.2917 18.8477C82.832 17.7322 82.7578 16.5129 82.244 15.5156L73.5531 19.6682L76.7233 26.3029L76.7235 26.3028Z" fill="#5085D1"/>
</g>
<path id="Vector_14" d="M60.2282 28.4678C62.5621 30.5404 66.1344 30.3286 68.2071 27.9946C70.2797 25.6606 70.0679 22.0883 67.7339 20.0157C65.3999 17.943 61.8276 18.1549 59.755 20.4889C57.6823 22.8229 57.8942 26.3951 60.2282 28.4678Z" fill="#003060"/>
<path id="Vector_15" d="M61.1642 27.4081C62.9129 28.9658 65.5932 28.8109 67.1509 27.0622C68.7086 25.3135 68.5537 22.6331 66.805 21.0754C65.0563 19.5178 62.376 19.6726 60.8183 21.4213C59.2606 23.17 59.4155 25.8504 61.1642 27.4081Z" fill="#E96725"/>
</g>
<path id="Vector_16" d="M39.3921 35.7657C39.1389 35.2357 39.3633 34.6005 39.8934 34.3472L47.6145 30.658C48.1446 30.4047 48.7797 30.6291 49.033 31.1592C49.2863 31.6892 49.0618 32.3244 48.5318 32.5776L40.8106 36.2669C40.2807 36.5204 39.6455 36.296 39.3921 35.7657Z" fill="#0268C0"/>
<path id="Vector_17" opacity="0.42" d="M61.1247 21.1085C61.1247 21.1085 61.8149 23.4663 64.6076 23.7174C66.5037 23.8879 67.8095 22.4125 67.8095 22.4125C67.8095 22.4125 66.7972 20.0706 63.9672 20.0001C63.9672 20.0001 62.4748 19.8689 61.1247 21.1085Z" fill="white"/>
</g>
<g id="Group_7">
<path id="Vector_18" d="M38.7261 38.641L37.735 36.5666L36.7438 34.4922C36.7438 34.4922 33.5306 33.9449 30.3319 37.1411C30.3319 37.1411 28.8892 38.4324 28.3275 40.7214C28.2695 40.9579 28.3718 41.1721 28.5923 41.2755C30.726 42.2766 32.637 41.9654 32.637 41.9654C37.1332 41.4846 38.7261 38.641 38.7261 38.641Z" fill="#E96725"/>
<path id="Vector_19" d="M36.9949 35.0176C36.9949 35.0176 33.5128 35.0123 31.3359 37.7845C31.1182 38.0619 31.165 38.382 31.4402 38.5182L32.0082 38.7997L30.4852 39.5273C29.9244 39.7953 29.8419 40.4236 30.3542 40.5609C32.0154 41.0063 35.2466 41.2672 38.4883 38.1431L36.9949 35.0176Z" fill="#FF8C52"/>
<path id="Vector_20" d="M37.2535 35.5588C37.2535 35.5588 35.8819 35.3472 34.3188 36.8343C34.3188 36.8343 33.8653 37.2585 33.6947 37.8335C33.639 38.0205 33.8771 38.1071 34.1081 37.9813C34.6611 37.6803 35.5581 37.2748 36.0413 37.4998C36.4955 37.7115 36.265 38.2451 36.0251 38.6192C35.9045 38.8075 36.0796 38.9475 36.3292 38.8645C36.8909 38.6779 37.7109 38.2824 38.1753 37.4874L37.2535 35.5588Z" fill="#FFB088"/>
</g>
</g>
</g>
</g>
</g>
</g>
</g>
</g>
</g>
<defs>
<filter id="filter0_d_5416_24318" x="-657" y="-192" width="1290" height="486" filterUnits="userSpaceOnUse" color-interpolation-filters="sRGB">
<feFlood flood-opacity="0" result="BackgroundImageFix"/>
<feColorMatrix in="SourceAlpha" type="matrix" values="0 0 0 0 0 0 0 0 0 0 0 0 0 0 0 0 0 0 127 0" result="hardAlpha"/>
<feOffset dy="4"/>
<feGaussianBlur stdDeviation="15"/>
<feComposite in2="hardAlpha" operator="out"/>
<feColorMatrix type="matrix" values="0 0 0 0 0 0 0 0 0 0.356863 0 0 0 0 0.67451 0 0 0 0.08 0"/>
<feBlend mode="normal" in2="BackgroundImageFix" result="effect1_dropShadow_5416_24318"/>
<feBlend mode="normal" in="SourceGraphic" in2="effect1_dropShadow_5416_24318" result="shape"/>
</filter>
<linearGradient id="paint0_linear_5416_24318" x1="44.5574" y1="33.2258" x2="7.29778" y2="51.0289" gradientUnits="userSpaceOnUse">
<stop stop-color="#606060"/>
<stop offset="1" stop-color="white" stop-opacity="0"/>
</linearGradient>
<linearGradient id="paint1_linear_5416_24318" x1="34.6853" y1="38.0255" x2="9.04251" y2="50.278" gradientUnits="userSpaceOnUse">
<stop stop-color="#E7E9EB"/>
<stop offset="1" stop-color="#838485" stop-opacity="0"/>
</linearGradient>
</defs>
</svg>
