<svg width="60" height="60" viewBox="0 0 60 60" fill="none" xmlns="http://www.w3.org/2000/svg"><path d="M57.6432 18.322C56.1321 14.7496 53.9693 11.5416 51.2147 8.78701C48.4601 6.03242 45.2521 3.86961 41.6797 2.35854C37.9795 0.793428 34.0506 0 30.0017 0C25.9529 0 22.0233 0.793428 18.3237 2.35854C14.7513 3.86961 11.5427 6.03242 8.78872 8.78701C6.03413 11.5416 3.87132 14.7496 2.36025 18.322C0.795137 22.0216 0.00170898 25.9511 0.00170898 30C0.00170898 34.0489 0.795137 37.9784 2.36025 41.678C3.87132 45.2504 6.03413 48.4591 8.78872 51.213C11.5433 53.9676 14.7513 56.1304 18.3237 57.6415C22.0233 59.2066 25.9529 60 30.0017 60C34.0506 60 37.9801 59.2066 41.6797 57.6415C45.2521 56.1304 48.4608 53.9676 51.2147 51.213C53.9693 48.4584 56.1321 45.2504 57.6432 41.678C59.2083 37.9784 60.0017 34.0489 60.0017 30C60.0017 25.9511 59.2083 22.0222 57.6432 18.322ZM48.2459 48.2442C43.3727 53.1175 36.8935 55.8016 30.0017 55.8016C23.11 55.8016 16.6307 53.1175 11.7575 48.2442C6.88423 43.371 4.20015 36.8917 4.20015 30C4.20015 23.1082 6.88423 16.629 11.7575 11.7558C16.6307 6.88252 23.11 4.19844 30.0017 4.19844C36.8935 4.19844 43.3727 6.88252 48.2459 11.7558C53.1192 16.629 55.8033 23.1082 55.8033 30C55.8033 36.8917 53.1192 43.371 48.2459 48.2442Z" fill="#28C45D"/><path d="M25.7993 33.4255L19.8973 28.7051L14.2161 35.8097L27.4711 46.4103L47.5039 19.5102L40.2081 14.0768L25.7993 33.4255Z" fill="#28C45D"/></svg>
