<svg width="18" height="18" viewBox="0 0 18 18" fill="none" xmlns="http://www.w3.org/2000/svg" xmlns:xlink="http://www.w3.org/1999/xlink"><g id="Facebook-Logo-1--Streamline-Plump" clip-path="url(#clip0_4858_4787)">
<g id="facebook-logo-1--media-facebook-social">
<path id="Subtract" fill-rule="evenodd" clip-rule="evenodd" d="M3.05089 0.766459C4.27774 0.66678 6.22447 0.5625 9 0.5625C11.7755 0.5625 13.7223 0.66678 14.9491 0.766459C16.182 0.866636 17.1334 1.81794 17.2335 3.05089C17.3332 4.27774 17.4375 6.22447 17.4375 9C17.4375 11.7755 17.3332 13.7223 17.2335 14.9491C17.1334 16.1821 16.182 17.1334 14.9491 17.2335C14.0527 17.3064 12.772 17.3817 11.0645 17.417C11.0672 17.3921 11.0685 17.3669 11.0685 17.3414V11.2651H13.1456C13.4786 11.2651 13.7784 11.0458 13.8271 10.7163C13.9076 10.1713 13.8734 9.67582 13.8213 9.3234C13.7735 8.99992 13.4852 8.78696 13.1582 8.78696H11.0685C11.0685 6.9144 11.3801 6.64189 13.1366 6.60784C13.4736 6.60131 13.7762 6.37879 13.8251 6.04526C13.9073 5.48464 13.8745 4.99478 13.8229 4.65023C13.7752 4.33193 13.4898 4.1244 13.168 4.12721C10.0636 4.15429 8.29549 4.52138 8.29549 8.78696H6.68719C6.37463 8.78696 6.09713 8.98286 6.04984 9.29183C5.99891 9.62468 5.96812 10.1072 6.05314 10.6941C6.10226 11.0331 6.40721 11.2651 6.74981 11.2651H8.29549V17.4352C5.89174 17.4194 4.1712 17.3246 3.05089 17.2335C1.81794 17.1334 0.866632 16.1821 0.766459 14.9491C0.66678 13.7223 0.5625 11.7755 0.5625 9C0.5625 6.22447 0.66678 4.27774 0.766459 3.05089C0.866632 1.81794 1.81795 0.866632 3.05089 0.766459Z" fill="#1877F2"/>
</g>
</g><defs><clipPath id="clip0_4858_4787">
<rect width="18" height="18" fill="white"/>
</clipPath></defs></svg>