<svg width="18" height="18" viewBox="0 0 18 18" fill="none" xmlns="http://www.w3.org/2000/svg" xmlns:xlink="http://www.w3.org/1999/xlink"><g id="Instagram-Logo--Streamline-Plump" clip-path="url(#clip0_4858_4787)">
<g id="instagram-logo">
<path id="Subtract" fill-rule="evenodd" clip-rule="evenodd" d="M4.67141 0.661564C5.79574 0.604946 7.22918 0.5625 9 0.5625C10.7708 0.5625 12.2043 0.60495 13.3286 0.661564C15.5374 0.772789 17.2272 2.46262 17.3384 4.67137C17.3951 5.79574 17.4375 7.22918 17.4375 9C17.4375 10.7708 17.3951 12.2043 17.3384 13.3286C17.2272 15.5374 15.5374 17.2272 13.3286 17.3384C12.2043 17.3951 10.7708 17.4375 9 17.4375C7.22918 17.4375 5.79574 17.3951 4.67141 17.3384C2.46263 17.2272 0.772789 15.5374 0.661564 13.3286C0.604946 12.2043 0.5625 10.7708 0.5625 9C0.5625 7.22918 0.60495 5.79574 0.661564 4.67137C0.772789 2.46262 2.46263 0.772789 4.67141 0.661564ZM13.125 3.75C13.125 3.33579 13.4608 3 13.875 3H14.25C14.6642 3 15 3.33579 15 3.75C15 4.16423 14.6642 4.5 14.25 4.5H13.875C13.4608 4.5 13.125 4.16423 13.125 3.75ZM9 6C7.34314 6 6 7.34314 6 9C6 10.6569 7.34314 12 9 12C10.6569 12 12 10.6569 12 9C12 7.34314 10.6569 6 9 6ZM4.5 9C4.5 6.51472 6.51472 4.5 9 4.5C11.4853 4.5 13.5 6.51472 13.5 9C13.5 11.4853 11.4853 13.5 9 13.5C6.51472 13.5 4.5 11.4853 4.5 9Z" fill="url(#paint0_linear_4858_4787)"/>
</g>
</g><defs><clipPath id="clip0_4858_4787">
<rect width="18" height="18" fill="white"/>
</clipPath><linearGradient id="paint0_linear_4858_4787" x1="9" y1="0.5625" x2="9" y2="17.4375" gradientUnits="userSpaceOnUse">
<stop stop-color="#F9CE34"/>
<stop offset="0.5" stop-color="#EE2A7B"/>
<stop offset="1" stop-color="#6228D7"/>
</linearGradient></defs></svg>