<svg width="18" height="18" viewBox="0 0 18 18" fill="none" xmlns="http://www.w3.org/2000/svg" xmlns:xlink="http://www.w3.org/1999/xlink"><g id="Linkedin-Logo--Streamline-Plump" clip-path="url(#clip0_4858_4787)">
<g id="linkedin-logo--network-linkedin-professional">
<path id="Union" fill-rule="evenodd" clip-rule="evenodd" d="M2.95779 0.375C1.76371 0.375 0.75 1.30598 0.75 2.53916C0.75 3.76875 1.79112 4.6815 2.95779 4.6815C4.14334 4.6815 5.16559 3.79069 5.16559 2.53916C5.16559 1.28425 4.17075 0.375 2.95779 0.375ZM11.9114 6C10.4439 6 8.78074 6.24698 7.46704 7.10708L7.46445 7.1088C6.87127 7.5042 6.375 8.08912 6.375 8.9268V15.7858C6.375 16.4541 6.61613 16.9478 7.06432 17.2542C7.48481 17.5418 8.03243 17.625 8.57295 17.625C8.69993 17.625 8.83117 17.6228 8.96453 17.6173C9.88219 17.5792 10.4414 16.7706 10.4414 15.9512V10.581C10.4414 10.1328 10.6854 9.78221 11.0208 9.69829C11.2969 9.62921 11.5802 9.59314 11.8674 9.59314C12.2759 9.59314 12.6145 9.69885 12.8422 9.87862C13.0584 10.0493 13.2056 10.3094 13.2056 10.7032V15.7858C13.2056 16.4568 13.4396 16.9529 13.889 17.2596C14.309 17.5464 14.8583 17.625 15.4035 17.625C15.5237 17.625 15.6474 17.6229 15.7729 17.6178C16.6912 17.5803 17.25 16.7701 17.25 15.9512V10.2236C17.25 8.69501 16.5521 7.61827 15.5185 6.93967C14.5033 6.27322 13.1828 6 11.9114 6ZM2.53839 5.64292C2.67857 5.63164 2.83226 5.625 3 5.625C3.16774 5.625 3.32143 5.63164 3.46161 5.64292C4.35844 5.71537 4.815 6.5112 4.83195 7.27046C4.8519 8.16671 4.875 9.63352 4.875 11.625C4.875 13.6165 4.8519 15.0833 4.83195 15.9795C4.815 16.7388 4.35844 17.5346 3.46161 17.6071C3.32143 17.6184 3.16774 17.625 3 17.625C2.83226 17.625 2.67857 17.6184 2.53838 17.6071C1.64156 17.5346 1.18498 16.7388 1.16806 15.9795C1.14809 15.0833 1.125 13.6165 1.125 11.625C1.125 9.63352 1.14809 8.16671 1.16806 7.27046C1.18498 6.5112 1.64156 5.71537 2.53839 5.64292Z" fill="#0077B5"/>
</g>
</g><defs><clipPath id="clip0_4858_4787">
<rect width="18" height="18" fill="white"/>
</clipPath></defs></svg>