<svg width="18" height="18" viewBox="0 0 18 18" fill="none" xmlns="http://www.w3.org/2000/svg" xmlns:xlink="http://www.w3.org/1999/xlink"><g id="Facebook-Messenger-Logo--Streamline-Ultimate" clip-path="url(#clip0_4858_4787)">
<path id="Vector" d="M9 0.621094C4.035 0.621094 0 4.31109 0 8.84859C0.00139635 10.6931 0.663976 12.4759 1.8675 13.8736C1.89991 13.9113 1.91844 13.9589 1.92 14.0086V16.0486C1.91876 16.2756 1.97609 16.4991 2.08645 16.6975C2.19681 16.8959 2.35647 17.0624 2.55 17.1811C2.75911 17.3114 3.00115 17.379 3.2475 17.3761C3.45206 17.3785 3.65455 17.335 3.84 17.2486L5.3925 16.4986C5.41858 16.4875 5.44664 16.4817 5.475 16.4817C5.50336 16.4817 5.53142 16.4875 5.5575 16.4986C6.65703 16.9166 7.8237 17.1301 9 17.1286C13.965 17.1286 18 13.4386 18 8.87859C18 4.31859 13.965 0.621094 9 0.621094ZM13.5 6.93609L10.905 11.0911C10.8529 11.1749 10.7848 11.2477 10.7045 11.3051C10.6243 11.3626 10.5335 11.4037 10.4373 11.426C10.3412 11.4483 10.2416 11.4514 10.1442 11.4351C10.0469 11.4188 9.95367 11.3835 9.87 11.3311L7.8975 10.0936C7.78349 10.0278 7.65415 9.99311 7.5225 9.99311C7.39085 9.99311 7.26151 10.0278 7.1475 10.0936L4.965 11.3761C4.8919 11.4176 4.80751 11.435 4.72396 11.4255C4.6404 11.4161 4.56199 11.3804 4.5 11.3236C4.44043 11.2649 4.40218 11.1881 4.39131 11.1052C4.38043 11.0223 4.39757 10.9381 4.44 10.8661L6.75 6.78609C6.79926 6.69786 6.86584 6.62048 6.94574 6.55862C7.02565 6.49675 7.11724 6.45168 7.215 6.42609C7.31352 6.40063 7.41618 6.39547 7.51675 6.41094C7.61732 6.42642 7.7137 6.46219 7.8 6.51609L9.75 7.74609C9.86401 7.81192 9.99335 7.84657 10.125 7.84657C10.2567 7.84657 10.386 7.81192 10.5 7.74609L12.99 6.38859C13.0625 6.34857 13.1464 6.3342 13.228 6.34781C13.3097 6.36143 13.3844 6.40222 13.44 6.46359C13.5058 6.52153 13.5483 6.6015 13.5593 6.6885C13.5704 6.7755 13.5493 6.86354 13.5 6.93609Z" fill="url(#paint0_linear_4858_4787)"/>
</g><defs><clipPath id="clip0_4858_4787">
<rect width="18" height="18" fill="white"/>
</clipPath><linearGradient id="paint0_linear_4858_4787" x1="13.5" y1="2.09473" x2="3.67199" y2="17.3762" gradientUnits="userSpaceOnUse">
<stop stop-color="#ED6383"/>
<stop offset="0.5" stop-color="#A442EA"/>
<stop offset="1" stop-color="#2A7EFF"/>
</linearGradient></defs></svg>