<svg width="18" height="18" viewBox="0 0 18 18" fill="none" xmlns="http://www.w3.org/2000/svg" xmlns:xlink="http://www.w3.org/1999/xlink"><g id="X-Twitter-Logo--Streamline-Plump">
<path id="Vector" fill-rule="evenodd" clip-rule="evenodd" d="M5.29632 1.48107C4.64869 1.44171 4.11072 1.4322 3.52762 1.45007C2.48115 1.48212 1.95315 2.65424 2.51762 3.47665C4.13865 5.83845 5.48325 7.74435 6.82643 9.54738L2.03608 14.87C1.68971 15.2548 1.72091 15.8476 2.10576 16.194C2.49062 16.5403 3.08339 16.5091 3.42976 16.1243L7.97899 11.0696C9.13365 12.5698 10.3433 14.0683 11.7746 15.779C12.1112 16.1813 12.5954 16.4487 13.1329 16.4965C13.8062 16.5564 14.3703 16.5701 14.9987 16.5399C16.0382 16.4898 16.5254 15.3252 15.9772 14.5231C14.0857 11.7552 12.5742 9.60352 11.0832 7.62041L15.1597 3.09102C15.5061 2.70617 15.4749 2.1134 15.09 1.76703C14.7051 1.42066 14.1124 1.45186 13.766 1.83671L9.92318 6.10653C8.91866 4.82073 7.88171 3.55851 6.70534 2.18665C6.35269 1.77537 5.84678 1.51452 5.29632 1.48107Z" fill="black"/>
</g></svg>