<svg width="18" height="18" viewBox="0 0 18 18" fill="none" xmlns="http://www.w3.org/2000/svg" xmlns:xlink="http://www.w3.org/1999/xlink"><g id="Whatsapp-Logo--Streamline-Ultimate" clip-path="url(#clip0_4858_4787)">
<path id="Vector" d="M9.00001 0.0665274C6.62471 0.0664606 4.34569 1.0054 2.65979 2.67866C0.973893 4.35191 0.0178223 6.62379 7.55886e-06 8.99903C-0.00237454 10.8167 0.558318 12.5905 1.60501 14.0765L0.585008 17.0765C0.564007 17.1425 0.561286 17.2129 0.577135 17.2802C0.592985 17.3476 0.62681 17.4094 0.675008 17.459C0.724201 17.5079 0.785998 17.5422 0.853526 17.5581C0.921053 17.574 0.991665 17.5709 1.05751 17.549L4.20001 16.5515C5.37204 17.3059 6.70398 17.7762 8.08981 17.9251C9.47564 18.0741 10.8771 17.8974 12.1827 17.4093C13.4882 16.9212 14.6618 16.1351 15.61 15.1135C16.5582 14.0919 17.2549 12.8631 17.6445 11.5249C18.0342 10.1867 18.1061 8.77595 17.8545 7.40503C17.6029 6.03411 17.0348 4.74085 16.1954 3.62817C15.3559 2.51549 14.2683 1.61412 13.0192 0.995798C11.77 0.377477 10.3938 0.059278 9.00001 0.0665274ZM14.4 12.6065C14.1496 13.0845 13.7719 13.4839 13.3086 13.7606C12.8453 14.0372 12.3146 14.1803 11.775 14.174C10.8742 14.0709 9.99698 13.8174 9.18001 13.424C7.35281 12.5907 5.80563 11.2467 4.72501 9.55403C3.28501 7.65653 3.22501 5.87903 4.59751 4.40903C4.78761 4.23074 5.01708 4.09979 5.26728 4.02681C5.51748 3.95384 5.78136 3.94089 6.03751 3.98903C6.23129 4.01336 6.41566 4.08674 6.57315 4.20224C6.73065 4.31774 6.85606 4.47152 6.93751 4.64903L7.23001 5.33903L7.70251 6.47153C7.76177 6.58765 7.79266 6.71616 7.79266 6.84653C7.79266 6.97689 7.76177 7.10541 7.70251 7.22153C7.51054 7.60284 7.25716 7.94997 6.95251 8.24903C7.34269 8.83162 7.79537 9.36981 8.30251 9.85403C8.90646 10.3825 9.59982 10.799 10.35 11.084C10.56 10.8065 10.965 10.334 11.1 10.124C11.2013 9.95902 11.3624 9.83956 11.5497 9.79064C11.737 9.74171 11.936 9.76711 12.105 9.86153C12.39 9.95903 13.9875 10.7465 13.9875 10.7465C14.1917 10.8127 14.3701 10.9413 14.4975 11.114C14.6133 11.3496 14.6652 11.6114 14.6481 11.8733C14.6309 12.1352 14.5454 12.388 14.4 12.6065Z" fill="#25D366"/>
</g><defs><clipPath id="clip0_4858_4787">
<rect width="18" height="18" fill="white"/>
</clipPath></defs></svg>