<svg preserveAspectRatio="none" width="100%" height="100%" overflow="visible" style="display: block;" viewBox="0 0 159.704 27.1312" fill="none" xmlns="http://www.w3.org/2000/svg">
<g id="raised">
<g id="bar-texture">
<g clip-path="url(#clip0_0_45)">
<path d="M0 13.5656C0 8.11682 4.41711 3.69971 9.86589 3.69971H157.854V23.4315H9.86591C4.41713 23.4315 0 19.0144 0 13.5656V13.5656Z" fill="url(#paint0_linear_0_45)"/>
<g id="Group 427321568">
<line id="Line 33" opacity="0.5" x1="12.304" y1="1.64997" x2="-12.1128" y2="26.0668" stroke="var(--stroke-0, #26BA58)" stroke-width="4.31633"/>
<line id="Line 34" opacity="0.5" x1="25.6215" y1="1.64997" x2="1.20469" y2="26.0668" stroke="var(--stroke-0, #26BA58)" stroke-width="4.31633"/>
<line id="Line 35" opacity="0.5" x1="38.939" y1="1.64997" x2="14.5222" y2="26.0668" stroke="var(--stroke-0, #26BA58)" stroke-width="4.31633"/>
<line id="Line 36" opacity="0.5" x1="52.2565" y1="1.64997" x2="27.8397" y2="26.0668" stroke="var(--stroke-0, #26BA58)" stroke-width="4.31633"/>
<line id="Line 37" opacity="0.5" x1="65.5765" y1="1.64997" x2="41.1596" y2="26.0668" stroke="var(--stroke-0, #26BA58)" stroke-width="4.31633"/>
<line id="Line 38" opacity="0.5" x1="78.8915" y1="1.64997" x2="54.4747" y2="26.0668" stroke="var(--stroke-0, #26BA58)" stroke-width="4.31633"/>
<line id="Line 39" opacity="0.5" x1="92.2091" y1="1.64997" x2="67.7922" y2="26.0668" stroke="var(--stroke-0, #26BA58)" stroke-width="4.31633"/>
<line id="Line 40" opacity="0.5" x1="105.527" y1="1.64997" x2="81.1097" y2="26.0668" stroke="var(--stroke-0, #26BA58)" stroke-width="4.31633"/>
<line id="Line 41" opacity="0.5" x1="118.846" y1="1.64997" x2="94.4296" y2="26.0668" stroke="var(--stroke-0, #26BA58)" stroke-width="4.31633"/>
<line id="Line 42" opacity="0.5" x1="132.162" y1="1.64997" x2="107.745" y2="26.0668" stroke="var(--stroke-0, #26BA58)" stroke-width="4.31633"/>
<line id="Line 43" opacity="0.5" x1="145.481" y1="1.64997" x2="121.065" y2="26.0668" stroke="var(--stroke-0, #26BA58)" stroke-width="4.31633"/>
<line id="Line 44" opacity="0.5" x1="158.799" y1="1.64997" x2="134.382" y2="26.0668" stroke="var(--stroke-0, #26BA58)" stroke-width="4.31633"/>
<line id="Line 45" opacity="0.5" x1="172.117" y1="1.64997" x2="147.7" y2="26.0668" stroke="var(--stroke-0, #26BA58)" stroke-width="4.31633"/>
</g>
<line id="Line 33_2" opacity="0.5" x1="185.434" y1="1.65002" x2="161.018" y2="26.0669" stroke="var(--stroke-0, #26BA58)" stroke-width="4.31633"/>
<line id="Line 34_2" opacity="0.5" x1="198.752" y1="1.65002" x2="174.335" y2="26.0669" stroke="var(--stroke-0, #26BA58)" stroke-width="4.31633"/>
<line id="Line 35_2" opacity="0.5" x1="212.069" y1="1.65002" x2="187.653" y2="26.0669" stroke="var(--stroke-0, #26BA58)" stroke-width="4.31633"/>
<line id="Line 36_2" opacity="0.5" x1="225.387" y1="1.65002" x2="200.97" y2="26.0669" stroke="var(--stroke-0, #26BA58)" stroke-width="4.31633"/>
<line id="Line 37_2" opacity="0.5" x1="238.707" y1="1.65002" x2="214.29" y2="26.0669" stroke="var(--stroke-0, #26BA58)" stroke-width="4.31633"/>
<line id="Line 38_2" opacity="0.5" x1="252.022" y1="1.65002" x2="227.605" y2="26.0669" stroke="var(--stroke-0, #26BA58)" stroke-width="4.31633"/>
<line id="Line 39_2" opacity="0.5" x1="265.339" y1="1.65002" x2="240.923" y2="26.0669" stroke="var(--stroke-0, #26BA58)" stroke-width="4.31633"/>
<line id="Line 40_2" opacity="0.5" x1="278.657" y1="1.65002" x2="254.24" y2="26.0669" stroke="var(--stroke-0, #26BA58)" stroke-width="4.31633"/>
<line id="Line 41_2" opacity="0.5" x1="291.977" y1="1.65002" x2="267.56" y2="26.0669" stroke="var(--stroke-0, #26BA58)" stroke-width="4.31633"/>
<line id="Line 42_2" opacity="0.5" x1="305.292" y1="1.65002" x2="280.875" y2="26.0669" stroke="var(--stroke-0, #26BA58)" stroke-width="4.31633"/>
<line id="Line 43_2" opacity="0.5" x1="318.612" y1="1.65002" x2="294.195" y2="26.0669" stroke="var(--stroke-0, #26BA58)" stroke-width="4.31633"/>
<line id="Line 44_2" opacity="0.5" x1="331.929" y1="1.65002" x2="307.513" y2="26.0669" stroke="var(--stroke-0, #26BA58)" stroke-width="4.31633"/>
<line id="Line 45_2" opacity="0.5" x1="345.247" y1="1.65002" x2="320.83" y2="26.0669" stroke="var(--stroke-0, #26BA58)" stroke-width="4.31633"/>
</g>
</g>
<path id="Line 32" d="M158.471 1.23324L158.471 25.898" stroke="var(--stroke-0, #34D56A)" stroke-width="2.46647" stroke-linecap="round"/>
</g>
<defs>
<linearGradient id="paint0_linear_0_45" x1="0" y1="13.5656" x2="157.854" y2="13.5656" gradientUnits="userSpaceOnUse">
<stop stop-color="#28C45D"/>
<stop offset="1" stop-color="#34D56A"/>
</linearGradient>
<clipPath id="clip0_0_45">
<path d="M0 13.5656C0 8.11682 4.41711 3.69971 9.86589 3.69971H157.854V23.4315H9.86591C4.41713 23.4315 0 19.0144 0 13.5656V13.5656Z" fill="white"/>
</clipPath>
</defs>
</svg>
