<svg preserveAspectRatio="none" width="100%" height="100%" overflow="visible" style="display: block;" viewBox="0 0 11.7055 22.1983" fill="none" xmlns="http://www.w3.org/2000/svg">
<g id="flag">
<path id="Rectangle 875" d="M0 4.2795C0 3.95302 0.264662 3.68836 0.59114 3.68836H1.27782C1.6043 3.68836 1.86896 3.95302 1.86896 4.2795L1.86896 21.6071C1.86896 21.9336 1.6043 22.1983 1.27782 22.1983H0.59114C0.264662 22.1983 0 21.9336 0 21.6071L0 4.2795Z" fill="var(--fill-0, #0268C0)"/>
<g id="Group">
<path id="Vector" d="M7.42517 0.804076V9.05041L1.86846 12.2721L1.86846 4.02576L7.42517 0.804076Z" fill="var(--fill-0, #F47435)"/>
<path id="Vector_2" d="M6.15475 3.22791L7.4257 0.804256V3.51757L6.15475 3.22791Z" fill="var(--fill-0, #F47435)"/>
<path id="Vector_3" d="M11.7055 3.291e-05V8.24637L6.1547 11.474L6.1547 3.22763L8.40103 1.92122L11.7055 3.291e-05Z" fill="var(--fill-0, #FF8C53)"/>
</g>
</g>
</svg>
