<svg preserveAspectRatio="none" width="100%" height="100%" overflow="visible" style="display: block;" viewBox="0 0 180.016 67.2667" fill="none" xmlns="http://www.w3.org/2000/svg">
<g id="logo">
<path id="Vector" d="M42.0509 3.80002V3.81669H41.9842L42.0509 3.80002Z" fill="var(--fill-0, white)"/>
<path id="Vector_2" d="M16.1333 0C7.21667 0 0 7.21667 0 16.1333V37.9333H11.9V22.6667C11.9 20.5833 13.5833 18.8833 15.6833 18.8833H40.4333V25.0167H18.9833V32.3667H38V37.95H19.0333L6.58333 67.2667H27.1833L47.95 37.9333V0H16.1333Z" fill="var(--fill-0, #28C45D)"/>
<g id="Group">
<path id="Vector_3" d="M61.8 53.55V38.5167H63.4V45.5667H63.5167C63.9833 43.6667 65.5833 42.25 68.25 42.25C71.7333 42.25 73.6333 44.65 73.6333 48.0167C73.6333 51.3833 71.7333 53.7833 68.1167 53.7833C65.65 53.7833 63.8667 52.5 63.35 50.2833H63.2333V53.5667H61.8V53.55ZM67.7333 52.3167C70.3833 52.3167 72.0167 51.2167 72.0167 48C72.0167 44.7833 70.3333 43.7167 67.7667 43.7167C64.9667 43.7167 63.3833 45.25 63.3833 47.9833V48.1833C63.3833 50.8167 65.05 52.3167 67.7167 52.3167H67.7333Z" fill="var(--fill-0, #003060)"/>
<path id="Vector_4" d="M75.6509 57.3665V55.8999H77.3342C78.4509 55.8999 78.8842 55.5665 79.3176 54.6499L79.8509 53.5332L74.3509 42.4665H76.1009L79.3509 49.0665L80.5842 51.7832H80.7176L81.9009 49.0499L84.9842 42.4665H86.7342L80.7176 55.0999C79.9176 56.7999 78.8842 57.3665 77.0342 57.3665H75.6509Z" fill="var(--fill-0, #003060)"/>
</g>
<g id="Group_2">
<path id="Vector_5" d="M85.9833 11.9833H67.8V18.2167H83.9333V22.95H67.8V32.0833H61.8V9.81667C61.8 8.13333 63.1667 6.78333 64.8333 6.78333H85.9833V11.9833Z" fill="var(--fill-0, #003060)"/>
<path id="Vector_6" d="M109.067 13.9334H114.6V32.0834H109.6V28.0667C107.8 31.05 104.334 32.5334 99.5171 32.5334C92.3671 32.5334 88.4004 30.1667 88.4004 23.2167V13.9334H93.9337V22.2667C93.9337 26.6167 96.0671 28.0834 101.034 28.0834C106 28.0834 109.067 26.25 109.067 21.9334V13.95V13.9334Z" fill="var(--fill-0, #003060)"/>
<path id="Vector_7" d="M147.6 22.7836V32.0669H142.1V23.7336C142.1 19.3836 139.916 17.9169 135.1 17.9169C130.016 17.9169 126.916 19.7836 126.916 24.0003V32.0669H121.416V13.9169H126.416V18.0003C128.216 14.9836 131.733 13.4503 136.65 13.4503C143.6 13.4503 147.583 15.8503 147.583 22.7669L147.6 22.7836Z" fill="var(--fill-0, #003060)"/>
<path id="Vector_8" d="M174.5 6.01667H180V32.0833H175V29.25C173.317 31.3167 170.15 32.5333 164.717 32.5333C155.767 32.5333 152.45 29.6667 152.45 23.9667V22.05C152.45 16.3167 155.767 13.45 164.717 13.45C169.917 13.45 172.9 14.55 174.5 16.5833V6.01667ZM174.5 23.9V22.15C174.5 19.3167 172.667 17.8667 166.467 17.8667C159.9 17.8667 158.217 19.25 158.217 22.1833V23.7833C158.217 26.7667 159.934 28.1333 166.467 28.1333C172.65 28.1333 174.5 26.65 174.5 23.8833V23.9Z" fill="var(--fill-0, #003060)"/>
</g>
<g id="Group_3">
<path id="Vector_9" d="M113.883 38.5167V42.9667H104.949V60.2001H99.8161V42.9667H90.8494V38.5167H113.899H113.883Z" fill="var(--fill-0, #003060)"/>
<path id="Vector_10" d="M137.034 53.2168H119.117V53.3168C119.117 55.6168 120.55 56.7835 125.634 56.7835C130.717 56.7835 132.184 55.9002 132.184 54.4502V54.2502H137.034V54.5168C137 58.4168 134.317 60.6002 125.6 60.6002C116.884 60.6002 114.2 58.0502 114.2 53.2335V51.5668C114.2 46.7835 116.95 44.2002 125.6 44.1668C134.284 44.1668 137.034 46.6502 137.034 51.2335V53.2002V53.2168ZM119.15 50.8335H132.15C132.017 48.8668 130.35 47.8502 125.6 47.8502C120.85 47.8502 119.384 48.8335 119.15 50.8335Z" fill="var(--fill-0, #003060)"/>
<path id="Vector_11" d="M161.882 60.1835H155.632L149.899 54.9502L144.332 60.1835H138.282L146.732 52.3835L138.515 44.6168H144.799L150.099 49.7502L155.532 44.6168H161.615L153.265 52.3168L161.882 60.1835Z" fill="var(--fill-0, #003060)"/>
<path id="Vector_12" d="M179.999 56.3001V60.2001H172.966C167.199 60.2001 165.399 57.9667 165.399 53.1001V48.3834H162.583V44.6501H165.399V40.7167H170.116V44.6501H179.483V48.3834H170.116V52.5167C170.116 55.1667 170.966 56.3167 174.116 56.3167H180.016L179.999 56.3001Z" fill="var(--fill-0, #003060)"/>
</g>
</g>
</svg>
