<svg preserveAspectRatio="none" width="100%" height="100%" overflow="visible" style="display: block;" viewBox="0 0 23.5 23.5" fill="none" xmlns="http://www.w3.org/2000/svg">
<g id="user-feedback-heart">
<path id="Union" fill-rule="evenodd" clip-rule="evenodd" d="M1.25 13C0.559645 13 0 12.4404 0 11.75C0 8.5098 1.30152 5.57195 3.40608 3.44598C5.51085 1.31979 8.425 0 11.6443 0C14.6804 0 17.4449 1.17379 19.5152 3.09075C19.8168 2.84504 20.1217 2.62044 20.4221 2.42471C21.1227 1.96826 22.0229 2.34773 22.2359 3.11745C22.6378 4.56998 22.8504 6.24125 22.941 7.09425C23.0235 7.871 22.3767 8.52225 21.5993 8.4449C20.7208 8.3575 18.9624 8.1466 17.5807 7.7398C16.8165 7.5148 16.4708 6.623 16.912 5.9419C17.1471 5.5789 17.4246 5.2092 17.7308 4.8465C16.112 3.38488 13.9805 2.5 11.6443 2.5C9.123 2.5 6.84 3.53072 5.18275 5.2048C3.52534 6.87905 2.5 9.1912 2.5 11.75C2.5 12.4404 1.94035 13 1.25 13ZM22.25 10.5C22.9404 10.5 23.5 11.0597 23.5 11.75C23.5 14.9902 22.1985 17.928 20.0939 20.054C17.9892 22.1802 15.075 23.5 11.8557 23.5C8.81965 23.5 6.05505 22.3262 3.98475 20.4092C3.68317 20.6549 3.37829 20.8796 3.07786 21.0753C2.37727 21.5318 1.4771 21.1523 1.26414 20.3826C0.862255 18.93 0.64967 17.2588 0.559055 16.4058C0.476545 15.629 1.12337 14.9778 1.9007 15.0551C2.77925 15.1425 4.53763 15.3534 5.91935 15.7602C6.6835 15.9852 7.0292 16.877 6.5881 17.5581C6.35295 17.9211 6.07545 18.2908 5.76925 18.6535C7.388 20.1151 9.51955 21 11.8557 21C14.377 21 16.66 19.9693 18.3173 18.2952C19.9747 16.621 21 14.3088 21 11.75C21 11.0597 21.5597 10.5 22.25 10.5ZM6.1078 10.1632C6.64835 7.67445 9.64465 6.6397 11.5232 8.32355C11.6015 8.3933 11.6775 8.471 11.75 8.54765C11.8225 8.471 11.8985 8.3933 11.9768 8.32355C13.8554 6.6397 16.8517 7.6745 17.3922 10.1632C17.6408 11.2412 17.4549 12.3995 16.8814 13.3367C15.9551 14.853 14.4962 16.0387 13.0797 17.0882C12.2915 17.6722 11.2086 17.6722 10.4204 17.0882C9.0038 16.0387 7.5449 14.853 6.6186 13.3367C6.04515 12.3995 5.8592 11.2412 6.1078 10.1632Z" fill="url(#paint0_linear_0_27)"/>
</g>
<defs>
<linearGradient id="paint0_linear_0_27" x1="11.75" y1="0" x2="11.75" y2="23.5" gradientUnits="userSpaceOnUse">
<stop stop-color="white"/>
<stop offset="1" stop-color="white" stop-opacity="0.7"/>
</linearGradient>
</defs>
</svg>
