<svg preserveAspectRatio="none" width="100%" height="100%" overflow="visible" style="display: block;" viewBox="0 0 21.56 20.6408" fill="none" xmlns="http://www.w3.org/2000/svg">
<g id="share-money-dollar--payment-cash-money-finance-receive-give-hand">
<path id="Union" fill-rule="evenodd" clip-rule="evenodd" d="M21.56 8.51615C21.56 10.7337 19.1875 11.2028 19.1875 11.2028V12.0089C19.1875 12.3689 18.9467 12.6925 18.5878 12.761C18.0392 12.8657 16.8123 12.9101 16.4315 12.6281C16.0701 12.3909 16.0334 11.5639 16.0334 11.2028C16.0334 11.2028 14.4207 10.7979 13.8928 10.4245C13.0729 9.84463 13.3107 9.16928 13.7346 8.57821C13.9588 8.26549 14.3755 8.17346 14.7405 8.29551C14.7995 8.31527 14.861 8.33548 14.9247 8.35597C15.61 8.57656 16.5685 8.83818 17.6589 8.99947C17.9808 9.04704 18.2825 8.83891 18.3328 8.53453C18.3831 8.2302 18.1631 7.94489 17.8412 7.89731C17.0561 7.78112 16.3411 7.60787 15.7609 7.43944C15.1298 7.1764 14.5544 6.92267 14.1178 6.40085C13.6182 5.80617 13.303 5.0952 13.303 4.27955C13.303 2.06204 15.6755 1.59289 15.6755 1.59289V0.786866C15.6755 0.426799 16.0727 0.125537 16.4315 0.0570618C16.9802 -0.0476215 18.0507 -0.0235132 18.4315 0.258408C18.7929 0.495595 18.8296 1.23182 18.8296 1.59289C18.8296 1.59289 20.2173 1.89631 20.7452 2.26971C21.5804 2.86046 21.5034 3.6124 21.1492 4.23848C20.9567 4.5788 20.5255 4.664 20.1562 4.53539C20.1046 4.51742 20.051 4.49909 19.9955 4.48057C19.32 4.25494 18.3563 3.99231 17.1936 3.84065C16.871 3.79853 16.5733 4.01179 16.5288 4.31695C16.4842 4.62211 16.7097 4.90362 17.0324 4.94574C17.9203 5.0616 18.6817 5.24782 19.267 5.42552C19.8331 5.66592 20.3468 5.91882 20.7452 6.3949C21.2448 6.98958 21.56 7.70055 21.56 8.51615ZM1.05655 11.4078C0.56485 11.5608 0.217937 11.9907 0.167154 12.5032C0.0924 13.2573 0 14.4261 0 15.5948C0 16.6802 0.0797042 17.7657 0.150929 18.519C0.207396 19.1161 0.659404 19.5897 1.25148 19.6847C3.19362 19.9965 7.58102 20.6408 10.6809 20.6408C13.0277 20.6408 17.7233 19.061 19.9188 18.2733C20.6336 18.0168 21.1596 17.3157 20.9272 16.5928C20.6162 15.6247 19.9546 15.2579 19.4981 15.1189C19.1863 15.0241 18.859 15.0627 18.5379 15.1184C17.0355 15.379 12.4151 16.1555 10.6809 16.1555C9.8631 16.1555 8.74656 16.006 8.09293 15.9063C7.78076 15.8587 7.55475 15.589 7.55475 15.2732C7.55475 14.8928 7.87953 14.5934 8.25871 14.6243L11.798 14.9128C12.5995 14.9782 13.3043 14.3364 13.1211 13.5535C13.0227 13.1329 12.8918 12.7828 12.7612 12.5031C12.4886 11.9192 11.9202 11.5689 11.2961 11.4084C10.0073 11.0771 7.61626 10.5489 5.47071 10.5489C4.04122 10.5489 2.12144 11.0764 1.05655 11.4078Z" fill="var(--fill-0, white)"/>
</g>
</svg>
