<svg preserveAspectRatio="none" width="100%" height="100%" overflow="visible" style="display: block;" viewBox="0 0 21.56 20.1838" fill="none" xmlns="http://www.w3.org/2000/svg">
<g id="information-desk">
<path id="Union" fill-rule="evenodd" clip-rule="evenodd" d="M10.0919 5.73402C10.0919 2.56722 12.6591 0 15.826 0C18.9928 0 21.56 2.56722 21.56 5.73402C21.56 8.90088 18.9928 11.4681 15.826 11.4681C12.6592 11.4681 10.0919 8.90088 10.0919 5.73402ZM15.826 2.06424C16.3327 2.06424 16.7434 2.475 16.7434 2.98169V3.44043C16.7434 3.94712 16.3327 4.35788 15.826 4.35788C15.3193 4.35788 14.9085 3.94712 14.9085 3.44043V2.98169C14.9085 2.475 15.3192 2.06424 15.826 2.06424ZM15.826 4.81658C16.3327 4.81658 16.7434 5.22734 16.7434 5.73402V8.94511C16.7434 9.4518 16.3327 9.86255 15.826 9.86255C15.3193 9.86255 14.9085 9.4518 14.9085 8.94511V5.73402C14.9085 5.22734 15.3192 4.81658 15.826 4.81658ZM2.75266 8.48636C2.75266 6.83962 4.0876 5.50467 5.73435 5.50467C7.38109 5.50467 8.71608 6.83962 8.71608 8.48636C8.71608 10.1331 7.38109 11.4681 5.73435 11.4681C4.0876 11.4681 2.75266 10.1332 2.75266 8.48636ZM4.67816 11.9501C5.00179 11.9355 5.35462 11.9268 5.73439 11.9268C6.11408 11.9268 6.4669 11.9355 6.79048 11.95C8.34373 12.0194 9.53086 13.1984 9.75618 14.7165C9.80719 15.0601 9.85848 15.4322 9.90706 15.8262C5.29004 15.8287 2.79111 15.8515 1.55627 15.8686C1.60637 15.4589 1.65949 15.0724 1.71229 14.7166C1.9376 13.1985 3.12483 12.0194 4.67816 11.9501ZM20.3065 17.0199C19.1568 17.0019 16.4228 16.9728 10.7799 16.9728C5.13764 16.9728 2.40355 17.0019 1.25363 17.0199C0.7491 17.0278 0.17545 17.2652 0.0609125 17.8711C0.0242 18.0652 0 18.3017 0 18.5881C0 18.8692 0.0233292 19.1024 0.0589417 19.2945C0.172608 19.9081 0.755104 20.1465 1.26532 20.1519C2.42078 20.1641 5.15497 20.1838 10.7799 20.1838C16.4054 20.1838 19.1396 20.1641 20.2949 20.1519C20.8049 20.1465 21.3872 19.9083 21.501 19.2949C21.5366 19.1027 21.56 18.8694 21.56 18.5881C21.56 18.3015 21.5358 18.0648 21.499 17.8706C21.3843 17.265 20.8108 17.0278 20.3065 17.0199Z" fill="url(#paint0_linear_0_29)"/>
</g>
<defs>
<linearGradient id="paint0_linear_0_29" x1="10.78" y1="0" x2="10.78" y2="20.1838" gradientUnits="userSpaceOnUse">
<stop stop-color="white"/>
<stop offset="1" stop-color="white"/>
</linearGradient>
</defs>
</svg>
