<svg preserveAspectRatio="none" width="100%" height="100%" overflow="visible" style="display: block;" viewBox="0 0 20.625 21.3125" fill="none" xmlns="http://www.w3.org/2000/svg">
<g id="mail-newsletter-paid-subscription--mail-newsletter-paid-subscription-dollar-business-contract">
<path id="Subtract" fill-rule="evenodd" clip-rule="evenodd" d="M18.361 10.4071C18.7062 10.1867 19.023 9.98035 19.3021 9.79628C19.6827 9.5452 19.9922 9.33611 20.206 9.19009C20.3063 9.12161 20.3856 9.06707 20.4412 9.02853C20.4097 8.67978 20.3769 8.37568 20.3451 8.11447C20.2245 7.12388 19.6176 6.30117 18.773 5.83894C18.7039 5.80108 18.6319 5.76189 18.5573 5.72142C18.5607 5.95256 18.5625 6.18475 18.5625 6.41667C18.5625 7.39558 18.53 8.24908 18.4847 8.96271C18.4482 9.53741 18.4035 10.0214 18.361 10.4071ZM20.0592 10.9441C20.2399 10.8249 20.405 10.7149 20.5519 10.6162C20.5959 11.4704 20.625 12.481 20.625 13.6583C20.625 15.7727 20.5309 17.349 20.4264 18.4478C20.2827 19.9585 19.0706 21.0436 17.5954 21.1309C16.103 21.2193 13.7206 21.3125 10.3125 21.3125C6.90438 21.3125 4.52196 21.2193 3.02959 21.1309C1.55442 21.0436 0.34227 19.9584 0.198587 18.4478C0.0940729 17.349 0 15.7727 0 13.6583C0 12.481 0.0291683 11.4704 0.0730675 10.6163C0.220014 10.7149 0.385101 10.8249 0.565845 10.9441C1.34029 11.455 2.405 12.1372 3.56329 12.8204C4.71932 13.5022 5.98033 14.1922 7.14523 14.7137C8.2808 15.2221 9.42585 15.6183 10.3125 15.6183C11.1991 15.6183 12.3442 15.2221 13.4797 14.7137C14.6446 14.1921 15.9057 13.5022 17.0617 12.8204C18.22 12.1371 19.2847 11.4549 20.0592 10.9441ZM0.189787 8.96275L0.183783 9.02857C0.239447 9.06707 0.318684 9.12166 0.418985 9.19013C0.632858 9.33616 0.942306 9.54525 1.32297 9.79633C1.60197 9.98039 1.91884 10.1867 2.26405 10.4072C2.22147 10.0215 2.17678 9.53746 2.14032 8.96275C2.09506 8.24908 2.0625 7.39558 2.0625 6.41667C2.0625 6.18475 2.06433 5.95256 2.06772 5.72142C1.99311 5.76189 1.92115 5.80108 1.85203 5.83894C1.00737 6.30117 0.400501 7.12388 0.279909 8.11447C0.250122 8.35913 0.219436 8.64142 0.189787 8.96275ZM3.4375 6.41667C3.4375 5.8844 3.44744 5.34948 3.46385 4.829C3.4764 4.43053 3.49276 4.04055 3.51135 3.66667C3.53324 3.22655 3.55823 2.80876 3.5838 2.42579C3.59726 2.22417 3.63336 2.02955 3.68963 1.84448C3.99346 0.845061 4.88537 0.123787 5.97561 0.0789479C7.01736 0.0361075 8.44828 0 10.3125 0C12.1767 0 13.6076 0.0361075 14.6494 0.0789479C15.9416 0.132092 16.9551 1.1354 17.0412 2.42579C17.0914 3.17743 17.1394 4.06322 17.166 4.98868C17.1795 5.45857 17.1875 5.93867 17.1875 6.41667C17.1875 7.4057 17.1532 8.25981 17.1068 8.96271C17.049 9.83831 16.9725 10.4793 16.9201 10.8542C16.8854 11.1018 16.7434 11.3167 16.5317 11.4498C15.4553 12.1264 12.006 14.2083 10.3125 14.2083C8.61905 14.2083 5.16968 12.1264 4.09328 11.4498C3.88158 11.3167 3.73957 11.1018 3.70496 10.8542C3.65255 10.4793 3.57599 9.83831 3.5182 8.96275C3.4718 8.25981 3.4375 7.4057 3.4375 6.41667ZM13.3744 8.59797C13.3744 10.2994 11.6149 10.6594 11.6149 10.6594V11.2778C11.6149 11.554 11.4362 11.8024 11.1701 11.8549C10.7632 11.9352 9.8533 11.9693 9.57087 11.7529C9.30284 11.5709 9.27557 10.9364 9.27557 10.6594C9.27557 10.6594 8.07959 10.3487 7.68804 10.0622C7.13025 9.65406 7.23255 9.18436 7.49586 8.75939C7.69138 8.44392 8.10123 8.3578 8.45332 8.47509C8.96156 8.64435 9.67248 8.84505 10.4812 8.9688C10.7199 9.00533 10.9436 8.8456 10.9809 8.61208C11.0183 8.37861 10.855 8.15966 10.6164 8.12313C10.0341 8.03403 9.50386 7.90112 9.07349 7.77187C8.60548 7.57006 8.17873 7.37541 7.85487 6.97496C7.4844 6.51869 7.2506 5.97318 7.2506 5.34738C7.2506 3.64598 9.01015 3.28601 9.01015 3.28601V2.66756C9.01015 2.39132 9.30476 2.16017 9.57087 2.10763C9.97778 2.0273 10.7717 2.04579 11.0541 2.2621C11.3221 2.44411 11.3494 3.00895 11.3494 3.28601C11.3494 3.28601 12.3786 3.51881 12.7701 3.80529C13.3452 4.22606 13.3371 4.75342 13.1229 5.21116C12.9683 5.54152 12.5589 5.62077 12.2141 5.5016C11.7131 5.32849 10.9984 5.12701 10.1361 5.01064C9.89679 4.97832 9.67601 5.14195 9.64301 5.37607C9.60997 5.61023 9.77721 5.8262 10.0166 5.85851C10.675 5.94743 11.2397 6.09033 11.6738 6.22664C12.0936 6.41107 12.4747 6.60513 12.7701 6.97038C13.1406 7.4267 13.3744 7.9722 13.3744 8.59797Z" fill="var(--fill-0, white)"/>
</g>
</svg>
