<svg width="109.345" height="27" overflow="visible" style="display: block;" viewBox="0 0 109.345 27" fill="none" xmlns="http://www.w3.org/2000/svg">
<g id="Group">
<path id="Vector" fill-rule="evenodd" clip-rule="evenodd" d="M0 6.16345L11.8718 0L23.871 6.16345L11.8718 12.3424L0 6.16345ZM71.2695 9.15634V9.00747C71.2695 6.97931 72.4626 6.32887 74.4721 6.47293V2.76451C69.6581 2.47104 67.3765 4.88285 67.3765 9.00747V9.15634H65.1994V12.8653H67.3765V24.092H71.2695V12.8653H75.749V24.092H79.642V12.8653H82.8446V9.15634H79.642V9.00747C79.642 6.97931 80.8143 6.32887 82.8446 6.47293V2.76451C78.0306 2.47104 75.749 4.88285 75.749 9.00747V9.15634H71.2695ZM44.0582 13.2175C45.2929 12.2357 46.0464 10.8323 46.0464 9.02881C46.0464 5.53329 43.1997 3.14336 39.6204 3.14336H31.3103V24.0493H40.29C43.9531 24.0493 46.8836 21.5788 46.8836 17.9984C46.8419 15.8374 45.7534 14.1827 44.0582 13.2175ZM39.6412 7.01719C40.981 7.01719 41.902 8.00379 41.902 9.32229C41.902 10.645 40.9389 11.6268 39.6412 11.6268H35.476V7.01719H39.6412ZM40.2692 20.2181H35.476V15.2926H40.2692C41.6928 15.2926 42.7184 16.3384 42.7184 17.7417C42.7184 19.167 41.6928 20.2181 40.2692 20.2181ZM59.0242 9.135V17.198C59.0242 19.7966 57.6012 20.9064 55.6963 20.9064C53.9376 20.9064 52.7028 19.8606 52.7028 17.8271V9.135H48.8093V18.3079C48.8093 22.2884 51.3006 24.4921 54.524 24.4921C56.5543 24.4921 58.1241 23.7345 59.0034 22.3952V24.0706H62.8965V9.135H59.0242ZM98.9829 18.1846H87.5967C88.1618 20.1541 89.794 20.9918 91.8248 20.9918C93.3525 20.9918 94.567 20.3617 95.2158 19.5031L98.3554 21.2853C96.9531 23.3177 94.6923 24.4921 91.7827 24.4921C86.7174 24.4921 83.5148 21.0558 83.5148 16.5951C83.5148 12.129 86.7382 8.69212 91.4898 8.69212C95.9484 8.69212 99.1302 12.193 99.1302 16.5951C99.1302 17.1767 99.0672 17.6836 98.9829 18.1846ZM91.4898 12.193C89.397 12.193 87.9729 13.3028 87.5332 15.2072H95.2366C94.7548 13.0521 93.1225 12.193 91.4898 12.193ZM104.761 11.7122V9.135H100.868V24.0706H104.761V16.9259C104.761 13.7825 107.315 12.8866 109.345 13.1369V8.84206C107.44 8.84206 105.535 9.67979 104.761 11.7122ZM11.8718 22.9127L3.77245 18.5106L0 20.5543L11.8718 27L23.871 20.5543L20.0559 18.5106L11.8718 22.9127ZM3.77245 11.5687L11.8718 15.5594L20.0559 11.5687L23.871 13.4309L11.8718 19.2843L0 13.4309L3.77245 11.5687Z" fill="var(--fill-0, white)"/>
</g>
</svg>
