<svg width="132.037" height="26" overflow="visible" style="display: block;" viewBox="0 0 132.037 26" fill="none" xmlns="http://www.w3.org/2000/svg">
<g id="Logo">
<path id="Vector" d="M15.3231 4.89028L7.66153 9.78056L15.3231 14.6708L7.66153 19.5611L0 14.6301L7.66153 9.73981L0 4.89028L7.66153 0L15.3231 4.89028ZM7.62077 21.1097L15.2823 16.2194L22.9438 21.1097L15.2823 26L7.62077 21.1097ZM15.3231 14.6301L22.9846 9.73981L15.3231 4.89028L22.9438 0L30.6054 4.89028L22.9438 9.78056L30.6054 14.6708L22.9438 19.5611L15.3231 14.6301Z" fill="var(--fill-0, white)"/>
<path id="Vector_2" d="M36.5938 4.89075H42.7882C46.7412 4.89075 50.0014 7.17288 50.0014 12.3892V13.4895C50.0014 18.7465 46.945 21.1102 42.9104 21.1102H36.5938V4.89075ZM40.0577 7.82491V18.1353H42.7067C44.9481 18.1353 46.4559 16.6682 46.4559 13.408V12.5522C46.4559 9.292 44.8666 7.82491 42.5844 7.82491H40.0577ZM51.8353 7.98792H54.6065L55.0548 11.0444C55.5846 8.96598 56.9294 7.86567 59.3746 7.86567H60.2304V11.3704H58.804C55.9921 11.3704 55.2993 12.3484 55.2993 15.1196V21.1509H51.8761V7.98792H51.8353ZM60.9232 14.8343V14.4675C60.9232 10.0663 63.7351 7.6619 67.5659 7.6619C71.4782 7.6619 74.2086 10.0663 74.2086 14.4675V14.8343C74.2086 19.1541 71.5597 21.477 67.5659 21.477C63.3276 21.4362 60.9232 19.1541 60.9232 14.8343V14.8343ZM70.7039 14.7936V14.4675C70.7039 12.0224 69.4813 10.5553 67.5251 10.5553C65.6097 10.5553 64.3464 11.9002 64.3464 14.4675V14.7936C64.3464 17.1572 65.569 18.502 67.5251 18.502C69.4813 18.4613 70.7039 17.1572 70.7039 14.7936ZM76.0017 7.98792H78.8544L79.1804 10.4738C79.8732 8.80297 81.3403 7.6619 83.5002 7.6619C86.842 7.6619 89.0426 10.0663 89.0426 14.5083V14.8751C89.0426 19.1948 86.5974 21.477 83.5002 21.477C81.4218 21.477 79.9955 20.5396 79.3027 19.0318V25.6744H75.961L76.0017 7.98792ZM85.5786 14.7936V14.5083C85.5786 11.9001 84.2338 10.5961 82.4407 10.5961C80.5253 10.5961 79.2619 12.0632 79.2619 14.5083V14.7528C79.2619 17.0757 80.4845 18.5428 82.3999 18.5428C84.356 18.502 85.5786 17.2387 85.5786 14.7936ZM94.096 18.7058L93.8107 21.1102H90.8765V3.58667H94.2182V10.3108C94.9518 8.59921 96.4189 7.6619 98.4973 7.6619C101.635 7.70266 103.958 9.86253 103.958 14.223V14.6306C103.958 18.9911 101.757 21.477 98.4158 21.477C96.2151 21.4362 94.7888 20.4174 94.096 18.7058V18.7058ZM100.453 14.6306V14.3045C100.453 11.9001 99.1493 10.5553 97.3154 10.5553C95.4408 10.5553 94.1367 12.0632 94.1367 14.3453V14.6306C94.1367 17.0757 95.4001 18.502 97.2747 18.502C99.2716 18.502 100.453 17.2387 100.453 14.6306V14.6306ZM105.425 14.8343V14.4675C105.425 10.0663 108.237 7.6619 112.068 7.6619C115.98 7.6619 118.711 10.0663 118.711 14.4675V14.8343C118.711 19.1541 116.021 21.477 112.068 21.477C107.83 21.4362 105.425 19.1541 105.425 14.8343V14.8343ZM115.247 14.7936V14.4675C115.247 12.0224 114.024 10.5553 112.068 10.5553C110.153 10.5553 108.889 11.9002 108.889 14.4675V14.7936C108.889 17.1572 110.112 18.502 112.068 18.502C114.024 18.4613 115.247 17.1572 115.247 14.7936ZM123.193 14.3045L118.588 7.98792H122.541L125.19 11.9409L127.88 7.98792H131.792L127.106 14.2638L132.037 21.1102H128.165L125.15 16.7497L122.215 21.1102H118.181L123.193 14.3045Z" fill="var(--fill-0, white)"/>
</g>
</svg>
