<svg width="88.666" height="19.0683" overflow="visible" style="display: block;" viewBox="0 0 88.666 19.0683" fill="none" xmlns="http://www.w3.org/2000/svg">
<g id="Group">
<path id="Vector" d="M0 18.6667V0H11.3907V3.6129H4.31543V8.63082H11.3907V12.1935H4.31543V18.6667H0Z" fill="var(--fill-0, white)"/>
<path id="Vector_2" d="M14.2502 18.6665V5.82059H18.3147V8.48009C18.5154 7.57687 18.967 6.82418 19.6194 6.32239C20.2717 5.82059 21.0244 5.5697 21.8272 5.5697C22.2287 5.5697 22.6301 5.61988 22.881 5.67005V9.48368C22.3792 9.4335 21.9778 9.38332 21.6767 9.38332C19.4186 9.38332 18.3147 10.8385 18.3147 13.6485V18.6163H14.2502V18.6665Z" fill="var(--fill-0, white)"/>
<path id="Vector_3" d="M29.9063 18.9676C28.0497 18.9676 26.5443 18.3152 25.4905 17.0608C24.3866 15.8063 23.8848 14.1504 23.8848 12.1934C23.8848 10.2364 24.4367 8.63066 25.5407 7.326C26.6446 6.07152 28.15 5.41919 29.9565 5.41919C30.8597 5.41919 31.6626 5.61991 32.3651 6.02134C33.0676 6.42277 33.6196 6.92457 33.9708 7.62707V5.77044H38.0354V18.6163H33.9708V16.8099C33.6196 17.4622 33.0676 17.964 32.3149 18.3654C31.6124 18.817 30.8095 18.9676 29.9063 18.9676ZM31.0604 15.6056C32.0138 15.6056 32.8167 15.3045 33.3185 14.6522C33.8203 13.9998 34.1214 13.197 34.1214 12.2436C34.1214 11.2902 33.8705 10.4873 33.3185 9.83496C32.7665 9.18263 32.0138 8.88155 31.0604 8.88155C30.1572 8.88155 29.4045 9.18263 28.8525 9.83496C28.3005 10.4371 27.9995 11.2902 27.9995 12.2436C27.9995 13.2471 28.3005 14.05 28.8525 14.7023C29.4045 15.3045 30.1572 15.6056 31.0604 15.6056Z" fill="var(--fill-0, white)"/>
<path id="Vector_4" d="M41.3984 18.6669V5.82098H45.463V7.67761C45.764 7.02528 46.2157 6.47331 46.868 6.07188C47.5203 5.67044 48.273 5.46973 49.1261 5.46973C51.1332 5.46973 52.4881 6.27259 53.1404 7.82815C53.4917 7.12564 54.0436 6.52349 54.7462 6.12206C55.4988 5.67044 56.3017 5.46973 57.2049 5.46973C60.2659 5.46973 61.7713 7.226 61.7713 10.6884V18.6669H57.6566V11.4411C57.6566 9.73496 57.0042 8.93209 55.7497 8.93209C54.2945 8.93209 53.592 9.98586 53.592 12.0934V18.717H49.5777V11.3909C49.5777 9.73496 48.9253 8.88191 47.6709 8.88191C46.9684 8.88191 46.4164 9.13281 46.0651 9.58442C45.7139 10.036 45.5131 10.8891 45.5131 12.0432V18.6669H41.3984Z" fill="var(--fill-0, white)"/>
<path id="Vector_5" d="M77.7275 11.5414C77.7275 12.0934 77.6773 12.6454 77.6272 13.3479H68.1433C68.1934 14.2009 68.4443 14.8532 68.9963 15.3049C69.5483 15.7565 70.2508 16.0074 71.154 16.0074C72.4085 16.0074 73.2114 15.6059 73.5626 14.8031H77.577C77.3763 16.0575 76.6738 17.1113 75.5196 17.864C74.3153 18.6669 72.9103 19.0683 71.2042 19.0683C68.9963 19.0683 67.2902 18.4661 66.0357 17.2618C64.7812 16.0575 64.1289 14.4016 64.1289 12.2439C64.1289 10.1364 64.7812 8.48048 66.0357 7.27618C67.2902 6.07188 68.9963 5.46973 71.0537 5.46973C73.0608 5.46973 74.6666 6.0217 75.9211 7.17582C77.0752 8.27976 77.7275 9.73496 77.7275 11.5414ZM68.0931 10.7887H73.663C73.663 9.93568 73.4121 9.28335 72.9605 8.83173C72.5089 8.38012 71.8565 8.12922 70.9533 8.12922C70.1003 8.12922 69.3977 8.38012 68.8959 8.88191C68.3942 9.3837 68.1433 10.036 68.0931 10.7887Z" fill="var(--fill-0, white)"/>
<path id="Vector_6" d="M80.0352 18.6664V5.82048H84.0997V8.47997C84.3004 7.57675 84.752 6.82406 85.4043 6.32227C86.0567 5.82048 86.8094 5.56958 87.6122 5.56958C88.0137 5.56958 88.4151 5.61976 88.666 5.66994V9.48356C88.1642 9.43338 87.7628 9.3832 87.4617 9.3832C85.2036 9.3832 84.0997 10.8384 84.0997 13.6484V18.6162H80.0352V18.6664Z" fill="var(--fill-0, white)"/>
</g>
</svg>
