<svg width="98.3041" height="28" overflow="visible" style="display: block;" viewBox="0 0 98.3041 28" fill="none" xmlns="http://www.w3.org/2000/svg">
<g id="Logo">
<path id="Vector" d="M10.6465 4.73925V12.5989H3.4258V4.73925H0V23.5012H3.42673V15.8967H10.6456V23.5012H14.0732V4.73925H10.6465ZM25.0416 17.437C25.0416 18.1891 24.7428 18.9103 24.2111 19.442C23.6793 19.9738 22.9581 20.2725 22.2061 20.2725C21.454 20.2725 20.7328 19.9738 20.201 19.442C19.6693 18.9103 19.3705 18.1891 19.3705 17.437V9.4003H16.12V17.437C16.12 19.0496 16.7606 20.596 17.9008 21.7362C19.041 22.8764 20.5875 23.517 22.2 23.517C23.8125 23.517 25.359 22.8764 26.4992 21.7362C27.6395 20.596 28.28 19.0496 28.28 17.437V9.4003H25.0416V17.437ZM49.127 10.2285C49.127 8.58049 50.2167 8.05837 51.4103 8.05837C52.3729 8.05837 53.6434 8.79101 54.4753 9.67944L56.6037 7.16993C55.5409 5.73248 53.3856 4.73925 51.6208 4.73925C48.0939 4.73925 45.5435 6.80454 45.5435 10.2285C45.5435 16.5811 53.3077 14.5649 53.3077 18.1205C53.3077 19.2167 52.2431 20.1849 51.0245 20.1849C49.102 20.1849 48.4788 19.2455 47.5959 18.2513L45.2329 20.7079C46.7445 22.5627 48.6086 23.5049 50.8408 23.5049C54.1915 23.5049 56.8865 21.4146 56.8865 18.1465C56.8865 11.0946 49.1214 13.2861 49.1214 10.2285M97.1606 20.5039C95.24 20.5039 94.6937 19.673 94.6937 18.4006V12.7667H97.6799V9.91222H94.6937V6.14609L91.3978 7.62528V19.1008C91.3978 22.036 93.4232 23.5152 96.1998 23.5152C96.6357 23.5226 97.0716 23.4873 97.5 23.4113L98.3041 20.4511C97.9415 20.4761 97.5251 20.5011 97.1606 20.5011M37.4149 9.49397C35.8049 9.49397 34.6809 9.96137 33.594 11.0269V4.85146H30.3389V16.2982C30.3389 20.5827 33.4364 23.5189 36.9178 23.5189C40.7795 23.5189 44.1766 20.5308 44.1766 16.5078C44.1766 12.5349 41.0503 9.49675 37.4149 9.49675M37.3945 20.2424C36.9094 20.2424 36.429 20.1468 35.9808 19.9612C35.5325 19.7755 35.1253 19.5034 34.7822 19.1604C34.4392 18.8173 34.1671 18.4101 33.9814 17.9619C33.7958 17.5137 33.7002 17.0333 33.7002 16.5481C33.7002 16.063 33.7958 15.5826 33.9814 15.1344C34.1671 14.6862 34.4392 14.279 34.7822 13.9359C35.1253 13.5929 35.5325 13.3208 35.9808 13.1351C36.429 12.9494 36.9094 12.8539 37.3945 12.8539C38.3743 12.8539 39.3139 13.2431 40.0068 13.9359C40.6996 14.6287 41.0888 15.5684 41.0888 16.5481C41.0888 17.5279 40.6996 18.4676 40.0068 19.1604C39.3139 19.8532 38.3743 20.2424 37.3945 20.2424M72.7673 16.3372C72.7673 12.3067 69.3776 9.32611 65.5085 9.32611C62.028 9.32611 58.9296 12.2613 58.9296 16.5468V28H62.1848V21.8162C63.2698 22.8799 64.3957 23.3491 66.0038 23.3491C69.6392 23.3491 72.7663 20.311 72.7663 16.3372M69.6846 16.2964C69.6846 17.2761 69.2954 18.2158 68.6026 18.9086C67.9098 19.6014 66.9701 19.9906 65.9903 19.9906C65.0105 19.9906 64.0709 19.6014 63.3781 18.9086C62.6853 18.2158 62.296 17.2761 62.296 16.2964C62.296 15.3166 62.6853 14.3769 63.3781 13.6841C64.0709 12.9913 65.0105 12.6021 65.9903 12.6021C66.9701 12.6021 67.9098 12.9913 68.6026 13.6841C69.2954 14.3769 69.6846 15.3166 69.6846 16.2964" fill="var(--fill-0, white)"/>
<path id="Vector_2" d="M83.2525 9.04389V5.77299C83.6847 5.57098 84.0507 5.25035 84.3078 4.84844C84.5649 4.44653 84.7026 3.97985 84.7048 3.50274V3.42763C84.7048 2.03654 83.577 0.90884 82.1859 0.90884H82.1108C81.4428 0.90884 80.8021 1.17421 80.3298 1.64658C79.8574 2.11894 79.592 2.7596 79.592 3.42763V3.50274C79.5942 3.97985 79.7319 4.44653 79.989 4.84844C80.2461 5.25035 80.6121 5.57098 81.0443 5.77299V9.04389C79.802 9.23411 78.632 9.74919 77.6528 10.537L68.6821 3.55004C68.7461 3.31912 68.7795 3.08171 68.7832 2.84337C68.7843 2.28203 68.6189 1.73297 68.3079 1.26564C67.9969 0.798318 67.5543 0.433722 67.0361 0.217973C66.5178 0.00222394 65.9473 -0.0549846 65.3965 0.0535833C64.8458 0.162151 64.3396 0.431618 63.942 0.827899C63.5444 1.22418 63.2733 1.72947 63.1629 2.27986C63.0526 2.83025 63.1079 3.401 63.322 3.91993C63.536 4.43886 63.8992 4.88265 64.3655 5.19517C64.8318 5.50768 65.3803 5.67488 65.9417 5.67561C66.4328 5.6733 66.9147 5.5422 67.3392 5.29539L76.1727 12.1692C75.3792 13.368 74.9652 14.778 74.9847 16.2156C75.0042 17.6531 75.4563 19.0514 76.2821 20.2282L73.5955 22.9158C73.3783 22.8463 73.152 22.8094 72.924 22.8063C72.4632 22.8067 72.0129 22.9436 71.6299 23.1999C71.247 23.4561 70.9485 23.8201 70.7724 24.2459C70.5962 24.6716 70.5502 25.1401 70.6402 25.592C70.7302 26.0439 70.9521 26.459 71.2779 26.7848C71.6038 27.1106 72.0189 27.3325 72.4708 27.4225C72.9227 27.5125 73.3911 27.4665 73.8169 27.2903C74.2427 27.1142 74.6067 26.8158 74.8629 26.4328C75.1191 26.0498 75.2561 25.5995 75.2564 25.1387C75.2534 24.9107 75.2166 24.6844 75.147 24.4673L77.8049 21.8085C78.6716 22.4757 79.6796 22.9357 80.7516 23.1533C81.8236 23.3708 82.9311 23.3401 83.9894 23.0635C85.0477 22.7869 86.0286 22.2717 86.857 21.5574C87.6854 20.8431 88.3393 19.9487 88.7687 18.9427C89.198 17.9367 89.3914 16.8457 89.334 15.7534C89.2766 14.6611 88.9699 13.5964 88.4374 12.6409C87.905 11.6854 87.1609 10.8645 86.2622 10.241C85.3634 9.61753 84.3339 9.20803 83.2525 9.04389M82.1507 19.8016C81.6595 19.8151 81.1705 19.73 80.7128 19.5514C80.255 19.3727 79.8377 19.1042 79.4855 18.7615C79.1332 18.4188 78.8533 18.0091 78.6621 17.5564C78.4709 17.1037 78.3724 16.6173 78.3724 16.1259C78.3724 15.6345 78.4709 15.1481 78.6621 14.6954C78.8533 14.2427 79.1332 13.8329 79.4855 13.4903C79.8377 13.1476 80.255 12.879 80.7128 12.7004C81.1705 12.5217 81.6595 12.4367 82.1507 12.4502C83.1027 12.4835 84.0047 12.885 84.6666 13.5702C85.3285 14.2553 85.6987 15.1705 85.6991 16.1232C85.6996 17.0758 85.3304 17.9914 84.6692 18.6772C84.008 19.363 83.1064 19.7654 82.1544 19.7997" fill="var(--fill-0, white)"/>
</g>
</svg>
