<svg width="96.7723" height="26" overflow="visible" style="display: block;" viewBox="0 0 96.7723 26" fill="none" xmlns="http://www.w3.org/2000/svg">
<g id="Logo 1">
<path id="Logo" d="M64.3872 0H60.3122V22.7906C64.0156 22.918 67.7034 23.1048 71.3763 23.3497V19.3345C69.0529 19.1795 66.7235 19.0481 64.3872 18.9394V0ZM96.7723 0.00230548H92.2959L89.3452 6.84152L86.6943 0.00230548H82.285L87.0232 12.223L81.851 24.212C83.2819 24.3515 84.7087 24.5005 86.1342 24.6578L89.1425 17.687L92.1216 25.3713C93.6732 25.5708 95.2207 25.779 96.7656 25.9995L96.7723 25.9968L91.4638 12.3056L96.7723 0.00230548ZM46.3238 22.5914L50.399 22.5905V13.3199H55.9232V9.30469H50.399V4.05391H57.7V0.00250933H46.3238V22.5914ZM31.1062 4.05364H35.3713V22.8302C36.7273 22.7789 38.0861 22.7367 39.4463 22.7011V4.05364H43.7112V0.00230548H31.1062V4.05364ZM17.1742 23.9972C20.9302 23.6558 24.7034 23.3745 28.4938 23.1562V19.1405C26.0721 19.2805 23.6572 19.4462 21.2493 19.6356V13.5566C22.8292 13.5408 24.9096 13.4926 26.7526 13.5155V9.49993C25.2802 9.49634 22.9137 9.52048 21.2493 9.54177V4.05391H28.4938V0.00250933H17.1742V23.9972ZM9.18047 14.7144L3.87292 0.00230548H0V26C1.35576 25.807 2.7141 25.6222 4.07508 25.4449V11.3075L8.7944 24.8644C10.2787 24.6923 11.7657 24.5293 13.2556 24.376V0.00230548H9.18047V14.7144ZM74.7358 23.5915C76.0962 23.6956 77.4545 23.8073 78.8115 23.928V0.00230548H74.7358V23.5915Z" fill="var(--fill-0, white)"/>
</g>
</svg>
