<svg width="69.6952" height="29" overflow="visible" style="display: block;" viewBox="0 0 69.6952 29" fill="none" xmlns="http://www.w3.org/2000/svg">
<g id="Logo 3">
<path id="Logo" fill-rule="evenodd" clip-rule="evenodd" d="M69.6952 14.984C69.6952 10.028 67.2946 6.11749 62.7063 6.11749C58.0987 6.11749 55.3109 10.028 55.3109 14.9453C55.3109 20.7724 58.602 23.715 63.3258 23.715C65.6296 23.715 67.372 23.1923 68.6885 22.4566V18.5848C67.372 19.243 65.8619 19.6495 63.9453 19.6495C62.0674 19.6495 60.4025 18.9913 60.1895 16.7069H69.6564C69.6564 16.4553 69.6952 15.4486 69.6952 14.984ZM60.1314 13.1449C60.1314 10.9573 61.4673 10.0474 62.6869 10.0474C63.8679 10.0474 65.1263 10.9573 65.1263 13.1449H60.1314ZM47.838 6.11749C45.9407 6.11749 44.7211 7.00801 44.0435 7.6275L43.7918 6.42724H39.5327V29L44.3726 27.974L44.3919 22.4953C45.0889 22.9987 46.115 23.715 47.8186 23.715C51.284 23.715 54.4397 20.9272 54.4397 14.7904C54.4203 9.17623 51.2259 6.11749 47.838 6.11749ZM46.6764 19.4559C45.5342 19.4559 44.8566 19.0494 44.3919 18.5461L44.3726 11.3638C44.8759 10.8024 45.5729 10.4152 46.6764 10.4152C48.4381 10.4152 49.6578 12.3899 49.6578 14.9259C49.6578 17.52 48.4575 19.4559 46.6764 19.4559ZM32.8729 4.9753L37.7322 3.92991V0L32.8729 1.02603V4.9753ZM32.8729 6.4466H37.7322V23.3858H32.8729V6.4466ZM27.6651 7.87917L27.3554 6.4466H23.1736V23.3858H28.0136V11.9059C29.1558 10.4152 31.0918 10.6862 31.6919 10.8992V6.4466C31.0724 6.21429 28.8073 5.78838 27.6651 7.87917ZM17.9852 2.24566L13.2614 3.25234L13.2421 18.759C13.2421 21.6242 15.391 23.7343 18.2563 23.7343C19.8438 23.7343 21.0053 23.4439 21.6442 23.0955V19.1656C21.0247 19.4172 17.9659 20.3077 17.9659 17.4426V10.5701H21.6442V6.4466H17.9659L17.9852 2.24566ZM4.89802 11.3638C4.89802 10.6088 5.51753 10.3184 6.5436 10.3184C8.01494 10.3184 9.87348 10.7637 11.3448 11.5574V7.00801C9.73796 6.36916 8.15046 6.11749 6.5436 6.11749C2.61357 6.11749 0 8.16956 0 11.5961C0 16.9393 7.35671 16.0874 7.35671 18.3912C7.35671 19.2817 6.58232 19.5721 5.49817 19.5721C3.89131 19.5721 1.83918 18.9139 0.212957 18.0234V22.6308C2.01342 23.4052 3.83323 23.7343 5.49817 23.7343C9.52501 23.7343 12.2935 21.7403 12.2935 18.275C12.2741 12.506 4.89802 13.532 4.89802 11.3638Z" fill="var(--fill-0, white)"/>
</g>
</svg>
