<svg width="556" height="474" overflow="visible" style="display: block;" viewBox="0 0 556 474" fill="none" xmlns="http://www.w3.org/2000/svg">
<path id="Vector" d="M24 0.5H532C544.974 0.5 555.5 11.0163 555.5 24V318C555.5 324.492 552.867 330.366 548.607 334.605L548.605 334.607C544.366 338.867 538.492 341.5 532 341.5H492C478.464 341.5 467.5 352.464 467.5 366V450C467.5 456.492 464.867 462.366 460.607 466.605L460.605 466.607C456.366 470.867 450.492 473.5 444 473.5H24C11.0163 473.5 0.5 462.974 0.5 450V24C0.5 11.0161 11.0161 0.5 24 0.5Z" fill="var(--fill-0, white)" stroke="var(--stroke-0, #D4DEE7)"/>
</svg>
