<svg width="440" height="16" overflow="visible" style="display: block;" viewBox="0 0 440 16" fill="none" xmlns="http://www.w3.org/2000/svg">
<path id="Vector" d="M400.275 0C410.969 0.196159 421.663 0.383402 432.352 0.599623C434.304 0.639746 436.308 0.717764 438.147 0.949589C438.982 1.05436 440.106 1.61385 439.992 1.89918C439.81 2.36283 438.959 2.99811 437.966 3.15638C436.206 3.43947 434.134 3.47291 432.181 3.51972C413.342 3.9856 394.497 4.40244 375.663 4.89283C338.835 5.85134 302.019 6.85665 265.197 7.83076C232.587 8.69342 199.948 9.3822 167.378 10.4254C119.09 11.9724 70.8529 13.7623 22.5876 15.4498C17.5357 15.6259 12.4952 15.8777 7.43195 15.9647C4.46326 16.0159 0.546632 16.2188 0.0414441 14.5537C-0.435362 12.9799 3.29962 12.5542 6.2229 12.3201C16.7013 11.482 27.1797 10.5057 37.7886 10.0799C77.0173 8.49949 116.274 6.99709 155.566 5.6953C194.584 4.40244 233.671 3.41941 272.718 2.24023C313.19 1.01869 353.696 0.185014 394.309 0.416838C396.279 0.427984 398.254 0.399006 400.224 0.390089C400.241 0.260803 400.252 0.129287 400.269 0L400.275 0Z" fill="var(--fill-0, #28C45D)"/>
</svg>
